<svg width="300" height="215" viewBox="0 0 300 215" fill="none" xmlns="http://www.w3.org/2000/svg">
<g clip-path="url(#clip0_18_133)">
<path d="M242.786 136.809C243.054 136.834 243.323 136.776 243.557 136.642C243.792 136.509 243.979 136.307 244.094 136.064C244.21 135.82 244.247 135.547 244.202 135.282C244.157 135.016 244.032 134.771 243.843 134.579C243.816 134.446 243.796 134.35 243.77 134.217C243.783 134.189 243.796 134.161 243.809 134.133C244.11 133.506 244.589 132.982 245.186 132.627C245.784 132.271 246.473 132.1 247.167 132.135C247.862 132.17 248.53 132.409 249.089 132.823C249.648 133.237 250.072 133.806 250.308 134.46C251.252 137.07 252.486 139.698 252.693 142.42C252.784 143.624 252.666 144.834 252.343 145.997C255.094 140.667 256.666 134.807 256.953 128.816C257.024 127.312 257.01 125.806 256.913 124.304C256.831 123.073 256.696 121.847 256.507 120.628C255.474 114.014 252.886 107.74 248.957 102.32C246.989 101.124 245.435 99.3532 244.504 97.2467C244.166 96.4894 243.94 95.6872 243.833 94.865C244.059 94.9055 244.29 94.935 244.517 94.9605C244.588 94.9675 244.662 94.9748 244.733 94.9818L244.76 94.9843C245.009 95.0071 245.261 94.9573 245.483 94.8408C245.705 94.7243 245.889 94.546 246.012 94.3275C246.135 94.1089 246.193 93.8594 246.177 93.609C246.162 93.3586 246.075 93.1179 245.926 92.916C245.833 92.7903 245.74 92.6648 245.647 92.5392C245.507 92.3455 245.362 92.1554 245.222 91.9618C245.205 91.9432 245.19 91.9238 245.176 91.9035C245.014 91.6826 244.852 91.4654 244.69 91.2446C245.026 90.7725 245.467 90.3844 245.978 90.1106C247.746 89.1824 250.089 89.9914 251.26 91.6066C252.435 93.222 252.568 95.4177 252.045 97.3433C251.542 98.979 250.764 100.517 249.744 101.892C249.832 102.016 249.924 102.136 250.012 102.26C251.616 104.534 252.994 106.96 254.125 109.503C253.952 106.705 254.445 103.906 255.564 101.336C256.688 98.9444 258.679 96.9789 260.445 94.9485C262.567 92.5097 266.625 93.8061 266.829 97.0324C266.831 97.0636 266.833 97.0948 266.835 97.126C266.58 97.2543 266.331 97.3914 266.086 97.5373C265.779 97.7227 265.534 97.9966 265.385 98.3231C265.236 98.6497 265.189 99.0137 265.25 99.3674C265.312 99.7211 265.478 100.048 265.729 100.305C265.979 100.563 266.301 100.739 266.653 100.81L266.689 100.817C266.559 101.706 266.362 102.584 266.099 103.443C265.341 105.841 264.096 108.056 262.443 109.949C260.789 111.843 258.762 113.375 256.488 114.448C256.339 114.516 256.194 114.584 256.045 114.649C257.132 118.257 257.746 121.992 257.87 125.759C257.937 127.982 257.823 130.206 257.531 132.409L257.546 132.331C258.138 129.893 259.554 127.734 261.554 126.219C264.523 124.003 268.604 123.326 271.776 121.582C272.114 121.386 272.501 121.292 272.89 121.309C273.28 121.326 273.657 121.455 273.976 121.679C274.295 121.903 274.543 122.214 274.692 122.574C274.84 122.935 274.882 123.331 274.813 123.715C274.807 123.742 274.802 123.769 274.796 123.797C274.328 123.962 273.87 124.157 273.426 124.38C273.171 124.509 272.922 124.646 272.677 124.792C272.37 124.977 272.125 125.251 271.976 125.577C271.827 125.904 271.78 126.268 271.841 126.622C271.903 126.975 272.069 127.302 272.319 127.56C272.57 127.817 272.892 127.993 273.244 128.064L273.28 128.071C273.306 128.076 273.328 128.081 273.354 128.086C272.481 129.926 271.298 131.601 269.856 133.039C268.077 134.779 265.961 136.136 263.639 137.029C261.317 137.922 258.836 138.33 256.35 138.23L256.347 138.23C255.535 141.131 254.425 143.939 253.033 146.609L242.614 146.124C242.582 146.007 242.554 145.886 242.526 145.768C243.487 145.874 244.458 145.861 245.417 145.731C244.688 144.746 243.959 143.754 243.23 142.77C243.214 142.751 243.199 142.732 243.185 142.711C242.815 142.208 242.442 141.707 242.072 141.204L242.072 141.203C242.12 139.714 242.36 138.237 242.786 136.809L242.786 136.809Z" fill="#F2F2F2"/>
<path d="M32.8442 46.7094C32.5781 46.7507 32.3057 46.7093 32.0639 46.5907C31.8221 46.4721 31.6226 46.282 31.4924 46.0462C31.3622 45.8104 31.3077 45.5403 31.3362 45.2724C31.3647 45.0046 31.4748 44.752 31.6516 44.5489C31.6703 44.4144 31.6837 44.3179 31.7024 44.1834C31.6875 44.1562 31.6726 44.129 31.6576 44.1019C31.3189 43.4947 30.8083 43.0012 30.1901 42.6833C29.5718 42.3653 28.8733 42.2372 28.1825 42.3149C27.4916 42.3927 26.8391 42.6728 26.3069 43.1202C25.7748 43.5676 25.3867 44.1623 25.1914 44.8295C24.4106 47.4928 23.3412 50.1918 23.3026 52.9221C23.286 54.129 23.4789 55.3295 23.8728 56.4704C20.7982 51.32 18.867 45.5688 18.2101 39.6066C18.0468 38.1103 17.9673 36.6061 17.972 35.1009C17.9769 33.8668 18.036 32.6357 18.1494 31.4074C18.772 24.742 20.9669 18.3194 24.5537 12.667C26.4443 11.3518 27.8862 9.48867 28.6852 7.32871C28.9753 6.55197 29.1514 5.73732 29.2081 4.91012C28.9847 4.96451 28.7562 5.00815 28.5311 5.04767C28.4609 5.05905 28.387 5.07086 28.3168 5.08227L28.2903 5.08637C28.0423 5.12465 27.7886 5.09045 27.5596 4.98787C27.3306 4.8853 27.1362 4.71874 26.9997 4.50823C26.8632 4.29772 26.7905 4.05224 26.7902 3.80134C26.79 3.55045 26.8623 3.30484 26.9984 3.09408C27.0832 2.96296 27.168 2.8319 27.253 2.70089C27.3814 2.49887 27.514 2.30017 27.6425 2.09819C27.6577 2.07866 27.6718 2.05828 27.6847 2.03715C27.8327 1.80669 27.981 1.57997 28.1289 1.34952C27.7641 0.899083 27.3002 0.538994 26.7734 0.297324C24.9509 -0.519818 22.6626 0.432309 21.5935 2.1168C20.5207 3.80167 20.5231 6.00146 21.1648 7.89096C21.768 9.49255 22.6394 10.9798 23.7417 12.289C23.6617 12.418 23.5776 12.5437 23.4976 12.6728C22.0366 15.0417 20.8113 17.548 19.8392 20.1559C19.8397 17.3527 19.1747 14.5894 17.8988 12.0934C16.6289 9.776 14.521 7.9372 12.6323 6.01982C10.3637 3.71674 6.39346 5.26139 6.38954 8.49412C6.3895 8.52542 6.38955 8.5567 6.38967 8.58796C6.65144 8.70028 6.90893 8.82171 7.16214 8.95224C7.48045 9.11823 7.74121 9.3765 7.91023 9.69322C8.07925 10.0099 8.14866 10.3703 8.10936 10.7272C8.07006 11.084 7.9239 11.4206 7.69 11.693C7.45611 11.9653 7.1454 12.1607 6.79859 12.2534L6.76308 12.2629C6.94763 13.1423 7.19875 14.0063 7.51428 14.8476C8.41862 17.1935 9.79786 19.3274 11.5655 21.1154C13.3332 22.9034 15.4512 24.3069 17.7867 25.2379C17.9397 25.2965 18.0891 25.3555 18.2417 25.4103C17.3792 29.0795 16.9974 32.8452 17.106 36.6129C17.1771 38.8349 17.4279 41.0475 17.8557 43.2291L17.8361 43.1523C17.094 40.7553 15.5474 38.688 13.4575 37.2993C10.3573 35.271 6.24295 34.8474 2.9683 33.3022C2.61922 33.1282 2.22766 33.0577 1.8398 33.0989C1.45194 33.1401 1.08396 33.2914 0.779264 33.5349C0.474566 33.7784 0.245857 34.104 0.120113 34.4732C-0.00563062 34.8424 -0.023166 35.2399 0.0695773 35.6188C0.0766664 35.6457 0.0838298 35.6726 0.0910619 35.6995C0.56902 35.8361 1.038 36.0024 1.49528 36.1973C1.75705 36.3096 2.01454 36.4311 2.26775 36.5616C2.58606 36.7276 2.84682 36.9858 3.01584 37.3026C3.18486 37.6193 3.25427 37.9797 3.21497 38.3365C3.17567 38.6934 3.0295 39.03 2.79561 39.3023C2.56172 39.5747 2.25101 39.77 1.9042 39.8628L1.86866 39.8723C1.84305 39.8788 1.82115 39.885 1.79558 39.8915C2.78069 41.6737 4.06522 43.273 5.59289 44.6193C7.47604 46.2454 9.67148 47.4697 12.0446 48.2172C14.4177 48.9646 16.9185 49.2195 19.3936 48.9661L19.3973 48.9657C20.3861 51.8103 21.6678 54.5445 23.2218 57.1241L33.5914 55.9962C33.6161 55.8769 33.6366 55.7543 33.6575 55.6355C32.7042 55.8002 31.7344 55.8476 30.7696 55.7767C31.4363 54.7489 32.1021 53.7137 32.7688 52.686C32.7841 52.6665 32.7982 52.6461 32.8111 52.625C33.1488 52.0994 33.4906 51.5771 33.8283 51.0515L33.8284 51.0509C33.6881 49.5675 33.3575 48.1084 32.8446 46.7096L32.8442 46.7094Z" fill="#F2F2F2"/>
<path d="M176.109 42.8665C176.623 43.0077 177.099 43.2598 177.504 43.6049C177.909 43.95 178.234 44.3798 178.455 44.8639C178.676 45.3481 178.789 45.8749 178.785 46.4072C178.78 46.9396 178.659 47.4644 178.43 47.9449L183.995 54.1316L181.06 58.4301L173.324 49.583C172.542 49.1445 171.949 48.4346 171.656 47.5876C171.362 46.7407 171.39 45.8156 171.733 44.9877C172.077 44.1598 172.712 43.4866 173.518 43.0957C174.325 42.7047 175.247 42.6232 176.109 42.8665Z" fill="#A0616A"/>
<path d="M228.204 58.0579C227.703 57.2414 227.045 56.532 226.268 55.9703C225.492 55.4086 224.612 55.0057 223.68 54.7847C222.747 54.5638 221.78 54.529 220.834 54.6826C219.888 54.8361 218.982 55.1749 218.167 55.6795L199.867 67.0139L180.126 50.2334L175.214 54.8064L197.022 83.1011L225.366 68.3249C224.705 68.6698 229.003 59.3589 228.204 58.0579Z" fill="#F64E4E"/>
<path d="M191.95 95.7454C191.952 104.784 190.173 113.734 186.715 122.085C183.257 130.436 178.188 138.023 171.796 144.414C165.405 150.805 157.818 155.875 149.467 159.333C141.116 162.791 132.166 164.57 123.128 164.568C85.1185 164.568 54.3052 133.754 54.3052 95.7454C54.2987 88.3521 55.4839 81.006 57.8152 73.9899C62.3923 60.2874 71.1611 48.3705 82.8815 39.9243C94.6019 31.478 108.681 26.9299 123.128 26.923C135.587 26.9187 147.814 30.2979 158.503 36.6999C169.191 43.1018 177.941 52.2862 183.818 63.2727C185.275 65.9833 186.546 68.7899 187.622 71.6729C187.771 72.0743 187.916 72.4758 188.058 72.8811V72.8849C188.689 74.6666 189.244 76.4815 189.725 78.3295C191.207 84.016 191.955 89.8689 191.95 95.7454Z" fill="#3F3D56"/>
<path d="M115.598 49.3118C112.505 47.6392 109.071 46.6951 105.558 46.5514C102.045 46.4076 98.5451 47.0681 95.3259 48.4824C92.4915 49.7159 89.5071 51.9287 88.5615 55.9246C92.3857 53.6677 97.336 57.2336 98.32 62.954L98.0903 63.0173C97.5706 66.9795 98.7308 71.2932 100.977 73.7501C101.272 71.1982 102.95 69.4613 104.6 68.3764C106.251 67.2914 108.077 66.5033 109.336 64.6384C110.83 62.4276 111.209 59.1964 111.802 56.2488C112.396 53.3012 113.521 50.1331 115.598 49.3118Z" fill="white"/>
<path d="M94.1916 83.0286C93.1325 84.6191 91.7178 85.6171 90.4485 86.8597C89.1829 88.1061 87.9785 89.7884 87.7262 91.9487C87.5656 93.3328 87.8141 94.7398 87.7796 96.1392C87.7453 97.5386 87.2788 99.1139 86.3268 99.4618C84.8241 100.005 83.6771 97.2136 82.1324 97.0186C80.9051 96.8657 79.8001 98.7965 80.1557 100.471C80.5113 102.146 82.1821 102.888 83.1418 101.794C84.0098 103.251 83.398 105.893 82.0942 106.34C81.9565 107.258 81.8189 108.172 81.6851 109.089C78.3892 106.784 75.059 104.44 72.2564 101.064C69.1395 97.3408 67.2062 92.7713 66.7047 87.9417C66.3415 84.0609 66.8806 79.6218 65.0989 76.6358C63.6727 74.2461 61.2257 73.7184 59.0234 73.8676C58.6219 73.8943 58.2167 73.9402 57.8152 73.9899C59.114 70.089 60.7635 66.3139 62.7436 62.7107C63.1917 62.5183 63.6081 62.2592 63.9786 61.9421C66.028 60.2025 66.938 56.6811 68.6012 54.2455C68.7082 54.0887 68.8191 53.9358 68.9338 53.7867C70.6353 51.5652 72.9141 50.422 75.1164 49.3591C79.9913 46.9924 85.0076 44.5951 90.1541 44.9239L88.6897 45.0653C86.9806 49.8523 85.2702 54.6393 83.5586 59.4263C83.2986 60.1604 83.036 60.8958 82.771 61.6324C81.7998 64.3547 80.798 67.2529 80.9472 70.3002C81.0351 72.1049 81.6621 74.0319 82.8551 74.6513C83.9677 75.2248 85.1835 74.5213 86.2579 73.8255C86.7129 73.5349 87.1641 73.2443 87.6191 72.9499C89.2517 71.8984 91.0602 70.8202 92.7846 71.5237C94.3637 72.1661 95.5298 74.311 95.7516 76.6242C95.9549 78.8729 95.4063 81.1253 94.1916 83.0286Z" fill="white"/>
<path d="M103.902 115.71C99.1334 112.775 94.3652 109.839 89.5969 106.903L89.6779 106.694C86.7132 107.824 85.4823 113.094 85.9723 117.403C86.4622 121.713 88.1236 125.565 88.9628 129.764C90.0945 135.511 89.6674 141.456 87.7258 146.981C93.9958 139.946 99.5446 132.3 104.289 124.158C104.952 123.131 105.457 122.011 105.787 120.835C106.09 119.584 106.044 118.08 105.437 117.076C105.047 116.501 104.519 116.031 103.902 115.71Z" fill="white"/>
<path d="M85.083 62.2984C84.5767 63.4369 84.3819 64.9548 84.8414 66.1327C85.3106 67.3357 86.3026 67.8794 87.2159 68.332L89.8506 69.638C90.7271 70.0724 91.6719 70.5113 92.5654 70.1538C93.6431 69.7227 94.3904 68.0331 94.1971 66.4646C93.9913 64.7955 92.9392 63.6473 91.9662 62.6696C90.6045 61.3014 89.2428 59.9332 87.8811 58.5649L87.1137 59.5049C86.2837 60.3145 85.597 61.2591 85.083 62.2984Z" fill="white"/>
<path d="M177.826 80.1418C179.011 80.4209 180.197 80.7 181.382 80.9792C181.175 84.9824 179.191 88.6873 176.53 90.0293C175.421 90.5875 174.186 90.794 173.269 91.8378C172.439 92.786 172.018 94.2618 171.632 95.6727C170.955 98.1351 170.279 100.597 169.602 103.06C168.875 105.713 167.943 108.661 166.054 109.617C164.433 110.439 162.578 109.433 161.332 107.747C160.085 106.061 159.324 103.794 158.586 101.584C158.632 103.993 157.512 106.356 155.925 107.193C154.335 108.03 152.4 107.273 151.337 105.403C150.573 104.061 150.255 102.291 149.506 100.93C148.756 99.5689 147.185 98.7889 146.367 100.066C145.828 100.915 145.896 102.215 145.629 103.293C145.212 104.968 143.95 106.019 142.7 106.111C141.454 106.203 140.238 105.484 139.194 104.509C137.041 102.49 135.455 99.2859 134.839 95.7263C134.568 94.1395 134.491 92.4114 134.961 90.924C135.432 89.4367 136.567 88.2897 137.695 88.5726C138.437 87.0049 136.972 84.925 135.653 85.1085C134.33 85.292 133.294 86.7105 132.208 87.8002C131.126 88.8899 129.612 89.6813 128.523 88.5993C128.53 89.6049 127.712 90.2702 127.005 90.1861C126.301 90.1058 125.674 89.5399 125.028 89.1384C122.531 87.5823 119.362 88.6146 117.587 91.5587C118.696 86.8405 120.321 81.4265 123.728 80.3177C125.12 79.8627 126.638 80.2374 127.953 79.4497C130.281 78.0542 130.752 72.7816 128.741 70.6061C128.997 72.6631 128.947 75.0642 127.861 76.4713C126.775 77.8783 124.496 76.9606 124.634 74.8807C124.321 76.3145 122.761 76.5325 122.042 75.4313C121.319 74.3301 121.38 72.5293 121.893 71.214C122.405 69.8987 123.277 68.9543 124.122 68.0482C125.938 66.102 127.781 64.1329 129.884 62.9094C131.99 61.6859 134.422 61.273 136.533 62.4889C137.645 63.1312 138.624 64.2018 139.76 64.7676C140.895 65.3373 142.337 65.2647 143.09 63.9341C143.935 62.4506 143.537 60.2483 143.851 58.3939C144.413 55.1172 147.69 53.584 149.506 55.748C148.148 55.4001 146.745 57.006 146.577 58.9522C146.405 60.8983 147.388 62.8636 148.703 63.4524C150.913 64.4312 153.077 61.9688 154.748 59.6901C156.491 57.3042 158.237 54.9197 159.986 52.5364C160.265 52.1306 160.578 51.7494 160.923 51.397C161.47 50.8632 162.2 50.5575 162.965 50.5419C163.73 50.5263 164.472 50.8019 165.041 51.3129C166.807 52.7543 167.637 55.7099 169.086 57.7439C171.189 60.6995 174.335 61.4183 177.264 61.9918C179.447 62.4162 181.632 62.8432 183.818 63.2727C185.275 65.9833 186.546 68.7898 187.622 71.6728C183.921 73.2443 180.506 76.1846 177.826 80.1418Z" fill="white"/>
<path d="M184.884 126.146C183.246 129.472 181.341 132.66 179.187 135.678C177.811 135.089 176.331 136.14 175.043 137.127C173.697 138.159 172.079 139.165 170.699 138.224C169.288 137.261 168.833 134.565 169.281 132.428C169.728 130.294 170.844 128.597 171.927 126.983C173.074 125.27 174.301 123.492 175.895 122.827C177.494 122.162 179.547 123.102 180.013 125.373L181.145 125.335C180.51 124.463 180.843 122.659 181.696 122.341C182.678 121.971 183.531 123.32 184.112 124.513C184.372 125.052 184.636 125.595 184.884 126.146Z" fill="white"/>
<path d="M141.539 109.996C139.107 110.149 137.18 107.154 135.899 104.208C134.619 101.262 133.451 97.8929 131.256 96.3933C130.001 95.5364 128.572 95.4189 127.211 95.0037C125.851 94.5885 124.427 93.7293 123.777 91.9797L122.234 91.3563C120.196 92.5022 118.131 93.669 116.375 95.5338C114.405 97.6259 113.179 100.308 112.884 103.166C112.589 106.255 113.677 109.699 115.711 110.859C117.318 111.776 119.19 111.198 120.817 112.037C122.851 113.086 124.059 116.132 124.516 119.14C124.973 122.148 124.857 125.273 125.184 128.315C125.511 131.357 126.413 134.522 128.278 136.081C130.612 138.032 134.037 136.411 135.084 132.86C135.598 131.118 135.58 129.153 135.964 127.345C136.641 124.16 138.466 121.798 139.914 119.186C141.363 116.574 142.502 113.027 141.539 109.996Z" fill="white"/>
<path d="M117.501 78.7078C117.728 78.9167 117.94 79.1414 118.135 79.3803C118.337 79.7281 118.44 80.1244 118.433 80.5265C118.426 80.9285 118.309 81.3211 118.096 81.6618C118.389 81.6452 118.675 81.5679 118.937 81.4349C119.199 81.3019 119.43 81.1161 119.616 80.8893C120.06 80.3836 120.451 79.8335 120.782 79.2475C121.03 78.843 121.294 78.296 121.125 77.8154C121.01 77.4875 120.738 77.3475 120.548 77.1009C120.246 76.71 120.171 76.089 120.015 75.5525C119.677 74.3935 118.869 73.5413 117.991 73.4195L118.113 73.4428C117.746 73.5684 117.49 74.1507 117.571 74.6746C117.645 75.1517 117.952 75.5479 117.921 76.0345C117.877 76.7342 117.178 77.0626 117.135 77.7624C117.128 78.1135 117.26 78.4531 117.501 78.7078Z" fill="white"/>
<path d="M113.333 66.8167C113.337 66.8157 113.341 66.8155 113.344 66.8146C113.419 66.7464 113.489 66.6725 113.552 66.5935L113.333 66.8167Z" fill="#E6E6E6"/>
<path d="M114.063 70.1012C114.601 69.7554 114.901 68.7988 114.723 67.9983C114.547 67.2026 113.921 66.6677 113.344 66.8146C113.177 66.9843 112.969 67.1086 112.741 67.1759C112.512 67.2432 112.27 67.2513 112.037 67.1994C111.681 67.1076 111.289 66.8711 110.98 67.1398C110.803 67.3405 110.679 67.5823 110.62 67.8432C110.505 68.1947 110.391 68.5462 110.276 68.8976C110.222 69.0234 110.208 69.163 110.236 69.2972C110.257 69.3509 110.293 69.3982 110.338 69.4343C110.384 69.4704 110.438 69.4943 110.495 69.5035C111.182 69.7061 111.869 69.9086 112.556 70.1111C113.057 70.2587 113.597 70.4009 114.063 70.1012Z" fill="white"/>
<path d="M165.925 115.447C165.608 114.927 165.29 114.407 164.973 113.887C164.661 113.285 164.234 112.75 163.717 112.311C163.603 112.216 163.472 112.144 163.33 112.101C163.188 112.057 163.039 112.042 162.892 112.057C162.744 112.072 162.601 112.116 162.471 112.187C162.341 112.258 162.226 112.354 162.134 112.47L162.172 112.767C162.896 113.675 163.662 114.684 163.845 116.032C163.918 116.563 163.893 117.113 163.956 117.646C164.02 118.18 164.2 118.733 164.545 118.964C165.045 119.298 165.632 118.805 165.988 118.204C166.306 117.71 166.448 117.124 166.393 116.539C166.313 116.147 166.154 115.775 165.925 115.447Z" fill="white"/>
<path d="M180.058 95.5911C180.15 94.9889 180.242 94.3866 180.334 93.7843C180.483 93.1228 180.501 92.4386 180.388 91.77C180.363 91.6239 180.308 91.4845 180.228 91.3598C180.148 91.2352 180.043 91.1279 179.921 91.0442C179.798 90.9605 179.66 90.9021 179.515 90.8724C179.37 90.8428 179.22 90.8425 179.075 90.8716L178.913 91.1237C178.882 92.2845 178.818 93.5495 178.091 94.6989C177.804 95.152 177.431 95.5565 177.136 96.0056C176.841 96.4548 176.622 96.9944 176.738 97.3922C176.905 97.9698 177.671 97.9711 178.331 97.7404C178.892 97.5677 179.379 97.211 179.713 96.7278C179.905 96.3766 180.022 95.9897 180.058 95.5911Z" fill="#E6E6E6"/>
<path d="M170.907 116.124C171.062 115.678 170.838 115.166 170.791 114.672C170.768 114.035 170.937 113.406 171.276 112.866C171.612 112.356 171.867 111.797 172.031 111.209C172.1 110.941 172.088 110.659 171.995 110.398C171.89 110.162 171.635 110.054 171.489 110.241L171.802 110.442C171.38 110.367 170.946 110.388 170.533 110.504C170.298 110.594 170.088 110.74 169.92 110.928C169.753 111.117 169.634 111.343 169.572 111.587C169.52 111.969 169.436 112.345 169.32 112.712C169.134 113.095 168.773 113.222 168.546 113.559C168.391 113.857 168.313 114.189 168.319 114.525C168.324 114.86 168.413 115.19 168.578 115.482C168.863 115.962 169.315 116.318 169.848 116.481C170.23 116.618 170.732 116.626 170.907 116.124Z" fill="white"/>
<path d="M179.778 118.8C179.916 119.159 180.101 119.499 180.328 119.809C180.753 120.237 181.33 119.974 181.845 119.87C182.313 119.796 182.791 119.85 183.231 120.027C183.67 120.203 184.053 120.495 184.34 120.871C184.141 119.875 183.705 118.941 183.069 118.147C182.433 117.354 181.616 116.725 180.687 116.314C179.473 115.818 178.194 115.771 176.93 115.726L176.712 115.782C177.268 117.4 179.014 117.364 179.778 118.8Z" fill="white"/>
<path d="M142.205 122.11L142.208 122.118C142.229 122.077 142.25 122.036 142.271 121.995L142.205 122.11Z" fill="#E6E6E6"/>
<path d="M140.859 124.715C140.565 125.248 140.313 125.803 140.104 126.374C139.827 127.299 139.644 128.25 139.557 129.212C139.488 129.759 139.467 130.458 139.81 130.724C139.908 130.789 140.027 130.817 140.144 130.801C140.261 130.785 140.368 130.727 140.446 130.638C140.636 130.436 140.792 130.205 140.907 129.952C141.58 128.793 142.103 127.551 142.463 126.259C142.791 124.898 142.788 123.296 142.208 122.118C141.758 122.984 141.309 123.849 140.859 124.715Z" fill="white"/>
<path d="M127.876 55.3135C128.09 55.5224 128.36 55.6643 128.653 55.7215C128.947 55.7788 129.25 55.749 129.527 55.6357C130.1 55.3853 130.625 55.0381 131.081 54.6095C131.458 54.3305 131.777 53.9817 132.023 53.582C132.158 53.3431 132.244 53.0799 132.277 52.8075C132.31 52.5351 132.289 52.2588 132.215 51.9946C132.002 51.3723 131.463 51.1637 130.986 51.0224C130.224 50.7963 129.461 50.5702 128.699 50.3441L129.25 49.8469C128.683 49.5424 128.055 50.1076 127.7 50.8075C127.473 51.2644 127.314 51.7525 127.23 52.2559C127.04 53.3544 127.225 54.6624 127.876 55.3135Z" fill="#E6E6E6"/>
<path d="M141.338 50.794C141.553 51.031 141.85 51.1772 142.169 51.2032C142.488 51.2291 142.804 51.1328 143.055 50.9337C143.27 50.7718 143.449 50.5664 143.58 50.3307C143.711 50.0951 143.791 49.8345 143.814 49.566C143.868 48.9662 143.572 48.2996 143.148 48.2478L143.245 47.6862C142.429 47.5389 141.425 47.5093 140.988 48.5002C140.84 48.8798 140.795 49.2914 140.856 49.6939C140.918 50.0964 141.084 50.4758 141.338 50.794Z" fill="#E6E6E6"/>
<path d="M139.54 20.9309C134.756 20.3913 129.954 21.774 126.19 24.7749C122.427 27.7758 120.009 32.1489 119.469 36.9324C118.346 46.8934 123.593 68.5239 133.161 77.4781C137.666 60.3227 153.452 50.147 155.541 41.0013C157.773 31.2288 149.501 22.0545 139.54 20.9309Z" fill="#2FC1B0"/>
<path d="M136.231 43.0752C139.501 43.0752 142.151 40.425 142.151 37.1558C142.151 33.8866 139.501 31.2364 136.231 31.2364C132.962 31.2364 130.312 33.8866 130.312 37.1558C130.312 40.425 132.962 43.0752 136.231 43.0752Z" fill="white"/>
<path d="M130.007 86.0131C132.149 86.0131 133.884 84.2772 133.884 82.136C133.884 79.9947 132.149 78.2589 130.007 78.2589C127.866 78.2589 126.13 79.9947 126.13 82.136C126.13 84.2772 127.866 86.0131 130.007 86.0131Z" fill="#2FC1B0"/>
<path opacity="0.2" d="M141.129 32.9148C141.795 33.3152 142.376 33.8429 142.839 34.4677C143.301 35.0926 143.636 35.8024 143.824 36.5567C144.012 37.3109 144.05 38.0948 143.935 38.8636C143.82 39.6324 143.554 40.3711 143.154 41.0374C142.754 41.7037 142.226 42.2846 141.601 42.7469C140.976 43.2093 140.266 43.5441 139.512 43.7321C137.989 44.1119 136.377 43.8709 135.032 43.0623C136.404 43.3675 137.839 43.1745 139.082 42.5178C140.325 41.8611 141.293 40.7835 141.814 39.478C142.335 38.1725 142.374 36.7243 141.925 35.3926C141.475 34.0608 140.566 32.9325 139.361 32.2095C139.985 32.3477 140.582 32.5858 141.129 32.9148Z" fill="#231F20"/>
<path opacity="0.2" d="M155.564 41.0204C153.476 50.1662 137.689 60.3418 133.184 77.4972C132.284 76.647 131.449 75.7314 130.684 74.758C135.746 58.6324 150.55 48.8339 152.568 39.9975C154.375 32.0887 149.301 24.5725 142.02 21.3975C150.833 23.6129 157.61 32.0649 155.564 41.0204Z" fill="#231F20"/>
<path d="M84.0686 44.0276C80.4764 43.6224 76.8704 44.6608 74.0438 46.9143C71.2172 49.1679 69.4016 52.452 68.9964 56.0442C68.1526 63.5245 72.0935 79.7683 79.2785 86.4926C82.6616 73.6095 94.5166 65.9679 96.0852 59.0998C97.7613 51.761 91.549 44.8714 84.0686 44.0276Z" fill="#EDE538"/>
<path d="M81.5842 60.6572C84.0393 60.6572 86.0295 58.667 86.0295 56.212C86.0295 53.7569 84.0393 51.7667 81.5842 51.7667C79.1291 51.7667 77.1389 53.7569 77.1389 56.212C77.1389 58.667 79.1291 60.6572 81.5842 60.6572Z" fill="white"/>
<path d="M76.9102 92.9021C78.5182 92.9021 79.8218 91.5986 79.8218 89.9905C79.8218 88.3825 78.5182 87.079 76.9102 87.079C75.3022 87.079 73.9986 88.3825 73.9986 89.9905C73.9986 91.5986 75.3022 92.9021 76.9102 92.9021Z" fill="#EDE538"/>
<path opacity="0.2" d="M85.2623 53.0271C85.7626 53.3278 86.1989 53.7241 86.5461 54.1933C86.8933 54.6626 87.1447 55.1956 87.2859 55.7621C87.4271 56.3285 87.4554 56.9172 87.3691 57.4945C87.2828 58.0718 87.0836 58.6265 86.7829 59.1269C86.4823 59.6272 86.086 60.0635 85.6167 60.4107C85.1475 60.7579 84.6144 61.0093 84.048 61.1505C83.4816 61.2917 82.8929 61.32 82.3156 61.2337C81.7382 61.1474 81.1835 60.9482 80.6832 60.6476C81.7135 60.8768 82.7918 60.7318 83.725 60.2386C84.6582 59.7455 85.3854 58.9362 85.7765 57.9559C86.1676 56.9755 86.1971 55.8879 85.8596 54.8878C85.5221 53.8877 84.8397 53.0404 83.9345 52.4974C84.4028 52.6012 84.8512 52.7801 85.2623 53.0271Z" fill="#231F20"/>
<path opacity="0.2" d="M96.1026 59.1142C94.534 65.9823 82.679 73.6239 79.296 86.507C78.6202 85.8685 77.9926 85.181 77.4183 84.4499C81.2199 72.3401 92.337 64.9818 93.8526 58.346C95.2091 52.4068 91.3987 46.7624 85.9313 44.378C92.5496 46.0417 97.6386 52.3888 96.1026 59.1142Z" fill="#231F20"/>
<path d="M223.241 205.06H218.36L216.038 186.234L223.242 186.235L223.241 205.06Z" fill="#A0616A"/>
<path d="M225.867 214.328H222.403L221.785 211.058L220.202 214.328H211.016C210.576 214.328 210.147 214.187 209.793 213.926C209.438 213.665 209.176 213.298 209.045 212.877C208.914 212.457 208.921 212.006 209.064 211.59C209.208 211.173 209.481 210.814 209.843 210.564L217.178 205.498V202.192L224.894 202.653L225.867 214.328Z" fill="#2F2E41"/>
<path d="M204.336 205.06H199.456L197.134 186.234L204.338 186.235L204.336 205.06Z" fill="#A0616A"/>
<path d="M206.962 214.328H203.499L202.881 211.058L201.297 214.328H192.112C191.672 214.328 191.243 214.187 190.888 213.926C190.534 213.665 190.272 213.298 190.141 212.877C190.01 212.457 190.016 212.006 190.16 211.59C190.303 211.173 190.576 210.814 190.939 210.564L198.274 205.498V202.192L205.989 202.653L206.962 214.328Z" fill="#2F2E41"/>
<path d="M185.794 155.356C186.728 156.757 196.889 195.271 196.889 195.271L205.899 196.298L204.829 186.608L203.195 169.459L200.664 158.013C200.664 158.013 209.602 137.67 210.167 136.05L210.569 134.887L213.362 160.231C213.693 161.136 213.838 162.099 213.787 163.061C213.702 164.645 215.29 188.462 215.29 188.462L216.054 197.003L223.773 198.076L226.905 183.297C229.52 178.496 228.021 161.436 226.952 159.848C225.882 158.26 226.307 147.202 226.307 147.202C227.673 146.721 235.816 118.952 231.743 119.116C232.005 117.635 232.21 116.314 232.21 116.314L225.139 110.612L207.445 106.012L202.98 103.868C202.98 103.868 195.007 118.612 195.086 119.345C195.196 120.273 194.984 121.212 194.484 122.002L186.434 148.944C186.434 148.944 184.851 153.941 185.794 155.356Z" fill="#2F2E41"/>
<path d="M230.249 58.9483L227.434 52.9715L217.853 53.3397L214.728 59.5576C214.728 59.5576 205.797 70.2251 205.508 73.6937C205.144 78.0563 208.166 99.4373 205.144 98.0514C205.144 98.0514 198.021 106.413 202.236 106.413C206.451 106.413 225.518 118.382 226.77 119.728C228.021 121.074 233.606 121.947 233.138 119.137C232.669 116.327 230.249 101.129 230.249 101.129L236.8 77.2322C238.685 72.0728 239.272 66.2856 235.01 62.8199L230.249 58.9483Z" fill="#F64E4E"/>
<path d="M194.76 41.3571C193.479 40.8484 192.11 40.597 190.731 40.6175C189.352 40.6379 187.991 40.9297 186.725 41.4762C185.459 42.0227 184.314 42.8131 183.353 43.8024C182.393 44.7917 181.637 45.9605 181.128 47.2421C178.989 52.6316 178.634 65.5023 182.615 71.953C187.734 63.0609 198.091 59.7775 200.645 54.9895C203.375 49.8734 200.15 43.4965 194.76 41.3571Z" fill="#3A5CCC"/>
<path d="M190.451 53.3357C192.342 53.3357 193.875 51.8026 193.875 49.9115C193.875 48.0203 192.342 46.4872 190.451 46.4872C188.559 46.4872 187.026 48.0203 187.026 49.9115C187.026 51.8026 188.559 53.3357 190.451 53.3357Z" fill="white"/>
<path d="M180.148 76.317C181.386 76.317 182.39 75.3129 182.39 74.0742C182.39 72.8356 181.386 71.8314 180.148 71.8314C178.909 71.8314 177.905 72.8356 177.905 74.0742C177.905 75.3129 178.909 76.317 180.148 76.317Z" fill="#3A5CCC"/>
<path opacity="0.2" d="M193.828 48.2877C194.456 48.9436 194.797 49.8216 194.777 50.7289C194.757 51.6363 194.378 52.4987 193.723 53.1266C193.068 53.7546 192.19 54.0968 191.283 54.078C190.375 54.0591 189.513 53.6809 188.884 53.0263C189.604 53.405 190.434 53.5152 191.228 53.3373C192.021 53.1593 192.725 52.7049 193.214 52.0552C193.703 51.4056 193.945 50.6032 193.896 49.7916C193.847 48.9799 193.511 48.2122 192.948 47.6256C193.275 47.7974 193.573 48.021 193.828 48.2877Z" fill="#231F20"/>
<path opacity="0.2" d="M200.655 55.0037C198.101 59.7917 187.744 63.0751 182.625 71.9672C182.252 71.356 181.925 70.7181 181.646 70.0586C186.919 61.8259 196.67 58.6038 199.138 53.9778C201.347 49.8374 199.656 44.8716 196.074 41.994C200.657 44.5686 203.157 50.3152 200.655 55.0037Z" fill="#231F20"/>
<path d="M179.137 73.302C179.658 73.1945 180.197 73.2027 180.715 73.3259C181.233 73.4491 181.717 73.6843 182.134 74.015C182.552 74.3458 182.891 74.7639 183.129 75.2401C183.367 75.7162 183.498 76.2388 183.512 76.7709L191.28 79.7528L190.62 84.9156L179.708 80.5505C178.813 80.5152 177.961 80.1525 177.315 79.5314C176.669 78.9102 176.274 78.0735 176.203 77.1801C176.133 76.2866 176.392 75.3983 176.933 74.6835C177.474 73.9688 178.258 73.4772 179.137 73.302Z" fill="#A0616A"/>
<path d="M233.417 62.6628C232.599 62.1635 231.69 61.8305 230.743 61.6831C229.797 61.5356 228.83 61.5765 227.899 61.8035C226.968 62.0304 226.091 62.4389 225.318 63.0056C224.545 63.5722 223.892 64.2859 223.395 65.1056L212.245 83.5189L187.034 77.543L184.737 83.8486L217.022 99.1415L233.374 73.098C235.822 69.6577 237.021 64.863 233.417 62.6628Z" fill="#F64E4E"/>
<path d="M233.833 40.0967C233.834 41.8714 233.399 43.6192 232.566 45.1865C231.734 46.7539 230.529 48.0929 229.058 49.086C227.588 50.0792 225.896 50.6961 224.131 50.8827C222.366 51.0692 220.582 50.8197 218.936 50.156C217.29 49.4922 215.832 48.4346 214.691 47.0759C213.549 45.7173 212.758 44.0991 212.388 42.3635C212.017 40.6278 212.079 38.8278 212.566 37.1214C213.054 35.415 213.953 33.8544 215.185 32.5766L215.237 32.5247C215.324 32.4335 215.41 32.3425 215.501 32.2557C215.502 32.2557 215.503 32.2556 215.503 32.2554C215.504 32.2552 215.504 32.2549 215.505 32.2545C215.505 32.2541 215.505 32.2536 215.505 32.2531C215.506 32.2525 215.506 32.252 215.506 32.2514C215.618 32.1473 215.731 32.0432 215.848 31.9435C217.415 30.57 219.344 29.6771 221.405 29.3717C223.466 29.0664 225.572 29.3615 227.469 30.2218C229.367 31.082 230.976 32.471 232.105 34.2223C233.234 35.9737 233.834 38.0132 233.833 40.0967Z" fill="#2F2E41"/>
<path d="M220.32 51.6967C225.341 51.6967 229.411 47.6263 229.411 42.6052C229.411 37.5841 225.341 33.5137 220.32 33.5137C215.299 33.5137 211.228 37.5841 211.228 42.6052C211.228 47.6263 215.299 51.6967 220.32 51.6967Z" fill="#9E616A"/>
<path d="M229.974 45.198L228.468 44.9319C227.626 44.7789 226.851 44.3726 226.247 43.7672C225.642 43.1619 225.237 42.3865 225.085 41.5446L223.615 44.0079L223.551 44.0292C220.049 45.1919 216.406 44.8442 212.414 42.9675C211.273 42.4262 210.166 41.8159 209.099 41.1398L209.021 41.0907L209.014 40.9982C208.811 38.0406 209.474 35.5698 210.883 34.0409C211.424 33.4657 212.081 33.0112 212.81 32.7074C213.539 32.4036 214.324 32.2572 215.113 32.2778C215.169 32.2632 215.221 32.2347 215.263 32.1949C215.283 32.18 215.304 32.1653 215.324 32.1513V32.136L215.428 32.0868C215.653 31.9814 215.881 31.8804 216.11 31.7881C217.909 31.0917 219.868 30.917 221.762 31.2841C223.655 31.6511 225.407 32.5451 226.816 33.8632C229.616 36.5367 230.901 41.0234 230.012 45.0281L229.974 45.198Z" fill="#2F2E41"/>
<path d="M249.15 52.944C246.056 51.3471 250.035 45.5515 249.236 42.1629C248.436 38.7743 242.678 37.6845 242.312 34.2222C241.945 30.76 241.082 27.189 238.797 24.5619C237.337 22.8831 235.186 21.6438 232.972 21.8541C232.222 21.9252 231.497 22.157 230.845 22.5337C230.194 22.9104 229.631 23.4231 229.195 24.037C228.759 24.6508 228.461 25.3513 228.321 26.0908C228.18 26.8303 228.2 27.5914 228.381 28.3223C227.75 27.4288 226.118 27.6225 225.714 28.6388C225.355 29.5423 226.148 30.6367 227.082 30.7167C228.304 32.2254 229.703 33.8265 231.617 34.1309C231.922 34.2009 232.238 34.2007 232.543 34.1304C232.848 34.06 233.133 33.9213 233.376 33.7247C233.827 33.2923 233.862 32.4278 233.328 32.1046C235.733 33.0601 237.143 35.6607 237.5 38.2241C237.857 40.7875 237.363 43.3811 237.038 45.9486C236.712 48.5162 236.572 51.2172 237.579 53.6015C238.768 56.4186 241.507 58.4376 244.495 59.0851C247.484 59.7326 250.667 59.0998 253.372 57.674C256.077 56.2481 258.333 54.0715 260.176 51.6312C257.002 53.8852 252.61 54.7297 249.15 52.944Z" fill="#2F2E41"/>
<path d="M229.587 44.9452C229.587 44.9452 226.894 34.8925 215.35 32.5723C215.337 32.568 215.293 32.5507 215.237 32.5247C215.202 32.503 215.159 32.4813 215.115 32.4596C215.246 32.3859 215.371 32.3209 215.501 32.2557L215.503 32.2554L215.504 32.2545L215.505 32.2531L215.506 32.2514C215.618 32.1473 215.731 32.0432 215.848 31.9435L216.178 31.9565C216.178 31.9565 227.762 30.1221 229.587 44.9452Z" fill="#FD6584"/>
<path opacity="0.2" d="M223.558 77.2018L217.037 84.756L206.264 81.5746L218.009 86.9871L223.558 77.2018Z" fill="black"/>
<path d="M262.694 214.897L162.446 215.009C162.331 215.008 162.222 214.963 162.141 214.882C162.06 214.8 162.014 214.69 162.014 214.576C162.014 214.461 162.06 214.351 162.141 214.27C162.222 214.189 162.331 214.143 162.446 214.143L262.694 214.031C262.809 214.031 262.919 214.077 263 214.158C263.081 214.239 263.127 214.349 263.127 214.464C263.127 214.579 263.081 214.689 263 214.77C262.919 214.851 262.809 214.897 262.694 214.897Z" fill="#CACACA"/>
<path d="M267.094 147.626C262.4 147.626 257.255 147.449 251.659 147.094C222.716 145.256 185.226 138.866 146.094 129.101C106.963 119.337 70.8651 107.363 44.4515 95.3881C31.5846 89.5543 21.7093 84.0322 15.1003 78.9749C8.10312 73.6209 5.04245 68.954 6.00297 65.1045C7.87451 57.6049 24.4461 55.9642 38.0184 55.9084L38.023 56.9991C19.3846 57.0756 8.38894 60.048 7.06132 65.3686C5.37015 72.1452 19.1626 82.7247 44.9018 94.3947C71.2574 106.344 107.289 118.294 146.358 128.043C185.428 137.792 222.849 144.172 251.729 146.006C279.932 147.797 297.079 144.938 298.77 138.161C300.174 132.535 290.918 124.246 272.707 114.822L273.208 113.853C286.44 120.701 301.8 130.523 299.828 138.425C298.867 142.275 293.973 144.956 285.281 146.395C280.326 147.215 274.24 147.626 267.094 147.626Z" fill="#3A5CCC"/>
</g>
<defs>
<clipPath id="clip0_18_133">
<rect width="300" height="215.009" fill="white"/>
</clipPath>
</defs>
</svg>
