<svg width="300" height="200" viewBox="0 0 300 200" fill="none" xmlns="http://www.w3.org/2000/svg">
<path d="M287.664 189.844C287.664 189.9 226.024 189.948 150.008 189.948C73.992 189.948 12.336 189.9 12.336 189.844C12.336 189.788 73.964 189.74 150.008 189.74C226.052 189.74 287.664 189.784 287.664 189.844Z" fill="#263238"/>
<path d="M91.94 189.796L94.184 173.304L142.016 171.024L145.384 189.844L91.94 189.796Z" fill="#263238"/>
<path d="M136.76 121.396L151.108 137.32C153.476 139.948 155.188 142.34 158.592 143.3C160.992 143.972 166 144.252 167.268 142.684C169.008 140.536 170.068 136.82 167.668 132.148C166.068 129.104 152.156 116.672 152.156 116.672L136.76 121.396Z" fill="#C27461"/>
<path d="M141.484 124.056C141.568 124.856 145.32 132.672 145.32 132.672L157.64 124.636C157.64 124.636 149.708 105.796 143.916 104.528L141.484 124.056Z" fill="#3A5CCC"/>
<path d="M162.58 102.096L162.756 96.096L162.356 88.472L161.156 82.128C161.156 82.128 160.836 81.508 160.036 81.976C159.236 82.444 159.928 85.908 159.928 85.908L160.056 88.512C160.056 88.512 159.584 90.512 159.436 90.348C159.288 90.184 158.784 86.668 158.784 86.668L157.328 79.124C157.223 78.8912 157.032 78.7076 156.795 78.6109C156.559 78.5142 156.294 78.5117 156.056 78.604C155.54 78.764 155.204 79.516 155.256 80.632C155.308 81.748 155.804 83.636 155.856 84.272C155.908 84.908 156.328 88.576 156.328 88.576L153.78 80.14C153.78 80.14 153.308 77.392 152.18 77.788C151.052 78.184 151.8 80.152 151.852 80.988C151.904 81.824 153.548 87.6 153.408 89.2C153.268 90.8 153.008 90 153.008 90L151.808 85.276C151.288 83.192 150.5 81.984 149.596 81.832C148.692 81.68 149.904 86.508 149.904 86.508L151.432 93.256L151.052 95.404L149.548 93.472C149.548 93.472 149.504 90.94 147.924 89.872C146.344 88.804 145.924 90 145.924 90L148.872 99.804C149.572 101.404 154.092 104.524 154.092 104.524L154.892 114.352L164.932 114.152L162.58 102.096Z" fill="#C27461"/>
<path d="M159.056 98.556C159.008 98.604 158.532 98.124 157.716 97.432C156.9 96.74 155.64 95.832 154.044 95.912C153.382 95.9224 152.742 96.1548 152.228 96.572L152.06 96.72L151.912 96.524C151.268 95.676 150.58 94.924 150.168 94.4C149.756 93.876 149.524 93.512 149.568 93.484C149.859 93.7057 150.127 93.9563 150.368 94.232C151.04 94.8916 151.678 95.5845 152.28 96.308L151.964 96.26C152.54 95.759 153.273 95.4759 154.036 95.46C154.854 95.4335 155.664 95.6284 156.38 96.024C156.948 96.3411 157.471 96.7326 157.936 97.188C158.708 97.968 159.096 98.52 159.056 98.556Z" fill="#7D4336"/>
<path d="M156.452 136.32L154.324 105.732L162.828 103.068L169 136.32H156.452Z" fill="#C27461"/>
<path d="M138.032 66.436C138.871 66.5799 139.734 66.4075 140.453 65.952C141.173 65.4965 141.698 64.7905 141.927 63.9703C142.156 63.1502 142.072 62.2743 141.693 61.5121C141.313 60.7499 140.664 60.1555 139.872 59.844C140.426 59.3368 140.807 58.6682 140.96 57.9328C141.113 57.1974 141.031 56.4324 140.725 55.7462C140.419 55.0601 139.906 54.4875 139.256 54.1094C138.607 53.7314 137.856 53.5672 137.108 53.64C137.12 52.8999 136.939 52.1695 136.584 51.5199C136.23 50.8703 135.713 50.3237 135.084 49.9333C134.455 49.543 133.736 49.3222 132.996 49.2925C132.257 49.2628 131.522 49.4253 130.864 49.764C130.073 49.0347 129.059 48.5924 127.986 48.5083C126.913 48.4241 125.843 48.703 124.948 49.3C124.236 49.1289 123.489 49.1899 122.814 49.4743C122.14 49.7587 121.574 50.2514 121.2 50.8804C120.826 51.5093 120.663 52.2416 120.735 52.9699C120.807 53.6982 121.11 54.3844 121.6 54.928" fill="#263238"/>
<path d="M138.464 85.6C138.732 81.824 138.656 74 138.504 66.932C138.423 63.2654 136.965 59.7636 134.42 57.1229C131.875 54.4822 128.429 52.8961 124.768 52.68L124.016 52.636C115.852 52.636 111.288 59.564 111.508 67.724L110.252 99.152L115.2 103.6C116.249 104.549 117.5 105.246 118.859 105.638C120.218 106.03 121.648 106.107 123.041 105.863C124.434 105.62 125.753 105.061 126.898 104.231C128.043 103.401 128.984 102.32 129.648 101.072L130.028 94.164C130.028 94.164 137.908 93.424 138.464 85.6Z" fill="#C27461"/>
<path d="M130.08 94.172C126.447 93.9621 122.951 92.7125 120.008 90.572C120.008 90.572 122.088 96.344 129.932 96.1L130.08 94.172Z" fill="#7D4336"/>
<path d="M135.048 73.544C135.033 73.8354 134.906 74.1097 134.692 74.3084C134.478 74.5071 134.196 74.6146 133.904 74.608C133.761 74.6107 133.619 74.5848 133.487 74.5318C133.354 74.4789 133.233 74.4 133.132 74.2998C133.03 74.1995 132.949 74.08 132.894 73.9481C132.839 73.8163 132.811 73.6748 132.812 73.532C132.827 73.2406 132.954 72.9663 133.168 72.7676C133.381 72.5689 133.664 72.4614 133.956 72.468C134.099 72.4653 134.241 72.4912 134.373 72.5442C134.506 72.5971 134.627 72.676 134.728 72.7762C134.83 72.8765 134.911 72.996 134.966 73.1279C135.021 73.2597 135.049 73.4012 135.048 73.544Z" fill="#263238"/>
<path d="M136.596 70.676C136.448 70.812 135.64 70.136 134.44 70.068C133.24 70 132.32 70.548 132.2 70.396C132.14 70.328 132.296 70.072 132.696 69.816C133.237 69.4853 133.867 69.3303 134.5 69.372C135.125 69.4084 135.723 69.6408 136.208 70.036C136.56 70.344 136.668 70.612 136.596 70.676Z" fill="#263238"/>
<path d="M124.02 73.544C124.005 73.8354 123.878 74.1097 123.664 74.3084C123.45 74.5071 123.168 74.6146 122.876 74.608C122.733 74.6112 122.591 74.5857 122.458 74.533C122.325 74.4802 122.204 74.4014 122.102 74.301C122.001 74.2007 121.92 74.0809 121.865 73.9488C121.81 73.8167 121.783 73.675 121.784 73.532C121.798 73.2409 121.924 72.9667 122.137 72.7679C122.35 72.569 122.633 72.4614 122.924 72.468C123.067 72.4648 123.209 72.4903 123.343 72.543C123.476 72.5957 123.597 72.6745 123.699 72.7748C123.801 72.8751 123.882 72.9948 123.937 73.1269C123.992 73.259 124.021 73.4008 124.02 73.544Z" fill="#263238"/>
<path d="M124.772 70.204C124.624 70.34 123.816 69.664 122.612 69.596C121.408 69.528 120.496 70.076 120.376 69.924C120.312 69.852 120.468 69.6 120.872 69.344C121.413 69.0121 122.043 68.8569 122.676 68.9C123.3 68.9337 123.897 69.1664 124.38 69.564C124.732 69.872 124.844 70.14 124.772 70.204Z" fill="#263238"/>
<path d="M128.608 79.372C128.608 79.304 129.36 79.216 130.58 79.136C130.888 79.136 131.184 79.076 131.248 78.872C131.291 78.5557 131.238 78.234 131.096 77.948C130.851 77.188 130.593 76.388 130.324 75.548C129.26 72.144 128.512 69.356 128.648 69.316C128.784 69.276 129.76 71.996 130.824 75.396C131.091 76.236 131.333 77.036 131.552 77.796C131.721 78.1734 131.752 78.598 131.64 78.996C131.59 79.1018 131.516 79.1946 131.425 79.2674C131.333 79.3403 131.226 79.3911 131.112 79.416C130.938 79.4516 130.761 79.465 130.584 79.456C129.364 79.48 128.608 79.44 128.608 79.372Z" fill="#263238"/>
<path d="M125.02 80C125.216 80 125.144 81.308 126.22 82.296C127.296 83.284 128.68 83.228 128.68 83.412C128.68 83.492 128.356 83.644 127.768 83.628C127.003 83.5932 126.275 83.2901 125.712 82.772C125.171 82.2743 124.846 81.5857 124.804 80.852C124.768 80.296 124.932 80 125.02 80Z" fill="#263238"/>
<path d="M125.36 65.512C125.224 65.832 124.032 65.604 122.612 65.692C121.192 65.78 120.028 66.092 119.86 65.792C119.784 65.648 120 65.352 120.48 65.064C121.116 64.7118 121.823 64.5092 122.549 64.4718C123.275 64.4343 123.999 64.563 124.668 64.848C125.176 65.088 125.42 65.36 125.36 65.512Z" fill="#263238"/>
<path d="M136.36 67.172C136.132 67.432 135.32 67.1 134.328 67.028C133.336 66.956 132.476 67.104 132.3 66.804C132.224 66.66 132.372 66.404 132.756 66.16C133.269 65.878 133.854 65.7556 134.437 65.8083C135.02 65.861 135.574 66.0866 136.028 66.456C136.364 66.756 136.46 67.044 136.36 67.172Z" fill="#263238"/>
<path d="M137.964 63.316C137.964 63.316 136.188 58.3 133.896 57.016C131.12 55.464 129.704 58.528 127.024 57.608C124.344 56.688 121.692 55.208 118.784 57.14C115.584 59.264 116.936 60.964 116.54 64.424C114.94 78.444 112.14 82.272 111.804 75.604C111.768 74.872 109.804 74.176 109.668 71.092C109.516 67.092 109.648 62.256 110.704 59.492C111.592 57.156 113.044 55.596 115.584 53.924C119.584 51.292 124.868 51.524 128.428 52.112C131.988 52.7 138.652 57.2 137.964 63.316Z" fill="#263238"/>
<path d="M112.316 75.42C112.323 75.1325 112.272 74.8465 112.165 74.5793C112.059 74.3121 111.899 74.0693 111.696 73.8656C111.493 73.6618 111.251 73.5013 110.984 73.3938C110.717 73.2863 110.432 73.234 110.144 73.24C108.68 73.292 107.008 74.04 106.924 77.044C106.78 82.4 112.188 81.444 112.2 81.288C112.212 81.132 112.276 77.66 112.316 75.42Z" fill="#C27461"/>
<path d="M111.092 79.24C111.068 79.24 110.996 79.304 110.836 79.372C110.611 79.4609 110.361 79.4609 110.136 79.372C109.576 79.148 109.124 78.236 109.124 77.272C109.124 76.8112 109.226 76.3561 109.424 75.94C109.479 75.7743 109.573 75.6244 109.698 75.5031C109.824 75.3819 109.977 75.293 110.144 75.244C110.252 75.2195 110.365 75.2333 110.465 75.2828C110.564 75.3324 110.643 75.4148 110.688 75.516C110.756 75.668 110.72 75.772 110.748 75.784C110.776 75.796 110.864 75.696 110.828 75.472C110.8 75.3392 110.728 75.2196 110.624 75.132C110.553 75.0743 110.471 75.0315 110.383 75.0061C110.295 74.9807 110.203 74.9732 110.112 74.984C109.891 75.0207 109.684 75.1136 109.509 75.2537C109.335 75.3938 109.199 75.5764 109.116 75.784C108.876 76.2432 108.751 76.7538 108.752 77.272C108.752 78.352 109.284 79.376 110.052 79.62C110.195 79.6656 110.346 79.6785 110.494 79.6577C110.642 79.6369 110.784 79.583 110.908 79.5C111.076 79.368 111.108 79.252 111.092 79.24Z" fill="#7D4336"/>
<path d="M113.032 65.068C113.696 65.584 114.404 66.116 115.232 66.268C116.06 66.42 117.052 65.976 117.232 65.156C117.316 64.788 117.232 64.356 117.512 64.076C117.792 63.796 118.36 63.888 118.804 63.964C119.582 64.0712 120.372 63.9074 121.043 63.5002C121.714 63.093 122.224 62.4672 122.488 61.728C122.852 62.344 123.776 62.372 124.4 62.02C125.024 61.668 125.448 61.06 125.948 60.548C126.448 60.036 127.148 59.596 127.836 59.748C128.236 59.828 128.584 60.084 128.984 60.072C129.692 60.052 130.08 59.248 130.228 58.56C130.376 57.872 130.508 57.06 131.124 56.716C131.74 56.372 132.396 56.644 133.04 56.776C133.684 56.908 134.524 56.808 134.724 56.184C134.762 56.0163 134.765 55.8427 134.734 55.6736C134.704 55.5045 134.639 55.3434 134.544 55.2C134.148 54.5305 133.538 54.0136 132.812 53.7322C132.087 53.4508 131.288 53.4211 130.544 53.648C130.333 52.7427 129.858 51.9204 129.18 51.2849C128.502 50.6494 127.65 50.2293 126.733 50.0777C125.816 49.9262 124.875 50.0499 124.028 50.4334C123.181 50.8169 122.467 51.4428 121.976 52.232C121.439 51.6836 120.777 51.2731 120.047 51.0352C119.317 50.7973 118.54 50.7391 117.782 50.8655C117.025 50.9919 116.309 51.2993 115.696 51.7614C115.083 52.2235 114.59 52.8268 114.26 53.52C113.614 53.3068 112.92 53.2889 112.264 53.4685C111.608 53.6481 111.02 54.0173 110.573 54.5297C110.125 55.0422 109.84 55.6751 109.75 56.3493C109.661 57.0236 109.773 57.7091 110.072 58.32C109.08 58.812 108.2 59.716 108.116 60.824C108.032 61.932 109.044 63.092 110.116 62.864C109.858 63.2882 109.774 63.7962 109.883 64.2809C109.992 64.7655 110.285 65.1889 110.7 65.4618C111.115 65.7347 111.62 65.8358 112.108 65.7436C112.596 65.6515 113.029 65.3734 113.316 64.968" fill="#263238"/>
<path d="M130.844 55.2C130.844 55.2 130.844 55.236 130.844 55.3C130.844 55.364 130.824 55.46 130.792 55.584C130.699 55.9422 130.547 56.2828 130.344 56.592C130.02 57.0824 129.59 57.4928 129.084 57.792C128.415 58.1946 127.633 58.3687 126.856 58.288L126.956 58.176C127.086 58.6721 127.016 59.1996 126.76 59.644C126.492 60.1096 126.158 60.534 125.768 60.904C125.577 61.1192 125.364 61.3136 125.132 61.484C124.87 61.6414 124.573 61.732 124.268 61.748C123.95 61.7749 123.63 61.7233 123.336 61.5978C123.043 61.4722 122.784 61.2766 122.584 61.028L122.784 60.984C122.679 61.5359 122.458 62.0595 122.137 62.5206C121.816 62.9817 121.401 63.3699 120.92 63.66C120.391 64.006 119.763 64.1703 119.132 64.128C118.539 64.067 117.962 63.9047 117.424 63.648L117.572 63.592C117.256 64.223 116.787 64.7648 116.208 65.168C115.942 65.3713 115.635 65.5126 115.307 65.5818C114.98 65.651 114.641 65.6463 114.316 65.568C113.761 65.4135 113.264 65.1002 112.885 64.6667C112.506 64.2331 112.263 63.6983 112.184 63.128L112.304 63.192C111.722 63.4582 111.067 63.5147 110.448 63.352C109.987 63.2391 109.559 63.0184 109.2 62.708C108.977 62.5101 108.789 62.2762 108.644 62.016C108.59 61.9279 108.549 61.8322 108.524 61.732C108.711 62.0768 108.96 62.3834 109.26 62.636C109.616 62.9247 110.033 63.1273 110.48 63.228C111.067 63.3685 111.684 63.3035 112.228 63.044L112.332 62.992V63.108C112.416 63.6396 112.65 64.1358 113.009 64.5373C113.367 64.9388 113.833 65.2286 114.352 65.372C114.648 65.4406 114.956 65.442 115.253 65.3763C115.55 65.3105 115.828 65.1792 116.068 64.992C116.613 64.6073 117.054 64.0932 117.352 63.496L117.4 63.396L117.496 63.44C118.012 63.6825 118.565 63.8379 119.132 63.9C119.716 63.9356 120.295 63.7812 120.784 63.46C121.237 63.1853 121.627 62.8195 121.931 62.3856C122.235 61.9518 122.445 61.4595 122.548 60.94L122.596 60.688L122.748 60.896C122.926 61.1139 123.155 61.2852 123.414 61.3953C123.673 61.5054 123.955 61.5509 124.236 61.528C124.507 61.5154 124.77 61.4371 125.004 61.3C125.222 61.1409 125.423 60.96 125.604 60.76C125.98 60.4065 126.306 60.0027 126.572 59.56C126.809 59.1602 126.879 58.6832 126.768 58.232L126.732 58.1L126.864 58.12C127.604 58.2059 128.352 58.0502 128.996 57.676C129.491 57.3974 129.917 57.0121 130.244 56.548C130.526 56.1401 130.73 55.6829 130.844 55.2Z" fill="#455A64"/>
<path d="M142.4 131.856L142.968 126.16L144.932 105.276C143.92 104.216 139.856 102.548 139.856 102.548L129.768 98.92C129.768 98.92 128.8 101.688 121.2 101.8C113.448 101.916 110.236 97.068 110.236 97.068C106.364 98.312 97.904 101.524 97.904 101.524L95.02 128.692L94.872 137.66L93.088 183.332C93.088 183.332 143.888 181.176 144.648 181.044L142.588 164.596L142.4 131.856Z" fill="#3A5CCC"/>
<path opacity="0.3" d="M127.82 118.448V129.14L133.636 133.884L139.7 129.18L140.032 118.748L127.82 118.448Z" fill="black"/>
<path opacity="0.3" d="M94.172 155.964L94.024 159.764C94.024 159.764 126.116 153.948 131.724 151.688C138.644 148.888 142.356 146.532 142.356 146.532L142.472 143.636L94.172 155.964Z" fill="black"/>
<path d="M96.4 103.808C96.4 103.808 89.168 104.964 87.676 114.208C86.716 120.156 83.808 146.356 87.784 153.408C92.384 161.552 133.924 147.888 133.924 147.888L135.344 137.344L103.344 139.464L99.344 117.244L96.4 103.808Z" fill="#C27461"/>
<path d="M84.8 134.8H105.088L99.536 100.964C99.536 100.964 87.908 103.32 86.388 115.468C84.852 127.712 84.8 134.8 84.8 134.8Z" fill="#3A5CCC"/>
<path d="M87.352 134.8C87.3812 134.796 87.4108 134.796 87.44 134.8H87.708L88.732 134.78L92.516 134.748L105.088 134.716L104.984 134.832C104.96 134.568 104.936 134.284 104.912 134C104.488 128.896 104.112 124.276 103.82 120.912C103.692 119.252 103.588 117.9 103.512 116.944C103.484 116.488 103.456 116.144 103.44 115.864C103.44 115.752 103.44 115.66 103.44 115.584C103.435 115.552 103.435 115.52 103.44 115.488C103.452 115.519 103.459 115.551 103.46 115.584L103.492 115.86C103.52 116.124 103.56 116.484 103.604 116.94C103.696 117.892 103.824 119.24 103.98 120.9C104.276 124.264 104.684 128.88 105.132 133.984C105.156 134.268 105.18 134.548 105.204 134.812V134.924H105.092L92.52 134.892L88.736 134.86L87.712 134.84H87.444C87.38 134.8 87.352 134.8 87.352 134.8Z" fill="#263238"/>
<path d="M143.916 114.232C143.937 114.462 143.937 114.694 143.916 114.924C143.916 115.368 143.88 116.012 143.844 116.804C143.76 118.404 143.596 120.584 143.368 122.996C143.14 125.408 142.896 127.592 142.704 129.172C142.608 129.972 142.528 130.596 142.464 131.036C142.443 131.266 142.403 131.493 142.344 131.716C142.34 131.486 142.354 131.256 142.384 131.028C142.428 130.552 142.488 129.92 142.56 129.156C142.716 127.556 142.928 125.372 143.16 122.976C143.392 120.58 143.6 118.4 143.708 116.8C143.764 116.036 143.812 115.4 143.844 114.924C143.853 114.692 143.877 114.461 143.916 114.232Z" fill="#263238"/>
<path d="M105.404 110.548C105.311 110.434 105.234 110.307 105.176 110.172C105.02 109.88 104.832 109.528 104.608 109.116C104.014 107.949 103.284 106.858 102.432 105.864C101.568 104.885 100.466 104.147 99.232 103.72C98.709 103.571 98.1734 103.471 97.632 103.42C97.7765 103.389 97.9248 103.379 98.072 103.392C98.4783 103.401 98.8818 103.462 99.272 103.576C100.553 103.974 101.701 104.717 102.588 105.724C103.453 106.729 104.177 107.847 104.74 109.048C104.964 109.504 105.14 109.876 105.248 110.136C105.316 110.267 105.368 110.405 105.404 110.548Z" fill="#263238"/>
<path opacity="0.3" d="M102.772 136.32C102.736 136.12 106.28 135.256 106.28 135.256L103.684 118.456L105.088 134.8H102.492L102.772 136.32Z" fill="black"/>
<path d="M155.904 137.84L155.276 146.476L152.408 150.076L145.388 159.392L153.892 159.948C153.892 159.948 163.864 157.468 165.332 154.396C166.8 151.324 166.888 137.828 166.888 137.828L155.904 137.84Z" fill="#FFCFB4"/>
<path d="M197.924 109.076L198.404 75.476C198.712 67.476 194.736 60.564 186.736 60.476L186 60.512C182.414 60.6858 179.024 62.2024 176.504 64.7606C173.984 67.3188 172.519 70.7313 172.4 74.32C172.172 81.252 172 88.916 172.228 92.616C172.668 100.28 180.4 101.108 180.4 101.108C180.4 101.344 180.4 103.252 180.356 105.536V109.344L197.924 109.076Z" fill="#FFCFB4"/>
<path d="M180.376 101.108C180.376 101.108 185.22 101.16 190.216 97.684C190.216 97.684 188.048 103.4 180.364 103.072L180.376 101.108Z" fill="#FF9D64"/>
<path d="M184.9 78.24C185.068 78.288 185.844 77.728 187.092 77.44C188.34 77.152 189.352 77.276 189.464 77.164C189.576 77.052 189.328 76.996 188.884 76.928C188.239 76.8525 187.586 76.8931 186.956 77.048C186.342 77.1822 185.761 77.4349 185.244 77.792C184.908 78.036 184.82 78.22 184.9 78.24Z" fill="#263238"/>
<path d="M186.136 80.608C186.148 80.8796 186.267 81.1356 186.466 81.321C186.665 81.5064 186.928 81.6066 187.2 81.6C187.332 81.6043 187.464 81.582 187.588 81.5346C187.711 81.4872 187.824 81.4155 187.919 81.3238C188.015 81.2321 188.091 81.1222 188.143 81.0007C188.196 80.8791 188.223 80.7483 188.224 80.616C188.215 80.3454 188.1 80.0893 187.904 79.9024C187.708 79.7155 187.447 79.6127 187.176 79.616C187.042 79.6095 186.908 79.6303 186.782 79.6773C186.656 79.7242 186.541 79.7963 186.443 79.889C186.346 79.9818 186.269 80.0934 186.216 80.217C186.163 80.3406 186.136 80.4736 186.136 80.608Z" fill="#263238"/>
<path d="M181.736 86.608C181.736 86.54 181 86.448 179.804 86.352C179.504 86.352 179.216 86.292 179.156 86.088C179.114 85.7791 179.168 85.4647 179.312 85.188C179.56 84.444 179.82 83.668 180.112 82.852C181.192 79.532 181.96 76.808 181.824 76.764C181.688 76.72 180.704 79.38 179.624 82.7L178.88 85.048C178.707 85.424 178.672 85.8486 178.78 86.248C178.831 86.3488 178.904 86.437 178.993 86.5062C179.082 86.5754 179.186 86.6238 179.296 86.648C179.465 86.6845 179.639 86.6993 179.812 86.692C180.992 86.704 181.736 86.676 181.736 86.608Z" fill="#263238"/>
<path d="M185.84 72.976C185.956 73.264 186.988 73.076 188.212 73.168C189.436 73.26 190.44 73.568 190.612 73.292C190.676 73.164 190.492 72.892 190.08 72.632C189.541 72.3128 188.934 72.1247 188.309 72.083C187.683 72.0414 187.057 72.1472 186.48 72.392C186 72.6 185.788 72.84 185.84 72.976Z" fill="#263238"/>
<path d="M173.6 75.04C173.728 75.276 174.736 75.04 175.948 75.04C177.16 75.04 178.16 75.216 178.296 74.976C178.352 74.864 178.16 74.648 177.74 74.456C177.177 74.2134 176.569 74.096 175.956 74.112C175.337 74.117 174.726 74.2533 174.164 74.512C173.756 74.708 173.556 74.928 173.6 75.04Z" fill="#263238"/>
<path d="M198.04 81.292C198.176 81.232 203.54 79.536 203.484 85.048C203.428 90.56 197.904 89.364 197.884 89.208C197.864 89.052 198.04 81.292 198.04 81.292Z" fill="#FFCFB4"/>
<path d="M199.6 87.136C199.628 87.136 199.696 87.204 199.86 87.28C200.086 87.3813 200.343 87.39 200.576 87.304C201.16 87.096 201.66 86.176 201.696 85.184C201.715 84.7123 201.629 84.2422 201.444 83.808C201.394 83.6346 201.303 83.4759 201.178 83.3456C201.054 83.2153 200.899 83.1173 200.728 83.06C200.618 83.0309 200.501 83.0409 200.397 83.0883C200.294 83.1357 200.21 83.2176 200.16 83.32C200.084 83.472 200.12 83.584 200.088 83.592C200.056 83.6 199.972 83.496 200.02 83.272C200.051 83.135 200.128 83.0132 200.24 82.928C200.315 82.8714 200.401 82.8303 200.492 82.807C200.584 82.7836 200.679 82.7785 200.772 82.792C200.998 82.8393 201.208 82.944 201.382 83.096C201.555 83.2481 201.687 83.4423 201.764 83.66C201.995 84.1379 202.104 84.6657 202.08 85.196C202.036 86.308 201.456 87.34 200.656 87.564C200.508 87.6053 200.352 87.6127 200.2 87.5857C200.049 87.5587 199.905 87.498 199.78 87.408C199.6 87.268 199.6 87.144 199.6 87.136Z" fill="#FF9D64"/>
<path d="M173.716 77.664C173.836 77.788 174.78 77.728 176 78.128C177.22 78.528 178.024 79.148 178.176 79.108C178.248 79.108 178.144 78.904 177.796 78.624C177.277 78.234 176.695 77.9351 176.076 77.74C175.485 77.5367 174.861 77.4458 174.236 77.472C173.82 77.504 173.656 77.6 173.716 77.664Z" fill="#263238"/>
<path d="M175.2 80.48C175.21 80.7509 175.326 81.0071 175.523 81.1939C175.719 81.3807 175.981 81.4833 176.252 81.48C176.384 81.4843 176.516 81.462 176.639 81.4145C176.762 81.3671 176.875 81.2953 176.97 81.2036C177.065 81.1118 177.141 81.0019 177.193 80.8804C177.245 80.7589 177.272 80.6281 177.272 80.496C177.263 80.2254 177.148 79.9693 176.952 79.7824C176.756 79.5955 176.495 79.4927 176.224 79.496C176.092 79.4917 175.96 79.514 175.836 79.5614C175.713 79.6088 175.6 79.6805 175.505 79.7722C175.409 79.8639 175.333 79.9738 175.281 80.0953C175.228 80.2169 175.201 80.3477 175.2 80.48Z" fill="#263238"/>
<path d="M162.2 67.2C162.299 66.8942 162.515 66.6398 162.8 66.492C163.408 66.152 164.096 66.216 164.76 66.224C166.421 66.2299 168.062 65.8607 169.56 65.144C169.047 64.8781 168.58 64.5325 168.176 64.12C167.356 63.256 166.9 61.956 167.316 60.836C167.345 60.7272 167.398 60.6263 167.471 60.541C167.545 60.4557 167.637 60.3884 167.74 60.344C168.08 60.252 168.372 60.592 168.6 60.86C169.356 61.752 170.068 62.144 171.228 62.06C171.927 62.0328 172.61 61.8482 173.228 61.52L173.296 61.452C173.576 61.176 173.848 60.916 174.096 60.652C176.096 58.752 177.836 57.452 179.596 56.784C182.172 55.824 186.452 55.516 189.092 56.28C191.732 57.044 194.072 59.268 194.372 62C195.896 60.776 198.136 60.844 199.932 61.624L199.98 61.604C201.98 62.376 203.08 64.544 203.624 66.624C203.656 66.736 203.68 66.852 203.708 66.964C204.361 68.0744 205.272 69.0114 206.364 69.696C206.556 69.812 206.764 69.96 206.796 70.184C206.828 70.408 206.62 70.584 206.432 70.716C205.935 71.0478 205.371 71.265 204.78 71.352C204.948 71.8495 205.16 72.3313 205.412 72.792C205.632 73.192 205.892 73.656 205.68 74.052C205.586 74.1982 205.449 74.312 205.288 74.3778C205.127 74.4436 204.95 74.4584 204.78 74.42C204.441 74.3371 204.123 74.183 203.848 73.968L204.484 75.608C203.745 75.712 202.991 75.6422 202.284 75.404C201.808 77.324 201.256 79.772 200.728 81.068C199.88 81.044 199.084 80.828 198.552 81.284C197.828 81.9 197.48 83.092 196.312 82.608C195.72 82.36 195.204 81.088 195.02 80.472C193.792 76.3692 193.46 72.0502 194.048 67.808C193.248 66.8976 192.281 66.1482 191.2 65.6L191.288 65.684C189.172 64.884 186.772 64.084 184.72 65.048C183.12 65.784 182.16 67.392 180.952 68.648C179.895 69.823 178.603 70.7638 177.161 71.4099C175.718 72.0561 174.157 72.3933 172.576 72.4C172.216 74.7 172.388 77.636 172.224 79.784L170.32 76.26C170.183 76.0091 170.059 75.7514 169.948 75.488L169.908 75.408C169.74 74.9844 169.549 74.5704 169.336 74.168C168.136 75.168 166.464 73.552 167.416 72.32C167.604 72.0755 167.828 71.8611 168.08 71.684C167.809 71.9312 167.479 72.1045 167.122 72.1871C166.764 72.2698 166.392 72.2591 166.04 72.156C165.692 72.0397 165.393 71.8122 165.187 71.5085C164.982 71.2048 164.882 70.842 164.904 70.476C164.939 70.2294 165.037 69.9961 165.19 69.7996C165.343 69.6031 165.545 69.4501 165.776 69.356C164.826 69.4071 163.882 69.1746 163.064 68.688C162.516 68.4 162 67.864 162.2 67.2Z" fill="#263238"/>
<path d="M192 62.82C192.271 63.0381 192.522 63.279 192.752 63.54C193.337 64.286 193.719 65.1707 193.86 66.108C193.973 66.7509 194.023 67.4034 194.008 68.056C194.008 68.764 193.916 69.516 193.84 70.308C193.748 71.1407 193.708 71.9783 193.72 72.816C193.734 73.2615 193.78 73.7054 193.86 74.144C193.916 74.6115 194.09 75.0573 194.364 75.44C194.493 75.5937 194.659 75.7113 194.847 75.7814C195.035 75.8515 195.238 75.8717 195.436 75.84C195.812 75.7777 196.158 75.5936 196.42 75.316C196.853 74.7555 197.129 74.0902 197.22 73.388H197.06C197.275 73.9697 197.574 74.5168 197.948 75.012C198.309 75.4745 198.835 75.7785 199.416 75.86C199.688 75.8968 199.965 75.8566 200.216 75.744C200.447 75.6314 200.638 75.4515 200.764 75.228C200.885 75.0248 200.947 74.7923 200.944 74.556C200.94 74.3356 200.859 74.1234 200.716 73.956L200.632 74.024C201.07 74.557 201.615 74.9918 202.232 75.3C202.448 75.404 202.632 75.468 202.736 75.512C202.794 75.5335 202.855 75.5496 202.916 75.56C202.863 75.5279 202.807 75.5024 202.748 75.484C202.632 75.432 202.468 75.36 202.26 75.248C201.66 74.9264 201.13 74.487 200.704 73.956L200.62 74.028C200.743 74.1909 200.811 74.3883 200.815 74.5921C200.82 74.796 200.76 74.9961 200.644 75.164C200.527 75.3616 200.355 75.5202 200.148 75.62C199.921 75.7167 199.672 75.7499 199.428 75.716C198.889 75.6339 198.402 75.3474 198.068 74.916C197.707 74.4268 197.419 73.8879 197.212 73.316L197.108 73.068L197.048 73.332C196.968 74.0012 196.709 74.6365 196.3 75.172C196.068 75.4225 195.758 75.5873 195.42 75.64C195.253 75.6703 195.08 75.6559 194.92 75.5984C194.76 75.5408 194.618 75.442 194.508 75.312C194.256 74.9562 194.096 74.5442 194.04 74.112C193.963 73.6826 193.918 73.2481 193.904 72.812C193.891 71.9826 193.927 71.1531 194.012 70.328C194.084 69.528 194.152 68.776 194.164 68.064C194.175 67.4012 194.118 66.7389 193.992 66.088C193.83 65.1337 193.416 64.24 192.792 63.5C192.569 63.2297 192.301 62.9996 192 62.82Z" fill="#455A64"/>
<path d="M168.132 69.66C168.132 69.66 168.132 69.66 168.192 69.712L168.376 69.856C168.478 69.935 168.585 70.0071 168.696 70.072C168.843 70.1675 168.997 70.253 169.156 70.328C170.165 70.8171 171.28 71.048 172.4 71C174.075 70.9284 175.694 70.3727 177.06 69.4C178.71 68.2022 180.098 66.6805 181.14 64.928C181.72 64.016 182.196 63.08 182.72 62.216C183.197 61.3729 183.793 60.6024 184.488 59.928C185.116 59.323 185.884 58.8832 186.724 58.648C187.105 58.5509 187.5 58.5158 187.892 58.544C188.254 58.574 188.611 58.652 188.952 58.776C189.54 58.9938 190.075 59.3348 190.52 59.776C190.857 60.1095 191.139 60.4943 191.356 60.916C191.52 61.2865 191.642 61.6742 191.72 62.072C191.72 62.072 191.72 62.048 191.72 61.992C191.72 61.936 191.72 61.852 191.692 61.76C191.637 61.46 191.547 61.1673 191.424 60.888C191.217 60.4447 190.937 60.0392 190.596 59.688C190.144 59.2278 189.598 58.8703 188.996 58.64C188.645 58.5089 188.277 58.4241 187.904 58.388C187.501 58.3595 187.096 58.3932 186.704 58.488C185.834 58.7204 185.038 59.1689 184.388 59.792C183.678 60.4736 183.069 61.2535 182.58 62.108C182.052 62.976 181.576 63.912 181 64.816C179.969 66.548 178.601 68.0552 176.976 69.248C175.636 70.2068 174.049 70.762 172.404 70.848C171.296 70.9078 170.19 70.6992 169.18 70.24C168.821 70.0652 168.471 69.8716 168.132 69.66Z" fill="#455A64"/>
<path d="M167.52 66.28C167.52 66.28 167.608 66.36 167.788 66.48C168.044 66.6428 168.311 66.7871 168.588 66.912C169 67.0998 169.427 67.2523 169.864 67.368C170.939 67.6516 172.06 67.7155 173.16 67.556C173.608 67.4908 174.049 67.3891 174.48 67.252C174.769 67.1594 175.051 67.0458 175.324 66.912C175.429 66.87 175.527 66.8134 175.616 66.744C175.616 66.716 175.172 66.92 174.444 67.144C174.016 67.266 173.578 67.3542 173.136 67.408C172.597 67.47 172.054 67.4887 171.512 67.464C170.973 67.4273 170.438 67.3471 169.912 67.224C169.48 67.1217 169.056 66.9881 168.644 66.824C167.94 66.504 167.536 66.252 167.52 66.28Z" fill="#455A64"/>
<path d="M185.6 88.6C185.6 88.6 182.8 89.4 181.752 89.8L182.176 91C182.266 91.2521 182.407 91.4829 182.59 91.6779C182.773 91.8729 182.995 92.0279 183.241 92.1331C183.487 92.2383 183.752 92.2914 184.02 92.2892C184.288 92.2869 184.552 92.2293 184.796 92.12C185.042 92.0005 185.262 91.8317 185.44 91.624C185.755 91.2434 185.912 90.7569 185.88 90.264C185.83 89.703 185.736 89.1466 185.6 88.6Z" fill="#FF9D64"/>
<path d="M181.74 89.796C181.704 89.7 183.392 89.084 185.532 88.416L185.732 88.352L185.776 88.564C185.776 88.592 185.776 88.624 185.796 88.652C185.927 89.1768 186.011 89.7123 186.048 90.252C186.087 90.728 185.944 91.201 185.648 91.576C185.12 92.204 184.572 92.24 184.58 92.204C184.588 92.168 185.028 92 185.424 91.404C185.888 90.832 185.676 89.804 185.424 88.708C185.424 88.676 185.424 88.644 185.404 88.616L185.648 88.764C183.516 89.448 181.776 89.896 181.74 89.796Z" fill="#263238"/>
<path d="M162.728 190.096L217.024 189.844L214.028 143.66L213.804 129.892L210.604 104.94L198.472 102.336C198.472 102.336 195.436 107.936 187.672 107.8C180.092 107.688 180.336 104.464 180.336 104.464L167.444 109.304C167.444 109.304 160.38 112.744 159.084 116.076C157.82 119.324 155.376 137.992 155.376 137.992L166.492 137.856L165.504 173.2L162.728 190.096Z" fill="#2FC1B0"/>
<path d="M166.888 121.476C166.907 121.555 166.916 121.635 166.916 121.716C166.916 121.9 166.94 122.116 166.956 122.416C166.984 123.02 167.012 123.9 167.016 124.984C167.016 127.156 166.98 130.152 166.88 133.46C166.78 136.768 166.644 139.764 166.532 141.932C166.472 142.992 166.424 143.864 166.388 144.496C166.364 144.78 166.348 145.012 166.336 145.192C166.334 145.275 166.322 145.356 166.3 145.436C166.294 145.355 166.294 145.273 166.3 145.192C166.3 145.008 166.3 144.792 166.3 144.492L166.38 141.924C166.456 139.732 166.556 136.752 166.668 133.456C166.78 130.16 166.84 127.152 166.864 124.984C166.864 123.9 166.864 123.024 166.864 122.416C166.864 122.132 166.864 121.9 166.864 121.72C166.862 121.638 166.871 121.556 166.888 121.476Z" fill="#263238"/>
<path d="M210.248 105.276C210.248 105.276 215.708 105.852 218.648 109.676C221.34 113.2 226.524 124.292 226.388 124.564C226.252 124.836 214.16 132.76 214.16 132.76L211.176 127.256L210.248 105.276Z" fill="#2FC1B0"/>
<path d="M212.908 110.724C212.93 110.793 212.94 110.864 212.94 110.936C212.94 111.096 212.968 111.296 212.988 111.54C213.032 112.064 213.076 112.828 213.12 113.768C213.212 115.648 213.284 118.252 213.328 121.124C213.372 123.996 213.416 126.596 213.472 128.48C213.5 129.396 213.52 130.152 213.536 130.708C213.536 130.952 213.536 131.152 213.536 131.312C213.546 131.382 213.546 131.454 213.536 131.524C213.52 131.456 213.51 131.386 213.508 131.316C213.508 131.156 213.476 130.956 213.456 130.712C213.416 130.184 213.372 129.424 213.324 128.484C213.232 126.604 213.16 124 213.12 121.128C213.08 118.256 213.028 115.656 212.972 113.772C212.948 112.856 212.924 112.1 212.908 111.544C212.908 111.3 212.908 111.1 212.908 110.94C212.897 110.868 212.897 110.796 212.908 110.724Z" fill="#263238"/>
<path d="M137.312 158.8C137.312 158.8 139.112 160 140.24 159.856C141.368 159.712 145.068 158.8 145.068 158.8C145.068 158.8 145.144 159.128 146.124 159.868C147.104 160.608 153.06 161.588 155.548 161.288C158.036 160.988 162.26 159.404 162.26 159.404L160.992 152.272L149.792 154.04L137.316 156.912V158.8H137.312Z" fill="#824E44"/>
<path d="M141.072 152.988C141.072 152.988 140.092 157.288 140.62 157.892C141.148 158.496 141.82 158.644 142.188 157.816C142.612 156.576 142.97 155.314 143.26 154.036L143.712 152.988C143.712 152.988 143.108 160.076 144.312 160.456C145.516 160.836 146.2 160.456 146.2 160.456C146.2 160.456 148.6 162.264 148.764 159.4C148.936 157.243 149.278 155.103 149.788 153L150.348 152.068V153.668C150.348 153.668 149.076 157.436 149.788 157.964C150.5 158.492 151.252 158.872 151.704 158.268C152.156 157.664 154.26 153.248 154.724 151.7C154.724 151.7 156.136 153.74 158.108 153.768C159.656 153.788 160.556 153.124 159.924 152.168C159.292 151.212 157.736 150.396 157.736 150.396L155.7 145.64L150.724 144.476H145.068L141.072 152.988Z" fill="#FFCFB4"/>
<path d="M132.996 149.932C132.996 149.932 137.752 152.764 139.94 153.292C142.128 153.82 153.852 151.736 153.732 150.996C153.612 150.256 152.08 149.596 151.024 149.444C149.968 149.292 146.876 148.764 146.876 148.764H155.172L159.172 151.292C159.172 151.292 160.592 150.72 160.132 149.564C159.888 148.948 156.76 146.504 156.76 146.504L149.16 144.996L135.66 144.468L132.996 149.932Z" fill="#FFBF9D"/>
<path d="M137.452 137.228C137.452 137.228 150.948 139.492 151.252 139.868C151.556 140.244 155.02 144.164 155.02 144.164C155.02 144.164 160.22 145.956 159.548 147.108C158.876 148.26 157.36 147.56 157.36 147.56C157.36 147.56 159.472 150.876 158.492 151.56C157.512 152.244 156.456 151.784 155.692 150.804C154.928 149.824 152.752 146.204 152.752 146.204C152.752 146.204 154.56 153.596 153.656 153.824C152.752 154.052 151.32 154.124 150.716 152.224C150.391 151.263 150.138 150.279 149.96 149.28L147.096 144.532C147.096 144.532 148.228 153.208 147.548 153.92C147.548 153.92 145.812 154.484 145.212 152.976C144.612 151.468 143.776 148.02 143.776 148.02L142.344 144.228L142.196 146.628C142.196 146.628 143.396 151.076 142.648 151.376C141.9 151.676 140.912 151.376 140.384 150.36C139.82 149.344 139.365 148.272 139.028 147.16C138.88 146.572 138.08 144.564 138.08 144.564L135.212 144.188L137.452 137.228Z" fill="#C27461"/>
<path d="M154.072 143.012C154.722 143.758 155.319 144.548 155.86 145.376C156.459 146.163 157 146.992 157.48 147.856C156.829 147.112 156.232 146.324 155.692 145.496C155.093 144.708 154.551 143.878 154.072 143.012Z" fill="#7D4336"/>
<path d="M149.572 140.516C149.816 140.738 150.029 140.992 150.204 141.272C150.667 141.913 151.092 142.581 151.476 143.272C151.858 143.965 152.205 144.676 152.516 145.404C152.664 145.699 152.777 146.01 152.852 146.332C152.668 146.06 152.511 145.771 152.384 145.468C152.112 144.924 151.74 144.18 151.292 143.376C150.844 142.572 150.412 141.86 150.092 141.352C149.896 141.088 149.722 140.809 149.572 140.516Z" fill="#7D4336"/>
<path d="M145.6 140.916C145.6 140.896 145.824 141.012 146.076 141.296C146.4 141.669 146.644 142.105 146.792 142.576C146.942 143.038 147.042 143.516 147.088 144C147.124 144.2 147.124 144.404 147.088 144.604C147.004 144.42 146.95 144.225 146.928 144.024C146.842 143.556 146.727 143.094 146.584 142.64C146.439 142.193 146.226 141.771 145.952 141.388C145.748 141.096 145.6 140.944 145.6 140.916Z" fill="#7D4336"/>
<path d="M140.8 141.328C140.8 141.304 141.008 141.368 141.284 141.56C141.641 141.819 141.929 142.161 142.124 142.556C142.321 142.952 142.417 143.39 142.404 143.832C142.418 144.015 142.381 144.198 142.296 144.36C142.325 143.769 142.203 143.181 141.941 142.65C141.679 142.12 141.287 141.665 140.8 141.328Z" fill="#7D4336"/>
<path opacity="0.3" d="M165.856 161.016C166.816 161.016 203.484 158.324 203.484 158.324L216.4 155.652L213.2 141.332L165.932 156.532L165.856 161.016Z" fill="black"/>
<path d="M160.992 152.268L194.936 144.468C194.936 144.468 225.84 126.468 226.312 126.164C226.784 125.86 223.912 144.468 223.912 144.468C223.912 144.468 204.228 154.84 198.56 156.184C195.472 156.916 161.232 159.784 161.232 159.784L160.992 152.268Z" fill="#824E44"/>
<path d="M244.56 78.196C246.652 75.94 251.76 76.332 252.96 77.84C253.871 77.4246 254.906 77.3757 255.852 77.7034C256.798 78.031 257.581 78.7102 258.04 79.6L263.464 80.84C264.388 81.052 265.356 81.284 266.064 81.92C266.772 82.556 267.092 83.72 266.496 84.46C268.404 84.976 269.128 87.836 267.696 89.196C267.877 89.4105 268.012 89.6597 268.094 89.9284C268.175 90.197 268.201 90.4794 268.17 90.7583C268.138 91.0373 268.05 91.3069 267.911 91.5506C267.772 91.7944 267.584 92.0072 267.36 92.176C268.846 93.9925 270.009 96.0503 270.8 98.26C271.132 99.184 271.396 100.212 271.044 101.128C270.692 102.044 269.48 102.664 268.692 102.084C268.956 102.463 269.105 102.911 269.12 103.373C269.136 103.835 269.018 104.292 268.78 104.688C269.7 104.72 269.96 106.144 269.32 106.804C268.68 107.464 267.656 107.528 266.736 107.496C265.816 107.464 264.82 107.408 264.06 107.928C264.067 108.04 264.097 108.15 264.148 108.25C264.199 108.351 264.27 108.44 264.356 108.512C265.92 109.812 266.356 112.028 265.156 113.672C265.044 113.824 264.94 113.964 264.852 114.092C264.312 114.844 262.984 115.52 262.16 115.94C260.072 117.004 258.836 116.788 256.512 117.1C257.132 118.604 253.312 121.9 249.048 118.584C240.4 120.8 234.196 121.6 225.284 121.552C224.012 121.552 222.484 121.356 221.932 120.212C220.9 120.476 219.788 119.984 219.036 119.232C218.325 118.434 217.757 117.519 217.356 116.528C216.26 116.198 215.293 115.538 214.588 114.637C213.883 113.736 213.473 112.639 213.416 111.496C212.677 110.9 212.071 110.157 211.635 109.314C211.199 108.471 210.943 107.547 210.884 106.6C208.748 105.928 207.596 103.14 208.632 101.156C209.119 98.5301 210.037 96.0027 211.348 93.676C209.896 93.348 209.348 91.376 209.98 90.016C210.612 88.656 211.924 87.792 213.18 87.004C212.088 87.28 211.152 85.904 211.42 84.808C211.688 83.712 212.684 82.968 213.66 82.408C215.087 81.5707 216.61 80.9086 218.196 80.436C218.732 78.524 221.208 76.36 222.996 75.528C230.276 72.172 235.364 71.352 244.532 78.208" fill="#263238"/>
<path d="M224.244 91.812C224.872 86.828 228.568 80.892 233.52 81.732L248.844 86.632C249.57 86.7556 250.223 87.1465 250.674 87.7278C251.126 88.309 251.343 89.0383 251.284 89.772L248.684 123.096C248.52 125.201 247.635 127.184 246.177 128.711C244.719 130.238 242.779 131.215 240.684 131.476C239.381 131.637 238.059 131.516 236.807 131.121C235.555 130.726 234.403 130.067 233.427 129.188C232.452 128.31 231.677 127.232 231.155 126.027C230.633 124.823 230.375 123.52 230.4 122.208C230.444 119.916 230.468 118.208 230.468 118.208C230.468 118.208 224.14 116.752 223.336 108.328C222.92 104.136 223.548 97.348 224.244 91.812Z" fill="#824E44"/>
<path d="M227.044 98.584C227.024 98.8623 227.114 99.1374 227.294 99.3504C227.474 99.5635 227.73 99.6976 228.008 99.724C228.143 99.7431 228.281 99.7349 228.414 99.7C228.546 99.6651 228.67 99.6041 228.778 99.5206C228.887 99.4372 228.977 99.333 229.045 99.214C229.113 99.0951 229.156 98.9638 229.172 98.828C229.19 98.5498 229.1 98.2753 228.92 98.0621C228.74 97.8488 228.485 97.7134 228.208 97.684C228.072 97.665 227.934 97.6733 227.802 97.7084C227.669 97.7436 227.545 97.8049 227.436 97.8888C227.328 97.9726 227.237 98.0774 227.17 98.1967C227.103 98.3161 227.06 98.4478 227.044 98.584Z" fill="#263238"/>
<path d="M225.5 95.44C225.624 95.588 226.472 95.04 227.624 95.112C228.776 95.184 229.58 95.816 229.716 95.684C229.78 95.624 229.66 95.364 229.316 95.072C228.839 94.6966 228.258 94.4773 227.652 94.444C227.054 94.4059 226.458 94.5586 225.952 94.88C225.576 95.128 225.44 95.372 225.5 95.44Z" fill="#263238"/>
<path d="M237.6 99.024C237.58 99.3027 237.669 99.5783 237.849 99.792C238.03 100.006 238.286 100.141 238.564 100.168C238.699 100.187 238.837 100.179 238.97 100.144C239.102 100.109 239.226 100.048 239.334 99.9647C239.443 99.8812 239.533 99.777 239.601 99.658C239.669 99.5391 239.712 99.4078 239.728 99.272C239.748 98.9933 239.659 98.7177 239.479 98.5041C239.298 98.2904 239.042 98.1554 238.764 98.128C238.629 98.1089 238.491 98.1171 238.358 98.152C238.226 98.187 238.102 98.2479 237.994 98.3314C237.885 98.4148 237.795 98.5191 237.727 98.638C237.659 98.7569 237.616 98.8882 237.6 99.024Z" fill="#263238"/>
<path d="M236.8 96.356C236.924 96.504 237.776 95.956 238.924 96.032C240.072 96.108 240.884 96.732 241.016 96.6C241.08 96.54 240.964 96.28 240.616 95.992C240.14 95.6147 239.558 95.3952 238.952 95.364C238.354 95.3222 237.758 95.4736 237.252 95.796C236.876 96.048 236.74 96.292 236.8 96.356Z" fill="#263238"/>
<path d="M232.092 104.636C232.092 104.568 231.396 104.4 230.244 104.18C229.952 104.132 229.68 104.056 229.64 103.852C229.635 103.546 229.723 103.247 229.892 102.992L230.9 100.808C232.304 97.7 233.34 95.132 233.216 95.076C233.092 95.02 231.848 97.5 230.444 100.608L229.472 102.808C229.265 103.151 229.186 103.556 229.248 103.952C229.283 104.059 229.343 104.156 229.422 104.236C229.501 104.316 229.598 104.376 229.704 104.412C229.864 104.468 230.031 104.502 230.2 104.512C231.36 104.648 232.084 104.7 232.092 104.636Z" fill="#263238"/>
<path d="M230.452 118.204C234.376 118.509 238.307 117.718 241.808 115.92C241.808 115.92 238.74 121.48 230.444 120.18L230.452 118.204Z" fill="#5B342F"/>
<path d="M236.588 91.6C236.68 91.92 237.84 91.844 239.18 92.088C240.52 92.332 241.58 92.772 241.788 92.488C241.876 92.356 241.704 92.052 241.28 91.72C240.715 91.3126 240.065 91.0389 239.379 90.9197C238.693 90.8005 237.989 90.8389 237.32 91.032C236.8 91.2 236.548 91.436 236.588 91.6Z" fill="#263238"/>
<path d="M226.152 91.504C226.34 91.776 227.148 91.556 228.104 91.604C229.06 91.652 229.852 91.888 230.056 91.624C230.144 91.496 230.032 91.224 229.696 90.96C229.241 90.6334 228.699 90.4495 228.139 90.4317C227.579 90.4139 227.027 90.563 226.552 90.86C226.2 91.108 226.072 91.372 226.152 91.504Z" fill="#263238"/>
<path d="M220.424 95.756C220.48 94.434 220.992 93.172 221.872 92.184C222.372 91.668 223 91.284 223.444 90.72C224.404 89.5 224.304 87.784 224.728 86.292C225.011 85.3297 225.52 84.449 226.212 83.7233C226.904 82.9975 227.76 82.4478 228.708 82.12C230.284 81.588 232.056 81.692 233.54 80.92C234.636 80.36 235.48 79.376 236.608 78.884C238.804 77.924 241.312 79.088 243.348 80.348C243.748 81.988 242.668 83.384 241.648 84.724C241.132 85.393 240.477 85.9421 239.729 86.3337C238.98 86.7252 238.156 86.9498 237.312 86.992C236.008 87.048 234.488 86.724 233.556 87.64C232.624 88.556 232.92 90.332 232.104 91.44C230.944 93.04 228.376 92.372 226.664 93.332C225.344 94.076 224.764 95.632 224.08 96.988C223.396 98.344 222.236 99.744 220.72 99.648C220.472 98.3664 220.372 97.0604 220.424 95.756Z" fill="#263238"/>
<path d="M240.04 83.284C243.868 83.2963 247.658 84.0488 251.2 85.5C252.248 85.932 253.336 86.476 253.92 87.448C254.436 88.304 254.484 89.356 254.452 90.352C254.36 93.48 253.036 97.284 251.792 100.156L247.848 102.424C244.852 101.66 246.324 96.492 246.516 93.892C245.474 93.3984 244.593 92.6215 243.973 91.6502C243.352 90.6789 243.018 89.5525 243.008 88.4C242.16 87.8258 241.453 87.0675 240.939 86.1816C240.425 85.2957 240.117 84.3052 240.04 83.284Z" fill="#263238"/>
<path d="M247.908 101.304C248.056 99.516 250.26 99.208 251.78 100.156C252.616 100.676 253.232 101.688 253.092 103.584C252.692 108.644 247.712 107.22 247.712 107.076C247.712 106.932 247.732 103.396 247.908 101.304Z" fill="#824E44"/>
<path d="M249.404 105.272C249.428 105.272 249.488 105.344 249.632 105.42C249.732 105.473 249.841 105.506 249.954 105.517C250.066 105.528 250.18 105.517 250.288 105.484C250.836 105.328 251.352 104.512 251.444 103.604C251.49 103.171 251.438 102.734 251.292 102.324C251.256 102.163 251.181 102.013 251.075 101.887C250.968 101.761 250.833 101.662 250.68 101.6C250.58 101.567 250.472 101.569 250.374 101.606C250.275 101.643 250.193 101.713 250.14 101.804C250.064 101.94 250.088 102.044 250.06 102.052C250.032 102.06 249.956 101.956 250.012 101.752C250.052 101.629 250.13 101.522 250.236 101.448C250.384 101.355 250.561 101.322 250.732 101.356C250.937 101.414 251.124 101.522 251.275 101.672C251.426 101.822 251.537 102.008 251.596 102.212C251.779 102.666 251.847 103.157 251.796 103.644C251.688 104.66 251.092 105.576 250.344 105.732C250.205 105.762 250.06 105.76 249.921 105.726C249.783 105.692 249.654 105.627 249.544 105.536C249.404 105.396 249.384 105.28 249.404 105.272Z" fill="#5B342F"/>
<path d="M251.832 108.492C252.099 108.506 252.367 108.494 252.632 108.456C252.94 108.418 253.241 108.333 253.524 108.204L253.464 108.172C253.525 108.605 253.698 109.014 253.966 109.36C254.233 109.706 254.586 109.976 254.989 110.145C255.393 110.313 255.833 110.373 256.267 110.32C256.701 110.266 257.113 110.101 257.464 109.84H257.376C257.527 110.072 257.762 110.235 258.032 110.296C258.306 110.357 258.593 110.338 258.856 110.24C259.13 110.144 259.365 109.959 259.524 109.716C259.682 109.467 259.776 109.182 259.796 108.888C259.826 108.278 259.642 107.677 259.276 107.188C258.894 106.695 258.453 106.251 257.964 105.864V105.984C258.178 105.853 258.362 105.679 258.504 105.472C258.646 105.265 258.743 105.031 258.788 104.784C258.896 104.284 258.854 103.764 258.668 103.288C258.467 102.808 258.174 102.373 257.804 102.008C257.428 101.637 257.027 101.292 256.604 100.976V101.088C256.789 100.895 256.931 100.665 257.021 100.414C257.112 100.162 257.148 99.8945 257.128 99.628C257.099 99.0803 256.91 98.5531 256.584 98.112C255.948 97.272 255.008 96.796 254.144 96.348L254.184 96.436C254.325 95.9089 254.336 95.3554 254.216 94.8233C254.095 94.2911 253.847 93.7962 253.493 93.3812C253.138 92.9663 252.689 92.6437 252.182 92.4414C251.675 92.2391 251.127 92.1631 250.584 92.22L250.66 92.308C250.75 91.8738 250.739 91.4249 250.628 90.9956C250.517 90.5664 250.309 90.1683 250.02 89.832C249.766 89.5078 249.444 89.2426 249.077 89.0548C248.711 88.867 248.308 88.7609 247.896 88.744L247.96 88.808C247.956 88.3766 247.854 87.9517 247.661 87.5656C247.469 87.1796 247.19 86.8425 246.848 86.58C246.558 86.3382 246.222 86.1582 245.86 86.0509C245.499 85.9436 245.119 85.9113 244.744 85.956L244.8 86.008C244.777 85.5456 244.639 85.0962 244.4 84.7C244.203 84.3471 243.949 84.0294 243.648 83.76C243.177 83.3159 242.572 83.0414 241.928 82.98H241.74C241.68 82.98 241.62 82.98 241.56 82.98C241.453 82.9839 241.346 82.9946 241.24 83.012C241.074 83.0405 240.911 83.0833 240.752 83.14L240.468 83.256L240.376 83.296L240.476 83.268L240.764 83.164C240.922 83.1153 241.084 83.0779 241.248 83.052C241.353 83.0354 241.458 83.0274 241.564 83.028H241.74L241.924 83.048C242.553 83.115 243.141 83.3894 243.596 83.828C243.889 84.094 244.136 84.4078 244.324 84.756C244.545 85.1406 244.67 85.5728 244.688 86.016V86.076H244.744C245.105 86.0356 245.471 86.0691 245.819 86.1743C246.167 86.2795 246.49 86.4543 246.768 86.688C247.093 86.9416 247.357 87.2654 247.539 87.6354C247.721 88.0053 247.817 88.4117 247.82 88.824V88.888H247.884C248.288 88.9183 248.682 89.0334 249.039 89.2258C249.395 89.4182 249.708 89.6836 249.955 90.0047C250.203 90.3258 250.38 90.6954 250.475 91.0895C250.57 91.4836 250.582 91.8933 250.508 92.292L250.484 92.392H250.584C251.103 92.331 251.629 92.3981 252.116 92.5873C252.603 92.7766 253.037 93.0823 253.379 93.4777C253.72 93.8731 253.96 94.3462 254.077 94.8556C254.193 95.365 254.184 95.8953 254.048 96.4V96.46L254.1 96.488C254.964 96.936 255.88 97.408 256.5 98.212C256.811 98.6257 256.991 99.1231 257.016 99.64C257.034 99.8851 257.001 100.131 256.918 100.363C256.836 100.594 256.705 100.806 256.536 100.984L256.472 101.044L256.54 101.096C257.34 101.744 258.176 102.428 258.54 103.348C258.714 103.796 258.753 104.286 258.652 104.756C258.61 104.98 258.521 105.194 258.392 105.382C258.262 105.57 258.095 105.729 257.9 105.848L257.812 105.9L257.888 105.968C258.371 106.343 258.805 106.777 259.18 107.26C259.531 107.717 259.709 108.284 259.684 108.86C259.681 109.129 259.598 109.391 259.447 109.613C259.295 109.835 259.081 110.007 258.832 110.108C258.604 110.208 258.348 110.229 258.106 110.167C257.865 110.104 257.651 109.962 257.5 109.764L257.464 109.708L257.412 109.744C257.046 110.01 256.614 110.17 256.162 110.205C255.711 110.241 255.259 110.15 254.856 109.944C254.522 109.764 254.233 109.509 254.013 109.2C253.792 108.891 253.646 108.535 253.584 108.16V108.1L253.532 108.128C253.258 108.255 252.967 108.34 252.668 108.38C252.404 108.423 252.136 108.439 251.868 108.428C251.444 108.428 251.024 108.339 250.636 108.168C250.392 108.071 250.189 107.893 250.06 107.664C249.98 107.504 249.968 107.408 249.96 107.412V107.48C249.974 107.547 249.997 107.611 250.028 107.672C250.151 107.913 250.355 108.103 250.604 108.208" fill="#455A64"/>
<path d="M269.312 102.324C269.389 102.23 269.454 102.128 269.508 102.02C269.719 101.617 269.82 101.165 269.802 100.711C269.785 100.256 269.649 99.8139 269.408 99.428C269.206 99.1126 268.939 98.8429 268.627 98.6363C268.314 98.4296 267.962 98.2906 267.592 98.228L267.636 98.288C267.824 97.4328 267.681 96.5381 267.236 95.784C266.993 95.3608 266.661 94.9952 266.264 94.712C265.828 94.4439 265.367 94.2175 264.888 94.036C264.652 93.933 264.432 93.7984 264.232 93.636C264.037 93.4608 263.883 93.2451 263.78 93.004C263.564 92.516 263.504 91.94 263.228 91.404C262.936 90.8621 262.489 90.42 261.943 90.1349C261.398 89.8497 260.78 89.7344 260.168 89.804L260.256 89.892C260.354 89.2797 260.31 88.6531 260.127 88.0605C259.945 87.4678 259.629 86.9248 259.205 86.4732C258.78 86.0216 258.257 85.6735 257.676 85.4556C257.096 85.2376 256.473 85.1557 255.856 85.216L255.94 85.3C256.024 84.6257 255.913 83.9416 255.621 83.3282C255.328 82.7149 254.867 82.1978 254.291 81.838C253.714 81.4781 253.047 81.2905 252.368 81.2973C251.688 81.304 251.025 81.5048 250.456 81.876H250.536C250.041 81.384 249.444 81.0058 248.788 80.768C248.206 80.5407 247.597 80.3888 246.976 80.316C245.974 80.1886 244.956 80.2401 243.972 80.468C243.339 80.6072 242.732 80.8476 242.176 81.18C242.028 81.266 241.888 81.3636 241.756 81.472C241.71 81.505 241.666 81.5411 241.624 81.58C241.624 81.58 241.812 81.44 242.196 81.212C242.755 80.8976 243.36 80.6709 243.988 80.54C244.965 80.3266 245.973 80.286 246.964 80.42C247.574 80.4978 248.172 80.651 248.744 80.876C249.37 81.1281 249.935 81.5114 250.4 82L250.436 82.04L250.484 82.012C251.031 81.6574 251.668 81.4664 252.32 81.4614C252.972 81.4565 253.612 81.6377 254.164 81.9839C254.717 82.3301 255.159 82.8268 255.439 83.4156C255.719 84.0045 255.824 84.661 255.744 85.308V85.404H255.84C256.435 85.3446 257.035 85.4225 257.595 85.6316C258.155 85.8407 258.66 86.1754 259.07 86.61C259.48 87.0447 259.785 87.5676 259.962 88.1387C260.138 88.7097 260.181 89.3136 260.088 89.904V90.004H260.192C260.771 89.9372 261.356 90.0442 261.874 90.3113C262.392 90.5785 262.819 90.9936 263.1 91.504C263.36 91.996 263.424 92.568 263.652 93.084C263.764 93.344 263.932 93.5762 264.144 93.764C264.353 93.9294 264.585 94.0641 264.832 94.164C265.305 94.3419 265.76 94.5629 266.192 94.824C266.576 95.0944 266.897 95.4452 267.132 95.852C267.573 96.5779 267.723 97.444 267.552 98.276V98.328H267.604C267.961 98.3861 268.303 98.5177 268.606 98.7147C268.91 98.9116 269.169 99.1695 269.368 99.472C269.666 99.9307 269.807 100.474 269.768 101.02C269.747 101.363 269.66 101.698 269.512 102.008C269.38 102.22 269.308 102.32 269.312 102.324Z" fill="#455A64"/>
<path d="M220.856 102.876C220.888 102.815 220.907 102.748 220.912 102.679C220.916 102.61 220.907 102.541 220.884 102.476C220.825 102.312 220.724 102.166 220.592 102.052C220.41 101.902 220.199 101.792 219.972 101.728C219.69 101.653 219.421 101.537 219.172 101.384C218.904 101.175 218.709 100.887 218.616 100.56C218.508 100.184 218.471 99.79 218.508 99.4C218.532 99 218.608 98.54 218.616 98.068C218.64 97.108 218.252 96.124 218.02 95.064C217.899 94.5159 217.885 93.9493 217.98 93.396C218.027 93.1074 218.136 92.8324 218.299 92.5895C218.462 92.3466 218.675 92.1415 218.924 91.988C219.493 91.7249 220.092 91.5328 220.708 91.416C221.033 91.3345 221.343 91.1993 221.624 91.016C221.907 90.8096 222.133 90.5342 222.28 90.216C222.537 89.5707 222.726 88.9004 222.844 88.216C222.919 87.8808 223.043 87.5586 223.212 87.26C223.386 86.969 223.652 86.744 223.968 86.62C224.427 86.503 224.899 86.4465 225.372 86.452C225.619 86.4376 225.861 86.3807 226.088 86.284C226.315 86.1816 226.51 86.0216 226.656 85.82C226.9 85.4203 227.086 84.988 227.208 84.536C227.342 84.1166 227.565 83.7307 227.86 83.404C228.141 83.0903 228.483 82.8381 228.866 82.6632C229.248 82.4884 229.663 82.3947 230.084 82.388C230.871 82.3759 231.634 82.6617 232.22 83.188L232.288 83.248L232.328 83.168C232.625 82.5503 233.05 82.0034 233.576 81.5639C234.102 81.1244 234.716 80.8025 235.376 80.62C235.929 80.4724 236.504 80.433 237.072 80.504C237.554 80.5515 238.023 80.6871 238.456 80.904C239.066 81.2135 239.572 81.6946 239.912 82.288C240.006 82.4413 240.088 82.6018 240.156 82.768L240.216 82.892V82.936C240.216 82.936 240.216 82.936 240.216 82.892L240.168 82.76C240.108 82.5891 240.032 82.4243 239.94 82.268C239.607 81.6565 239.1 81.157 238.484 80.832C238.044 80.6048 237.567 80.4584 237.076 80.4C236.496 80.3207 235.906 80.3561 235.34 80.504C234.662 80.6874 234.031 81.0135 233.49 81.4605C232.948 81.9076 232.509 82.4652 232.2 83.096H232.304C231.695 82.541 230.9 82.2354 230.076 82.24C229.636 82.246 229.201 82.3429 228.8 82.5246C228.399 82.7064 228.039 82.969 227.744 83.296C227.431 83.6415 227.196 84.0509 227.056 84.496C226.937 84.9332 226.758 85.3518 226.524 85.74C226.384 85.9168 226.206 86.0595 226.003 86.1572C225.8 86.255 225.577 86.3051 225.352 86.304C224.865 86.3025 224.38 86.3617 223.908 86.48C223.56 86.6191 223.267 86.8676 223.072 87.188C222.888 87.4971 222.753 87.8332 222.672 88.184C222.555 88.8531 222.37 89.5084 222.12 90.14C221.984 90.4335 221.775 90.6869 221.512 90.876C221.247 91.056 220.953 91.1911 220.644 91.276C220.016 91.3942 219.406 91.5918 218.828 91.864C218.552 92.0235 218.32 92.2489 218.152 92.52C217.994 92.7811 217.883 93.0682 217.824 93.368C217.725 93.9388 217.741 94.5236 217.872 95.088C218.112 96.168 218.5 97.132 218.48 98.068C218.48 98.528 218.408 98.972 218.388 99.396C218.35 99.8003 218.392 100.208 218.512 100.596C218.611 100.939 218.82 101.24 219.108 101.452C219.356 101.605 219.626 101.719 219.908 101.792C220.129 101.851 220.336 101.955 220.516 102.096C220.645 102.202 220.744 102.34 220.804 102.496C220.861 102.614 220.879 102.747 220.856 102.876Z" fill="#455A64"/>
<path d="M211.16 94.868C211.16 94.868 211.18 94.836 211.212 94.772L211.356 94.492L211.9 93.4C212.136 92.932 212.404 92.34 212.78 91.696C213.177 90.95 213.776 90.3306 214.508 89.908C214.908 89.692 215.396 89.552 215.876 89.348C216.126 89.2455 216.361 89.1111 216.576 88.948C216.802 88.7763 216.983 88.5526 217.104 88.296C217.352 87.776 217.368 87.18 217.568 86.64C217.662 86.3668 217.836 86.1284 218.068 85.956C218.32 85.7909 218.597 85.668 218.888 85.592C219.199 85.5112 219.502 85.4014 219.792 85.264C220.094 85.108 220.34 84.8619 220.496 84.56C220.808 83.948 220.824 83.256 220.96 82.604C221.014 82.2754 221.133 81.9611 221.312 81.68C221.503 81.4121 221.789 81.2275 222.112 81.164C222.784 81.036 223.496 81.28 224.236 81.164C224.609 81.1053 224.953 80.9303 225.22 80.664C225.47 80.4056 225.686 80.1166 225.864 79.804C226.052 79.508 226.228 79.208 226.436 78.94C226.632 78.6725 226.892 78.4581 227.192 78.316C227.8 78.048 228.484 78.212 229.104 78.364C229.722 78.5688 230.377 78.637 231.024 78.564C231.626 78.4228 232.198 78.1749 232.712 77.832C233.186 77.5162 233.689 77.2482 234.216 77.032C235.192 76.7213 236.239 76.706 237.224 76.988C238.04 77.217 238.793 77.6272 239.428 78.188C239.902 78.6152 240.307 79.1131 240.628 79.664C240.83 80.0135 241 80.3803 241.136 80.76L241.248 81.056C241.259 81.0907 241.274 81.1242 241.292 81.156C241.286 81.1205 241.277 81.0856 241.264 81.052C241.24 80.976 241.208 80.876 241.164 80.748C241.039 80.3612 240.877 79.9875 240.68 79.632C240.361 79.0696 239.956 78.5608 239.48 78.124C238.838 77.5505 238.073 77.1318 237.244 76.9C236.237 76.6054 235.165 76.6152 234.164 76.928C233.629 77.143 233.117 77.411 232.636 77.728C232.134 78.0589 231.577 78.2986 230.992 78.436C230.365 78.5034 229.73 78.4352 229.132 78.236C228.81 78.1464 228.481 78.0822 228.148 78.044C227.798 77.9979 227.441 78.048 227.117 78.1889C226.793 78.3298 226.513 78.5563 226.308 78.844C226.099 79.1254 225.905 79.4178 225.728 79.72C225.554 80.021 225.344 80.3003 225.104 80.552C224.861 80.7943 224.547 80.9538 224.208 81.008C223.512 81.112 222.804 80.864 222.076 81.008C221.719 81.0856 221.405 81.2976 221.2 81.6C221.011 81.8987 220.884 82.2317 220.824 82.58C220.688 83.252 220.668 83.932 220.376 84.5C220.235 84.7763 220.011 85.0015 219.736 85.144C219.455 85.279 219.162 85.3862 218.86 85.464C218.553 85.548 218.262 85.6832 218 85.864C217.747 86.0523 217.557 86.3132 217.456 86.612C217.248 87.184 217.232 87.772 217 88.264C216.753 88.7285 216.338 89.0816 215.84 89.252C215.372 89.456 214.892 89.6 214.468 89.824C213.723 90.2599 213.117 90.8979 212.72 91.664C212.344 92.32 212.084 92.912 211.856 93.388C211.628 93.864 211.456 94.228 211.34 94.488C211.288 94.612 211.244 94.704 211.212 94.776C211.191 94.8046 211.174 94.8355 211.16 94.868Z" fill="#455A64"/>
<path d="M216.64 89.66C216.611 89.6478 216.58 89.641 216.548 89.64C216.454 89.636 216.361 89.6553 216.276 89.696C216.123 89.7896 215.995 89.9197 215.904 90.0746C215.814 90.2296 215.763 90.4046 215.756 90.584C215.753 90.8406 215.785 91.0963 215.852 91.344C215.933 91.6302 215.972 91.9266 215.968 92.224C215.926 92.5603 215.798 92.8801 215.596 93.152C215.396 93.456 215.14 93.748 214.932 94.108C214.811 94.2944 214.735 94.5061 214.709 94.7267C214.684 94.9473 214.709 95.1709 214.784 95.38C214.936 95.816 215.244 96.18 215.392 96.624C215.516 97.092 215.457 97.5896 215.228 98.016C215.024 98.472 214.732 98.916 214.532 99.428C214.423 99.688 214.363 99.9661 214.356 100.248C214.354 100.537 214.414 100.824 214.532 101.088C214.802 101.603 215.116 102.093 215.472 102.552C215.835 103.003 216.016 103.574 215.98 104.152C215.833 104.741 215.616 105.31 215.336 105.848C215.214 106.143 215.145 106.457 215.132 106.776C215.136 107.094 215.213 107.408 215.356 107.692C215.654 108.216 216.012 108.704 216.424 109.144C216.807 109.563 217.1 110.056 217.284 110.592C217.414 111.136 217.579 111.67 217.78 112.192C217.899 112.443 218.071 112.666 218.284 112.844C218.5 113.002 218.74 113.122 218.996 113.2C219.233 113.273 219.466 113.361 219.692 113.464C219.905 113.567 220.1 113.702 220.272 113.864C220.585 114.193 220.854 114.561 221.072 114.96C221.296 115.34 221.508 115.716 221.744 116.052C222.165 116.671 222.776 117.137 223.484 117.38C224.014 117.566 224.578 117.63 225.136 117.568C225.487 117.53 225.83 117.435 226.152 117.288C226.263 117.237 226.37 117.178 226.472 117.112C226.053 117.326 225.599 117.461 225.132 117.512C224.59 117.56 224.044 117.489 223.532 117.304C222.845 117.06 222.254 116.601 221.848 115.996C221.62 115.664 221.416 115.288 221.188 114.904C220.966 114.492 220.689 114.113 220.364 113.776C220.183 113.603 219.978 113.456 219.756 113.34C219.524 113.235 219.287 113.144 219.044 113.068C218.803 112.995 218.577 112.88 218.376 112.728C218.179 112.565 218.02 112.36 217.912 112.128C217.716 111.617 217.555 111.093 217.428 110.56C217.24 110.005 216.939 109.494 216.544 109.06C216.141 108.627 215.79 108.149 215.496 107.636C215.365 107.372 215.295 107.082 215.292 106.788C215.301 106.488 215.366 106.192 215.484 105.916C215.77 105.367 215.989 104.785 216.136 104.184C216.175 103.871 216.137 103.554 216.024 103.26C215.915 102.977 215.773 102.709 215.6 102.46C215.25 102.011 214.939 101.531 214.672 101.028C214.559 100.777 214.502 100.504 214.504 100.228C214.508 99.9624 214.564 99.7002 214.668 99.456C214.86 98.964 215.148 98.52 215.356 98.044C215.599 97.5885 215.656 97.0568 215.516 96.56C215.352 96.088 215.044 95.724 214.9 95.316C214.829 95.1234 214.804 94.917 214.826 94.713C214.848 94.509 214.918 94.3129 215.028 94.14C215.228 93.792 215.48 93.492 215.68 93.184C215.889 92.8957 216.02 92.558 216.06 92.204C216.06 91.8991 216.016 91.5959 215.928 91.304C215.858 91.0635 215.822 90.8145 215.82 90.564C215.823 90.3922 215.868 90.2238 215.951 90.0733C216.034 89.9227 216.153 89.7946 216.296 89.7C216.404 89.6527 216.524 89.6387 216.64 89.66Z" fill="#455A64"/>
<path d="M269.2 102.156C269.334 102.16 269.468 102.149 269.6 102.124C269.986 102.054 270.352 101.904 270.676 101.684C271.201 101.336 271.587 100.815 271.768 100.212C271.888 99.8096 271.917 99.3857 271.853 98.9707C271.789 98.5558 271.635 98.1601 271.4 97.812C271.103 97.4271 270.77 97.0721 270.404 96.752C270.01 96.4261 269.694 96.016 269.48 95.552C269.317 95.0237 269.355 94.4535 269.588 93.952C269.792 93.412 270.096 92.888 270.292 92.292C270.509 91.6342 270.585 90.9384 270.517 90.2492C270.449 89.56 270.238 88.8926 269.896 88.29C269.555 87.6873 269.092 87.1627 268.536 86.7497C267.98 86.3368 267.344 86.0446 266.668 85.892L266.712 86.008C266.951 85.6846 267.108 85.3088 267.172 84.912C267.23 84.5121 267.211 84.1047 267.116 83.712C267.024 83.3117 266.858 82.932 266.628 82.592C266.396 82.2478 266.113 81.9416 265.788 81.684C264.81 80.9639 263.677 80.4818 262.48 80.276C261.361 80.0433 260.215 79.9733 259.076 80.068L259.156 80.14C259.145 79.4845 258.955 78.8445 258.607 78.289C258.258 77.7335 257.765 77.2837 257.18 76.988C256.63 76.716 256.021 76.5867 255.408 76.612C254.834 76.6633 254.271 76.798 253.736 77.012C253.477 77.0984 253.208 77.1534 252.936 77.176C252.679 77.1939 252.421 77.1626 252.176 77.084C251.708 76.9121 251.262 76.6852 250.848 76.408C250.453 76.1506 250.027 75.945 249.58 75.796C249.165 75.6692 248.734 75.6045 248.3 75.604C247.562 75.594 246.834 75.7774 246.188 76.136C245.709 76.4042 245.284 76.7596 244.936 77.184C244.718 77.4482 244.534 77.7384 244.388 78.048C244.335 78.1523 244.291 78.2606 244.256 78.372C244.256 78.372 244.304 78.264 244.412 78.056C244.565 77.7552 244.753 77.4733 244.972 77.216C245.323 76.8031 245.748 76.4587 246.224 76.2C246.861 75.8555 247.576 75.6819 248.3 75.696C248.724 75.7015 249.144 75.7688 249.548 75.896C249.986 76.043 250.403 76.2474 250.788 76.504C251.21 76.7872 251.664 77.0207 252.14 77.2C252.398 77.2814 252.669 77.3152 252.94 77.3C253.212 77.2763 253.481 77.2199 253.74 77.132C254.263 76.9206 254.814 76.7859 255.376 76.732C255.966 76.7095 256.552 76.8361 257.08 77.1C257.642 77.384 258.115 77.8163 258.448 78.35C258.782 78.8838 258.963 79.4987 258.972 80.128V80.208H259.052C260.176 80.1185 261.308 80.1899 262.412 80.42C263.585 80.6248 264.695 81.097 265.656 81.8C265.965 82.0491 266.234 82.343 266.456 82.672C266.676 82.998 266.834 83.3613 266.924 83.744C267.015 84.1198 267.033 84.5095 266.976 84.892C266.917 85.2649 266.77 85.6185 266.548 85.924L266.476 86.016L266.592 86.044C267.247 86.192 267.865 86.4749 268.404 86.8749C268.944 87.2748 269.394 87.7829 269.727 88.3667C270.059 88.9505 270.266 89.5972 270.335 90.2655C270.403 90.9338 270.331 91.609 270.124 92.248C269.936 92.828 269.632 93.352 269.424 93.904C269.183 94.4362 269.147 95.039 269.324 95.596C269.545 96.0839 269.875 96.5148 270.288 96.856C270.65 97.1678 270.979 97.5149 271.272 97.892C271.505 98.2256 271.661 98.6065 271.731 99.0074C271.8 99.4084 271.78 99.8196 271.672 100.212C271.501 100.803 271.129 101.317 270.62 101.664C270.305 101.884 269.948 102.04 269.572 102.12C269.328 102.148 269.2 102.148 269.2 102.156Z" fill="#263238"/>
<path d="M214.916 86.144C214.92 86.1121 214.92 86.0799 214.916 86.048C214.916 85.976 214.916 85.884 214.948 85.764C214.98 85.504 215.02 85.14 215.072 84.672C215.124 84.204 215.204 83.62 215.348 82.96C215.497 82.2105 215.735 81.4813 216.056 80.788C216.443 79.947 217.006 79.1994 217.708 78.596C218.103 78.2693 218.547 78.0074 219.024 77.82C219.542 77.6475 220.069 77.5059 220.604 77.396C221.175 77.2717 221.718 77.041 222.204 76.716C222.693 76.3514 223.133 75.9268 223.516 75.452C223.916 74.988 224.316 74.492 224.744 74.048C225.186 73.5917 225.708 73.2202 226.284 72.952C227.46 72.459 228.725 72.2165 230 72.24C231.177 72.2223 232.353 72.2918 233.52 72.448C235.494 72.698 237.413 73.2724 239.2 74.148C240.404 74.7461 241.506 75.5319 242.464 76.476C242.632 76.648 242.784 76.792 242.908 76.928L243.208 77.284L243.392 77.5C243.436 77.548 243.46 77.572 243.46 77.568C243.445 77.539 243.426 77.5121 243.404 77.488L243.232 77.264C243.148 77.164 243.052 77.04 242.94 76.9C242.828 76.76 242.672 76.608 242.508 76.432C241.559 75.4602 240.458 74.6496 239.248 74.032C237.451 73.1322 235.514 72.5426 233.52 72.288C232.347 72.1256 231.164 72.0521 229.98 72.068C228.698 72.05 227.426 72.2965 226.244 72.792C225.647 73.0676 225.104 73.4499 224.644 73.92C224.192 74.376 223.808 74.872 223.412 75.336C223.038 75.8006 222.606 76.2159 222.128 76.572C221.656 76.8916 221.126 77.117 220.568 77.236C220.026 77.3487 219.492 77.4943 218.968 77.672C218.48 77.8645 218.026 78.1346 217.624 78.472C216.913 79.0904 216.343 79.8543 215.952 80.712C215.634 81.4164 215.402 82.1563 215.26 82.916C215.146 83.4859 215.062 84.0614 215.008 84.64C214.96 85.112 214.932 85.484 214.916 85.736C214.916 85.852 214.916 85.948 214.896 86.02L214.916 86.144Z" fill="#263238"/>
<path d="M237.048 107.296C237.026 106.955 236.913 106.626 236.719 106.344C236.525 106.062 236.259 105.838 235.948 105.696C235.633 105.563 235.284 105.53 234.949 105.602C234.614 105.673 234.31 105.846 234.076 106.096C233.868 106.346 233.747 106.656 233.731 106.981C233.714 107.305 233.803 107.626 233.984 107.896C234.156 108.174 234.406 108.396 234.704 108.532C235.091 108.699 235.519 108.745 235.932 108.664C236.276 108.617 236.591 108.444 236.816 108.18C236.995 107.922 237.077 107.609 237.048 107.296Z" fill="#5B342F"/>
<path d="M236.4 104.836C236.212 104.836 236.312 106.104 235.304 107.096C234.296 108.088 232.932 108.056 232.94 108.236C232.94 108.316 233.26 108.456 233.832 108.424C234.574 108.37 235.274 108.059 235.812 107.544C236.327 107.048 236.628 106.371 236.652 105.656C236.66 105.12 236.492 104.82 236.4 104.836Z" fill="#263238"/>
<path d="M258.532 125.86L248.704 122.132C248.704 122.132 241.104 126.632 235.284 125.7C230.756 124.976 230.384 122.648 230.384 122.648L224.94 123.528C224.94 123.528 216.688 130.4 214.968 137.352C213.948 141.468 213.704 146.86 213.704 151.588C213.704 153.48 216.104 160.964 216.104 160.964L217.04 171.792L212.484 189.844H260.036V139.904L258.532 125.86Z" fill="#EDE538"/>
<path d="M205.324 155.652L198.42 138.364L218.232 124.56L224.94 123.528L223.196 147.996L205.324 155.652Z" fill="#EDE538"/>
<path d="M215.668 158.936C215.619 158.86 215.578 158.78 215.544 158.696C215.472 158.532 215.348 158.296 215.228 157.988C214.868 157.107 214.573 156.2 214.344 155.276C213.624 152.214 213.419 149.053 213.736 145.924C214.062 142.806 214.637 139.718 215.456 136.692C215.76 135.532 216.016 134.592 216.2 133.948L216.42 133.204C216.441 133.116 216.471 133.03 216.508 132.948C216.503 133.039 216.487 133.129 216.46 133.216C216.412 133.408 216.352 133.66 216.28 133.968C216.112 134.644 215.88 135.568 215.6 136.728C214.825 139.75 214.271 142.825 213.944 145.928C213.628 149.037 213.812 152.177 214.488 155.228C214.697 156.148 214.964 157.054 215.288 157.94C215.396 158.256 215.504 158.496 215.564 158.66C215.61 158.748 215.645 158.84 215.668 158.936Z" fill="#263238"/>
<g opacity="0.3">
<path d="M213.408 149.372L213.84 149.06C213.814 143.697 214.679 138.367 216.4 133.288C213.2 138.052 211.832 144.048 213.408 149.372Z" fill="black"/>
</g>
<path opacity="0.3" d="M227.04 146.984C227.04 146.984 233.84 172.228 237.66 176.856C241.48 181.484 243.536 182.856 249.396 183.332C255.256 183.808 257.432 177.02 258.736 174.376C260.04 171.732 259.8 167.764 259.8 167.764L251.8 163.3L245.48 173.7L229.2 146.532L227.04 146.984Z" fill="black"/>
<path d="M228.108 150.272C228.108 150.272 235.052 166.428 240.032 175.692C244.248 183.54 252.832 182.668 255.58 178.304C258.328 173.94 262.876 160.876 262.876 160.876L248.368 158.328L246.768 162.924L235.768 148.896L228.108 150.272Z" fill="#824E44"/>
<path d="M239.976 147.94L238.908 143.108C238.908 143.108 238.42 141.772 237.624 142.952C236.828 144.132 237.2 146.356 237.2 146.356C237.2 146.356 235.696 134.864 234.376 133.612C233.892 133.152 233.232 133.784 233.232 133.784C233.232 133.784 233.076 131.536 232.372 131.548C231.668 131.56 231.004 133.24 231.004 133.24C230.743 133.107 230.443 133.07 230.157 133.135C229.872 133.2 229.618 133.363 229.44 133.596C228.824 134.344 228.82 140.592 228.82 140.592C228.82 140.592 228.232 135.444 227.312 135.12C225.832 134.6 225.832 136.56 225.832 136.56L226.264 143.26C226.264 143.26 227.064 147.832 228.084 150.708C229.104 153.584 229.684 153.612 229.684 153.612L236.304 153.436C236.304 153.436 237.8 152.072 238.976 151.012C239.4 150.635 239.716 150.151 239.892 149.611C240.068 149.072 240.097 148.495 239.976 147.94Z" fill="#824E44"/>
<path d="M251.2 169.44C251.155 169.376 251.118 169.308 251.088 169.236C251.012 169.084 250.92 168.888 250.804 168.648L250.288 167.752C250.08 167.412 249.82 167.028 249.548 166.604C248.4 164.924 246.668 162.712 244.7 160.316C242.732 157.92 240.904 155.772 239.628 154.188C238.988 153.388 238.484 152.744 238.144 152.284L237.768 151.748C237.719 151.688 237.679 151.622 237.648 151.552C237.704 151.605 237.755 151.662 237.8 151.724L238.2 152.236C238.556 152.676 239.076 153.312 239.732 154.092C241.036 155.652 242.872 157.784 244.848 160.184C246.824 162.584 248.536 164.816 249.648 166.52C249.916 166.956 250.168 167.344 250.372 167.696C250.576 168.048 250.732 168.356 250.856 168.612C250.98 168.868 251.04 169.06 251.108 169.224C251.147 169.292 251.178 169.364 251.2 169.44Z" fill="#5B342F"/>
<path d="M256.9 125.428C256.9 125.428 264.82 127.048 266.8 136C268.632 144.244 268.064 161.78 268.064 161.78L246.512 158L251.76 128.06L256.9 125.428Z" fill="#EDE538"/>
<path d="M249.572 139.732C249.576 139.764 249.576 139.796 249.572 139.828C249.572 139.904 249.548 139.992 249.536 140.104C249.496 140.364 249.444 140.716 249.376 141.164C249.228 142.104 249.016 143.432 248.756 145.068C248.208 148.38 247.456 152.94 246.616 158.012L246.532 157.892L247.24 158.02L260.624 160.42L264.676 161.2L265.776 161.416L266.06 161.476L266.156 161.504C266.123 161.51 266.089 161.51 266.056 161.504L265.768 161.46L264.66 161.284L260.596 160.592L247.2 158.224L246.492 158.1L246.392 158.08V157.98C247.256 152.912 248.028 148.352 248.592 145.044C248.88 143.412 249.112 142.088 249.28 141.152C249.36 140.708 249.428 140.352 249.476 140.096C249.476 139.988 249.516 139.896 249.532 139.824C249.54 139.791 249.554 139.76 249.572 139.732Z" fill="#263238"/>
<path d="M250.8 136.856C250.84 136.68 250.895 136.507 250.964 136.34C251.084 136.016 251.264 135.54 251.508 134.976C252.104 133.458 252.984 132.068 254.1 130.88C254.739 130.242 255.485 129.722 256.304 129.344C256.969 129.034 257.671 128.81 258.392 128.676C258.875 128.583 259.365 128.532 259.856 128.524C260.036 128.511 260.218 128.521 260.396 128.552C259.733 128.606 259.073 128.696 258.42 128.82C256.846 129.143 255.397 129.909 254.244 131.028C253.15 132.199 252.27 133.553 251.644 135.028L251.04 136.364C250.979 136.536 250.898 136.702 250.8 136.856Z" fill="#263238"/>
<path d="M230.88 141.6C230.809 141.196 230.773 140.786 230.772 140.376C230.732 139.62 230.688 138.576 230.684 137.416C230.671 136.427 230.711 135.437 230.804 134.452C230.821 134.045 230.888 133.642 231.004 133.252C231.007 133.661 230.988 134.069 230.948 134.476C230.908 135.228 230.888 136.272 230.892 137.428C230.896 138.584 230.892 139.564 230.916 140.384C230.938 140.79 230.926 141.196 230.88 141.6Z" fill="#5B342F"/>
<path d="M233.068 133.86C233.119 134.191 233.14 134.525 233.132 134.86C233.132 135.476 233.176 136.328 233.224 137.26C233.272 138.192 233.332 139.048 233.38 139.66C233.423 139.991 233.437 140.326 233.42 140.66C233.32 140.34 233.257 140.01 233.232 139.676C233.148 139.06 233.064 138.212 233.016 137.276C232.968 136.34 232.964 135.476 232.984 134.856C232.975 134.522 233.003 134.188 233.068 133.86Z" fill="#5B342F"/>
<path d="M84.204 87.524C83.672 83.964 82.788 80.072 80.44 77.344C78.859 75.4401 76.9735 73.8114 74.86 72.524C72.484 71.088 70.388 70.616 67.84 70.344L66.168 71.828C71.516 73.12 76.168 76.836 78.9 81.608C81.632 86.38 82.5 92.14 81.6 97.572C81.02 101.124 79.728 104.52 78.744 107.972C77.76 111.424 77.084 115.1 77.768 118.636C80.704 117.496 79.876 119.436 81.116 116.528C82.356 113.62 83 107.248 83.72 104.176C84.908 99.128 84.94 92.4 84.204 87.524Z" fill="#455A64"/>
<path d="M81.324 79.6C76.82 72.596 66.3 70.436 66.3 70.436C50.9 69.336 48.148 81.168 46.592 91.948C45.628 98.644 49.2 119.6 49.2 119.6L52.972 120.964H77.772C77.772 120.512 79.528 116.72 79.96 115.484C82.2 104.252 83.976 83.716 81.324 79.6Z" fill="#263238"/>
<path d="M68.492 74.448L67.528 73.528L57.128 77.724C56.4035 77.7635 55.7201 78.0729 55.2122 78.5911C54.7044 79.1093 54.4089 79.7989 54.384 80.524L54.476 114.448C54.476 116.748 54.92 118.74 56.312 120.572L57.772 122.504C61.108 126.904 67.968 126.544 70.604 121.704C70.7666 121.43 70.8917 121.135 70.976 120.828C71.0401 120.578 71.0909 120.324 71.128 120.068C71.44 117.34 71.456 114.972 71.456 114.972C71.644 111.976 71.704 110.748 71.704 110.776C71.704 110.804 78.08 110.044 79.804 101.856C80.664 97.784 80.5 92.184 80.26 86.656C79.916 79.048 74.624 74.44 68.492 74.448Z" fill="#FFBF9D"/>
<path d="M66.608 91.764C66.5966 92.0402 66.4777 92.301 66.2766 92.4908C66.0756 92.6806 65.8084 92.7844 65.532 92.78C65.3971 92.7837 65.2628 92.7604 65.1371 92.7115C65.0113 92.6626 64.8966 92.589 64.7997 92.4951C64.7028 92.4011 64.6256 92.2888 64.5728 92.1646C64.52 92.0404 64.4925 91.9069 64.492 91.772C64.5034 91.4961 64.6216 91.2355 64.8217 91.0451C65.0217 90.8548 65.2879 90.7497 65.564 90.752C65.6993 90.7488 65.8339 90.7726 65.9599 90.8219C66.0859 90.8712 66.2008 90.9451 66.298 91.0393C66.3951 91.1335 66.4726 91.2461 66.5258 91.3705C66.579 91.4949 66.607 91.6287 66.608 91.764Z" fill="#263238"/>
<path d="M77.096 92.12C77.0846 92.3955 76.9662 92.6558 76.7661 92.8454C76.5659 93.0351 76.2997 93.1394 76.024 93.136C75.8889 93.1397 75.7544 93.1165 75.6284 93.0676C75.5024 93.0187 75.3875 92.9452 75.2902 92.8513C75.193 92.7574 75.1155 92.6451 75.0622 92.5209C75.009 92.3967 74.981 92.2631 74.98 92.128C74.9914 91.8521 75.1096 91.5915 75.3096 91.4011C75.5097 91.2108 75.7759 91.1057 76.052 91.108C76.1873 91.1048 76.3218 91.1286 76.4478 91.1779C76.5738 91.2272 76.6888 91.3012 76.7859 91.3953C76.8831 91.4895 76.9606 91.6021 77.0138 91.7265C77.067 91.8509 77.095 91.9847 77.096 92.12Z" fill="#263238"/>
<path d="M79.16 88.856C79.02 88.988 78.248 88.356 77.108 88.3C75.968 88.244 75.108 88.776 74.992 88.628C74.932 88.564 75.08 88.32 75.456 88.076C75.9655 87.7585 76.5606 87.6062 77.16 87.64C77.7529 87.668 78.3216 87.8837 78.784 88.256C79.12 88.544 79.228 88.8 79.16 88.856Z" fill="#263238"/>
<path d="M67.6 88.976C67.448 89.092 66.744 88.38 65.6 88.212C64.456 88.044 63.56 88.476 63.46 88.32C63.408 88.248 63.58 88.024 63.98 87.816C64.5193 87.5521 65.1275 87.4626 65.72 87.56C66.3069 87.6489 66.8504 87.9221 67.272 88.34C67.6 88.656 67.676 88.924 67.6 88.976Z" fill="#263238"/>
<path d="M71.6 97.264C71.6 97.2 72.312 97.112 73.468 97.024C73.76 97.024 74.036 96.964 74.096 96.768C74.1358 96.4686 74.0827 96.1643 73.944 95.896C73.7094 95.1787 73.46 94.4267 73.196 93.64C72.16 90.44 71.424 87.792 71.556 87.752C71.688 87.712 72.632 90.28 73.668 93.492C73.916 94.292 74.1534 95.048 74.38 95.76C74.5449 96.1213 74.5775 96.5291 74.472 96.912C74.4244 97.0122 74.3547 97.1003 74.2681 97.1696C74.1815 97.2388 74.0802 97.2876 73.972 97.312C73.8094 97.3486 73.6426 97.3634 73.476 97.356C72.3 97.36 71.6 97.328 71.6 97.264Z" fill="#263238"/>
<path d="M71.692 110.8C67.8051 110.656 64.0345 109.436 60.8 107.276C60.8 107.276 63.292 113.128 71.6 112.772L71.692 110.8Z" fill="#FF9A6C"/>
<path d="M70.96 100C70.7575 99.7163 70.4858 99.4891 70.1708 99.3399C69.8557 99.1908 69.5078 99.1247 69.16 99.148C68.9077 99.1577 68.66 99.2184 68.4318 99.3263C68.2036 99.4342 67.9996 99.5872 67.832 99.776C67.6715 99.9586 67.5703 100.186 67.5417 100.427C67.5131 100.669 67.5586 100.913 67.672 101.128C67.845 101.342 68.0779 101.499 68.3409 101.58C68.6039 101.66 68.8849 101.66 69.148 101.58C69.6961 101.415 70.206 101.143 70.648 100.78C70.7806 100.696 70.896 100.587 70.988 100.46C71.0308 100.398 71.0553 100.326 71.0589 100.251C71.0624 100.176 71.0448 100.101 71.008 100.036" fill="#FF9A6C"/>
<path d="M68.188 97.884C68.376 97.884 68.316 99.12 69.332 100.048C70.348 100.976 71.668 100.908 71.668 101.084C71.668 101.16 71.364 101.308 70.804 101.296C70.0795 101.267 69.3882 100.984 68.852 100.496C68.3363 100.028 68.021 99.3788 67.972 98.684C67.952 98.172 68.104 97.872 68.188 97.884Z" fill="#263238"/>
<path d="M68.692 84.536C68.536 84.824 67.432 84.508 66.084 84.464C64.736 84.42 63.612 84.616 63.48 84.316C63.42 84.172 63.652 83.916 64.128 83.68C64.7597 83.406 65.4453 83.2788 66.1333 83.3079C66.8213 83.337 67.4937 83.5217 68.1 83.848C68.556 84.12 68.764 84.4 68.692 84.536Z" fill="#263238"/>
<path d="M78.996 83.964C78.78 84.212 78.012 83.904 77.068 83.844C76.124 83.784 75.316 83.932 75.148 83.652C75.072 83.516 75.212 83.252 75.572 83.036C76.0558 82.7668 76.6085 82.6471 77.1602 82.692C77.712 82.7368 78.2381 82.9442 78.672 83.288C78.992 83.572 79.088 83.844 78.996 83.964Z" fill="#263238"/>
<path d="M54.58 95.016C54.58 95.016 60.412 96.832 63.712 82.436C64.84 77.516 69.404 73.528 69.404 73.528L67.552 72.972C67.552 72.972 56.052 76.212 55.856 76.356C55.66 76.5 52.956 82.304 52.956 82.304L54.58 95.016Z" fill="#263238"/>
<path d="M56 94.48C56.028 93.864 55.392 92.38 54.8 92.256C53.2 91.924 50.264 91.904 50.032 96.02C49.712 101.644 55.424 100.82 55.444 100.644C55.464 100.468 55.916 96.604 56 94.48Z" fill="#FFBF9D"/>
<path d="M53.852 98.4C53.828 98.4 53.748 98.464 53.58 98.528C53.3418 98.6136 53.08 98.6051 52.848 98.504C52.264 98.252 51.82 97.28 51.848 96.264C51.8602 95.7804 51.9819 95.3058 52.204 94.876C52.2662 94.7039 52.3693 94.5495 52.5045 94.4261C52.6397 94.3028 52.8029 94.2142 52.98 94.168C53.0943 94.1435 53.2135 94.1602 53.3167 94.2151C53.4199 94.27 53.5004 94.3595 53.544 94.468C53.612 94.628 53.568 94.74 53.6 94.752C53.632 94.764 53.724 94.664 53.692 94.428C53.6682 94.2876 53.5977 94.1593 53.492 94.064C53.3425 93.9387 53.1506 93.8757 52.956 93.888C52.7242 93.9199 52.5044 94.01 52.3169 94.1499C52.1294 94.2898 51.9805 94.4749 51.884 94.688C51.6171 95.1613 51.4701 95.6928 51.456 96.236C51.428 97.372 51.948 98.464 52.748 98.748C52.8965 98.8 53.0549 98.818 53.2113 98.8007C53.3678 98.7834 53.5184 98.7312 53.652 98.648C53.832 98.552 53.872 98.428 53.852 98.4Z" fill="#FF9A6C"/>
<path d="M58.536 92.264C58.536 92.264 58.844 92.264 59.376 92.092C60.1234 91.8653 60.8081 91.4682 61.376 90.932C61.7701 90.5656 62.1204 90.1549 62.42 89.708C62.7563 89.1887 63.0416 88.6382 63.272 88.064C63.7525 86.7249 64.1532 85.3585 64.472 83.972C64.8326 82.5895 65.2638 81.2263 65.764 79.888C66.1735 78.7949 66.6629 77.7334 67.228 76.712C67.6128 76.0254 68.0431 75.3652 68.516 74.736C68.684 74.512 68.828 74.336 68.916 74.236C68.961 74.1763 69.0119 74.1214 69.068 74.072C69.0292 74.1359 68.9865 74.1974 68.94 74.256C68.856 74.376 68.72 74.54 68.54 74.768C68.0853 75.4089 67.6699 76.0768 67.296 76.768C66.747 77.7909 66.2698 78.8508 65.868 79.94C65.408 81.172 64.984 82.552 64.592 84.016C64.267 85.4078 63.8569 86.7784 63.364 88.12C63.1281 88.7012 62.8346 89.2573 62.488 89.78C62.1796 90.2319 61.8183 90.6455 61.412 91.012C60.8272 91.5523 60.1205 91.9434 59.352 92.152C59.0862 92.2254 58.8118 92.2631 58.536 92.264Z" fill="#263238"/>
<path d="M49.828 115.72C49.9161 115.069 49.9575 114.413 49.952 113.756C49.9283 111.958 49.7463 110.166 49.408 108.4L48.752 104.752C48.4986 103.358 48.3302 101.95 48.248 100.536C48.1492 98.9758 48.2636 97.4093 48.588 95.88C48.7719 95.0767 49.04 94.295 49.388 93.548C49.748 92.7782 50.1949 92.0521 50.72 91.384C51.784 90.0849 52.9693 88.8902 54.26 87.816C55.492 86.752 56.66 85.704 57.724 84.616C59.5936 82.724 61.286 80.6647 62.78 78.464C63.7907 76.9838 64.7058 75.4407 65.52 73.844C65.808 73.28 66.024 72.836 66.16 72.532C66.224 72.3853 66.276 72.2693 66.316 72.184C66.3384 72.1469 66.3546 72.1063 66.364 72.064L66.3 72.18L66.132 72.516C65.984 72.816 65.764 73.256 65.468 73.816C63.3905 77.7603 60.7389 81.3744 57.6 84.54C56.552 85.608 55.376 86.648 54.14 87.716C52.8388 88.7983 51.6452 90.0039 50.576 91.316C50.045 91.9931 49.5927 92.7285 49.228 93.508C48.8806 94.2677 48.6125 95.0612 48.428 95.876C48.1032 97.4188 47.9902 98.9987 48.092 100.572C48.1788 101.991 48.3525 103.403 48.612 104.8C48.856 106.112 49.08 107.332 49.288 108.448C49.6367 110.203 49.8348 111.984 49.88 113.772C49.88 114.404 49.88 114.896 49.844 115.228C49.844 115.388 49.844 115.516 49.82 115.628C49.796 115.74 49.828 115.72 49.828 115.72Z" fill="#455A64"/>
<path d="M48.02 116.248C48.108 115.597 48.1495 114.941 48.144 114.284C48.121 112.49 47.939 110.702 47.6 108.94C47.4 107.824 47.2 106.604 46.948 105.292C46.6923 103.899 46.524 102.49 46.444 101.076C46.3432 99.5171 46.4576 97.9517 46.784 96.424C46.9671 95.6192 47.2353 94.8361 47.584 94.088C47.9458 93.3192 48.3926 92.5933 48.916 91.924C49.9803 90.6251 51.1671 89.4316 52.46 88.36C53.692 87.292 54.86 86.244 55.92 85.16C57.7896 83.2669 59.4832 81.2078 60.98 79.008C61.9841 77.5309 62.894 75.9918 63.704 74.4C63.992 73.836 64.204 73.392 64.34 73.088C64.408 72.94 64.46 72.828 64.496 72.74C64.5159 72.7011 64.5332 72.6611 64.548 72.62C64.5237 72.657 64.5024 72.6958 64.484 72.736C64.44 72.816 64.384 72.932 64.312 73.076C64.168 73.376 63.944 73.812 63.648 74.372C61.5771 78.3071 58.9336 81.913 55.804 85.072C54.756 86.14 53.576 87.18 52.344 88.248C51.04 89.3273 49.8462 90.5332 48.78 91.848C48.2483 92.524 47.7947 93.258 47.428 94.036C47.0787 94.795 46.8106 95.5887 46.628 96.404C46.3013 97.9465 46.1882 99.5267 46.292 101.1C46.3788 102.519 46.5525 103.931 46.812 105.328C47.052 106.64 47.28 107.86 47.484 108.976C47.8316 110.731 48.031 112.512 48.08 114.3C48.08 114.932 48.08 115.424 48.044 115.756L48.02 116.136C48.0153 116.173 48.0153 116.211 48.02 116.248Z" fill="#455A64"/>
<path d="M39.884 189.796C39.884 189.796 39.36 185.112 42.356 177.292C44.808 170.892 47.688 167.344 47.688 167.344L86.488 164.788L89.48 189.796H39.884Z" fill="#263238"/>
<path d="M86.032 150.244C86.6 141.608 86.032 128.516 86.032 128.516L79.632 117.768L71.2 116.444C71.2 116.444 71.176 122.348 66.764 123.324C59.216 124.992 54.296 115.916 54.296 115.916C53.584 115.916 42.848 118.172 39.444 121.412C35.948 124.74 30.16 133.564 28.528 136.096C28.528 136.096 17.2 152.608 15.552 157.136C15.1013 158.289 14.9169 159.529 15.0125 160.763C15.108 161.997 15.4812 163.194 16.104 164.264C16.448 165.284 26.904 180.292 35.012 186.288L35.644 185.088L39.848 177.888L28.96 160L41.6 146.68L44.084 144.348L44.796 147.488L47.86 162.256C47.86 162.256 41.756 174.46 40.9 180.804C40.9 180.804 70.9 191.148 89.432 186.04C89.424 186.04 85.46 158.884 86.032 150.244Z" fill="#EBEBEB"/>
<path d="M54.468 174.644C54.468 174.644 49.388 173.272 48.868 173.56C48.348 173.848 44.564 175.848 44.564 175.848C44.012 176.534 43.4147 177.182 42.776 177.788C42.776 177.788 41.472 179.024 40.576 179.064C40.0947 179.099 39.611 179.048 39.148 178.912L35.636 185.092C35.636 185.092 37.72 187.092 38.836 187.056C39.952 187.02 46.036 184.464 46.036 184.464L47.516 184.144C47.516 184.144 53.068 184.944 53.516 183.276L53.6 182.8L48.144 181.732L46.068 181.852L49.744 180.904C49.744 180.904 54.944 181.156 55.436 181.072C55.928 180.988 56.548 180.296 56.388 179.872L55.316 179.62C55.316 179.62 56.576 178.932 56.616 178.18L51.816 176.88C51.816 176.88 54.9 175.72 54.468 174.644Z" fill="#FFBF9D"/>
<path d="M55.88 179.6C55.7282 179.582 55.579 179.546 55.436 179.492C55.156 179.408 54.752 179.296 54.236 179.164C53.224 178.904 51.836 178.572 50.268 178.228C50.0821 178.181 49.8939 178.143 49.704 178.116C49.5257 178.103 49.3464 178.117 49.172 178.156C48.824 178.252 48.472 178.372 48.148 178.48C47.5 178.7 46.92 178.924 46.444 179.128C45.968 179.332 45.592 179.528 45.34 179.668C45.2135 179.752 45.0796 179.824 44.94 179.884C45.0421 179.77 45.1608 179.671 45.292 179.592C45.639 179.365 46.0012 179.162 46.376 178.984C46.9316 178.721 47.5003 178.488 48.08 178.284C48.412 178.164 48.744 178.044 49.12 177.94C49.3175 177.892 49.5214 177.876 49.724 177.892C49.936 177.892 50.124 177.968 50.32 178.004C51.876 178.352 53.276 178.708 54.276 179.012C54.78 179.164 55.18 179.3 55.452 179.412C55.6031 179.453 55.7473 179.517 55.88 179.6Z" fill="#FF9A6C"/>
<path d="M51.92 177.112C51.9 177.144 51.52 176.932 50.896 176.736C50.0656 176.474 49.1866 176.405 48.3254 176.532C47.4641 176.66 46.643 176.981 45.924 177.472C45.368 177.844 45.08 178.152 45.052 178.124C45.2602 177.805 45.5327 177.532 45.852 177.324C46.5729 176.779 47.4194 176.424 48.3134 176.292C49.2074 176.16 50.1203 176.255 50.968 176.568C51.3181 176.685 51.6416 176.87 51.92 177.112Z" fill="#FF9A6C"/>
<path d="M112.1 138.484L92.3 123.744L84.908 118.876L79.444 117.768L81.764 140.852H86.896L108.972 150.448L136.016 152.744L136.412 144.36L112.1 138.484Z" fill="#EBEBEB"/>
<path d="M86.4 160.364C86.3811 160.25 86.3704 160.135 86.368 160.02C86.368 159.776 86.344 159.452 86.328 159.04C86.296 158.184 86.26 156.948 86.232 155.44C86.204 153.932 86.184 152.092 86.18 150.076C86.176 148.06 86.18 145.836 86.18 143.508C86.18 138.848 85.296 134.708 84.6 131.728C84.252 130.244 83.948 129.048 83.744 128.22C83.644 127.82 83.568 127.5 83.508 127.264C83.4776 127.154 83.4562 127.042 83.444 126.928C83.4879 127.033 83.524 127.141 83.552 127.252C83.616 127.488 83.708 127.8 83.82 128.196C84.048 129.02 84.376 130.196 84.744 131.696C85.7657 135.551 86.3177 139.516 86.388 143.504C86.424 145.836 86.388 148.056 86.388 150.076C86.388 152.096 86.388 153.912 86.388 155.436C86.388 156.96 86.388 158.18 86.416 159.036C86.416 159.436 86.416 159.776 86.416 160.02C86.421 160.135 86.4156 160.25 86.4 160.364Z" fill="#263238"/>
<g opacity="0.3">
<path d="M86.264 141.288C87.0617 138.289 87.0891 135.137 86.3437 132.125C85.5983 129.112 84.1042 126.337 82 124.056C84.2468 129.447 85.6967 135.136 86.304 140.944" fill="black"/>
</g>
<path d="M69.94 70.612C57.54 71.724 57.056 86.88 55.408 98.836C53.052 115.916 65.548 119.584 65.548 119.584L50.024 116.672C50.024 116.672 41.532 113.236 41.592 103.808C41.652 94.38 43.136 82.84 53.02 74.072C61.556 66.496 69.16 70.096 69.94 70.612Z" fill="#455A64"/>
<path d="M82 115.916C81.064 115.068 81.428 114.744 78.748 114.5C75.72 114.22 72.348 116.156 69.328 116.56C66.308 116.964 63.096 116.56 60.568 114.872C57.6 112.896 56 109.488 54.52 106.248L47.24 112.248C46.5355 112.816 45.9715 113.539 45.592 114.36C45.2125 115.181 45.0277 116.079 45.052 116.984C45.0402 117.294 45.1004 117.602 45.228 117.884C45.652 118.524 48.776 117.012 49.404 117.452C52.74 119.784 54.16 123.488 57.216 126.18C60.788 129.32 64.092 131.816 66.608 131.728C69.124 131.64 73.768 128.98 75.432 125.892C76.972 123.04 78.316 120.96 79.528 118.784C80.164 117.632 82.384 119.248 82.652 117.884C82.7205 117.528 82.6965 117.16 82.5824 116.815C82.4683 116.471 82.2677 116.161 82 115.916Z" fill="#455A64"/>
<path d="M41.6 133.724C41.6386 133.816 41.6681 133.911 41.688 134.008L41.908 134.832C42.092 135.572 42.348 136.604 42.66 137.868C43.28 140.44 44.116 143.996 45 147.932C45.884 151.868 46.648 155.44 47.156 158.036C47.408 159.336 47.596 160.388 47.712 161.12C47.7626 161.469 47.8026 161.749 47.832 161.96C47.8528 162.057 47.8622 162.157 47.86 162.256C47.8283 162.162 47.8056 162.066 47.792 161.968C47.752 161.756 47.7 161.48 47.632 161.132C47.48 160.384 47.272 159.344 47.012 158.064C46.468 155.48 45.68 151.912 44.8 147.976C43.92 144.04 43.104 140.5 42.516 137.904C42.232 136.632 41.996 135.592 41.828 134.848C41.756 134.504 41.696 134.228 41.648 134.016C41.6236 133.92 41.6076 133.823 41.6 133.724Z" fill="#263238"/>
<path d="M82 117.484C81.9756 117.505 81.9488 117.522 81.92 117.536L81.672 117.68C81.3548 117.869 81.0277 118.042 80.692 118.196C79.4578 118.769 78.163 119.201 76.832 119.484C74.8593 119.908 72.8496 120.137 70.832 120.168C68.556 120.236 66.06 120.12 63.448 119.948C62.14 119.864 60.86 119.736 59.636 119.548C58.412 119.36 57.236 119.104 56.144 118.824C54.191 118.32 52.2925 117.624 50.476 116.748C49.2519 116.158 48.0774 115.471 46.964 114.692C46.564 114.428 46.28 114.184 46.076 114.036L45.852 113.856C45.8 113.816 45.776 113.792 45.78 113.788L45.864 113.84L46.104 114C46.312 114.14 46.604 114.372 47.012 114.624C48.1362 115.378 49.3155 116.047 50.54 116.624C52.357 117.473 54.2491 118.15 56.192 118.648C57.288 118.92 58.452 119.16 59.668 119.352C60.884 119.544 62.156 119.664 63.46 119.752C66.072 119.924 68.56 120.044 70.824 119.988C72.8321 119.963 74.8332 119.746 76.8 119.34C78.1239 119.072 79.4153 118.663 80.652 118.12C81.1 117.944 81.416 117.748 81.648 117.644L81.904 117.52C81.9337 117.503 81.9662 117.49 82 117.484Z" fill="#263238"/>
<path d="M58.22 119.108L58.144 119.06L57.924 118.9L57.088 118.276C56.728 118 56.288 117.64 55.804 117.236C55.556 117.032 55.304 116.796 55.028 116.556C54.752 116.316 54.472 116.056 54.184 115.756C52.8015 114.449 51.5917 112.97 50.584 111.356C49.3514 109.357 48.6544 107.074 48.56 104.728C48.5348 102.393 48.8542 100.066 49.508 97.824C50.056 95.752 50.652 93.92 51.136 92.372C51.62 90.824 51.996 89.596 52.272 88.716C52.396 88.296 52.496 87.96 52.572 87.716C52.604 87.612 52.632 87.528 52.656 87.46C52.6631 87.4289 52.6752 87.3992 52.692 87.372C52.692 87.372 52.692 87.404 52.692 87.464L52.628 87.728L52.364 88.736C52.124 89.608 51.76 90.868 51.292 92.416C50.824 93.964 50.244 95.804 49.692 97.872C49.0587 100.098 48.7475 102.402 48.768 104.716C48.866 107.032 49.5545 109.285 50.768 111.26C51.7667 112.867 52.9597 114.345 54.32 115.66C54.604 115.948 54.884 116.212 55.156 116.46C55.428 116.708 55.672 116.944 55.916 117.152C56.408 117.552 56.82 117.932 57.176 118.216L57.976 118.872L58.184 119.048C58.2 119.084 58.224 119.104 58.22 119.108Z" fill="#263238"/>
<path d="M69.94 70.612C69.94 70.656 69.296 70.688 68.3 70.976C67.718 71.1473 67.1509 71.3653 66.604 71.628C65.9397 71.9602 65.2995 72.3385 64.688 72.76C63.585 73.5453 62.5543 74.4275 61.608 75.396C60.88 76.14 60.452 76.624 60.408 76.596C60.4815 76.4623 60.5701 76.3375 60.672 76.224C60.852 75.996 61.128 75.672 61.472 75.288C62.3938 74.2786 63.421 73.3708 64.536 72.58C65.1572 72.1517 65.8112 71.7732 66.492 71.448C67.0497 71.1867 67.631 70.9791 68.228 70.828C68.4566 70.764 68.6891 70.7145 68.924 70.68C69.0993 70.6442 69.2772 70.6228 69.456 70.616C69.6167 70.5965 69.779 70.5952 69.94 70.612Z" fill="#263238"/>
<g opacity="0.3">
<path d="M54.092 83.564C54.1937 83.1878 54.2725 82.8058 54.328 82.42C54.3408 82.2712 54.2998 82.1227 54.2125 82.0015C54.1251 81.8803 53.9972 81.7945 53.8519 81.7596C53.7067 81.7248 53.5537 81.7432 53.4209 81.8115C53.288 81.8798 53.1841 81.9936 53.128 82.132C52.3067 84.3027 51.488 86.4733 50.672 88.644C49.072 92.936 47.412 97.336 47.328 101.92C47.244 106.504 48.708 111.608 52.584 114.06L51.456 112.06C48.532 108.06 48.452 102.588 49.568 97.752C50.684 92.916 52.852 88.372 54.092 83.564Z" fill="black"/>
</g>
<path d="M82.236 118.584C82.216 118.584 82.332 118.4 82.42 118.052C82.5296 117.557 82.4835 117.04 82.288 116.572C81.994 115.881 81.4455 115.33 80.756 115.032C79.9101 114.662 78.9809 114.524 78.064 114.632C77.1386 114.729 76.2206 114.886 75.316 115.104C74.476 115.296 73.716 115.504 73.104 115.692C72.492 115.88 71.984 116.048 71.636 116.164C71.4603 116.233 71.2799 116.289 71.096 116.332C71.257 116.232 71.4288 116.15 71.608 116.088C71.948 115.948 72.44 115.76 73.06 115.552C73.68 115.344 74.428 115.12 75.272 114.916C76.1839 114.684 77.1118 114.519 78.048 114.424C79.0036 114.315 79.9708 114.466 80.848 114.86C81.5776 115.185 82.1516 115.782 82.448 116.524C82.6389 117.02 82.6627 117.565 82.516 118.076C82.4759 118.216 82.4181 118.351 82.344 118.476C82.3138 118.517 82.2774 118.554 82.236 118.584Z" fill="#263238"/>
<g opacity="0.3">
<path d="M78.112 119.312C73.3444 121.431 68.0871 122.201 62.912 121.54C57.768 120.872 53.48 119.38 49.44 116.128C49.44 116.128 55.884 119.848 65.888 119.928C74.188 120 78.112 119.312 78.112 119.312Z" fill="black"/>
</g>
</svg>
