<svg width="300" height="300" viewBox="0 0 300 300" fill="none" xmlns="http://www.w3.org/2000/svg">
<path d="M300 229.44H0V229.59H300V229.44Z" fill="#EBEBEB"/>
<path d="M269.94 239.094H250.068V239.244H269.94V239.094Z" fill="#EBEBEB"/>
<path d="M180.864 239.172H175.65V239.322H180.864V239.172Z" fill="#EBEBEB"/>
<path d="M249.462 233.526H212.598V233.676H249.462V233.526Z" fill="#EBEBEB"/>
<path d="M135.084 237.066H127.47V237.216H135.084V237.066Z" fill="#EBEBEB"/>
<path d="M122.13 237.066H100.032V237.216H122.13V237.066Z" fill="#EBEBEB"/>
<path d="M46.734 234.534H31.476V234.684H46.734V234.534Z" fill="#EBEBEB"/>
<path d="M95.268 234.534H50.334V234.684H95.268V234.534Z" fill="#EBEBEB"/>
<path d="M142.2 202.68H26.346C25.4384 202.678 24.5685 202.317 23.9273 201.674C23.2861 201.032 22.926 200.162 22.926 199.254V36.396C22.9339 35.4936 23.2975 34.6308 23.9379 33.9949C24.5782 33.3591 25.4436 33.0015 26.346 33H142.2C143.109 33 143.98 33.361 144.623 34.0035C145.265 34.646 145.626 35.5174 145.626 36.426V199.254C145.626 200.163 145.265 201.034 144.623 201.677C143.98 202.319 143.109 202.68 142.2 202.68ZM26.346 33.12C25.4782 33.1216 24.6465 33.4674 24.0334 34.0816C23.4203 34.6958 23.076 35.5282 23.076 36.396V199.254C23.076 200.122 23.4203 200.954 24.0334 201.568C24.6465 202.183 25.4782 202.528 26.346 202.53H142.2C143.068 202.528 143.901 202.183 144.515 201.569C145.129 200.955 145.474 200.122 145.476 199.254V36.396C145.474 35.5276 145.129 34.6953 144.515 34.0813C143.901 33.4672 143.068 33.1216 142.2 33.12H26.346Z" fill="#EBEBEB"/>
<path d="M271.986 202.68H156.126C155.218 202.678 154.347 202.317 153.705 201.675C153.063 201.033 152.702 200.162 152.7 199.254V36.396C152.709 35.4931 153.074 34.6302 153.716 33.9946C154.357 33.3589 155.223 33.0015 156.126 33H271.986C272.887 33.0031 273.751 33.3613 274.39 33.997C275.029 34.6327 275.392 35.4947 275.4 36.396V199.254C275.4 200.161 275.041 201.03 274.401 201.672C273.761 202.314 272.893 202.677 271.986 202.68ZM156.126 33.12C155.258 33.1216 154.425 33.4672 153.811 34.0813C153.197 34.6953 152.852 35.5276 152.85 36.396V199.254C152.852 200.122 153.197 200.955 153.811 201.569C154.425 202.183 155.258 202.528 156.126 202.53H271.986C272.854 202.528 273.687 202.183 274.301 201.569C274.915 200.955 275.26 200.122 275.262 199.254V36.396C275.26 35.5276 274.915 34.6953 274.301 34.0813C273.687 33.4672 272.854 33.1216 271.986 33.12H156.126Z" fill="#EBEBEB"/>
<path d="M43.284 165.132H124.704L124.704 51.264L43.284 51.264L43.284 165.132Z" fill="#E6E6E6"/>
<path d="M41.478 165.132H122.898L122.898 51.264L41.478 51.264L41.478 165.132Z" fill="#F5F5F5"/>
<path d="M119.646 161.484V54.912L44.724 54.912V161.484H119.646Z" fill="white"/>
<path d="M46.092 161.484L46.092 54.912H44.724L44.724 161.484H46.092Z" fill="#E6E6E6"/>
<path d="M42.822 95.526L121.554 95.526V90.63L42.822 90.63V95.526Z" fill="#F5F5F5"/>
<path d="M37.932 45.222H128.244C128.377 45.2236 128.503 45.2774 128.597 45.3717C128.69 45.4661 128.742 45.5934 128.742 45.726C128.742 45.8581 128.69 45.9847 128.596 46.0781C128.503 46.1715 128.376 46.224 128.244 46.224H37.932C37.7999 46.224 37.6732 46.1715 37.5799 46.0781C37.4865 45.9847 37.434 45.8581 37.434 45.726C37.434 45.5934 37.4863 45.4661 37.5795 45.3717C37.6727 45.2774 37.7994 45.2236 37.932 45.222Z" fill="#E6E6E6"/>
<path d="M34.932 45.726C34.9367 46.2198 35.0875 46.7011 35.3653 47.1094C35.6431 47.5177 36.0355 47.8347 36.493 48.0204C36.9506 48.2061 37.4529 48.2522 37.9367 48.153C38.4204 48.0537 38.864 47.8136 39.2115 47.4627C39.559 47.1119 39.7949 46.666 39.8895 46.1814C39.9841 45.6967 39.9332 45.1948 39.7432 44.7391C39.5531 44.2833 39.2324 43.8939 38.8215 43.6201C38.4106 43.3462 37.9278 43.2 37.434 43.2C37.1034 43.2 36.7761 43.2655 36.4709 43.3927C36.1658 43.52 35.8889 43.7064 35.6563 43.9413C35.4236 44.1762 35.2398 44.4548 35.1155 44.7611C34.9912 45.0675 34.9288 45.3954 34.932 45.726Z" fill="#E6E6E6"/>
<path d="M124.026 48.528C124.205 48.5264 124.377 48.4545 124.504 48.3277C124.631 48.2009 124.702 48.0293 124.704 47.85V46.398C124.702 46.2192 124.63 46.0483 124.503 45.9225C124.376 45.7966 124.205 45.726 124.026 45.726C123.848 45.726 123.677 45.7968 123.551 45.9228C123.425 46.0488 123.354 46.2198 123.354 46.398V47.85C123.354 48.0288 123.425 48.2003 123.55 48.3273C123.676 48.4543 123.847 48.5264 124.026 48.528Z" fill="#E6E6E6"/>
<path d="M45.474 48.528C45.6533 48.5264 45.8249 48.4545 45.9517 48.3277C46.0785 48.2009 46.1504 48.0293 46.152 47.85V46.398C46.1504 46.2192 46.0783 46.0483 45.9513 45.9225C45.8243 45.7966 45.6528 45.726 45.474 45.726C45.2958 45.726 45.1249 45.7968 44.9988 45.9228C44.8728 46.0488 44.802 46.2198 44.802 46.398V47.85C44.802 48.0288 44.8726 48.2003 44.9985 48.3273C45.1243 48.4543 45.2952 48.5264 45.474 48.528Z" fill="#E6E6E6"/>
<path opacity="0.5" d="M108.738 138.198H50.904C47.5066 138.198 44.2483 136.848 41.846 134.446C39.4436 132.044 38.094 128.785 38.094 125.388L38.094 45.726L121.548 45.726L121.548 125.388C121.548 128.785 120.198 132.044 117.796 134.446C115.394 136.848 112.135 138.198 108.738 138.198Z" fill="#E0E0E0"/>
<path d="M113.49 45.726C113.495 46.2201 113.646 46.7017 113.924 47.1101C114.202 47.5185 114.595 47.8354 115.052 48.0209C115.51 48.2064 116.013 48.2522 116.497 48.1525C116.981 48.0528 117.424 47.812 117.772 47.4606C118.119 47.1091 118.354 46.6627 118.448 46.1777C118.542 45.6926 118.49 45.1906 118.299 44.7349C118.108 44.2792 117.787 43.8903 117.375 43.6171C116.963 43.344 116.48 43.1988 115.986 43.2C115.656 43.2 115.329 43.2655 115.024 43.3928C114.719 43.5201 114.443 43.7067 114.21 43.9416C113.978 44.1766 113.795 44.4553 113.671 44.7616C113.548 45.0679 113.486 45.3957 113.49 45.726Z" fill="#E6E6E6"/>
<path d="M246.822 52.056H177.174V121.89H246.822V52.056Z" fill="#F0F0F0"/>
<path d="M246.822 121.89H248.022V52.056H246.822V121.89Z" fill="#E0E0E0"/>
<path d="M240.672 85.14C240.672 69.3038 227.834 56.466 211.998 56.466C196.162 56.466 183.324 69.3038 183.324 85.14V88.806C183.324 104.642 196.162 117.48 211.998 117.48C227.834 117.48 240.672 104.642 240.672 88.806V85.14Z" fill="white"/>
<path d="M222.93 73.944H201.072C200.343 73.944 199.752 74.535 199.752 75.264V98.688C199.752 99.417 200.343 100.008 201.072 100.008H222.93C223.659 100.008 224.25 99.417 224.25 98.688V75.264C224.25 74.535 223.659 73.944 222.93 73.944Z" fill="#F5F5F5"/>
<path d="M110.922 227.112H126.99V191.478H110.922V227.112Z" fill="#F0F0F0"/>
<path d="M44.652 229.362H123.906V227.106H44.652V229.362Z" fill="#F0F0F0"/>
<path d="M110.922 191.472H41.568V227.106H110.922V191.472Z" fill="#F5F5F5"/>
<path d="M104.604 207.846H47.886C47.8064 207.846 47.7301 207.814 47.6739 207.758C47.6176 207.702 47.586 207.626 47.586 207.546V195.858C47.586 195.778 47.6176 195.702 47.6739 195.646C47.7301 195.59 47.8064 195.558 47.886 195.558H104.604C104.683 195.56 104.759 195.592 104.814 195.648C104.87 195.703 104.902 195.779 104.904 195.858V207.546C104.904 207.626 104.872 207.702 104.816 207.758C104.76 207.814 104.684 207.846 104.604 207.846ZM48.204 207.246H104.322V196.158H48.186L48.204 207.246Z" fill="#F0F0F0"/>
<path d="M104.604 223.02H47.886C47.8064 223.02 47.7301 222.988 47.6739 222.932C47.6176 222.876 47.586 222.8 47.586 222.72V211.032C47.586 210.952 47.6176 210.876 47.6739 210.82C47.7301 210.764 47.8064 210.732 47.886 210.732H104.604C104.683 210.734 104.759 210.766 104.814 210.822C104.87 210.878 104.902 210.953 104.904 211.032V222.72C104.904 222.8 104.872 222.876 104.816 222.932C104.76 222.988 104.684 223.02 104.604 223.02ZM48.204 222.42H104.322V211.332H48.186L48.204 222.42Z" fill="#F0F0F0"/>
<path d="M69.012 202.506H83.466C83.857 202.506 84.174 202.189 84.174 201.798V201.612C84.174 201.221 83.857 200.904 83.466 200.904H69.012C68.621 200.904 68.304 201.221 68.304 201.612V201.798C68.304 202.189 68.621 202.506 69.012 202.506Z" fill="white"/>
<path d="M69.012 217.674H83.466C83.857 217.674 84.174 217.357 84.174 216.966V216.78C84.174 216.389 83.857 216.072 83.466 216.072H69.012C68.621 216.072 68.304 216.389 68.304 216.78V216.966C68.304 217.357 68.621 217.674 69.012 217.674Z" fill="white"/>
<path d="M72.69 185.478C72.69 185.478 72.498 191.478 65.094 191.478C57.69 191.478 57.492 185.478 57.492 185.478H72.69Z" fill="#F5F5F5"/>
<path d="M90 185.478C90 185.478 89.802 191.478 82.398 191.478C74.994 191.478 74.802 185.478 74.802 185.478H90Z" fill="#F5F5F5"/>
<path d="M107.34 185.478C107.34 185.478 107.148 191.478 99.738 191.478C92.328 191.478 92.142 185.478 92.142 185.478H107.34Z" fill="#F5F5F5"/>
<path d="M254.208 225.78H266.334V146.274H254.208V225.78Z" fill="#F0F0F0"/>
<path d="M163.134 229.434H263.136V225.78H163.134V229.434Z" fill="#F0F0F0"/>
<path d="M254.208 146.268H159.936V225.774H254.208V146.268Z" fill="#F5F5F5"/>
<path d="M247.656 175.002H166.488V193.914H247.656V175.002Z" fill="#F0F0F0"/>
<path d="M247.656 199.764H166.488V218.676H247.656V199.764Z" fill="#F0F0F0"/>
<path d="M183.666 176.304H230.484C231.163 176.304 231.714 175.753 231.714 175.074V174.942C231.714 174.263 231.163 173.712 230.484 173.712H183.666C182.987 173.712 182.436 174.263 182.436 174.942V175.074C182.436 175.753 182.987 176.304 183.666 176.304Z" fill="#F5F5F5"/>
<path d="M183.666 201.06H230.484C231.163 201.06 231.714 200.509 231.714 199.83V199.698C231.714 199.019 231.163 198.468 230.484 198.468H183.666C182.987 198.468 182.436 199.019 182.436 199.698V199.83C182.436 200.509 182.987 201.06 183.666 201.06Z" fill="#F5F5F5"/>
<path d="M247.656 150.246H166.488V169.158H247.656V150.246Z" fill="#F0F0F0"/>
<path d="M183.666 151.548H230.484C231.163 151.548 231.714 150.997 231.714 150.318V150.186C231.714 149.507 231.163 148.956 230.484 148.956H183.666C182.987 148.956 182.436 149.507 182.436 150.186V150.318C182.436 150.997 182.987 151.548 183.666 151.548Z" fill="#F5F5F5"/>
<path d="M150 256.536C214.249 256.536 266.334 253.495 266.334 249.744C266.334 245.993 214.249 242.952 150 242.952C85.7505 242.952 33.666 245.993 33.666 249.744C33.666 253.495 85.7505 256.536 150 256.536Z" fill="#F5F5F5"/>
<path d="M172.625 62.0036L172.557 62.5997L175.705 62.9567L175.773 62.3605L172.625 62.0036Z" fill="#407BFF"/>
<path d="M158.974 60.461L158.907 61.0572L169.119 62.2153L169.187 61.6192L158.974 60.461Z" fill="#407BFF"/>
<path d="M234.624 71.1558L126.673 58.9137C125.06 58.7307 123.604 59.8903 123.421 61.5037L114.091 143.77C113.908 145.384 115.068 146.84 116.681 147.023L224.631 159.265C226.245 159.448 227.701 158.288 227.884 156.675L237.214 74.4083C237.396 72.795 236.237 71.3388 234.624 71.1558Z" fill="#407BFF"/>
<path opacity="0.7" d="M115.668 142.8L124.734 62.826C124.766 62.5435 124.854 62.2701 124.992 62.0215C125.13 61.773 125.316 61.5543 125.539 61.3781C125.762 61.2018 126.018 61.0715 126.292 60.9946C126.565 60.9177 126.852 60.8957 127.134 60.93L233.754 73.014C234.036 73.0467 234.309 73.1349 234.557 73.2733C234.805 73.4117 235.024 73.5977 235.2 73.8206C235.376 74.0436 235.506 74.2991 235.584 74.5725C235.661 74.8459 235.683 75.1319 235.65 75.414L226.56 155.358C226.529 155.641 226.442 155.915 226.304 156.164C226.166 156.412 225.98 156.631 225.756 156.808C225.533 156.984 225.277 157.115 225.003 157.191C224.729 157.268 224.442 157.289 224.16 157.254L117.54 145.164C116.98 145.095 116.47 144.808 116.119 144.366C115.769 143.923 115.607 143.361 115.668 142.8Z" fill="#263238"/>
<path d="M217.797 92.7241L172.869 87.6291L172.618 89.8409L217.546 94.9359L217.797 92.7241Z" fill="#407BFF"/>
<path d="M224.684 97.0742L177.085 91.6763L176.834 93.8881L224.433 99.2861L224.684 97.0742Z" fill="#407BFF"/>
<path d="M216.119 99.6752L176.682 95.2028L176.431 97.4146L215.868 101.887L216.119 99.6752Z" fill="#407BFF"/>
<path d="M211.607 102.738L176.283 98.7319L176.032 100.944L211.356 104.95L211.607 102.738Z" fill="#407BFF"/>
<path d="M200.204 107.258L171.016 103.948L170.765 106.16L199.954 109.47L200.204 107.258Z" fill="#407BFF"/>
<path d="M205.773 118.615L174.432 115.06L174.181 117.272L205.522 120.826L205.773 118.615Z" fill="#407BFF"/>
<path d="M200.801 114.477L174.832 111.531L174.581 113.743L200.55 116.688L200.801 114.477Z" fill="#407BFF"/>
<path d="M203.832 111.247L175.234 108.004L174.983 110.215L203.581 113.459L203.832 111.247Z" fill="#407BFF"/>
<path d="M197.156 134.169L167.967 130.859L167.716 133.071L196.905 136.381L197.156 134.169Z" fill="#407BFF"/>
<path d="M202.718 145.525L171.377 141.971L171.126 144.183L202.468 147.737L202.718 145.525Z" fill="#407BFF"/>
<path d="M197.41 140.349L171.535 137.474L171.29 139.678L197.165 142.553L197.41 140.349Z" fill="#407BFF"/>
<path d="M200.777 138.157L172.179 134.914L171.928 137.126L200.527 140.369L200.777 138.157Z" fill="#407BFF"/>
<path d="M153.44 68.7559L129.736 66.0677L129.485 68.2795L153.19 70.9677L153.44 68.7559Z" fill="white"/>
<path d="M157.73 79.9565L132.285 77.071L132.034 79.2828L157.479 82.1684L157.73 79.9565Z" fill="white"/>
<path d="M153.77 75.939L132.683 73.5476L132.433 75.7595L153.519 78.1508L153.77 75.939Z" fill="white"/>
<path d="M156.298 72.6467L133.077 70.0133L132.826 72.2251L156.047 74.8585L156.298 72.6467Z" fill="white"/>
<path d="M204.57 129.2L173.229 125.646L172.978 127.858L204.319 131.412L204.57 129.2Z" fill="#407BFF"/>
<path d="M199.598 125.062L173.629 122.117L173.378 124.329L199.347 127.274L199.598 125.062Z" fill="#407BFF"/>
<path d="M202.629 121.832L174.031 118.589L173.78 120.801L202.378 124.044L202.629 121.832Z" fill="#407BFF"/>
<path d="M138.276 247.35L134.31 247.26L133.758 238.056L137.724 238.146L138.276 247.35Z" fill="#FFC3BD"/>
<path d="M134.166 246.798L138.498 246.894C138.576 246.896 138.651 246.925 138.711 246.975C138.771 247.025 138.812 247.094 138.828 247.17L139.536 250.716C139.549 250.802 139.543 250.89 139.519 250.973C139.495 251.057 139.453 251.134 139.396 251.2C139.338 251.265 139.268 251.318 139.188 251.353C139.109 251.389 139.023 251.407 138.936 251.406C137.376 251.346 135.12 251.208 133.158 251.16C130.86 251.112 130.446 251.514 127.758 251.232C126.138 251.064 125.856 249.378 126.558 249.3C129.714 248.946 130.47 248.7 133.158 247.086C133.459 246.894 133.809 246.794 134.166 246.798Z" fill="#263238"/>
<path opacity="0.2" d="M133.758 238.062L134.046 242.802L138.012 242.892L137.73 238.152L133.758 238.062Z" fill="black"/>
<path d="M132 116.694C130.68 119.28 129.288 121.782 127.8 124.278C126.312 126.774 124.8 129.21 123 131.658C122.772 131.964 122.52 132.258 122.28 132.588C122.178 132.726 122.004 132.924 121.848 133.098C121.692 133.272 121.53 133.464 121.356 133.626C120.683 134.302 119.917 134.88 119.082 135.342C117.524 136.214 115.797 136.742 114.018 136.89C112.405 137.034 110.78 136.955 109.188 136.656C108.42 136.519 107.661 136.339 106.914 136.116C106.155 135.899 105.412 135.632 104.688 135.318L105.648 132.288C106.248 132.354 106.932 132.426 107.58 132.462C108.228 132.498 108.9 132.498 109.548 132.462C110.792 132.449 112.03 132.292 113.238 131.994C114.293 131.751 115.288 131.301 116.166 130.668C116.547 130.385 116.89 130.055 117.186 129.684C117.263 129.595 117.333 129.501 117.396 129.402C117.468 129.306 117.528 129.228 117.624 129.078L118.152 128.268C119.562 126.012 120.924 123.534 122.274 121.068L126.324 113.664L132 116.694Z" fill="#FFC3BD"/>
<path d="M135.558 112.8C136.158 116.4 127.932 127.254 127.932 127.254L121.902 120C123.616 117.056 125.583 114.268 127.782 111.666C130.908 108.162 134.892 108.828 135.558 112.8Z" fill="white"/>
<path opacity="0.2" d="M133.632 115.878C131.232 116.478 127.188 119.028 125.232 123.984L127.95 127.26C127.95 127.26 132.828 120.846 134.796 116.238C134.663 116.065 134.48 115.938 134.271 115.873C134.063 115.809 133.839 115.81 133.632 115.878Z" fill="black"/>
<path d="M131.304 109.398C131.304 109.398 124.98 117.462 125.4 140.736L146.766 144.6C147.504 141.348 147.768 128.118 153.726 113.238C151.446 112.356 149.111 111.623 146.736 111.042C143.743 110.317 140.71 109.768 137.652 109.398C135.539 109.233 133.417 109.233 131.304 109.398Z" fill="white"/>
<path opacity="0.2" d="M149.202 122.322C148.29 123.612 147.738 127.122 148.968 129.522C149.256 128.034 149.598 126.474 150.006 124.848L149.202 122.322Z" fill="black"/>
<path d="M137.652 109.398C137.652 109.398 135.09 114.432 138.078 117.048C143.304 116.604 146.736 111.048 146.736 111.048L137.652 109.398Z" fill="#263238"/>
<path d="M98.568 130.278L98.634 133.26L101.214 135.126L102.378 131.034L98.568 130.278Z" fill="#FFC3BD"/>
<path d="M106.974 132.6L102.378 131.034L101.214 135.126C101.214 135.126 103.89 136.29 106.014 134.73L106.974 132.6Z" fill="#FFC3BD"/>
<path d="M147.684 100.65C146.58 103.47 145.044 108.72 146.736 111.042C146.736 111.042 144.408 113.76 139.182 114.204C136.182 111.588 137.652 109.404 137.652 109.404C141.054 109.212 141.402 106.782 141.252 104.406L147.684 100.65Z" fill="#FFC3BD"/>
<path opacity="0.2" d="M145.062 102.18L141.252 104.4C141.297 104.953 141.297 105.509 141.252 106.062C142.944 106.932 144.324 106.02 145.062 104.19C145.213 103.529 145.213 102.842 145.062 102.18Z" fill="black"/>
<path d="M139.248 97.41C139.494 99.21 145.044 96.276 145.98 95.658C146.916 95.04 145.842 92.898 143.736 91.17C141.63 89.442 138.678 93.204 139.248 97.41Z" fill="#263238"/>
<path d="M150.636 98.238C148.938 101.892 148.134 104.118 145.488 105.294C141.516 107.094 137.562 103.548 138.132 99.462C138.642 95.784 141.33 90.426 145.578 90.366C146.516 90.3485 147.442 90.5713 148.27 91.0131C149.097 91.4549 149.797 92.1011 150.304 92.8901C150.811 93.6792 151.108 94.5848 151.166 95.5209C151.224 96.457 151.042 97.3924 150.636 98.238Z" fill="#FFC3BD"/>
<path d="M149.136 101.658C147.336 101.928 148.608 95.778 148.938 94.71C149.268 93.642 152.124 92.664 153.738 94.86C155.676 97.542 153.336 101.034 149.136 101.658Z" fill="#263238"/>
<path d="M148.596 89.148C146.982 88.824 147.444 87.114 148.632 87.204C147.678 86.046 142.032 84.99 141.726 88.734C141.42 92.478 148.698 94.554 150.666 94.818L153.6 95.64C157.554 93.666 153.168 90.066 148.596 89.148Z" fill="#263238"/>
<path d="M150.834 102.66C150.092 103.352 149.106 103.721 148.092 103.686C146.754 103.626 146.496 102.33 147.216 101.286C147.858 100.338 149.34 99.228 150.522 99.798C150.776 99.9279 150.994 100.119 151.156 100.354C151.318 100.589 151.419 100.861 151.45 101.145C151.481 101.429 151.441 101.716 151.334 101.98C151.226 102.245 151.054 102.478 150.834 102.66Z" fill="#FFC3BD"/>
<path d="M126.204 239.91L122.31 240.678L120.402 231.69L124.296 230.922L126.204 239.91Z" fill="#FFC3BD"/>
<path d="M122.064 240.258L126.318 239.418C126.396 239.403 126.476 239.416 126.546 239.453C126.616 239.49 126.671 239.549 126.702 239.622L128.148 242.928C128.18 243.008 128.194 243.094 128.189 243.18C128.184 243.266 128.161 243.35 128.122 243.426C128.082 243.502 128.026 243.569 127.958 243.622C127.89 243.675 127.812 243.712 127.728 243.732C126.186 244.008 123.954 244.332 122.028 244.734C119.772 245.178 119.028 245.226 116.406 245.748C114.804 246.06 114.042 244.548 114.684 244.254C117.6 242.988 118.884 242.886 121.188 240.744C121.428 240.502 121.732 240.334 122.064 240.258Z" fill="#263238"/>
<path opacity="0.2" d="M120.402 231.69L121.386 236.322L125.28 235.554L124.296 230.922L120.402 231.69Z" fill="black"/>
<path d="M120.6 241.2C120.348 241.316 120.064 241.342 119.796 241.272C119.706 241.24 119.626 241.186 119.563 241.115C119.5 241.043 119.456 240.957 119.436 240.864C119.416 240.812 119.411 240.755 119.421 240.699C119.432 240.644 119.458 240.593 119.496 240.552C119.832 240.186 121.344 240.486 121.512 240.522C121.531 240.526 121.549 240.536 121.562 240.55C121.576 240.563 121.586 240.581 121.59 240.6C121.593 240.618 121.591 240.637 121.583 240.654C121.576 240.671 121.564 240.686 121.548 240.696C121.252 240.899 120.934 241.068 120.6 241.2ZM119.748 240.6C119.708 240.614 119.671 240.637 119.64 240.666C119.64 240.666 119.598 240.72 119.64 240.792C119.652 240.856 119.681 240.915 119.723 240.964C119.765 241.014 119.819 241.052 119.88 241.074C120.378 241.114 120.871 240.961 121.26 240.648C120.756 240.53 120.234 240.514 119.724 240.6H119.748Z" fill="#407BFF"/>
<path d="M121.506 240.678H121.458C120.984 240.606 119.916 240.078 119.838 239.598C119.827 239.526 119.841 239.453 119.878 239.39C119.916 239.328 119.973 239.28 120.042 239.256C120.109 239.225 120.181 239.209 120.255 239.209C120.329 239.209 120.401 239.225 120.468 239.256C121.068 239.454 121.536 240.522 121.56 240.564C121.569 240.578 121.574 240.595 121.574 240.612C121.574 240.629 121.569 240.646 121.56 240.66C121.545 240.673 121.526 240.679 121.506 240.678ZM120.168 239.4H120.126C120.018 239.46 120.024 239.52 120.03 239.544C120.072 239.808 120.792 240.264 121.29 240.42C121.128 240.114 120.774 239.514 120.408 239.388C120.329 239.365 120.244 239.369 120.168 239.4Z" fill="#407BFF"/>
<path d="M125.4 140.736C125.4 140.736 115.914 176.844 113.172 188.922C110.328 201.492 119.91 235.458 119.91 235.458L126.24 234.21C126.24 234.21 123.582 199.578 124.488 194.082C128.118 180.774 139.446 143.28 139.446 143.28L125.4 140.736Z" fill="#2FC1B0"/>
<path opacity="0.2" d="M126.6 170.664C126.206 175.692 126.286 180.747 126.84 185.76C129.552 176.322 133.32 163.662 136.032 154.62C133.296 155.802 127.614 159.552 126.6 170.664Z" fill="black"/>
<path d="M132.78 142.074C132.78 142.074 127.812 178.866 128.238 190.758C128.7 203.772 131.778 241.62 131.778 241.62L139.2 241.8C139.2 241.8 139.086 206.016 139.8 193.332C140.544 179.568 146.58 144.582 146.58 144.582L132.78 142.074Z" fill="#2FC1B0"/>
<path d="M139.698 241.95L131.688 241.776L131.058 238.74L139.926 238.686L139.698 241.95Z" fill="#263238"/>
<path d="M127.488 234.126L119.628 235.674L118.356 232.842L127.068 231.288L127.488 234.126Z" fill="#263238"/>
<path d="M144.78 97.146C144.66 97.452 144.402 97.638 144.18 97.56C143.958 97.482 143.916 97.17 144.036 96.864C144.156 96.558 144.414 96.378 144.636 96.456C144.858 96.534 144.894 96.846 144.78 97.146Z" fill="#263238"/>
<path d="M141.33 95.802C141.21 96.102 140.952 96.288 140.73 96.21C140.508 96.132 140.466 95.82 140.586 95.52C140.706 95.22 140.964 95.028 141.186 95.106C141.408 95.184 141.45 95.496 141.33 95.802Z" fill="#263238"/>
<path d="M142.134 96.288C141.406 97.0786 140.572 97.765 139.656 98.328C139.807 98.558 140.005 98.7527 140.238 98.8987C140.471 99.0447 140.733 99.1386 141.006 99.174L142.134 96.288Z" fill="#ED847E"/>
<path d="M140.952 100.65C140.939 100.646 140.927 100.639 140.917 100.63C140.907 100.621 140.899 100.61 140.893 100.598C140.888 100.585 140.885 100.572 140.885 100.558C140.885 100.545 140.888 100.532 140.893 100.519C140.899 100.507 140.907 100.496 140.917 100.487C140.927 100.478 140.939 100.471 140.952 100.467C140.965 100.463 140.978 100.461 140.992 100.463C141.005 100.465 141.018 100.469 141.03 100.476C141.4 100.647 141.805 100.729 142.212 100.716C142.62 100.702 143.018 100.593 143.376 100.398C143.387 100.39 143.399 100.385 143.412 100.382C143.425 100.379 143.438 100.378 143.451 100.381C143.464 100.383 143.476 100.388 143.487 100.396C143.498 100.403 143.507 100.413 143.514 100.424C143.521 100.435 143.526 100.448 143.528 100.461C143.53 100.474 143.529 100.487 143.526 100.5C143.523 100.513 143.516 100.525 143.508 100.535C143.5 100.545 143.49 100.554 143.478 100.56C143.095 100.778 142.666 100.899 142.226 100.915C141.786 100.931 141.349 100.84 140.952 100.65Z" fill="#263238"/>
<path d="M146.688 96.456C146.663 96.4409 146.642 96.4208 146.626 96.397C146.609 96.3733 146.598 96.3464 146.592 96.318C146.561 96.0761 146.473 95.845 146.335 95.6437C146.198 95.4424 146.014 95.2767 145.8 95.16C145.754 95.1391 145.718 95.1009 145.7 95.0537C145.682 95.0065 145.684 94.9542 145.704 94.908C145.726 94.8617 145.765 94.8258 145.814 94.8078C145.862 94.7899 145.915 94.7914 145.962 94.812C146.231 94.9564 146.461 95.163 146.633 95.4146C146.805 95.6662 146.915 95.9554 146.952 96.258C146.956 96.2833 146.955 96.3091 146.95 96.334C146.944 96.359 146.933 96.3825 146.918 96.4031C146.903 96.4238 146.884 96.4413 146.862 96.4545C146.84 96.4677 146.815 96.4764 146.79 96.48C146.754 96.481 146.719 96.4728 146.688 96.456Z" fill="#263238"/>
<path d="M140.46 93.744C140.434 93.7305 140.414 93.7096 140.4 93.684C140.386 93.663 140.376 93.6392 140.372 93.6143C140.367 93.5894 140.367 93.5638 140.373 93.5391C140.379 93.5143 140.389 93.491 140.404 93.4705C140.419 93.4501 140.438 93.4329 140.46 93.42C140.716 93.2543 141.008 93.1522 141.312 93.1219C141.616 93.0916 141.922 93.1342 142.206 93.246C142.252 93.2682 142.288 93.3075 142.306 93.3556C142.324 93.4037 142.323 93.4569 142.302 93.504C142.291 93.527 142.276 93.5475 142.257 93.5645C142.238 93.5815 142.216 93.5945 142.192 93.6029C142.168 93.6113 142.142 93.6148 142.117 93.6133C142.092 93.6118 142.067 93.6052 142.044 93.594C141.819 93.508 141.576 93.4767 141.336 93.5028C141.096 93.5288 140.866 93.6115 140.664 93.744C140.633 93.7632 140.598 93.7733 140.562 93.7733C140.526 93.7733 140.491 93.7632 140.46 93.744Z" fill="#263238"/>
<path d="M150.69 111.942L149.694 111.672C149.646 111.658 149.595 111.663 149.551 111.685C149.506 111.707 149.472 111.746 149.454 111.792C143.922 126.36 142.608 142.65 142.608 142.65L143.718 142.848C144.976 132.406 147.358 122.131 150.822 112.2C150.832 112.175 150.837 112.147 150.836 112.12C150.834 112.092 150.827 112.065 150.815 112.041C150.802 112.016 150.785 111.995 150.763 111.978C150.742 111.961 150.717 111.949 150.69 111.942Z" fill="#2FC1B0"/>
<g opacity="0.99">
<path d="M143.88 142.878C143.889 142.831 143.888 142.783 143.878 142.736C143.868 142.69 143.848 142.646 143.821 142.607C143.793 142.567 143.759 142.534 143.718 142.509C143.678 142.483 143.633 142.466 143.586 142.458L142.818 142.314C142.732 142.301 142.644 142.32 142.57 142.366C142.496 142.412 142.441 142.484 142.415 142.567C142.389 142.65 142.394 142.74 142.428 142.82C142.462 142.9 142.524 142.965 142.602 143.004L142.434 143.958C142.423 144.019 142.424 144.083 142.437 144.144C142.451 144.205 142.476 144.262 142.512 144.314C142.547 144.365 142.593 144.409 142.645 144.442C142.698 144.476 142.757 144.499 142.818 144.51C142.879 144.521 142.942 144.52 143.003 144.507C143.064 144.493 143.122 144.468 143.174 144.432C143.225 144.397 143.269 144.351 143.302 144.299C143.336 144.246 143.359 144.187 143.37 144.126L143.544 143.172C143.625 143.167 143.701 143.135 143.762 143.082C143.823 143.029 143.864 142.957 143.88 142.878Z" fill="#263238"/>
</g>
<path d="M133.734 109.086H132.702C132.66 109.087 132.62 109.1 132.587 109.125C132.553 109.15 132.529 109.184 132.516 109.224C127.668 123.924 127.188 139.824 127.188 139.824L128.298 140.028C129.606 123.312 133.314 111.228 133.926 109.308C133.929 109.281 133.927 109.253 133.919 109.226C133.911 109.2 133.897 109.175 133.879 109.154C133.861 109.134 133.839 109.117 133.814 109.105C133.789 109.093 133.762 109.087 133.734 109.086Z" fill="#2FC1B0"/>
<path opacity="0.99" d="M128.46 140.094C128.472 139.997 128.447 139.898 128.389 139.819C128.331 139.74 128.245 139.686 128.148 139.668L127.38 139.524C127.333 139.515 127.285 139.517 127.239 139.527C127.193 139.538 127.149 139.558 127.111 139.586C127.073 139.614 127.041 139.65 127.017 139.691C126.993 139.732 126.978 139.777 126.972 139.824C126.964 139.906 126.981 139.988 127.022 140.059C127.063 140.13 127.125 140.186 127.2 140.22L127.074 141.18C127.058 141.308 127.091 141.436 127.167 141.54C127.243 141.644 127.356 141.715 127.482 141.738C127.543 141.75 127.606 141.749 127.666 141.736C127.727 141.722 127.784 141.697 127.834 141.66C127.885 141.623 127.927 141.577 127.958 141.523C127.989 141.469 128.009 141.41 128.016 141.348L128.142 140.388C128.221 140.384 128.297 140.353 128.355 140.299C128.413 140.245 128.45 140.173 128.46 140.094Z" fill="#263238"/>
<path d="M132.516 247.368C132.247 247.429 131.965 247.395 131.718 247.272C131.638 247.219 131.572 247.148 131.525 247.065C131.478 246.981 131.451 246.888 131.448 246.792C131.44 246.737 131.448 246.681 131.47 246.63C131.492 246.579 131.528 246.536 131.574 246.504C131.988 246.216 133.374 246.834 133.554 246.906C133.571 246.914 133.586 246.927 133.596 246.943C133.607 246.959 133.613 246.977 133.614 246.996C133.611 247.015 133.604 247.032 133.592 247.047C133.581 247.061 133.565 247.073 133.548 247.08C133.217 247.217 132.87 247.313 132.516 247.368ZM131.808 246.6C131.765 246.603 131.723 246.617 131.688 246.642C131.669 246.655 131.654 246.673 131.645 246.695C131.637 246.716 131.635 246.739 131.64 246.762C131.641 246.827 131.658 246.892 131.69 246.949C131.721 247.006 131.766 247.055 131.82 247.092C132.296 247.237 132.81 247.192 133.254 246.966C132.8 246.753 132.309 246.628 131.808 246.6Z" fill="#407BFF"/>
<path d="M133.53 247.086H133.482C133.032 246.912 132.108 246.144 132.132 245.682C132.138 245.61 132.167 245.542 132.216 245.488C132.265 245.435 132.331 245.4 132.402 245.388C132.474 245.37 132.549 245.367 132.623 245.38C132.696 245.392 132.766 245.419 132.828 245.46C133.344 245.778 133.602 246.924 133.608 246.972C133.612 246.989 133.612 247.007 133.607 247.024C133.601 247.041 133.591 247.056 133.578 247.068C133.572 247.074 133.564 247.079 133.556 247.082C133.548 247.085 133.539 247.086 133.53 247.086ZM132.498 245.568H132.45C132.33 245.604 132.33 245.664 132.324 245.688C132.324 245.958 132.924 246.552 133.374 246.81C133.281 246.355 133.055 245.938 132.726 245.61C132.658 245.568 132.577 245.553 132.498 245.568Z" fill="#407BFF"/>
<path d="M135.276 154.68L138.63 157.05L141.144 155.196L137.928 151.278L135.276 154.68Z" fill="#FFC3BD"/>
<path d="M142.674 150.564L137.928 151.278L141.144 155.196C141.144 155.196 144.438 154.392 144.258 151.752L142.674 150.564Z" fill="#FFC3BD"/>
<path d="M156.654 119.448C156.834 122.58 156.93 125.7 156.948 128.844C156.948 130.41 156.948 131.982 156.948 133.566C156.948 134.352 156.918 135.144 156.876 135.966L156.816 137.166L156.786 137.766C156.786 138.048 156.726 138.366 156.684 138.666C156.504 139.713 156.159 140.726 155.664 141.666C155.233 142.479 154.744 143.259 154.2 144C153.186 145.356 152.06 146.624 150.834 147.792C148.486 150.034 145.92 152.034 143.172 153.762L141.228 151.242C142.272 150.186 143.364 149.088 144.372 147.96C145.38 146.832 146.382 145.71 147.3 144.558C148.199 143.449 149.019 142.278 149.754 141.054C150.077 140.501 150.36 139.926 150.6 139.332C150.795 138.869 150.922 138.38 150.978 137.88C150.972 137.79 150.972 137.7 150.978 137.61V137.058L150.948 135.93L150.852 133.644L150.6 129C150.444 125.916 150.318 122.808 150.234 119.718L156.654 119.448Z" fill="#FFC3BD"/>
<path d="M153.726 113.238C158.856 115.146 158.814 128.868 158.814 128.868L150.132 130.464C150.132 130.464 148.032 124.23 149.07 119.322C150.06 114.636 149.826 111.78 153.726 113.238Z" fill="white"/>
<path d="M87.504 130.89L64.248 122.178L60.162 97.686L79.362 81.9L102.6 90.6L106.686 115.098L87.504 130.89ZM65.226 121.374L87.294 129.636L105.48 114.636L101.604 91.398L79.536 83.136L61.35 98.136L65.226 121.374Z" fill="#EDE538"/>
<path d="M82.4695 84.6976C83.6653 83.0229 83.2772 80.6959 81.6025 79.5C79.9279 78.3042 77.6008 78.6923 76.405 80.367C75.2091 82.0417 75.5973 84.3687 77.2719 85.5646C78.9466 86.7604 81.2736 86.3722 82.4695 84.6976Z" fill="#EDE538"/>
<path d="M90.4257 132.427C91.6215 130.753 91.2334 128.426 89.5587 127.23C87.884 126.034 85.557 126.422 84.3612 128.097C83.1653 129.771 83.5535 132.098 85.2281 133.294C86.9028 134.49 89.2298 134.102 90.4257 132.427Z" fill="#EDE538"/>
<path d="M99.93 94.044C99.3302 93.6156 98.871 93.0189 98.6104 92.3295C98.3497 91.6401 98.2995 90.8888 98.4659 90.1708C98.6323 89.4528 99.0079 88.8002 99.5452 88.2957C100.083 87.7912 100.757 87.4574 101.484 87.3365C102.212 87.2156 102.958 87.313 103.63 87.6165C104.302 87.92 104.868 88.4159 105.258 89.0414C105.648 89.6669 105.843 90.394 105.82 91.1307C105.796 91.8674 105.555 92.5806 105.126 93.18C104.551 93.9833 103.681 94.5255 102.707 94.6876C101.733 94.8496 100.734 94.6181 99.93 94.044Z" fill="#EDE538"/>
<path d="M58.584 100.902C57.9839 100.474 57.5241 99.878 57.2628 99.1889C57.0015 98.4998 56.9505 97.7487 57.1162 97.0305C57.2818 96.3124 57.6567 95.6595 58.1934 95.1545C58.7302 94.6494 59.4046 94.3149 60.1315 94.1932C60.8584 94.0715 61.605 94.168 62.277 94.4707C62.949 94.7734 63.5161 95.2685 63.9067 95.8935C64.2972 96.5185 64.4936 97.2453 64.4711 97.982C64.4485 98.7186 64.208 99.4321 63.78 100.032C63.2052 100.835 62.3356 101.377 61.3617 101.54C60.3878 101.703 59.389 101.474 58.584 100.902Z" fill="#EDE538"/>
<path d="M103.914 117.954C103.315 117.526 102.856 116.929 102.595 116.24C102.335 115.551 102.285 114.8 102.451 114.083C102.617 113.365 102.992 112.713 103.529 112.208C104.065 111.704 104.74 111.369 105.466 111.248C106.193 111.126 106.939 111.223 107.611 111.525C108.282 111.828 108.849 112.323 109.24 112.947C109.63 113.572 109.827 114.298 109.805 115.034C109.783 115.771 109.543 116.484 109.116 117.084C108.832 117.483 108.472 117.822 108.056 118.082C107.641 118.342 107.179 118.517 106.695 118.598C106.212 118.679 105.718 118.663 105.241 118.553C104.763 118.442 104.313 118.239 103.914 117.954Z" fill="#EDE538"/>
<path d="M62.574 124.8C61.9742 124.372 61.515 123.775 61.2543 123.086C60.9937 122.396 60.9434 121.645 61.1098 120.927C61.2762 120.209 61.6519 119.556 62.1892 119.052C62.7265 118.547 63.4014 118.213 64.1285 118.092C64.8555 117.972 65.6021 118.069 66.2738 118.373C66.9455 118.676 67.5121 119.172 67.9019 119.797C68.2917 120.423 68.4872 121.15 68.4638 121.887C68.4403 122.623 68.1988 123.337 67.77 123.936C67.4859 124.334 67.1261 124.673 66.711 124.932C66.296 125.191 65.8339 125.366 65.3512 125.446C64.8686 125.526 64.3748 125.511 63.8982 125.4C63.4217 125.289 62.9717 125.085 62.574 124.8Z" fill="#EDE538"/>
<path d="M75.564 100.2L80.262 99.414L81.636 107.652C81.9085 108.976 81.9752 110.334 81.834 111.678C81.6479 112.686 81.1305 113.602 80.364 114.282C79.4106 115.129 78.2217 115.664 76.956 115.818C75.7509 116.088 74.501 116.088 73.296 115.818C72.4105 115.559 71.624 115.038 71.04 114.324C70.3987 113.497 69.9535 112.534 69.738 111.51L74.112 110.148C74.1828 110.654 74.3263 111.147 74.538 111.612C74.6938 111.906 74.9341 112.146 75.228 112.302C75.4798 112.409 75.759 112.434 76.026 112.374C76.2561 112.352 76.4758 112.267 76.6618 112.13C76.8477 111.993 76.993 111.807 77.082 111.594C77.2715 110.933 77.286 110.234 77.124 109.566L75.564 100.2Z" fill="#3C3C42"/>
<path d="M84.258 109.164L88.674 108.144C88.8199 108.729 89.118 109.265 89.538 109.698C89.8343 109.968 90.1909 110.164 90.5781 110.268C90.9654 110.373 91.372 110.383 91.764 110.298C92.3245 110.244 92.8454 109.985 93.228 109.572C93.3756 109.413 93.4852 109.222 93.5485 109.014C93.6119 108.806 93.6275 108.587 93.594 108.372C93.5559 108.169 93.4738 107.977 93.3536 107.809C93.2334 107.641 93.0779 107.501 92.898 107.4C92.0917 107.061 91.2221 106.9 90.348 106.926C88.216 106.806 86.648 106.436 85.644 105.816C85.161 105.528 84.7487 105.135 84.4372 104.667C84.1258 104.199 83.9231 103.667 83.844 103.11C83.718 102.322 83.8265 101.515 84.156 100.788C84.5352 99.9697 85.1492 99.2825 85.92 98.814C87.0282 98.1785 88.2521 97.7705 89.52 97.614C91.46 97.29 92.998 97.404 94.134 97.956C94.7367 98.2735 95.2634 98.7179 95.6778 99.2586C96.0921 99.7993 96.3842 100.423 96.534 101.088L92.16 102.084C92.0996 101.804 91.9823 101.539 91.8154 101.306C91.6485 101.073 91.4356 100.877 91.1898 100.73C90.944 100.582 90.6706 100.487 90.3865 100.449C90.1023 100.412 89.8135 100.433 89.538 100.512C89.0851 100.548 88.6598 100.743 88.338 101.064C88.2253 101.185 88.1418 101.33 88.094 101.488C88.0461 101.646 88.0352 101.813 88.062 101.976C88.0871 102.103 88.1406 102.224 88.2185 102.327C88.2964 102.431 88.3967 102.516 88.512 102.576C89.0402 102.794 89.6093 102.894 90.18 102.87C91.7401 102.889 93.2926 103.091 94.806 103.47C95.6561 103.707 96.423 104.176 97.02 104.826C97.5382 105.438 97.8768 106.181 97.998 106.974C98.1625 107.929 98.0371 108.911 97.638 109.794C97.2303 110.72 96.5528 111.502 95.694 112.038C94.6105 112.694 93.4033 113.119 92.148 113.286C89.568 113.718 87.7 113.518 86.544 112.686C85.3827 111.826 84.5709 110.575 84.258 109.164Z" fill="#3C3C42"/>
</svg>
