<svg width="300" height="218" viewBox="0 0 300 218" fill="none" xmlns="http://www.w3.org/2000/svg">
<g clip-path="url(#clip0_16_50)">
<path d="M300 119.506C300 119.717 299.829 119.888 299.618 119.888H0V119.124H299.618C299.829 119.124 300 119.295 300 119.506Z" fill="#E6E6E6"/>
<path d="M98.516 26.7854C104.769 26.7854 109.839 21.716 109.839 15.4626C109.839 9.20912 104.769 4.13971 98.516 4.13971C92.2626 4.13971 87.1932 9.20912 87.1932 15.4626C87.1932 21.716 92.2626 26.7854 98.516 26.7854Z" fill="#FFB6B6"/>
<path d="M104.516 29.1746L89.6122 33.4328L87.483 38.2234L82.6925 61.1115V97.3066C82.6925 97.3066 76.8374 110.081 80.0311 121.259C83.4448 133.207 95.4673 119.105 104.516 120.714C113.565 122.324 127.936 123.921 127.936 123.921L119.42 85.0642L117.291 37.6911L104.516 29.1746Z" fill="#EDE538"/>
<path d="M101.704 19.1705L99.4015 18.0195C99.4015 18.0195 98.826 12.8399 97.675 11.6889C96.5239 10.5378 96.5239 9.96232 96.5239 9.96232L98.2505 7.66028C98.2505 7.66028 89.6178 12.2644 87.8913 9.38681C86.1647 6.50926 88.4668 5.35824 88.4668 5.35824L85.5892 3.05619C85.5892 3.05619 89.0423 5.35824 89.6178 3.6317C90.1933 1.90517 93.6464 0.73375 93.6464 0.73375C93.6464 0.73375 101.187 2.43989 100.582 0.73375C99.977 -0.972392 102.279 0.754145 102.855 1.32965C103.43 1.90517 108.61 7.66028 109.185 7.08477C109.761 6.50926 112.638 8.23579 112.063 8.8113C111.487 9.38682 111.487 9.96233 112.063 10.5378C112.638 11.1134 116.091 17.444 113.214 19.746C110.336 22.0481 106.308 24.9256 106.883 27.2277C107.459 29.5297 106.883 19.746 101.704 19.1705Z" fill="#2F2E41"/>
<path d="M45.8872 47.6785C42.981 45.1732 41.918 41.643 43.5126 39.7938C45.1073 37.9445 48.7553 38.4766 51.6621 40.9832C52.837 41.9685 53.7589 43.2208 54.3506 44.6355L66.5301 55.4058L61.3541 61.0135L49.8968 49.8006C48.41 49.4236 47.0351 48.6959 45.8872 47.6785Z" fill="#FFB6B6"/>
<path d="M87.6108 38.4065L95.6336 37.6771L102.669 71.2323C104.01 77.6262 99.8188 83.8685 93.3932 85.048L87.6108 86.1094L50.7556 53.6595L56.1401 44.6833L83.3191 61.7324L87.6108 38.4065Z" fill="#EDE538"/>
<path d="M69.6998 187.631C69.6998 187.631 63.3365 199.448 63.791 198.994C64.2455 198.539 71.9724 201.266 71.9724 201.266L76.5175 189.449L69.6998 187.631Z" fill="#FFB6B6"/>
<path d="M60.3078 104.91C60.3078 104.91 57.0504 117.931 57.379 117.378C57.7076 116.826 65.868 117.566 65.868 117.566L67.3633 104.994L60.3078 104.91Z" fill="#FFB6B6"/>
<path d="M116.97 102.721C102.589 104.741 89.6007 102.98 79.0174 94.6818C79.0174 94.6818 71.2906 120.589 85.3806 123.316C99.4707 126.043 115.152 121.356 116.97 116.811C118.788 112.266 116.97 102.721 116.97 102.721Z" fill="#2F2E41"/>
<path d="M90.1531 110.902L74.4722 147.86L67.1999 190.585L76.7448 192.858L93.8178 153.542L116.97 115.902L90.1531 110.902Z" fill="#2F2E41"/>
<path d="M88.1077 100.363C88.1077 100.363 84.4716 72.1831 77.6538 70.3651C74.3301 69.4787 71.2225 69.5646 68.9101 69.8854C66.5795 70.2088 64.7216 71.9894 64.3141 74.3068L58.1185 109.539H66.8796L69.6998 99.994L77.1993 113.09L88.1077 100.363Z" fill="#2F2E41"/>
<path d="M65.8364 113.999L57.1737 113.09L55.837 118.089C55.837 118.089 41.7469 130.816 49.0192 131.725C56.2915 132.634 63.1092 127.634 63.1092 127.634L73.1131 121.896C73.1131 121.896 69.2452 111.584 66.5181 111.584C63.791 111.584 65.8364 113.999 65.8364 113.999Z" fill="#2F2E41"/>
<path d="M70.3815 199.221L61.7188 198.312L60.3821 203.312C60.3821 203.312 46.2921 216.038 53.5644 216.947C60.8366 217.856 67.6544 212.856 67.6544 212.856L77.6583 207.118C77.6583 207.118 76.972 196.352 74.2449 196.352C71.5178 196.352 70.3815 199.221 70.3815 199.221Z" fill="#2F2E41"/>
<path d="M114.244 130.414C113.199 133.996 110.504 136.361 108.224 135.696C105.945 135.031 104.944 131.588 105.989 128.005C106.387 126.568 107.124 125.247 108.137 124.152L112.754 109.03L119.804 111.348L114.504 126.01C114.77 127.478 114.681 128.988 114.244 130.414Z" fill="#EDE538"/>
<path d="M119.123 37.7569L115.447 36.7201C111.981 43.6171 110.49 51.3388 111.14 59.0305L112.955 80.493L106.968 118.217L118.702 121.253L127.949 73.9107L119.123 37.7569Z" fill="#EDE538"/>
<path d="M47.5551 96.7376C47.3941 96.245 46.1739 96.4618 46.0568 96.0212C45.94 95.5822 47.1109 95.214 48.0088 93.9768C48.1708 93.7537 49.1912 92.3476 48.7998 91.7562C48.058 90.6353 42.8965 93.4271 41.6575 91.8604C41.3856 91.5166 41.2738 90.9264 40.4638 89.8278C40.1415 89.3908 39.9348 89.1799 39.6878 89.1861C39.3373 89.195 39.2119 89.6334 38.661 90.4277C37.8349 91.6189 37.5367 91.4693 36.9925 92.4453C36.5885 93.1698 36.5406 93.6327 36.2493 93.66C35.837 93.6986 35.6667 92.7966 35.1629 92.7616C34.6488 92.7259 34.1344 93.6172 33.8794 94.3136C33.4009 95.6203 33.6972 96.6192 33.7629 97.6146C33.8343 98.6964 33.6667 100.28 32.4913 102.312L21.4048 119.976C23.7858 116.375 30.5443 106.556 33.2673 102.954C34.0534 101.914 34.8981 100.87 36.1983 100.674C37.4501 100.485 38.9732 101.104 41.0991 101.068C41.3474 101.064 42.0383 101.043 42.2064 100.677C42.3454 100.374 42.0004 100.111 42.1259 99.8265C42.2942 99.4448 43.0516 99.6086 44.0838 99.355C44.8117 99.1762 45.3062 98.8809 45.7314 98.6268C45.8596 98.5502 47.7694 97.3934 47.5551 96.7376Z" fill="#F2F2F2"/>
<path d="M18.5176 100.862C18.2294 100.798 17.9838 101.46 17.7337 101.39C17.4846 101.321 17.6417 100.64 17.2936 99.8423C17.2308 99.6984 16.8351 98.7919 16.4319 98.8134C15.6677 98.854 15.5487 102.193 14.4223 102.349C14.1751 102.383 13.8531 102.268 13.0802 102.348C12.7728 102.38 12.6096 102.421 12.5414 102.544C12.4446 102.719 12.6236 102.907 12.8545 103.406C13.2007 104.155 13.0413 104.259 13.3633 104.807C13.6023 105.215 13.8157 105.372 13.745 105.523C13.6451 105.736 13.1532 105.559 12.9906 105.797C12.8248 106.039 13.1138 106.548 13.382 106.874C13.8854 107.486 14.4611 107.629 14.9686 107.884C15.5201 108.161 16.249 108.7 16.9074 109.863L22.3779 120.401C21.2976 118.194 18.4283 112.043 17.4463 109.668C17.1628 108.982 16.8941 108.266 17.1728 107.571C17.4412 106.902 18.1846 106.334 18.7803 105.28C18.8499 105.157 19.0392 104.812 18.908 104.623C18.7995 104.468 18.5707 104.561 18.4672 104.418C18.3284 104.225 18.6274 103.9 18.8007 103.32C18.923 102.912 18.9207 102.584 18.9187 102.302C18.9181 102.217 18.9013 100.946 18.5176 100.862Z" fill="#F2F2F2"/>
<path d="M23.9753 103.433L24.1473 101.845L24.2527 101.745C24.7407 101.284 25.0459 100.796 25.1604 100.293C25.1786 100.213 25.1927 100.132 25.2072 100.05C25.2643 99.7233 25.3352 99.3175 25.649 98.896C25.8246 98.6612 26.2892 98.1305 26.7684 98.3159C26.8977 98.3643 26.985 98.4482 27.0457 98.5371C27.0609 98.5216 27.0765 98.5063 27.0932 98.4896C27.3002 98.2884 27.445 98.2148 27.5844 98.1438C27.6916 98.0892 27.8023 98.033 27.9896 97.8832C28.0717 97.8175 28.1375 97.7584 28.193 97.7088C28.3611 97.5586 28.5761 97.3828 28.8707 97.4525C29.183 97.5378 29.2901 97.8357 29.3611 98.0329C29.4879 98.3846 29.527 98.6265 29.5529 98.787C29.5622 98.8456 29.573 98.9116 29.5811 98.933C29.6495 99.1053 30.5075 99.1498 30.8303 99.1684C31.556 99.2078 32.1839 99.2419 32.3349 99.7388C32.4433 100.094 32.2175 100.482 31.6444 100.922C31.4659 101.059 31.2874 101.153 31.1319 101.224C31.2275 101.314 31.3037 101.437 31.3084 101.604C31.3189 102.001 30.9123 102.305 30.0999 102.51C29.898 102.562 29.6265 102.63 29.2711 102.613C29.1038 102.604 28.9572 102.579 28.8322 102.555C28.8136 102.626 28.7794 102.7 28.7178 102.77C28.537 102.977 28.245 103.03 27.8486 102.913C27.411 102.791 27.0653 102.626 26.7602 102.48C26.4937 102.353 26.264 102.244 26.0712 102.215C25.7126 102.164 25.3782 102.386 24.978 102.681L23.9753 103.433Z" fill="#F2F2F2"/>
<path d="M26.8371 94.3902L25.2578 94.6266L25.1346 94.5499C24.5647 94.1948 24.0148 94.0235 23.4993 94.0403C23.4174 94.0429 23.3356 94.0498 23.2523 94.0567C22.922 94.0843 22.5115 94.1186 22.0242 93.922C21.7525 93.8117 21.1213 93.4969 21.1791 92.9864C21.1932 92.849 21.2522 92.7433 21.3228 92.6621C21.304 92.6513 21.2851 92.6401 21.2648 92.6282C21.0177 92.479 20.9097 92.3576 20.8057 92.2407C20.7257 92.1509 20.6433 92.0581 20.4509 91.9149C20.3665 91.8521 20.2926 91.8034 20.2305 91.7624C20.0426 91.6379 19.8181 91.4744 19.8107 91.1718C19.8141 90.8481 20.075 90.669 20.2478 90.5502C20.5558 90.3383 20.7799 90.2392 20.9285 90.1735C20.9829 90.1496 21.044 90.1224 21.0626 90.1091C21.2119 89.9993 21.0374 89.158 20.9735 88.841C20.8275 88.1291 20.7012 87.5131 21.1436 87.241C21.4599 87.046 21.8922 87.1661 22.463 87.6089C22.6407 87.7468 22.7773 87.8955 22.8849 88.028C22.9482 87.9126 23.0478 87.8077 23.2086 87.7607C23.5894 87.65 23.9868 87.9662 24.3913 88.6999C24.4923 88.8822 24.6272 89.1275 24.7006 89.4756C24.7351 89.6396 24.7475 89.7879 24.756 89.9148C24.8296 89.9148 24.9099 89.9291 24.9935 89.9708C25.2395 90.0932 25.3645 90.3623 25.3522 90.7753C25.3453 91.2295 25.2726 91.606 25.2089 91.9381C25.1537 92.2281 25.107 92.4779 25.1272 92.6719C25.1697 93.0315 25.4686 93.2988 25.8552 93.6111L26.8371 94.3902Z" fill="#F2F2F2"/>
<path d="M27.0499 89.6476L27.2219 88.06L27.3273 87.9603C27.8153 87.4992 28.1205 87.0106 28.235 86.5078C28.2533 86.4278 28.2674 86.347 28.2818 86.2646C28.3389 85.9382 28.4098 85.5324 28.7236 85.1109C28.8993 84.8761 29.3639 84.3454 29.843 84.5308C29.9724 84.5792 30.0596 84.6631 30.1203 84.752C30.1355 84.7365 30.1511 84.7212 30.1678 84.7045C30.3748 84.5033 30.5196 84.4297 30.659 84.3587C30.7662 84.3041 30.8769 84.2479 31.0642 84.0981C31.1463 84.0324 31.2121 83.9733 31.2676 83.9237C31.4357 83.7735 31.6508 83.5977 31.9453 83.6674C32.2576 83.7527 32.3647 84.0506 32.4357 84.2478C32.5626 84.5995 32.6016 84.8414 32.6275 85.0019C32.6368 85.0605 32.6476 85.1265 32.6558 85.1479C32.7241 85.3202 33.5821 85.3647 33.9049 85.3834C34.6306 85.4227 35.2585 85.4568 35.4096 85.9537C35.5179 86.3092 35.2921 86.6969 34.719 87.1367C34.5405 87.2735 34.362 87.368 34.2065 87.4385C34.3022 87.5289 34.3784 87.6519 34.383 87.8194C34.3935 88.2158 33.9869 88.52 33.1745 88.7251C32.9726 88.7766 32.7011 88.8448 32.3458 88.8276C32.1784 88.8193 32.0318 88.7937 31.9068 88.7698C31.8882 88.841 31.854 88.915 31.7924 88.9853C31.6116 89.1922 31.3196 89.2449 30.9232 89.1282C30.4857 89.0063 30.1399 88.8404 29.8348 88.6947C29.5684 88.5677 29.3386 88.4592 29.1458 88.4295C28.7872 88.3794 28.4528 88.6008 28.0527 88.8954L27.0499 89.6476Z" fill="#F2F2F2"/>
<path d="M21.929 120.066L21.6498 119.79L21.2617 119.749C21.2635 119.713 21.261 119.628 21.2581 119.494C21.2432 118.764 21.1969 116.541 21.5064 113.126C21.7225 110.742 22.0836 108.322 22.5798 105.932C23.0767 103.539 23.5925 101.758 24.0068 100.326C24.3194 99.2464 24.635 98.2224 24.943 97.2249C25.7651 94.56 26.5413 92.0426 27.022 89.1711C27.1296 88.5302 27.353 87.1959 26.8956 85.621C26.6302 84.7077 26.1759 83.8479 25.5447 83.0665L26.1556 82.5731C26.8521 83.4366 27.3546 84.3888 27.6493 85.4029C28.1564 87.149 27.913 88.6029 27.7961 89.3014C27.3068 92.2235 26.5229 94.7651 25.6927 97.4558C25.3863 98.4496 25.0717 99.4692 24.7605 100.544C24.3499 101.963 23.8388 103.728 23.3483 106.091C22.8577 108.452 22.5012 110.843 22.2875 113.197C21.9821 116.569 22.028 118.758 22.043 119.478C22.0508 119.862 22.0524 119.942 21.929 120.066Z" fill="#F2F2F2"/>
<path d="M23.8687 83.97C23.8373 83.963 23.8057 83.9552 23.774 83.9458C23.1297 83.7652 22.6129 83.2401 22.2374 82.3854C22.0617 81.9835 22.0202 81.5605 21.9375 80.7169C21.9245 80.5868 21.8672 79.9287 21.9377 79.0565C21.9836 78.4865 22.0448 78.2576 22.1999 78.0778C22.3722 77.8776 22.6042 77.7629 22.8495 77.7053C22.8561 77.6299 22.8808 77.5561 22.9298 77.4861C23.1315 77.1959 23.4692 77.3152 23.6524 77.3773C23.7447 77.4104 23.8597 77.4525 23.9891 77.4743C24.1925 77.5095 24.3139 77.4738 24.4977 77.4205C24.6736 77.3695 24.8922 77.306 25.1945 77.3114C25.7909 77.3196 26.2324 77.5876 26.378 77.6758C27.1447 78.1365 27.4094 78.8716 27.7158 79.7226C27.7767 79.8932 27.9787 80.5098 28.0257 81.3038C28.0597 81.8767 27.9846 82.1112 27.8986 82.2788C27.7228 82.6235 27.4536 82.7833 26.7854 83.1195C26.0874 83.4717 25.7372 83.648 25.4501 83.7386C24.7819 83.9484 24.3623 84.0801 23.8687 83.97Z" fill="#F2F2F2"/>
<path d="M203.048 17.5187C203.048 17.5187 207.383 20.0607 205.961 22.5747C204.54 25.0886 202.558 28.5129 203.902 29.5913C205.247 30.6697 207.467 35.4246 207.467 35.4246C207.467 35.4246 216.941 34.1013 216.052 41.4611C215.162 48.8208 210.711 49.8242 214.526 53.062C218.341 56.2998 210.561 60.1721 210.561 60.1721C210.561 60.1721 205.19 58.4983 203.965 53.3513C202.739 48.2044 205.057 57.2869 204.28 57.9381C203.503 58.5893 200.484 62.8819 198.349 57.1747C196.213 51.4675 198.328 49.2547 195.506 45.8863C192.684 42.518 190.765 37.0699 190.849 36.1175C190.933 35.1652 187.621 26.4748 192.719 23.0856C197.817 19.6964 203.048 17.5187 203.048 17.5187Z" fill="#2F2E41"/>
<path d="M245.744 97.3727C248.261 99.4556 251.375 99.8453 252.701 98.2435C254.026 96.6417 253.06 93.6553 250.542 91.572C249.548 90.7261 248.365 90.1305 247.093 89.8353L236.319 81.1449L232.348 86.288L243.392 94.3092C243.92 95.5036 244.727 96.5541 245.744 97.3727Z" fill="#FFB6B6"/>
<path d="M213.452 49.9778C213.452 49.9778 204.996 44.323 202.227 47.0958C199.458 49.8686 200.12 56.7943 200.12 56.7943L222.293 82.6364L239.876 93.8128L244.591 86.4302L229.809 73.2397L213.452 49.9778Z" fill="#3F3D56"/>
<path d="M201.057 37.7286L204.125 48.6334H187.287L192.831 35.197L201.057 37.7286Z" fill="#FFB6B6"/>
<path opacity="0.1" d="M201.057 37.7286L204.125 48.6334H187.287L192.831 35.197L201.057 37.7286Z" fill="black"/>
<path d="M164.336 118.242C164.118 121.502 165.624 124.256 167.698 124.394C169.773 124.532 171.63 122.002 171.847 118.741C171.951 117.44 171.743 116.132 171.238 114.928L171.985 101.106L165.491 100.894L165.445 114.543C164.785 115.67 164.404 116.938 164.336 118.242Z" fill="#FFB6B6"/>
<path d="M183.89 64.3285C183.89 64.3285 183.53 54.1627 179.662 53.5386C175.793 52.9146 170.563 57.5019 170.563 57.5019L162.572 90.6024L163.791 111.401L172.537 110.907L174.589 91.2019L183.89 64.3285Z" fill="#3F3D56"/>
<path d="M221.397 185.813C221.397 185.813 227.76 197.63 227.306 197.176C226.851 196.721 219.124 199.448 219.124 199.448L214.579 187.631L221.397 185.813Z" fill="#FFB6B6"/>
<path d="M230.789 103.092C230.789 103.092 234.046 116.113 233.718 115.56C233.389 115.008 225.229 115.748 225.229 115.748L223.733 103.176L230.789 103.092Z" fill="#FFB6B6"/>
<path d="M205.489 44.9973H189.602L172.309 56.8147L167.309 98.1758L170.036 106.357L175.036 115.902C175.036 115.902 170.036 94.9942 182.308 103.176C194.58 111.357 195.489 112.72 195.489 112.72L211.852 104.539L217.988 70.6775L213.443 52.0423L205.489 44.9973Z" fill="#3F3D56"/>
<path d="M174.127 100.903C188.507 102.923 201.496 101.162 212.079 92.8637C212.079 92.8637 219.806 118.771 205.716 121.498C191.626 124.225 175.945 119.538 174.127 114.993C172.309 110.448 174.127 100.903 174.127 100.903Z" fill="#2F2E41"/>
<path d="M200.944 109.084L216.624 146.042L223.897 188.767L214.352 191.04L197.279 151.724L174.127 114.084L200.944 109.084Z" fill="#2F2E41"/>
<path d="M202.989 98.5452C202.989 98.5452 206.625 70.365 213.443 68.547C216.767 67.6607 219.874 67.7465 222.187 68.0673C224.517 68.3907 226.375 70.1713 226.783 72.4887L232.978 107.721H224.217L221.397 98.1759L213.897 111.272L202.989 98.5452Z" fill="#2F2E41"/>
<path d="M225.26 112.181L233.923 111.272L235.26 116.271C235.26 116.271 249.35 128.998 242.077 129.907C234.805 130.816 227.987 125.816 227.987 125.816L217.984 120.077C217.984 120.077 221.851 109.766 224.578 109.766C227.306 109.766 225.26 112.181 225.26 112.181Z" fill="#2F2E41"/>
<path d="M220.715 197.403L229.378 196.494L230.714 201.493C230.714 201.493 244.805 214.22 237.532 215.129C230.26 216.038 223.442 211.038 223.442 211.038L213.438 205.3C213.438 205.3 214.125 194.534 216.852 194.534C219.579 194.534 220.715 197.403 220.715 197.403Z" fill="#2F2E41"/>
<path d="M197.057 40.0983C202.657 40.0983 207.197 35.5582 207.197 29.9577C207.197 24.3572 202.657 19.8171 197.057 19.8171C191.456 19.8171 186.916 24.3572 186.916 29.9577C186.916 35.5582 191.456 40.0983 197.057 40.0983Z" fill="#FFB6B6"/>
<path d="M200.944 18.634C200.944 18.634 202.634 23.3663 199.93 24.3804C197.226 25.3944 193.507 26.7465 193.845 28.4366C194.183 30.1267 192.831 35.197 192.831 35.197C192.831 35.197 200.944 40.2673 195.536 45.3375C190.127 50.4078 186.071 48.3185 186.916 53.2504C187.761 58.1823 179.311 56.1542 179.311 56.1542C179.311 56.1542 176.268 51.4219 178.635 46.6896C181.001 41.9574 176.944 50.4078 175.93 50.4078C174.916 50.4078 169.846 51.7599 171.874 46.0136C173.902 40.2673 176.944 39.9292 176.944 35.535C176.944 31.1407 178.973 25.7324 179.649 25.0564C180.325 24.3804 183.367 15.5919 189.451 16.2679C195.536 16.9439 200.944 18.634 200.944 18.634Z" fill="#2F2E41"/>
<path d="M112.313 185.813C112.313 185.813 105.949 197.63 106.404 197.176C106.858 196.721 114.585 199.448 114.585 199.448L119.13 187.631L112.313 185.813Z" fill="#A0616A"/>
<path d="M159.582 100.903C145.202 102.923 132.214 101.162 121.63 92.8637C121.63 92.8637 113.903 118.771 127.993 121.498C142.084 124.225 157.764 119.538 159.582 114.993C161.401 110.448 159.582 100.903 159.582 100.903Z" fill="#2F2E41"/>
<path d="M132.766 109.084L117.085 146.042L109.813 188.767L119.358 191.04L136.431 151.724L159.582 114.084L132.766 109.084Z" fill="#2F2E41"/>
<path d="M112.994 197.403L104.332 196.494L102.995 201.493C102.995 201.493 88.9049 214.22 96.1772 215.129C103.45 216.038 110.267 211.038 110.267 211.038L120.271 205.3C120.271 205.3 119.585 194.534 116.858 194.534C114.131 194.534 112.994 197.403 112.994 197.403Z" fill="#2F2E41"/>
<path d="M126.681 179.595C126.681 179.595 124.274 192.799 124.566 192.227C124.858 191.654 133.049 191.864 133.049 191.864L133.727 179.221L126.681 179.595Z" fill="#A0616A"/>
<path d="M122.465 100.299L118.951 140.292L125.214 183.177L134.995 182.394L139.106 139.728L149.516 96.7822L122.465 100.299Z" fill="#2F2E41"/>
<path d="M130.905 190.41L122.384 192.217L122.655 197.386C122.655 197.386 113.179 213.838 120.377 212.459C127.575 211.081 132.517 204.221 132.517 204.221L140.263 195.676C140.263 195.676 136.289 185.647 133.695 186.489C131.101 187.33 130.905 190.41 130.905 190.41Z" fill="#2F2E41"/>
<path d="M130.661 17.5187C130.661 17.5187 126.327 20.0607 127.748 22.5747C129.17 25.0886 131.152 28.5129 129.807 29.5913C128.463 30.6697 126.243 35.4246 126.243 35.4246C126.243 35.4246 116.768 34.1013 117.658 41.4611C118.547 48.8208 122.998 49.8242 119.183 53.062C115.368 56.2998 123.148 60.1721 123.148 60.1721C123.148 60.1721 128.519 58.4983 129.745 53.3513C130.97 48.2044 128.652 57.2869 129.43 57.9381C130.207 58.5893 133.225 62.8819 135.361 57.1747C137.497 51.4675 135.382 49.2547 138.204 45.8863C141.026 42.518 142.944 37.0699 142.86 36.1175C142.776 35.1652 146.088 26.4748 140.99 23.0856C135.892 19.6964 130.661 17.5187 130.661 17.5187Z" fill="#2F2E41"/>
<path d="M132.652 37.7286L129.584 48.6334H146.423L140.878 35.197L132.652 37.7286Z" fill="#A0616A"/>
<path opacity="0.1" d="M132.652 37.7286L129.584 48.6334H146.423L140.878 35.197L132.652 37.7286Z" fill="black"/>
<path d="M169.374 118.242C169.591 121.502 168.086 124.256 166.011 124.394C163.937 124.532 162.08 122.002 161.863 118.741C161.758 117.44 161.967 116.132 162.471 114.928L161.724 101.106L168.218 100.894L168.265 114.543C168.925 115.67 169.305 116.938 169.374 118.242Z" fill="#A0616A"/>
<path d="M149.82 64.3285C149.82 64.3285 150.179 54.1627 154.048 53.5386C157.916 52.9146 163.147 57.5019 163.147 57.5019L171.138 90.6024L169.919 111.401L161.173 110.907L159.12 91.2019L149.82 64.3285Z" fill="#F64E4E"/>
<path d="M128.221 44.9973H144.107L161.401 56.8147L166.4 98.1758L163.673 106.357L158.673 115.902C158.673 115.902 163.673 94.9942 151.401 103.176C151.278 103.257 151.157 103.338 151.036 103.419C143.137 108.695 132.713 108.154 125.401 102.09L119.585 97.2668L122.767 81.3587L120.267 52.0423L128.221 44.9973Z" fill="#F64E4E"/>
<path d="M88.4682 96.7803C85.9201 98.8247 82.7999 99.1671 81.4992 97.5453C80.1984 95.9235 81.2097 92.9521 83.7589 90.9074C84.766 90.0766 85.9574 89.4991 87.2334 89.2232L98.1389 80.6976L102.031 85.9005L90.8666 93.7528C90.3204 94.9391 89.4979 95.9772 88.4682 96.7803Z" fill="#F64E4E"/>
<path d="M121.477 49.8816C121.477 49.8816 130.018 44.356 132.744 47.1705C135.471 49.9851 134.704 56.9 134.704 56.9L112.14 82.4021L94.3893 93.31L89.7873 85.8565L104.768 72.8922L121.477 49.8816Z" fill="#F64E4E"/>
<path d="M136.653 40.0983C142.253 40.0983 146.793 35.5582 146.793 29.9577C146.793 24.3572 142.253 19.8171 136.653 19.8171C131.052 19.8171 126.512 24.3572 126.512 29.9577C126.512 35.5582 131.052 40.0983 136.653 40.0983Z" fill="#A0616A"/>
<path d="M131.605 23.1606C131.605 23.1606 130.111 18.1807 132.601 18.1807C135.091 18.1807 145.05 18.6787 146.046 19.6747C147.042 20.6706 158.827 30.6663 151.856 38.634C144.884 46.6017 151.856 50.4515 151.856 50.4515C151.856 50.4515 157.002 62.5011 152.022 63.4971C147.042 64.493 126.615 58.7981 131.605 49.5535C137.019 39.5213 139.538 23.687 131.605 23.1606Z" fill="#2F2E41"/>
<path d="M297.54 97.1921C297.379 96.6995 296.159 96.9164 296.042 96.4758C295.925 96.0367 297.096 95.6686 297.994 94.4313C298.156 94.2082 299.176 92.8022 298.785 92.2108C298.043 91.0898 292.881 93.8817 291.642 92.315C291.37 91.9711 291.259 91.3809 290.449 90.2824C290.126 89.8454 289.92 89.6344 289.673 89.6406C289.322 89.6495 289.197 90.088 288.646 90.8822C287.82 92.0734 287.522 91.9238 286.977 92.8998C286.573 93.6243 286.525 94.0872 286.234 94.1145C285.822 94.1532 285.651 93.2511 285.148 93.2161C284.634 93.1804 284.119 94.0717 283.864 94.7681C283.386 96.0749 283.682 97.0737 283.748 98.0691C283.819 99.1509 283.652 100.734 282.476 102.767L271.39 120.43C273.771 116.83 280.529 107.01 283.252 103.409C284.038 102.369 284.883 101.325 286.183 101.128C287.435 100.939 288.958 101.559 291.084 101.523C291.332 101.518 292.023 101.498 292.191 101.132C292.33 100.829 291.985 100.566 292.111 100.281C292.279 99.8993 293.036 100.063 294.069 99.8096C294.797 99.6308 295.291 99.3354 295.716 99.0813C295.844 99.0048 297.754 97.8479 297.54 97.1921Z" fill="#F2F2F2"/>
<path d="M268.502 101.316C268.214 101.253 267.969 101.914 267.719 101.845C267.469 101.775 267.627 101.095 267.278 100.297C267.216 100.153 266.82 99.2464 266.417 99.2679C265.653 99.3086 265.534 102.647 264.407 102.803C264.16 102.838 263.838 102.722 263.065 102.803C262.758 102.835 262.594 102.876 262.526 102.999C262.429 103.173 262.608 103.361 262.839 103.861C263.186 104.61 263.026 104.713 263.348 105.262C263.587 105.669 263.801 105.826 263.73 105.977C263.63 106.191 263.138 106.014 262.975 106.251C262.81 106.493 263.099 107.003 263.367 107.329C263.87 107.941 264.446 108.083 264.953 108.338C265.505 108.616 266.234 109.155 266.892 110.318L272.363 120.856C271.282 118.648 268.413 112.498 267.431 110.122C267.148 109.437 266.879 108.721 267.158 108.026C267.426 107.357 268.169 106.788 268.765 105.734C268.835 105.611 269.024 105.266 268.893 105.078C268.784 104.922 268.556 105.016 268.452 104.872C268.313 104.679 268.612 104.355 268.786 103.775C268.908 103.366 268.906 103.038 268.904 102.756C268.903 102.671 268.886 101.4 268.502 101.316Z" fill="#F2F2F2"/>
<path d="M273.96 103.887L274.132 102.3L274.238 102.2C274.726 101.739 275.031 101.25 275.145 100.747C275.163 100.667 275.178 100.587 275.192 100.504C275.249 100.178 275.32 99.772 275.634 99.3506C275.809 99.1157 276.274 98.585 276.753 98.7704C276.883 98.8189 276.97 98.9027 277.031 98.9916C277.046 98.9762 277.061 98.9608 277.078 98.9441C277.285 98.743 277.43 98.6693 277.569 98.5983C277.676 98.5437 277.787 98.4875 277.974 98.3377C278.057 98.2721 278.122 98.2129 278.178 98.1633C278.346 98.0132 278.561 97.8374 278.856 97.907C279.168 97.9923 279.275 98.2902 279.346 98.4874C279.473 98.8392 279.512 99.0811 279.538 99.2415C279.547 99.3001 279.558 99.3661 279.566 99.3875C279.634 99.5598 280.492 99.6044 280.815 99.623C281.541 99.6624 282.169 99.6964 282.32 100.193C282.428 100.549 282.202 100.936 281.629 101.376C281.451 101.513 281.272 101.608 281.117 101.678C281.212 101.769 281.289 101.892 281.293 102.059C281.304 102.455 280.897 102.76 280.085 102.965C279.883 103.016 279.611 103.084 279.256 103.067C279.089 103.059 278.942 103.033 278.817 103.009C278.798 103.081 278.764 103.155 278.703 103.225C278.522 103.432 278.23 103.484 277.833 103.368C277.396 103.246 277.05 103.08 276.745 102.934C276.479 102.807 276.249 102.699 276.056 102.669C275.697 102.619 275.363 102.84 274.963 103.135L273.96 103.887Z" fill="#F2F2F2"/>
<path d="M276.822 94.8447L275.243 95.0811L275.119 95.0044C274.55 94.6494 274 94.478 273.484 94.4948C273.402 94.4975 273.32 94.5043 273.237 94.5113C272.907 94.5388 272.496 94.5732 272.009 94.3765C271.737 94.2662 271.106 93.9514 271.164 93.4409C271.178 93.3035 271.237 93.1978 271.308 93.1166C271.289 93.1058 271.27 93.0946 271.25 93.0827C271.003 92.9335 270.895 92.8121 270.791 92.6952C270.711 92.6054 270.628 92.5126 270.436 92.3694C270.351 92.3066 270.277 92.258 270.215 92.2169C270.027 92.0924 269.803 91.9289 269.796 91.6263C269.799 91.3026 270.06 91.1235 270.233 91.0048C270.541 90.7928 270.765 90.6937 270.913 90.628C270.968 90.6041 271.029 90.5769 271.047 90.5636C271.197 90.4538 271.022 89.6126 270.958 89.2956C270.812 88.5836 270.686 87.9676 271.128 87.6955C271.445 87.5005 271.877 87.6206 272.448 88.0634C272.625 88.2014 272.762 88.35 272.87 88.4826C272.933 88.3671 273.033 88.2622 273.193 88.2152C273.574 88.1045 273.972 88.4207 274.376 89.1545C274.477 89.3367 274.612 89.582 274.685 89.9301C274.72 90.0941 274.732 90.2424 274.741 90.3694C274.814 90.3693 274.895 90.3836 274.978 90.4254C275.224 90.5478 275.349 90.8169 275.337 91.2299C275.33 91.6841 275.257 92.0606 275.194 92.3926C275.139 92.6826 275.092 92.9324 275.112 93.1264C275.154 93.486 275.453 93.7533 275.84 94.0656L276.822 94.8447Z" fill="#F2F2F2"/>
<path d="M277.035 90.1022L277.207 88.5146L277.312 88.4148C277.8 87.9537 278.105 87.4651 278.22 86.9623C278.238 86.8824 278.252 86.8015 278.267 86.7192C278.324 86.3927 278.395 85.9869 278.708 85.5655C278.884 85.3307 279.349 84.7999 279.828 84.9853C279.957 85.0338 280.044 85.1176 280.105 85.2065C280.12 85.1911 280.136 85.1757 280.153 85.159C280.36 84.9579 280.504 84.8842 280.644 84.8132C280.751 84.7586 280.862 84.7024 281.049 84.5527C281.131 84.487 281.197 84.4279 281.252 84.3782C281.421 84.2281 281.636 84.0523 281.93 84.1219C282.242 84.2073 282.35 84.5051 282.421 84.7023C282.547 85.0541 282.586 85.296 282.612 85.4564C282.622 85.515 282.632 85.581 282.641 85.6025C282.709 85.7747 283.567 85.8193 283.89 85.8379C284.615 85.8773 285.243 85.9113 285.394 86.4082C285.503 86.7637 285.277 87.1514 284.704 87.5912C284.525 87.728 284.347 87.8225 284.191 87.893C284.287 87.9834 284.363 88.1064 284.368 88.2739C284.378 88.6704 283.972 88.9746 283.159 89.1796C282.957 89.2312 282.686 89.2994 282.331 89.2821C282.163 89.2739 282.017 89.2482 281.892 89.2243C281.873 89.2955 281.839 89.3695 281.777 89.4398C281.596 89.6468 281.304 89.6994 280.908 89.5827C280.471 89.4608 280.125 89.295 279.82 89.1492C279.553 89.0222 279.323 88.9137 279.131 88.884C278.772 88.8339 278.438 89.0553 278.038 89.3499L277.035 90.1022Z" fill="#F2F2F2"/>
<path d="M271.914 120.521L271.635 120.245L271.246 120.204C271.248 120.167 271.246 120.082 271.243 119.949C271.228 119.218 271.182 116.996 271.491 113.58C271.707 111.196 272.068 108.776 272.565 106.387C273.062 103.993 273.577 102.212 273.992 100.781C274.304 99.7009 274.62 98.6769 274.928 97.6794C275.75 95.0145 276.526 92.4971 277.007 89.6256C277.114 88.9847 277.338 87.6504 276.88 86.0755C276.615 85.1622 276.161 84.3024 275.529 83.521L276.14 83.0276C276.837 83.8911 277.339 84.8432 277.634 85.8574C278.141 87.6035 277.898 89.0574 277.781 89.7559C277.292 92.678 276.508 95.2196 275.678 97.9103C275.371 98.9041 275.057 99.9237 274.745 100.999C274.335 102.417 273.824 104.183 273.333 106.545C272.843 108.907 272.486 111.297 272.272 113.651C271.967 117.023 272.013 119.213 272.028 119.932C272.036 120.316 272.037 120.397 271.914 120.521Z" fill="#F2F2F2"/>
<path d="M273.854 84.4246C273.822 84.4176 273.791 84.4097 273.759 84.4003C273.115 84.2197 272.598 83.6946 272.222 82.8399C272.047 82.438 272.005 82.015 271.922 81.1714C271.909 81.0413 271.852 80.3832 271.923 79.511C271.968 78.941 272.03 78.7121 272.185 78.5324C272.357 78.3321 272.589 78.2174 272.834 78.1599C272.841 78.0844 272.866 78.0106 272.915 77.9407C273.116 77.6504 273.454 77.7697 273.637 77.8318C273.73 77.8649 273.845 77.9071 273.974 77.9289C274.177 77.964 274.299 77.9283 274.483 77.8751C274.658 77.824 274.877 77.7605 275.179 77.7659C275.776 77.7741 276.217 78.0422 276.363 78.1304C277.13 78.5911 277.394 79.3261 277.701 80.1771C277.761 80.3477 277.964 80.9643 278.011 81.7584C278.045 82.3312 277.969 82.5657 277.883 82.7333C277.708 83.078 277.438 83.2378 276.77 83.574C276.072 83.9263 275.722 84.1025 275.435 84.1932C274.767 84.4029 274.347 84.5347 273.854 84.4246Z" fill="#F2F2F2"/>
<path d="M75.977 93.0364L75.4642 76.8588C75.4559 76.5962 75.5591 76.3405 75.7475 76.1574C75.9359 75.9741 76.1945 75.878 76.4569 75.8938L89.2944 76.6637C89.5537 76.6791 89.7971 76.8031 89.962 77.0038C90.127 77.2044 90.2017 77.467 90.167 77.7244L87.9953 93.8036C87.9296 94.2901 87.4945 94.6457 87.0047 94.6131L76.8518 93.9417C76.7488 93.9349 76.6507 93.912 76.5599 93.8752C76.2246 93.7396 75.9891 93.4173 75.977 93.0364Z" fill="#3A5CCC"/>
<path d="M75.4802 75.3454C75.6598 75.3265 75.9003 75.3032 76.1892 75.279C76.112 75.1352 76.0804 74.9652 76.1134 74.7907L76.3426 73.5789C76.4021 73.2644 76.6555 73.0233 76.9728 72.9809C78.863 72.7281 85.3644 72.0424 89.4582 73.8997C89.7143 74.0159 89.8791 74.271 89.8873 74.5522L89.9247 75.8449C89.9293 76.0048 89.8829 76.1529 89.8015 76.2757C90.1418 76.3673 90.481 76.464 90.8176 76.5696C91.0284 76.6357 91.1794 76.8218 91.2047 77.0413L91.2683 77.592C91.3087 77.9414 91.0222 78.2418 90.6713 78.2181L75.3239 77.1816C74.9746 77.1581 74.7314 76.8248 74.8154 76.485L74.9922 75.7701C75.0492 75.5398 75.2442 75.3703 75.4802 75.3454Z" fill="#3F3D56"/>
<path d="M37.343 47.1301L36.8302 30.9525C36.8219 30.6899 36.9251 30.4342 37.1134 30.2511C37.3019 30.0678 37.5605 29.9717 37.8229 29.9874L50.6604 30.7574C50.9197 30.7728 51.1631 30.8968 51.328 31.0975C51.493 31.2981 51.5677 31.5607 51.5329 31.8181L49.3612 47.8972C49.2955 48.3838 48.8605 48.7393 48.3707 48.7068L38.2178 48.0354C38.1148 48.0286 38.0167 48.0057 37.9258 47.9689C37.5905 47.8333 37.3551 47.511 37.343 47.1301Z" fill="#3A5CCC"/>
<path d="M36.8461 29.4391C37.0257 29.4202 37.2663 29.3969 37.5552 29.3727C37.4779 29.2289 37.4463 29.0589 37.4794 28.8843L37.7086 27.6726C37.7681 27.3581 38.0215 27.117 38.3387 27.0746C40.229 26.8218 46.7304 26.1361 50.8242 27.9933C51.0803 28.1096 51.2451 28.3647 51.2532 28.6458L51.2907 29.9386C51.2953 30.0985 51.2489 30.2466 51.1675 30.3694C51.5078 30.4609 51.847 30.5577 52.1835 30.6632C52.3944 30.7294 52.5453 30.9155 52.5707 31.135L52.6343 31.6857C52.6746 32.0351 52.3882 32.3355 52.0373 32.3118L36.6898 31.2753C36.3406 31.2517 36.0973 30.9184 36.1814 30.5786L36.3582 29.8638C36.4152 29.6334 36.6102 29.4639 36.8461 29.4391Z" fill="#3F3D56"/>
<path d="M238.694 97.127L238.182 80.9495C238.173 80.6869 238.276 80.4312 238.465 80.248C238.653 80.0648 238.912 79.9687 239.174 79.9844L252.012 80.7544C252.271 80.7698 252.514 80.8938 252.679 81.0945C252.844 81.2951 252.919 81.5577 252.884 81.8151L250.713 97.8942C250.647 98.3807 250.212 98.7363 249.722 98.7038L239.569 98.0324C239.466 98.0256 239.368 98.0026 239.277 97.9659C238.942 97.8303 238.707 97.508 238.694 97.127Z" fill="#3A5CCC"/>
<path d="M238.198 79.4361C238.377 79.4172 238.618 79.3939 238.907 79.3696C238.829 79.2259 238.798 79.0558 238.831 78.8813L239.06 77.6696C239.12 77.3551 239.373 77.114 239.69 77.0715C241.58 76.8188 248.082 76.133 252.176 77.9903C252.432 78.1065 252.596 78.3617 252.605 78.6428L252.642 79.9356C252.647 80.0954 252.6 80.2436 252.519 80.3664C252.859 80.4579 253.198 80.5547 253.535 80.6602C253.746 80.7263 253.897 80.9125 253.922 81.132L253.986 81.6826C254.026 82.0321 253.74 82.3325 253.389 82.3088L238.041 81.2723C237.692 81.2487 237.449 80.9154 237.533 80.5756L237.71 79.8607C237.767 79.6304 237.962 79.4609 238.198 79.4361Z" fill="#3F3D56"/>
</g>
<defs>
<clipPath id="clip0_16_50">
<rect width="300" height="217.058" fill="white"/>
</clipPath>
</defs>
</svg>
