<svg width="300" height="300" viewBox="0 0 300 300" fill="none" xmlns="http://www.w3.org/2000/svg">
<path opacity="0.2" d="M19.284 157.356C19.164 157.278 19.194 157.224 19.284 157.356V157.356Z" fill="#263238"/>
<path opacity="0.2" d="M75.402 152.064C75.0691 154.066 74.1882 155.938 72.857 157.47C71.5258 159.002 69.7962 160.136 67.86 160.746L66.372 161.232C61.02 168.81 51.636 172.032 43.638 167.346L41.298 165.972L34.746 158.172H34.668C32.592 158.604 30.246 158.286 28.71 156.822C28.6491 157.144 28.5118 157.446 28.3094 157.703C28.1071 157.961 27.8458 158.166 27.5475 158.301C27.2493 158.436 26.9229 158.497 26.596 158.48C26.2691 158.462 25.9511 158.366 25.6691 158.2C25.3871 158.034 25.1493 157.802 24.9757 157.524C24.8022 157.247 24.698 156.931 24.672 156.605C24.646 156.278 24.6989 155.951 24.8263 155.649C24.9537 155.347 25.1519 155.081 25.404 154.872C24.084 156.036 22.044 155.502 20.772 154.23C20.7172 150.734 21.1206 147.247 21.972 143.856C22.4896 141.767 23.1676 139.721 24 137.736C24.6343 136.229 25.3535 134.758 26.154 133.332C26.214 133.212 26.286 133.086 26.358 132.966C27.5496 130.877 28.8827 128.873 30.348 126.966L31.104 126.282C31.704 125.76 32.25 125.25 32.832 124.734L32.94 124.638C33.868 123.838 34.81 123.038 35.766 122.238C37.236 121.008 38.73 119.802 40.236 118.602L40.386 118.482C41.676 117.462 42.978 116.448 44.274 115.44L46.23 113.928C46.6228 113.975 47.0091 114.066 47.382 114.198C48.984 114.756 49.26 116.226 50.382 117.234C51.858 118.584 53.274 116.316 55.548 116.388C62.538 116.604 59.826 123.774 63.24 122.874C77.982 118.986 75.504 137.844 69.096 141.984C72.876 145.086 76.134 147.156 75.402 152.064Z" fill="black"/>
<path d="M43.704 169.992C57.436 169.992 68.568 158.997 68.568 145.434C68.568 131.871 57.436 120.876 43.704 120.876C29.972 120.876 18.84 131.871 18.84 145.434C18.84 158.997 29.972 169.992 43.704 169.992Z" fill="white" stroke="#263238" stroke-miterlimit="10"/>
<path d="M43.704 166.83C56.2232 166.83 66.372 156.805 66.372 144.438C66.372 132.071 56.2232 122.046 43.704 122.046C31.1848 122.046 21.036 132.071 21.036 144.438C21.036 156.805 31.1848 166.83 43.704 166.83Z" fill="#263238" stroke="white" stroke-miterlimit="10"/>
<path d="M19.344 153.264C17.916 154.152 17.508 157.134 18.63 158.43C19.752 159.726 21.906 158.724 22.344 156.708C22.3824 156.829 22.4542 156.936 22.551 157.018C22.6478 157.099 22.7657 157.152 22.8911 157.17C23.0166 157.187 23.1444 157.169 23.2599 157.117C23.3754 157.065 23.4739 156.981 23.544 156.876C23.6573 156.688 23.724 156.475 23.7386 156.256C23.7532 156.037 23.7153 155.818 23.628 155.616C23.52 155.526 23.562 155.46 23.628 155.616C24.36 156.216 25.62 155.562 25.794 154.32C25.26 157.62 28.26 160.5 30.468 158.82C29.814 160.224 30.672 162.066 31.812 162.42C32.952 162.774 34.176 162.102 35.268 161.358C36.36 160.614 37.482 159.756 38.676 159.702C39.714 159.654 40.68 160.242 41.676 160.59C44.832 161.688 48.528 160.23 50.94 156.924C52.536 159.654 56.466 158.646 57.54 155.25C57.762 156.84 58.848 158.052 60.066 158.064C61.284 158.076 62.502 156.9 62.922 155.322C62.922 156.828 64.29 157.566 65.25 156.6C65.917 155.906 66.3947 155.052 66.6373 154.12C66.88 153.188 66.8795 152.21 66.636 151.278C68.268 151.212 69.852 149.316 70.098 147.12C70.344 144.924 69.24 142.716 67.662 142.284C70.374 141.162 72.462 137.484 72.594 133.71C72.726 129.936 70.758 126.456 68.1 125.58C67.5856 125.375 67.0223 125.326 66.4803 125.439C65.9382 125.552 65.4415 125.822 65.052 126.216C64.734 124.074 63.762 122.16 62.328 121.2C60.048 119.658 56.874 120.714 55.176 123.6C55.5851 122.829 55.8099 121.974 55.8328 121.102C55.8557 120.229 55.6761 119.363 55.308 118.572C54.552 117.174 53.052 116.61 51.78 117.27C51.51 114.972 49.734 113.34 48 113.784C46.266 114.228 44.868 116.688 45 119.01C44.838 117.138 42.6 116.676 41.832 118.248C41.796 118.308 41.898 118.392 41.832 118.248C40.728 115.932 38.484 114.744 36.402 115.422C34.188 116.148 32.328 118.926 32.04 121.962C31.2939 121.287 30.3159 120.925 29.3099 120.953C28.3038 120.981 27.3474 121.396 26.64 122.112C25.002 123.588 24.054 126.396 24.342 128.904C22.62 127.206 19.722 128.136 18.54 130.764C17.358 133.392 18.168 137.112 20.166 138.216C18.792 138.426 17.58 140.25 17.58 142.098C17.58 143.946 18.78 145.53 20.178 145.482C18.786 145.602 17.472 147.246 17.268 149.112C17.064 150.978 18 152.856 19.344 153.264Z" fill="#2DA193"/>
<g opacity="0.2">
<path d="M42.198 144.66C41.8797 144.368 41.4933 144.16 41.0742 144.055C40.655 143.95 40.2163 143.952 39.798 144.06C39.3295 144.243 38.9169 144.545 38.6012 144.937C38.2855 145.328 38.0775 145.795 37.998 146.292C37.806 147.378 38.31 148.578 39.138 148.782C40.152 149.034 41.19 147.9 42.222 148.026C42.5851 148.112 42.9404 148.228 43.284 148.374C44.766 148.788 46.284 147.456 47.52 146.208C47.9988 145.779 48.4042 145.274 48.72 144.714C48.8828 144.414 48.9807 144.084 49.0076 143.744C49.0345 143.404 48.9896 143.062 48.876 142.74C48.516 141.93 47.616 141.864 46.86 142.02C45.24 142.388 43.7732 143.247 42.66 144.48C42.702 144.174 42.744 143.88 42.792 143.568L42.198 144.66Z" fill="white"/>
<path d="M63.87 141.702C63.5064 141.346 63.0677 141.075 62.586 140.91C62.3255 140.85 62.0525 140.876 61.808 140.984C61.5635 141.092 61.3607 141.277 61.23 141.51C61.0448 141.874 60.9776 142.287 61.0378 142.692C61.0981 143.096 61.2827 143.471 61.566 143.766C62.0979 144.2 62.7579 144.447 63.444 144.468C64.128 144.558 64.992 144.54 65.346 143.742C65.4564 143.454 65.4878 143.143 65.4372 142.839C65.3866 142.535 65.2556 142.25 65.058 142.014C64.6888 141.647 64.2293 141.384 63.726 141.252L63.87 141.702Z" fill="white"/>
<path d="M29.946 129.444C29.1976 129.944 28.5592 130.591 28.0702 131.346C27.5811 132.101 27.2516 132.949 27.102 133.836C26.994 134.4 26.994 135.108 27.378 135.384C27.5215 135.459 27.681 135.498 27.843 135.498C28.005 135.498 28.1645 135.459 28.308 135.384L32.292 133.944C31.6152 134.266 31.0047 134.711 30.492 135.258C30.2126 135.577 30.004 135.951 29.8799 136.357C29.7558 136.762 29.719 137.189 29.772 137.61C29.8369 138.034 30.0571 138.418 30.3898 138.689C30.7224 138.96 31.1438 139.097 31.572 139.074C32.4253 138.917 33.2009 138.477 33.774 137.826C34.5773 137.154 35.0891 136.197 35.202 135.156C35.202 134.076 34.182 133.134 33.516 133.866C35.0935 133.204 36.5433 132.272 37.8 131.112C38.3147 130.682 38.7406 130.157 39.054 129.564C39.221 129.249 39.3216 128.904 39.3495 128.549C39.3773 128.194 39.3319 127.837 39.216 127.5C37.92 124.446 36.126 129.15 35.286 129.612C33.708 130.488 31.968 128.256 29.946 129.444Z" fill="white"/>
<path d="M23.538 143.214C23.4482 143.506 23.4301 143.816 23.4855 144.117C23.5409 144.418 23.668 144.701 23.856 144.942C23.9572 145.03 24.0796 145.091 24.2112 145.118C24.3428 145.145 24.4792 145.138 24.6072 145.097C24.7352 145.056 24.8503 144.983 24.9416 144.884C25.0328 144.785 25.0971 144.665 25.128 144.534C24.1507 144.88 23.3098 145.53 22.728 146.388C22.128 147.372 22.266 149.022 23.142 149.334C23.688 149.532 24.276 149.148 24.792 148.764C26.2761 147.649 27.6667 146.415 28.95 145.074C28.8609 145.335 28.8297 145.612 28.8587 145.886C28.8877 146.16 28.9761 146.425 29.1177 146.661C29.2594 146.898 29.4509 147.1 29.6789 147.255C29.9069 147.41 30.166 147.513 30.438 147.558C31.422 147.606 32.358 146.874 33.216 146.166C34.266 145.296 35.478 144 35.232 142.512C35.1892 142.236 35.0829 141.974 34.9214 141.747C34.7599 141.519 34.5477 141.332 34.3015 141.2C34.0554 141.069 33.782 140.996 33.503 140.989C33.224 140.981 32.947 141.038 32.694 141.156C31.674 141.606 30.894 142.692 30.168 143.736C30.768 142.668 29.982 141.186 29.01 141.078C28.038 140.97 27.114 141.762 26.508 142.686C27.624 141.846 27.906 139.824 26.436 139.686C25.464 139.59 23.79 142.2 23.538 143.214Z" fill="white"/>
<path d="M53.862 136.854C53.034 136.506 51.978 137.262 51.738 138.372C51.498 139.482 52.116 140.694 52.986 140.808C52.6368 140.884 52.3065 141.029 52.0148 141.235C51.723 141.441 51.4759 141.704 51.288 142.008C51.0277 142.384 50.8952 142.835 50.91 143.292C50.9391 143.583 51.0735 143.853 51.2878 144.052C51.5022 144.251 51.7817 144.365 52.074 144.372C52.6403 144.298 53.1767 144.074 53.628 143.724C53.0606 143.771 52.5237 144 52.098 144.378C51.8698 144.612 51.7218 144.912 51.6754 145.236C51.6291 145.559 51.6867 145.889 51.84 146.178C52.152 146.562 52.674 146.46 53.106 146.28C54.1357 145.834 55.0387 145.139 55.734 144.258C55.9467 144.628 56.2662 144.925 56.6505 145.11C57.0349 145.295 57.4662 145.36 57.888 145.296C58.3422 145.118 58.7196 144.786 58.9543 144.359C59.189 143.931 59.266 143.435 59.172 142.956C59.1018 142.648 58.9366 142.37 58.6997 142.161C58.4628 141.952 58.1663 141.823 57.852 141.792C57.2466 141.788 56.6507 141.943 56.124 142.242C56.7805 141.714 57.2737 141.011 57.546 140.214C57.768 139.35 57.336 138.24 56.64 138.348C55.854 138.474 55.44 139.86 54.804 140.388C54.054 139.53 55.518 137.544 53.862 136.854Z" fill="white"/>
<path d="M39.816 133.56C38.916 134.382 38.574 135.918 38.616 137.286C38.652 138.798 39.162 140.382 40.242 140.922C41.658 141.63 43.476 140.004 43.776 138.024C43.9185 137.12 43.802 136.193 43.4399 135.352C43.0778 134.511 42.485 133.79 41.73 133.272C41.4188 133.123 41.07 133.07 40.7287 133.122C40.3874 133.173 40.0694 133.326 39.816 133.56Z" fill="white"/>
<path d="M49.848 131.316L50.208 131.7C50.0725 131.481 49.8854 131.299 49.6632 131.17C49.4409 131.04 49.1902 130.967 48.9331 130.957C48.676 130.947 48.4204 131 48.1887 131.112C47.9569 131.224 47.7562 131.391 47.604 131.598C47.2429 132.076 47.0417 132.656 47.0287 133.254C47.0158 133.853 47.1919 134.441 47.532 134.934C47.7123 135.12 47.9342 135.26 48.1794 135.342C48.4246 135.425 48.686 135.448 48.9419 135.409C49.1977 135.37 49.4406 135.271 49.6504 135.119C49.8602 134.968 50.0308 134.769 50.148 134.538C50.6931 134.808 51.3202 134.861 51.9027 134.686C52.4853 134.511 52.9796 134.121 53.286 133.596C54.036 132.438 53.886 130.494 52.932 129.84C51.978 129.186 50.424 130.35 50.532 131.79L50.112 131.19L49.848 131.316Z" fill="white"/>
<path d="M60.846 132.912C60.0326 133.822 59.4321 134.903 59.088 136.074C58.806 137.316 59.202 138.846 60.162 139.074C61.122 139.302 62.034 138.264 62.604 137.184C63.1916 136.213 63.4189 135.066 63.246 133.944C62.982 132.882 61.776 132.318 61.152 133.188L60.846 132.912Z" fill="white"/>
<path d="M45.072 126.498C45.0064 126.276 44.8861 126.074 44.7221 125.911C44.558 125.747 44.3555 125.628 44.1332 125.563C43.9109 125.499 43.676 125.491 43.45 125.541C43.224 125.592 43.0142 125.698 42.84 125.85C42.4593 126.238 42.1887 126.72 42.0559 127.248C41.923 127.775 41.9327 128.328 42.084 128.85C42.2041 129.31 42.4603 129.722 42.819 130.034C43.1777 130.345 43.6221 130.541 44.094 130.596C44.402 130.591 44.7057 130.522 44.9855 130.393C45.2653 130.264 45.5151 130.078 45.719 129.847C45.9228 129.616 46.0763 129.345 46.1694 129.052C46.2626 128.758 46.2934 128.448 46.26 128.142C46.4692 128.484 46.7799 128.752 47.1488 128.909C47.5177 129.066 47.9265 129.104 48.318 129.018C49.1246 128.805 49.8704 128.406 50.496 127.854C51.42 127.128 52.41 126.054 52.338 124.704C52.3301 124.242 52.1558 123.798 51.8472 123.455C51.5386 123.111 51.1164 122.89 50.658 122.832C50.2052 122.854 49.7628 122.975 49.3625 123.188C48.9621 123.401 48.6136 123.699 48.342 124.062C47.832 124.632 47.406 125.334 46.854 125.862C46.302 126.39 45.564 126.672 44.994 126.312L45.072 126.498Z" fill="white"/>
</g>
<path d="M225.81 163.656H87.408V221.946H225.81V163.656Z" fill="#3A5CCC" stroke="#263238" stroke-linecap="round" stroke-linejoin="round"/>
<path d="M103.32 167.184H90.3V174.39H103.32V167.184Z" fill="white" stroke="#263238" stroke-miterlimit="10"/>
<path d="M222.606 202.32H202.098V209.526H222.606V202.32Z" fill="white" stroke="#263238" stroke-miterlimit="10"/>
<path d="M222.606 176.184H209.946V183.39H222.606V176.184Z" fill="white" stroke="#263238" stroke-miterlimit="10"/>
<path d="M103.32 193.434H90.3V200.64H103.32V193.434Z" fill="white" stroke="#263238" stroke-miterlimit="10"/>
<path d="M100.842 184.752H90.3V191.958H100.842V184.752Z" fill="white" stroke="#263238" stroke-miterlimit="10"/>
<path d="M97.506 175.968H90.3V183.174H97.506V175.968Z" fill="white" stroke="#263238" stroke-miterlimit="10"/>
<path d="M106.71 175.968H99.504V183.174H106.71V175.968Z" fill="white" stroke="#263238" stroke-miterlimit="10"/>
<path d="M115.908 175.968H108.702V183.174H115.908V175.968Z" fill="white" stroke="#263238" stroke-miterlimit="10"/>
<path d="M125.106 175.968H117.9V183.174H125.106V175.968Z" fill="white" stroke="#263238" stroke-miterlimit="10"/>
<path d="M134.31 175.968H127.104V183.174H134.31V175.968Z" fill="white" stroke="#263238" stroke-miterlimit="10"/>
<path d="M143.508 175.968H136.302V183.174H143.508V175.968Z" fill="white" stroke="#263238" stroke-miterlimit="10"/>
<path d="M152.706 175.968H145.5V183.174H152.706V175.968Z" fill="white" stroke="#263238" stroke-miterlimit="10"/>
<path d="M161.91 175.968H154.704V183.174H161.91V175.968Z" fill="white" stroke="#263238" stroke-miterlimit="10"/>
<path d="M171.108 175.968H163.902V183.174H171.108V175.968Z" fill="white" stroke="#263238" stroke-miterlimit="10"/>
<path d="M180.306 175.968H173.1V183.174H180.306V175.968Z" fill="white" stroke="#263238" stroke-miterlimit="10"/>
<path d="M189.51 175.968H182.304V183.174H189.51V175.968Z" fill="white" stroke="#263238" stroke-miterlimit="10"/>
<path d="M198.708 175.968H191.502V183.174H198.708V175.968Z" fill="white" stroke="#263238" stroke-miterlimit="10"/>
<path d="M207.912 175.968H200.706V183.174H207.912V175.968Z" fill="white" stroke="#263238" stroke-miterlimit="10"/>
<path d="M97.506 211.212H90.3V218.418H97.506V211.212Z" fill="white" stroke="#263238" stroke-miterlimit="10"/>
<path d="M106.71 211.212H99.504V218.418H106.71V211.212Z" fill="white" stroke="#263238" stroke-miterlimit="10"/>
<path d="M115.908 211.212H108.702V218.418H115.908V211.212Z" fill="white" stroke="#263238" stroke-miterlimit="10"/>
<path d="M126.696 211.212H117.9V218.418H126.696V211.212Z" fill="white" stroke="#263238" stroke-miterlimit="10"/>
<path d="M172.698 211.212H128.688V218.418H172.698V211.212Z" fill="white" stroke="#263238" stroke-miterlimit="10"/>
<path d="M194.7 211.212H187.494V218.418H194.7V211.212Z" fill="white" stroke="#263238" stroke-miterlimit="10"/>
<path d="M203.898 211.212H196.692V218.418H203.898V211.212Z" fill="white" stroke="#263238" stroke-miterlimit="10"/>
<path d="M213.114 211.212H205.908V218.418H213.114V211.212Z" fill="white" stroke="#263238" stroke-miterlimit="10"/>
<path d="M185.688 211.212H174.498V218.418H185.688V211.212Z" fill="white" stroke="#263238" stroke-miterlimit="10"/>
<path d="M222.606 211.212H215.4V218.418H222.606V211.212Z" fill="white" stroke="#263238" stroke-miterlimit="10"/>
<path d="M110.094 184.752H102.888V191.958H110.094V184.752Z" fill="white" stroke="#263238" stroke-miterlimit="10"/>
<path d="M119.292 184.752H112.086V191.958H119.292V184.752Z" fill="white" stroke="#263238" stroke-miterlimit="10"/>
<path d="M128.496 184.752H121.29V191.958H128.496V184.752Z" fill="white" stroke="#263238" stroke-miterlimit="10"/>
<path d="M137.694 184.752H130.488V191.958H137.694V184.752Z" fill="white" stroke="#263238" stroke-miterlimit="10"/>
<path d="M146.898 184.752H139.692V191.958H146.898V184.752Z" fill="white" stroke="#263238" stroke-miterlimit="10"/>
<path d="M156.096 184.752H148.89V191.958H156.096V184.752Z" fill="white" stroke="#263238" stroke-miterlimit="10"/>
<path d="M165.294 184.752H158.088V191.958H165.294V184.752Z" fill="white" stroke="#263238" stroke-miterlimit="10"/>
<path d="M174.498 184.752H167.292V191.958H174.498V184.752Z" fill="white" stroke="#263238" stroke-miterlimit="10"/>
<path d="M183.696 184.752H176.49V191.958H183.696V184.752Z" fill="white" stroke="#263238" stroke-miterlimit="10"/>
<path d="M192.894 184.752H185.688V191.958H192.894V184.752Z" fill="white" stroke="#263238" stroke-miterlimit="10"/>
<path d="M202.098 184.752H194.892V191.958H202.098V184.752Z" fill="white" stroke="#263238" stroke-miterlimit="10"/>
<path d="M211.296 184.752H204.09V191.958H211.296V184.752Z" fill="white" stroke="#263238" stroke-miterlimit="10"/>
<path d="M222.606 184.752V200.748H215.4V191.964H213.288V184.752H222.606Z" fill="white" stroke="#263238" stroke-miterlimit="10"/>
<path d="M112.206 193.536H105V200.742H112.206V193.536Z" fill="white" stroke="#263238" stroke-miterlimit="10"/>
<path d="M121.404 193.536H114.198V200.742H121.404V193.536Z" fill="white" stroke="#263238" stroke-miterlimit="10"/>
<path d="M130.602 193.536H123.396V200.742H130.602V193.536Z" fill="white" stroke="#263238" stroke-miterlimit="10"/>
<path d="M139.806 193.536H132.6V200.742H139.806V193.536Z" fill="white" stroke="#263238" stroke-miterlimit="10"/>
<path d="M149.004 193.536H141.798V200.742H149.004V193.536Z" fill="white" stroke="#263238" stroke-miterlimit="10"/>
<path d="M158.208 193.536H151.002V200.742H158.208V193.536Z" fill="white" stroke="#263238" stroke-miterlimit="10"/>
<path d="M167.406 193.536H160.2V200.742H167.406V193.536Z" fill="white" stroke="#263238" stroke-miterlimit="10"/>
<path d="M176.604 193.536H169.398V200.742H176.604V193.536Z" fill="white" stroke="#263238" stroke-miterlimit="10"/>
<path d="M185.808 193.536H178.602V200.742H185.808V193.536Z" fill="white" stroke="#263238" stroke-miterlimit="10"/>
<path d="M195.006 193.536H187.8V200.742H195.006V193.536Z" fill="white" stroke="#263238" stroke-miterlimit="10"/>
<path d="M204.204 193.536H196.998V200.742H204.204V193.536Z" fill="white" stroke="#263238" stroke-miterlimit="10"/>
<path d="M213.408 193.536H206.202V200.742H213.408V193.536Z" fill="white" stroke="#263238" stroke-miterlimit="10"/>
<path d="M108.294 202.32H101.088V209.526H108.294V202.32Z" fill="white" stroke="#263238" stroke-miterlimit="10"/>
<path d="M117.492 202.32H110.286V209.526H117.492V202.32Z" fill="white" stroke="#263238" stroke-miterlimit="10"/>
<path d="M126.696 202.32H119.49V209.526H126.696V202.32Z" fill="white" stroke="#263238" stroke-miterlimit="10"/>
<path d="M135.894 202.32H128.688V209.526H135.894V202.32Z" fill="white" stroke="#263238" stroke-miterlimit="10"/>
<path d="M145.092 202.32H137.886V209.526H145.092V202.32Z" fill="white" stroke="#263238" stroke-miterlimit="10"/>
<path d="M154.296 202.32H147.09V209.526H154.296V202.32Z" fill="white" stroke="#263238" stroke-miterlimit="10"/>
<path d="M163.494 202.32H156.288V209.526H163.494V202.32Z" fill="white" stroke="#263238" stroke-miterlimit="10"/>
<path d="M172.698 202.32H165.492V209.526H172.698V202.32Z" fill="white" stroke="#263238" stroke-miterlimit="10"/>
<path d="M181.896 202.32H174.69V209.526H181.896V202.32Z" fill="white" stroke="#263238" stroke-miterlimit="10"/>
<path d="M191.094 202.32H183.888V209.526H191.094V202.32Z" fill="white" stroke="#263238" stroke-miterlimit="10"/>
<path d="M200.298 202.32H193.092V209.526H200.298V202.32Z" fill="white" stroke="#263238" stroke-miterlimit="10"/>
<path d="M112.206 167.616H105V174.822H112.206V167.616Z" fill="white" stroke="#263238" stroke-miterlimit="10"/>
<path d="M121.404 167.616H114.198V174.822H121.404V167.616Z" fill="white" stroke="#263238" stroke-miterlimit="10"/>
<path d="M130.602 167.616H123.396V174.822H130.602V167.616Z" fill="white" stroke="#263238" stroke-miterlimit="10"/>
<path d="M139.806 167.616H132.6V174.822H139.806V167.616Z" fill="white" stroke="#263238" stroke-miterlimit="10"/>
<path d="M149.004 167.616H141.798V174.822H149.004V167.616Z" fill="white" stroke="#263238" stroke-miterlimit="10"/>
<path d="M158.208 167.616H151.002V174.822H158.208V167.616Z" fill="white" stroke="#263238" stroke-miterlimit="10"/>
<path d="M167.406 167.616H160.2V174.822H167.406V167.616Z" fill="white" stroke="#263238" stroke-miterlimit="10"/>
<path d="M176.604 167.616H169.398V174.822H176.604V167.616Z" fill="white" stroke="#263238" stroke-miterlimit="10"/>
<path d="M185.808 167.616H178.602V174.822H185.808V167.616Z" fill="white" stroke="#263238" stroke-miterlimit="10"/>
<path d="M195.006 167.616H187.8V174.822H195.006V167.616Z" fill="white" stroke="#263238" stroke-miterlimit="10"/>
<path d="M204.204 167.616H196.998V174.822H204.204V167.616Z" fill="white" stroke="#263238" stroke-miterlimit="10"/>
<path d="M213.408 167.616H206.202V174.822H213.408V167.616Z" fill="white" stroke="#263238" stroke-miterlimit="10"/>
<path d="M222.606 167.616H215.4V174.822H222.606V167.616Z" fill="white" stroke="#263238" stroke-miterlimit="10"/>
<path d="M99.03 202.32H90.3V209.526H99.03V202.32Z" fill="white" stroke="#263238" stroke-miterlimit="10"/>
<path d="M87.408 164.028L90.3 163.068H223.932L225.834 164.016L87.408 164.028Z" fill="#263238"/>
<path opacity="0.2" d="M186.198 264L183.384 247.05C182.763 244.524 181.442 242.224 179.574 240.414C173.976 235.014 166.578 229.47 166.26 222.414C165.774 211.614 164.088 211.92 164.268 209.25C164.999 207.975 165.642 206.652 166.194 205.29C166.542 204.243 166.815 203.172 167.01 202.086C167.124 201.553 167.434 201.082 167.878 200.765C168.322 200.449 168.869 200.31 169.41 200.376C170.17 200.476 170.881 200.81 171.444 201.33C172.434 202.386 172.98 203.782 172.968 205.23C172.951 206.662 172.749 208.086 172.368 209.466C173.31 211.853 173.916 214.359 174.168 216.912C174.81 214.932 175.296 212.934 175.938 210.96C176.07 210.888 176.022 210.732 176.148 210.66C175.242 208.716 176.01 208.824 174.216 204.546C171.216 197.346 167.832 190.404 165.426 181.356C165.231 180.517 165.249 179.642 165.48 178.812C166.35 176.226 169.014 176.82 170.178 178.326C170.483 178.723 170.725 179.164 170.898 179.634C172.478 183.488 174.4 187.193 176.64 190.704L183.174 200.664C183.174 200.664 185.448 198.798 185.796 197.964C186.138 197.124 186.306 190.362 186.306 190.362C186.306 190.362 185.79 191.628 184.644 191.562C183.816 191.502 182.136 191.982 180.942 190.638C180.478 190.095 180.215 189.409 180.195 188.695C180.176 187.981 180.401 187.282 180.834 186.714L183.792 182.718C184.44 182.207 185.216 181.885 186.036 181.786C186.855 181.688 187.685 181.817 188.436 182.16C190.346 183.121 192.106 184.354 193.662 185.82C195.224 185.776 196.776 186.075 198.21 186.696C200.304 187.704 202.5 190.596 202.5 190.596C202.5 190.596 204.942 190.746 206.04 191.544C206.316 191.742 210.042 197.544 208.698 202.062C207.9 204.756 207.408 208.662 207.048 209.718L205.218 236.172L208.908 253.572L201.018 257.97C198.136 259.577 195.118 260.928 192 262.008L186.198 264Z" fill="black"/>
<path d="M208.602 233.088L208.674 206.562C208.962 205.494 209.196 201.558 209.808 198.816C210.852 194.22 206.748 188.676 206.46 188.496C205.308 187.782 202.86 187.794 202.86 187.794C202.86 187.794 200.46 185.052 198.318 184.194C196.848 183.661 195.279 183.457 193.722 183.594C192.073 182.232 190.233 181.118 188.262 180.288C187.49 179.996 186.653 179.923 185.843 180.075C185.032 180.227 184.279 180.6 183.666 181.152L180.984 185.352C180.588 185.948 180.409 186.661 180.476 187.373C180.542 188.085 180.851 188.752 181.35 189.264C182.634 190.53 184.278 189.936 185.106 189.936C186.252 189.936 186.684 188.64 186.684 188.64C186.684 188.64 186.966 195.396 186.684 196.254C186.39 197.112 184.242 199.122 184.242 199.122L177.042 189.624C174.569 186.271 172.406 182.701 170.58 178.956C170.373 178.501 170.1 178.078 169.77 177.702C168.51 176.274 165.816 175.86 165.114 178.494C164.941 179.338 164.981 180.212 165.228 181.038C168.228 189.906 172.056 196.608 175.542 203.592C177.612 207.738 176.844 207.69 177.876 209.562C177.756 209.646 177.816 209.802 177.684 209.88C177.18 211.896 176.826 213.918 176.316 215.934C175.893 213.403 175.12 210.943 174.018 208.626C174.309 207.222 174.416 205.786 174.336 204.354C174.246 202.907 173.601 201.551 172.536 200.568C171.939 200.086 171.208 199.8 170.442 199.752C169.893 199.716 169.35 199.889 168.923 200.236C168.496 200.583 168.215 201.079 168.138 201.624C168.018 202.719 167.817 203.804 167.538 204.87C167.078 206.266 166.525 207.629 165.882 208.95C165.882 211.626 167.538 211.188 168.744 221.952C169.68 230.352 180.48 235.878 186.36 241.932L192.624 261.648C199.957 258.682 206.982 255.007 213.6 250.674L208.602 233.088Z" fill="white"/>
<mask id="mask0_36_2" style="mask-type:luminance" maskUnits="userSpaceOnUse" x="165" y="176" width="49" height="86">
<path d="M208.602 233.088L208.674 206.562C208.962 205.494 209.196 201.558 209.808 198.816C210.852 194.22 206.748 188.676 206.46 188.496C205.308 187.782 202.86 187.794 202.86 187.794C202.86 187.794 200.46 185.052 198.318 184.194C196.848 183.661 195.279 183.457 193.722 183.594C192.073 182.232 190.233 181.118 188.262 180.288C187.49 179.996 186.653 179.923 185.843 180.075C185.032 180.227 184.279 180.6 183.666 181.152L180.984 185.352C180.588 185.948 180.409 186.661 180.476 187.373C180.542 188.085 180.851 188.752 181.35 189.264C182.634 190.53 184.278 189.936 185.106 189.936C186.252 189.936 186.684 188.64 186.684 188.64C186.684 188.64 186.966 195.396 186.684 196.254C186.39 197.112 184.242 199.122 184.242 199.122L177.042 189.624C174.569 186.271 172.406 182.701 170.58 178.956C170.373 178.501 170.1 178.078 169.77 177.702C168.51 176.274 165.816 175.86 165.114 178.494C164.941 179.338 164.981 180.212 165.228 181.038C168.228 189.906 172.056 196.608 175.542 203.592C177.612 207.738 176.844 207.69 177.876 209.562C177.756 209.646 177.816 209.802 177.684 209.88C177.18 211.896 176.826 213.918 176.316 215.934C175.893 213.403 175.12 210.943 174.018 208.626C174.309 207.222 174.416 205.786 174.336 204.354C174.246 202.907 173.601 201.551 172.536 200.568C171.939 200.086 171.208 199.8 170.442 199.752C169.893 199.716 169.35 199.889 168.923 200.236C168.496 200.583 168.215 201.079 168.138 201.624C168.018 202.719 167.817 203.804 167.538 204.87C167.078 206.266 166.525 207.629 165.882 208.95C165.882 211.626 167.538 211.188 168.744 221.952C169.68 230.352 180.48 235.878 186.36 241.932L192.624 261.648C199.957 258.682 206.982 255.007 213.6 250.674L208.602 233.088Z" fill="white"/>
</mask>
<g mask="url(#mask0_36_2)">
<path d="M172.668 218.568C172.739 218.438 172.803 218.303 172.86 218.166C172.796 218.211 172.745 218.272 172.712 218.342C172.678 218.412 172.663 218.49 172.668 218.568Z" fill="#3A5CCC"/>
<path d="M189.972 181.452C189.147 180.812 188.168 180.398 187.134 180.252L189.972 181.452Z" fill="#3A5CCC"/>
<path d="M186.768 184.26L186.804 184.56C186.825 184.459 186.812 184.354 186.768 184.26Z" fill="#3A5CCC"/>
<g opacity="0.5">
<path d="M172.668 218.568C172.739 218.438 172.803 218.303 172.86 218.166C172.796 218.211 172.745 218.272 172.712 218.342C172.678 218.412 172.663 218.49 172.668 218.568Z" fill="white"/>
<path d="M189.972 181.452C189.147 180.812 188.168 180.398 187.134 180.252L189.972 181.452Z" fill="white"/>
<path d="M186.768 184.26L186.804 184.56C186.825 184.459 186.812 184.354 186.768 184.26Z" fill="white"/>
</g>
</g>
<path d="M167.742 207.054C167.046 207.605 166.451 208.273 165.984 209.028L167.742 207.054Z" fill="white"/>
<path d="M192.666 261.654L186.402 241.938C180.522 235.884 169.722 230.346 168.786 221.958C167.586 211.194 165.924 211.632 165.924 208.956C166.567 207.635 167.12 206.272 167.58 204.876C167.859 203.81 168.06 202.725 168.18 201.63C168.257 201.085 168.538 200.589 168.965 200.242C169.392 199.895 169.935 199.722 170.484 199.758C171.25 199.806 171.981 200.092 172.578 200.574C173.643 201.557 174.288 202.913 174.378 204.36C174.458 205.792 174.351 207.228 174.06 208.632C175.162 210.949 175.935 213.409 176.358 215.94C176.868 213.924 177.222 211.902 177.726 209.886C177.858 209.808 177.798 209.652 177.918 209.568C176.886 207.696 177.654 207.768 175.584 203.598C172.098 196.614 168.276 189.912 165.27 181.044C165.023 180.218 164.983 179.344 165.156 178.5C165.858 175.866 168.552 176.28 169.812 177.708C170.142 178.084 170.415 178.507 170.622 178.962C172.448 182.707 174.611 186.277 177.084 189.63L184.284 199.128C184.284 199.128 186.432 197.118 186.726 196.26C187.008 195.402 186.726 188.646 186.726 188.646C186.726 188.646 186.294 189.942 185.148 189.942C184.32 189.942 182.676 190.542 181.392 189.27C180.893 188.758 180.584 188.091 180.518 187.379C180.451 186.667 180.63 185.954 181.026 185.358L183.708 181.158C184.321 180.606 185.074 180.233 185.885 180.081C186.695 179.929 187.532 180.002 188.304 180.294C190.275 181.124 192.115 182.238 193.764 183.6C195.321 183.463 196.89 183.667 198.36 184.2C200.52 185.07 202.902 187.8 202.902 187.8C202.902 187.8 205.344 187.8 206.502 188.502C206.79 188.682 210.894 194.226 209.85 198.822C209.25 201.564 209.004 205.5 208.716 206.568L208.644 233.094L213.6 250.674" stroke="#263238" stroke-miterlimit="10"/>
<path d="M194.4 184.554C195.457 188.467 196.005 192.501 196.032 196.554C195.998 197.233 196.071 197.913 196.248 198.57C196.342 198.897 196.517 199.194 196.757 199.435C196.998 199.675 197.295 199.85 197.622 199.944" stroke="#263238" stroke-miterlimit="10"/>
<path d="M202.866 188.496C204.666 192.252 202.824 200.646 202.956 201.234C203.012 201.533 203.131 201.816 203.306 202.064C203.481 202.313 203.708 202.521 203.97 202.674" stroke="#263238" stroke-miterlimit="10"/>
<path d="M187.398 184.044C187.188 185.244 187.014 186.618 186.798 187.812C186.099 187.212 185.526 186.478 185.114 185.654C184.702 184.83 184.459 183.932 184.398 183.012" stroke="#263238" stroke-miterlimit="10"/>
<path d="M175.902 216.054L174.6 216.6" stroke="#263238" stroke-miterlimit="10"/>
<path d="M176.232 217.092C176.025 218.093 176.025 219.127 176.232 220.128" stroke="#263238" stroke-miterlimit="10"/>
<path d="M183.816 205.884C184.296 206.742 184.77 207.606 185.25 208.47" stroke="#263238" stroke-miterlimit="10"/>
<path d="M186.6 196.416L188.028 194.4" stroke="#263238" stroke-miterlimit="10"/>
<path d="M206.658 205.884L206.226 207.462" stroke="#263238" stroke-miterlimit="10"/>
<path d="M203.166 201.558C203.566 200.214 203.988 198.87 204.432 197.526" stroke="#263238" stroke-miterlimit="10"/>
<path d="M207.39 194.4C207.77 194.203 208.212 194.163 208.621 194.29C209.03 194.417 209.373 194.7 209.574 195.078" stroke="#263238" stroke-miterlimit="10"/>
<path d="M198.768 187.518C199.266 187.379 199.791 187.366 200.295 187.481C200.799 187.597 201.266 187.836 201.654 188.178" stroke="#263238" stroke-miterlimit="10"/>
<path d="M172.044 191.52C172.51 191.009 173.089 190.616 173.736 190.372C174.382 190.128 175.077 190.04 175.764 190.116" stroke="#263238" stroke-miterlimit="10"/>
<path d="M166.626 180.204C167.055 179.894 167.541 179.673 168.055 179.551C168.57 179.43 169.104 179.411 169.626 179.496" stroke="#263238" stroke-miterlimit="10"/>
<path d="M167.742 207.054C167.046 207.605 166.451 208.273 165.984 209.028" stroke="#263238" stroke-miterlimit="10"/>
<path d="M168.318 204.33C169.266 203.652 170.778 205.164 171.648 204.39C171.802 204.216 171.91 204.006 171.961 203.78C172.013 203.553 172.006 203.317 171.942 203.094C171.813 202.648 171.755 202.184 171.768 201.72" stroke="#263238" stroke-miterlimit="10"/>
<path d="M195.072 200.166C196.226 202.563 196.461 205.3 195.732 207.858" stroke="#263238" stroke-miterlimit="10"/>
<path d="M202.044 203.868C202.23 205.004 202.018 206.17 201.444 207.168" stroke="#263238" stroke-miterlimit="10"/>
<path opacity="0.2" d="M144.03 212.874C144.084 213.29 144.066 213.712 143.976 214.122C143.586 215.922 142.458 221.19 142.044 224.07C141.552 227.586 135.87 238.47 135.87 238.47C135.87 238.47 130.638 244.974 127.974 248.358C126.666 250.02 124.596 256.758 122.838 263.154C120.618 262.482 118.418 261.758 116.238 260.982C114.438 260.34 112.638 259.662 110.838 258.96C107.627 257.626 104.497 256.103 101.466 254.4C102.462 250.8 103.128 247.998 103.116 247.836C103.086 247.458 105.252 243.288 105.252 243.288L103.362 218.4L102.246 214.614C101.666 212.659 101.298 210.648 101.148 208.614C100.913 205.526 101.175 202.421 101.922 199.416L105.18 194.58L106.704 194.466L111.42 187.866C111.42 187.866 113.97 187.098 114.624 189.018C115.278 190.938 112.5 194.526 112.5 194.526L111.546 200.448L113.814 205.992L115.014 206.424C115.014 206.424 115.41 196.662 115.14 194.712L117.6 185.838C118.338 184.385 118.991 182.89 119.556 181.362C120.012 179.868 122.694 178.362 124.236 181.008C124.498 181.488 124.655 182.018 124.696 182.563C124.737 183.108 124.662 183.656 124.476 184.17C123.846 186 123.324 187.44 123.324 187.44C123.324 187.44 122.724 194.988 122.574 195.198C122.424 195.408 123.684 206.436 123.684 206.436L124.668 206.874L125.016 196.344L127.062 186.45C127.062 186.45 126.894 181.692 130.248 182.25C130.765 182.23 131.277 182.366 131.716 182.64C132.156 182.914 132.503 183.313 132.714 183.786C133.608 185.496 132.756 196.884 132.756 196.884L133.584 208.656L134.91 217.734L136.47 211.512C136.47 211.512 136.56 202.596 142.188 201.834C142.188 201.834 143.862 201.534 144.204 202.698C144.546 203.862 143.37 206.238 143.538 208.518C143.688 210.138 143.916 211.944 144.03 212.874Z" fill="black"/>
<path d="M142.32 201.852C142.062 200.652 140.376 200.838 140.376 200.838C134.706 201.174 133.944 210.06 133.944 210.06L131.91 216.144L131.31 206.988L131.37 195.186C131.37 195.186 133.086 183.894 132.324 182.124C132.15 181.636 131.833 181.211 131.415 180.905C130.997 180.599 130.496 180.426 129.978 180.408C126.678 179.58 126.486 184.338 126.486 184.338L123.702 194.046L122.556 204.516L121.608 204.012C121.608 204.012 121.158 192.9 121.35 192.714C121.542 192.528 122.682 185.04 122.682 185.04C122.682 185.04 123.312 183.642 124.08 181.866C124.305 181.367 124.422 180.826 124.422 180.279C124.422 179.732 124.305 179.191 124.08 178.692C122.742 175.968 119.958 177.24 119.382 178.692C118.706 180.173 117.944 181.613 117.102 183.006L113.922 191.7C114.042 193.668 112.914 203.376 112.914 203.376L111.768 202.854L109.926 197.154L111.33 191.316C111.33 191.316 114.372 187.956 113.862 185.988C113.352 184.02 110.754 184.596 110.754 184.596L105.528 190.8H103.998L100.398 195.366C98.7763 200.26 98.4904 205.498 99.57 210.54L100.398 214.398V239.334C100.398 239.334 97.926 243.33 97.926 243.708C97.926 243.882 96.906 247.032 95.484 250.962C101.706 254.622 107.064 257.454 110.862 258.948C112.662 259.656 114.462 260.328 116.262 260.97C118.542 254.568 121.206 247.722 122.676 246.12C125.592 242.952 131.304 236.856 131.304 236.856C131.304 236.856 137.79 226.434 138.552 222.972C139.152 220.128 140.7 214.962 141.228 213.192C141.351 212.79 141.4 212.369 141.372 211.95C141.33 211.014 141.24 209.196 141.24 207.594C141.216 205.32 142.572 203.034 142.32 201.852Z" fill="white"/>
<path d="M95.466 250.974C96.888 247.044 97.908 243.894 97.908 243.72C97.908 243.342 100.38 239.346 100.38 239.346V214.41L99.552 210.552C98.4724 205.51 98.7583 200.272 100.38 195.378L103.98 190.812H105.51L110.706 184.596C110.706 184.596 113.31 183.996 113.814 185.988C114.318 187.98 111.282 191.316 111.282 191.316L109.878 197.154L111.72 202.854L112.866 203.376C112.866 203.376 113.994 193.668 113.874 191.7L117.054 183.006C117.897 181.613 118.658 180.173 119.334 178.692C119.934 177.24 122.694 175.968 124.032 178.692C124.257 179.191 124.374 179.732 124.374 180.279C124.374 180.826 124.257 181.367 124.032 181.866C123.264 183.666 122.634 185.04 122.634 185.04C122.634 185.04 121.494 192.522 121.302 192.714C121.11 192.906 121.56 204.012 121.56 204.012L122.508 204.516L123.654 194.046L126.438 184.338C126.438 184.338 126.63 179.58 129.93 180.408C130.448 180.426 130.949 180.599 131.367 180.905C131.785 181.211 132.102 181.636 132.276 182.124C133.038 183.894 131.322 195.186 131.322 195.186L131.28 207L131.88 216.156L133.914 210.072C133.914 210.072 134.676 201.186 140.346 200.85C140.346 200.85 142.032 200.676 142.29 201.864C142.548 203.052 141.186 205.332 141.186 207.618C141.186 209.22 141.276 211.038 141.318 211.974C141.346 212.393 141.297 212.814 141.174 213.216C140.646 215.016 139.122 220.152 138.498 222.996C137.736 226.458 131.25 236.88 131.25 236.88C131.25 236.88 125.538 242.976 122.622 246.144C121.152 247.746 118.488 254.592 116.208 260.994" stroke="#263238" stroke-miterlimit="10"/>
<path d="M112.8 204.312C112.963 204.907 112.97 205.534 112.821 206.133C112.672 206.732 112.371 207.283 111.948 207.732" fill="white"/>
<path d="M112.8 204.312C112.963 204.907 112.97 205.534 112.821 206.133C112.672 206.732 112.371 207.283 111.948 207.732" stroke="#263238" stroke-miterlimit="10"/>
<path d="M103.104 212.7C103.926 211.428 104.73 209.67 104.508 208.17C104.076 205.224 102.708 201.834 103.308 198.918C103.692 197.058 104.076 195.192 104.466 193.332" fill="white"/>
<path d="M103.104 212.7C103.926 211.428 104.73 209.67 104.508 208.17C104.076 205.224 102.708 201.834 103.308 198.918C103.692 197.058 104.076 195.192 104.466 193.332" stroke="#263238" stroke-miterlimit="10"/>
<path d="M127.026 184.872C128.009 184.613 129.043 184.613 130.026 184.872C130.026 184.59 130.026 184.314 130.056 184.032" stroke="#263238" stroke-miterlimit="10"/>
<path d="M119.148 181.128C119.438 181.325 119.776 181.439 120.125 181.458C120.475 181.477 120.823 181.399 121.132 181.234C121.441 181.069 121.699 180.823 121.878 180.522C122.057 180.221 122.151 179.876 122.148 179.526" stroke="#263238" stroke-miterlimit="10"/>
<path d="M140.832 201.954C140.003 202.167 139.274 202.664 138.771 203.357C138.268 204.05 138.023 204.897 138.078 205.752L139.548 206.196" stroke="#263238" stroke-miterlimit="10"/>
<path d="M121.524 202.686C121.59 203.694 121.464 206.1 121.524 207.108V202.686Z" fill="white"/>
<path d="M121.524 202.686C121.59 203.694 121.464 206.1 121.524 207.108" stroke="#263238" stroke-miterlimit="10"/>
<path d="M122.628 204.084C122.508 205.728 122.386 207.376 122.262 209.028C122.262 208.818 122.262 208.608 122.262 208.398" fill="white"/>
<path d="M122.628 204.084C122.508 205.728 122.386 207.376 122.262 209.028C122.262 208.818 122.262 208.608 122.262 208.398" stroke="#263238" stroke-miterlimit="10"/>
<path d="M131.784 217.986C132.22 219.809 132.021 221.727 131.22 223.422L131.784 217.986Z" fill="white"/>
<path d="M131.784 217.986C132.22 219.809 132.021 221.727 131.22 223.422" stroke="#263238" stroke-miterlimit="10"/>
<path d="M116.574 209.34C115.266 210.774 115.458 214.218 116.382 216.108" stroke="#263238" stroke-miterlimit="10"/>
<path d="M126.24 211.71C126.249 213.32 125.68 214.881 124.638 216.108" stroke="#263238" stroke-miterlimit="10"/>
<path d="M107.046 210C106.828 211.462 107.146 212.954 107.94 214.2" stroke="#263238" stroke-miterlimit="10"/>
<path d="M101.478 214.506C101.42 215.647 101.745 216.775 102.402 217.71" stroke="#263238" stroke-miterlimit="10"/>
<path d="M109.11 186.846C109.454 186.686 109.837 186.633 110.211 186.693C110.585 186.753 110.933 186.923 111.21 187.182L111.948 186.204" stroke="#263238" stroke-miterlimit="10"/>
<path d="M115.266 191.25C115.773 190.95 116.37 190.839 116.951 190.937C117.531 191.035 118.059 191.335 118.44 191.784" stroke="#263238" stroke-miterlimit="10"/>
<path d="M124.878 194.25C125.417 194.011 126.003 193.893 126.593 193.905C127.183 193.918 127.763 194.06 128.292 194.322" stroke="#263238" stroke-miterlimit="10"/>
<path d="M103.488 199.284C103.807 198.75 104.274 198.319 104.831 198.042C105.388 197.766 106.014 197.655 106.632 197.724" stroke="#263238" stroke-miterlimit="10"/>
<path d="M99.462 205.02C99.4814 204.632 99.633 204.262 99.8916 203.971C100.15 203.681 100.5 203.488 100.884 203.424" stroke="#263238" stroke-miterlimit="10"/>
<path d="M254.064 161.904C267.799 161.904 278.934 150.769 278.934 137.034C278.934 123.299 267.799 112.164 254.064 112.164C240.329 112.164 229.194 123.299 229.194 137.034C229.194 150.769 240.329 161.904 254.064 161.904Z" stroke="#263238" stroke-linecap="round" stroke-linejoin="round"/>
<path opacity="0.2" d="M282.216 137.688C276.912 146.382 275.016 145.206 256.944 153.888C247.758 158.292 238.884 144.15 244.89 129.636C245.184 128.928 247.776 125.346 247.776 125.346C248.326 122.931 249.543 120.719 251.287 118.96C253.032 117.201 255.234 115.967 257.645 115.397C260.056 114.828 262.578 114.945 264.925 115.736C267.272 116.528 269.35 117.961 270.924 119.874C272.649 118.395 274.701 117.348 276.911 116.82C279.121 116.292 281.425 116.298 283.632 116.838C283.842 117.438 284.04 118.038 284.232 118.638C284.304 118.866 284.382 119.088 284.448 119.316C284.676 120.018 284.892 120.72 285.09 121.428C285.49 122.772 285.858 124.124 286.194 125.484C284.251 124.857 282.144 124.983 280.29 125.838C278.964 126.486 277.854 127.554 276.474 128.082C275.094 128.61 273.186 128.31 272.658 126.93C273.324 129.702 276.258 128.874 279.03 129.42C283.35 130.254 284.448 134.028 282.216 137.688Z" fill="black"/>
<path d="M274.05 133.398C274.05 133.398 278.502 132.798 280.614 133.116C281.63 133.259 282.555 133.782 283.2 134.58C283.381 134.808 283.488 135.087 283.506 135.378L283.746 138.858C283.76 139.054 283.732 139.25 283.666 139.435C283.6 139.62 283.497 139.789 283.362 139.932C282.492 140.838 279.87 142.488 272.106 143.082C261.168 143.916 274.05 133.398 274.05 133.398Z" fill="white" stroke="#263238" stroke-linecap="round" stroke-linejoin="round"/>
<path d="M270.792 124.404C273.198 127.407 274.488 131.152 274.44 135C274.44 139.146 269.64 153.306 257.346 155.034C244.332 156.834 233.868 145.722 236.1 132.318C237.648 123.03 260.346 111.42 270.792 124.404Z" fill="white" stroke="#263238" stroke-linecap="round" stroke-linejoin="round"/>
<path d="M254.892 151.92C265.32 151.92 273.774 143.918 273.774 134.046C273.774 124.174 265.32 116.172 254.892 116.172C244.464 116.172 236.01 124.174 236.01 134.046C236.01 143.918 244.464 151.92 254.892 151.92Z" fill="white"/>
<path d="M254.856 149.652C263.419 149.652 270.36 143.084 270.36 134.982C270.36 126.88 263.419 120.312 254.856 120.312C246.293 120.312 239.352 126.88 239.352 134.982C239.352 143.084 246.293 149.652 254.856 149.652Z" fill="#263238"/>
<path d="M273.774 134.046C273.774 124.176 265.32 116.178 254.892 116.178C244.464 116.178 236.01 124.2 236.01 134.046" stroke="#263238" stroke-linecap="round" stroke-linejoin="round"/>
<path d="M268.8 146.142C271.981 142.919 273.77 138.575 273.78 134.046" stroke="#263238" stroke-linecap="round" stroke-linejoin="round"/>
<path d="M241.668 146.802C245.264 150.113 249.98 151.941 254.868 151.92C257.908 151.927 260.908 151.231 263.634 149.886" stroke="#263238" stroke-linecap="round" stroke-linejoin="round"/>
<path d="M238.944 143.616C239.19 143.988 239.454 144.348 239.724 144.696" stroke="#263238" stroke-linecap="round" stroke-linejoin="round"/>
<path d="M236.01 134.046C236.009 136.693 236.626 139.304 237.81 141.672" stroke="#263238" stroke-linecap="round" stroke-linejoin="round"/>
<path d="M282.6 138.942C282.6 138.942 279.234 136.584 273.768 138.72L282.6 138.942Z" fill="white"/>
<path d="M282.6 138.942C282.6 138.942 279.234 136.584 273.768 138.72" stroke="#263238" stroke-linecap="round" stroke-linejoin="round"/>
<path d="M279.708 140.574C277.424 141.18 275.084 141.548 272.724 141.672L279.708 140.574Z" fill="white"/>
<path d="M279.708 140.574C277.424 141.18 275.084 141.548 272.724 141.672" stroke="#263238" stroke-linecap="round" stroke-linejoin="round"/>
<path d="M281.454 139.83C281.197 140.016 280.914 140.164 280.614 140.268L281.454 139.83Z" fill="white"/>
<path d="M281.454 139.83C281.197 140.016 280.914 140.164 280.614 140.268" stroke="#263238" stroke-linecap="round" stroke-linejoin="round"/>
<path d="M284.448 119.298C284.382 119.07 284.304 118.848 284.232 118.62C283.086 115.068 281.61 111.168 279.816 107.052C279.486 106.29 279.138 105.516 278.79 104.736L278.388 104.772C276.666 104.946 274.854 105.162 273.438 106.14C272.022 107.118 271.176 109.182 272.094 110.652C273.012 112.122 275.352 112.92 274.98 114.582C271.134 116.748 266.442 116.496 262.164 117.582C259.582 118.24 257.15 119.387 255 120.96C254.321 121.466 253.672 122.011 253.056 122.592C252.771 122.856 252.506 123.14 252.264 123.444C251.895 123.876 251.66 124.405 251.586 124.968C251.436 126.57 252.894 127.662 254.448 128.358C254.513 128.384 254.569 128.428 254.608 128.486C254.648 128.544 254.669 128.612 254.669 128.682C254.669 128.752 254.648 128.82 254.608 128.878C254.569 128.936 254.513 128.98 254.448 129.006C253.423 129.371 252.474 129.92 251.646 130.626C251.533 130.728 251.456 130.864 251.428 131.014C251.4 131.163 251.421 131.318 251.489 131.454C251.557 131.59 251.668 131.701 251.805 131.768C251.942 131.835 252.097 131.855 252.246 131.826H252.486C253.094 131.776 253.707 131.849 254.286 132.042C254.693 132.141 255.064 132.356 255.352 132.66C255.64 132.965 255.835 133.346 255.912 133.758C256.008 134.958 254.622 136.074 252.822 136.212C252.384 136.254 252.72 136.776 253.362 136.884C254.65 137.041 255.956 136.934 257.202 136.572C258.708 136.212 260.316 135.69 261.168 134.4C261.519 133.83 261.648 133.151 261.528 132.492C261.494 132.064 261.319 131.66 261.03 131.343C260.741 131.025 260.355 130.813 259.932 130.74C262.716 130.411 265.468 129.859 268.164 129.09L269.01 128.832C269.834 128.621 270.618 128.279 271.332 127.818C271.753 127.531 272.101 127.149 272.346 126.702C272.946 125.502 272.088 123.588 270.756 123.84C274.626 122.322 278.718 121.44 282.63 120.036C283.2 119.802 283.836 119.562 284.448 119.298Z" fill="white"/>
<path opacity="0.2" d="M254.784 67.398C251.082 70.5737 247.084 73.3866 242.844 75.798C220.998 88.722 196.32 96.462 171.216 100.236C146.112 104.01 120.552 103.896 95.256 101.814C90.288 101.406 85.236 100.902 80.67 98.898C76.8 97.194 73.29 94.23 71.67 90.396C77.148 84.156 82.242 77.844 87.912 71.886C89.264 70.466 90.648 69.066 92.064 67.686C93.264 66.54 94.464 65.412 95.748 64.308C97.2 63.066 98.658 61.8 100.2 60.6C102.33 58.944 104.574 57.354 106.974 55.836C107.574 55.458 108.174 55.092 108.732 54.732C168.558 17.532 212.592 29.688 241.968 54.732C244.196 56.644 246.34 58.6 248.4 60.6C249.648 61.8 250.854 63.054 252 64.314C252.132 64.446 252.252 64.584 252.378 64.728C253.206 65.62 254.008 66.51 254.784 67.398Z" fill="black"/>
<path d="M257.148 61.434L55.866 62.352L58.908 57.786C59.6296 56.7067 60.606 55.8219 61.7508 55.2097C62.8957 54.5975 64.1737 54.2768 65.472 54.276H247.608C248.787 54.2763 249.951 54.5411 251.015 55.051C252.078 55.5608 253.013 56.3027 253.752 57.222L257.148 61.434Z" fill="white" stroke="#263238" stroke-linecap="round" stroke-linejoin="round"/>
<path d="M160.014 91.602H148.986C137.67 91.602 128.496 100.776 128.496 112.092V123.12C128.496 134.436 137.67 143.61 148.986 143.61H160.014C171.33 143.61 180.504 134.436 180.504 123.12V112.092C180.504 100.776 171.33 91.602 160.014 91.602Z" fill="#757575" stroke="#263238" stroke-linecap="round" stroke-linejoin="round"/>
<path d="M137.946 122.004V129.396C137.946 130.51 138.388 131.578 139.176 132.366C139.964 133.154 141.032 133.596 142.146 133.596H167.508C168.617 133.596 169.68 133.158 170.467 132.376C171.254 131.595 171.7 130.535 171.708 129.426C171.738 126.096 171.918 122.004 171.918 122.004H137.946Z" fill="#999999" stroke="#263238" stroke-linecap="round" stroke-linejoin="round"/>
<path d="M230.772 124.47H82.446C81.6832 124.472 80.9375 124.244 80.3061 123.816C79.6747 123.388 79.1868 122.779 78.906 122.07L56.028 63.336C55.8896 62.9819 55.8395 62.5993 55.8821 62.2215C55.9248 61.8437 56.0589 61.4819 56.2728 61.1676C56.4867 60.8532 56.774 60.5957 57.1098 60.4174C57.4456 60.239 57.8198 60.1452 58.2 60.144H255C255.381 60.1432 255.757 60.2357 256.094 60.4132C256.432 60.5907 256.721 60.848 256.936 61.1626C257.151 61.4773 257.286 61.8398 257.33 62.2185C257.373 62.5973 257.323 62.9809 257.184 63.336L234.306 122.052C234.028 122.764 233.543 123.375 232.912 123.807C232.282 124.238 231.536 124.469 230.772 124.47Z" fill="#BFBFBF" stroke="#263238" stroke-linecap="round" stroke-linejoin="round"/>
<path d="M231.87 119.358H80.988L60.228 63.864H252.534L231.87 119.358Z" fill="#263238"/>
<path d="M171.744 124.392H138.108V126.696H171.744V124.392Z" fill="#263238"/>
<path d="M209.832 117H103.284C102.684 117 102.144 116.736 102.036 116.4L86.88 68.226C86.712 67.686 87.186 67.248 87.942 67.248H225.174C225.93 67.248 226.374 67.686 226.23 68.226L211.08 116.4C210.972 116.706 210.414 117 209.832 117Z" fill="#3A5CCC"/>
<path d="M209.436 115.878H103.68L90.798 73.572H222.318L209.436 115.878Z" fill="#263238"/>
<path d="M118.86 84.078H98.838C98.34 84.078 98.016 84.342 98.112 84.678C98.2082 84.8718 98.3601 85.0325 98.5483 85.1394C98.7364 85.2463 98.9522 85.2946 99.168 85.278H119.076C119.568 85.278 119.916 85.014 119.862 84.678C119.808 84.342 119.352 84.078 118.86 84.078Z" fill="white"/>
<path d="M119.526 87.732H102.498C102.012 87.732 101.688 87.99 101.778 88.332C101.874 88.5173 102.023 88.6703 102.205 88.7716C102.388 88.873 102.596 88.9184 102.804 88.902H119.736C120.222 88.902 120.564 88.644 120.51 88.332C120.456 88.02 120 87.732 119.526 87.732Z" fill="white"/>
<path opacity="0.5" d="M120.174 91.26H100.854C100.374 91.26 100.062 91.512 100.146 91.812C100.244 91.9935 100.392 92.1425 100.573 92.2406C100.755 92.3387 100.961 92.3816 101.166 92.364H120.366C120.84 92.364 121.182 92.118 121.128 91.812C121.074 91.506 120.654 91.26 120.174 91.26Z" fill="white"/>
<path d="M120.798 94.668H109.452C108.984 94.668 108.66 94.908 108.732 95.202C108.804 95.496 109.242 95.736 109.71 95.736H120.996C121.464 95.736 121.8 95.496 121.746 95.202C121.692 94.908 121.266 94.668 120.798 94.668Z" fill="white"/>
<path d="M121.404 97.956H102.732C102.276 97.956 101.964 98.19 102.048 98.478C102.132 98.766 102.564 98.988 103.026 98.988H121.59C122.052 98.988 122.382 98.76 122.334 98.478C122.286 98.196 121.866 97.956 121.404 97.956Z" fill="white"/>
<path d="M121.986 101.142H106.914C106.458 101.142 106.152 101.364 106.224 101.64C106.296 101.916 106.722 102.138 107.172 102.138H122.172C122.622 102.138 122.946 101.916 122.898 101.64C122.85 101.364 122.442 101.142 121.986 101.142Z" fill="white"/>
<path d="M122.55 104.22H107.724C107.274 104.22 106.974 104.436 107.046 104.7C107.118 104.964 107.532 105.186 107.976 105.186H122.73C123.174 105.186 123.492 104.97 123.444 104.7C123.396 104.43 123 104.22 122.55 104.22Z" fill="white"/>
<path d="M123.096 107.196H106.896C106.458 107.196 106.158 107.406 106.23 107.664C106.302 107.922 106.71 108.132 107.148 108.132H123.246C123.684 108.132 124.002 107.922 123.954 107.664C123.906 107.406 123.54 107.196 123.096 107.196Z" fill="white"/>
<path opacity="0.5" d="M123.63 110.082H113.178C112.746 110.082 112.446 110.286 112.506 110.538C112.566 110.79 112.968 110.988 113.394 110.988H123.792C124.224 110.988 124.536 110.784 124.494 110.538C124.452 110.292 124.062 110.082 123.63 110.082Z" fill="white"/>
<path opacity="0.5" d="M118.164 80.286H103.242C102.738 80.286 102.402 80.562 102.492 80.886C102.588 81.0814 102.741 81.2432 102.93 81.3503C103.12 81.4574 103.337 81.5047 103.554 81.486H118.386C118.89 81.486 119.244 81.216 119.184 80.886C119.1 80.6901 118.956 80.5261 118.773 80.4181C118.589 80.3101 118.376 80.2638 118.164 80.286Z" fill="white"/>
<path d="M117.438 76.356H96.666C96.156 76.356 95.82 76.644 95.922 76.998C96.023 77.2009 96.1817 77.3694 96.3781 77.4825C96.5744 77.5957 96.7998 77.6483 97.026 77.634H117.672C118.182 77.634 118.548 77.346 118.482 76.998C118.402 76.7917 118.256 76.6173 118.068 76.5014C117.879 76.3855 117.658 76.3344 117.438 76.356Z" fill="white"/>
<path d="M124.14 112.878H106.926C106.5 112.878 106.212 113.076 106.278 113.316C106.344 113.556 106.746 113.754 107.172 113.754H124.302C124.722 113.754 125.034 113.562 124.992 113.316C124.95 113.07 124.566 112.878 124.14 112.878Z" fill="white"/>
<path opacity="0.5" d="M125.892 85.41H129.774L129.582 83.928H125.67L125.892 85.41Z" fill="white"/>
<path opacity="0.5" d="M126.432 89.022H130.248L130.062 87.588H126.216L126.432 89.022Z" fill="white"/>
<path opacity="0.5" d="M126.954 92.502H130.704L130.524 91.122H126.75L126.954 92.502Z" fill="white"/>
<path opacity="0.5" d="M127.458 95.868H131.148L130.968 94.536H127.26L127.458 95.868Z" fill="white"/>
<path opacity="0.5" d="M127.95 99.12H131.574L131.4 97.83H127.758L127.95 99.12Z" fill="white"/>
<path opacity="0.5" d="M128.418 102.264H131.982L131.82 101.016H128.232L128.418 102.264Z" fill="white"/>
<path opacity="0.5" d="M128.88 105.306H132.384L132.228 104.1H128.7L128.88 105.306Z" fill="white"/>
<path opacity="0.5" d="M129.318 108.246H132.768L132.618 107.082H129.144L129.318 108.246Z" fill="white"/>
<path opacity="0.5" d="M129.75 111.102H133.146L132.996 109.968H129.576L129.75 111.102Z" fill="white"/>
<path opacity="0.5" d="M125.328 81.672H129.282L129.084 80.136H125.1L125.328 81.672Z" fill="white"/>
<path opacity="0.5" d="M124.746 77.79H128.772L128.568 76.194H124.506L124.746 77.79Z" fill="white"/>
<path opacity="0.5" d="M130.164 113.868H133.506L133.362 112.77H129.996L130.164 113.868Z" fill="white"/>
<path d="M150.63 107.664C150.63 107.406 150.966 107.196 151.404 107.196H208.896C209.334 107.196 209.628 107.406 209.556 107.664C209.462 107.821 209.325 107.949 209.162 108.031C208.998 108.114 208.814 108.149 208.632 108.132H151.434C150.996 108.132 150.636 107.922 150.63 107.664Z" fill="white"/>
<path d="M209.478 105.186H177.642C177.198 105.186 176.862 104.97 176.892 104.7C176.922 104.43 177.306 104.22 177.756 104.22H209.754C210.198 104.22 210.498 104.436 210.42 104.7C210.326 104.863 210.188 104.995 210.021 105.082C209.853 105.168 209.665 105.204 209.478 105.186Z" fill="white"/>
<path opacity="0.5" d="M170.088 105.186H160.2C159.756 105.186 159.396 104.97 159.402 104.7C159.408 104.43 159.768 104.22 160.218 104.22H170.16C170.604 104.22 170.952 104.436 170.928 104.7C170.904 104.964 170.532 105.186 170.088 105.186Z" fill="white"/>
<path d="M190.752 102.138H145.848C145.398 102.138 145.02 101.916 145.002 101.64C144.984 101.364 145.338 101.142 145.794 101.142H190.938C191.388 101.142 191.718 101.364 191.664 101.64C191.61 101.916 191.208 102.138 190.752 102.138Z" fill="white"/>
<path opacity="0.5" d="M136.458 101.142H139.662C140.112 101.142 140.502 101.364 140.526 101.64C140.55 101.916 140.202 102.138 139.752 102.138H136.566C136.116 102.138 135.726 101.916 135.696 101.64C135.666 101.364 136.008 101.142 136.458 101.142Z" fill="white"/>
<path d="M197.25 98.478C197.19 98.76 196.77 98.988 196.308 98.988H153.996C153.534 98.988 153.162 98.76 153.156 98.478C153.15 98.196 153.522 97.956 153.978 97.956H196.524C196.986 97.956 197.31 98.19 197.25 98.478Z" fill="white"/>
<path d="M136.122 97.956H148.122C148.584 97.956 148.968 98.19 148.98 98.478C148.992 98.766 148.626 98.988 148.17 98.988H136.23C135.774 98.988 135.378 98.76 135.342 98.478C135.306 98.196 135.66 97.956 136.122 97.956Z" fill="white"/>
<path d="M135.768 94.668H181.932C182.4 94.668 182.748 94.908 182.706 95.202C182.664 95.496 182.256 95.736 181.788 95.736H135.882C135.42 95.736 135.012 95.496 134.982 95.202C134.952 94.908 135.3 94.668 135.768 94.668Z" fill="white"/>
<path d="M165.738 92.364C165.264 92.364 164.892 92.118 164.904 91.812C164.916 91.506 165.312 91.26 165.792 91.26H190.146C190.626 91.26 190.968 91.512 190.914 91.812C190.86 92.112 190.434 92.364 189.96 92.364H165.738Z" fill="white"/>
<path d="M135.408 91.26H156.486C156.966 91.26 157.35 91.512 157.35 91.812C157.35 92.112 156.96 92.364 156.486 92.364H135.528C135.048 92.364 134.64 92.118 134.604 91.812C134.568 91.506 134.928 91.26 135.408 91.26Z" fill="white"/>
<path d="M214.158 88.878H156.132C155.652 88.878 155.256 88.62 155.256 88.308C155.256 87.996 155.646 87.708 156.132 87.708H214.482C214.968 87.708 215.286 87.966 215.196 88.308C215.097 88.4933 214.946 88.6458 214.762 88.7469C214.577 88.8481 214.368 88.8936 214.158 88.878Z" fill="white"/>
<path d="M215.19 85.266H164.136C163.644 85.266 163.254 85.002 163.266 84.666C163.278 84.33 163.686 84.066 164.178 84.066H215.532C216.024 84.066 216.348 84.33 216.252 84.666C216.154 84.8598 216.001 85.0202 215.812 85.127C215.623 85.2338 215.407 85.2822 215.19 85.266Z" fill="white"/>
<path opacity="0.5" d="M216.27 81.516H205.578C205.074 81.516 204.732 81.246 204.81 80.916C204.904 80.72 205.055 80.5574 205.244 80.4501C205.433 80.3429 205.65 80.296 205.866 80.316H216.6C217.104 80.316 217.434 80.592 217.332 80.916C217.232 81.1083 217.079 81.2674 216.89 81.3739C216.702 81.4805 216.486 81.5298 216.27 81.516Z" fill="white"/>
<path d="M198.096 81.516H158.838C158.34 81.516 157.932 81.246 157.938 80.916C157.944 80.586 158.346 80.316 158.85 80.316H198.342C198.846 80.316 199.194 80.592 199.128 80.916C199.04 81.1112 198.893 81.274 198.708 81.3815C198.523 81.4891 198.309 81.5362 198.096 81.516Z" fill="white"/>
<path d="M137.4 110.082H173.658C174.09 110.082 174.42 110.286 174.39 110.538C174.36 110.79 174 110.988 173.568 110.988H137.514C137.082 110.988 136.71 110.784 136.68 110.538C136.65 110.292 136.98 110.082 137.4 110.082Z" fill="white"/>
<path d="M137.712 112.878H193.416C193.836 112.878 194.142 113.076 194.088 113.316C194.034 113.556 193.656 113.754 193.23 113.754H137.808C137.382 113.754 137.016 113.562 136.992 113.316C136.968 113.07 137.286 112.878 137.712 112.878Z" fill="white"/>
<path d="M196.146 77.634H167.79C167.28 77.634 166.884 77.346 166.902 76.998C166.92 76.65 167.346 76.356 167.862 76.356H196.386C196.902 76.356 197.262 76.644 197.196 76.998C197.111 77.2013 196.963 77.3724 196.774 77.4866C196.586 77.6009 196.366 77.6525 196.146 77.634Z" fill="white"/>
<path opacity="0.5" d="M159.75 77.634H133.95C133.44 77.634 132.99 77.346 132.954 76.998C132.918 76.65 133.296 76.356 133.812 76.356H159.762C160.272 76.356 160.686 76.644 160.68 76.998C160.674 77.352 160.26 77.634 159.75 77.634Z" fill="white"/>
<path opacity="0.5" d="M181.71 110.082C182.142 110.082 182.466 110.286 182.43 110.538C182.394 110.79 182.016 110.988 181.584 110.988H178.8C178.374 110.988 178.05 110.784 178.08 110.538C178.11 110.292 178.482 110.082 178.914 110.082H181.71Z" fill="white"/>
<path opacity="0.5" d="M147.324 107.664C147.324 107.922 146.994 108.132 146.556 108.132H142.74C142.302 108.132 141.93 107.922 141.912 107.664C141.894 107.406 142.23 107.196 142.668 107.196H146.502C146.94 107.196 147.312 107.4 147.324 107.664Z" fill="white"/>
<path opacity="0.5" d="M193.374 95.202C193.32 95.496 192.894 95.736 192.432 95.736H187.968C187.5 95.736 187.164 95.496 187.206 95.202C187.248 94.908 187.674 94.668 188.142 94.668H192.63C193.098 94.668 193.434 94.908 193.374 95.202Z" fill="white"/>
<path opacity="0.5" d="M207.3 97.956C207.762 97.956 208.074 98.19 207.996 98.478C207.902 98.6479 207.761 98.7866 207.589 98.8772C207.418 98.9679 207.223 99.0063 207.03 98.988H203.472C203.01 98.988 202.698 98.76 202.764 98.478C202.853 98.3048 202.993 98.1624 203.164 98.0693C203.335 97.9762 203.53 97.9368 203.724 97.956H207.3Z" fill="white"/>
<path opacity="0.5" d="M149.106 88.878C148.626 88.878 148.224 88.62 148.206 88.308C148.188 87.996 148.578 87.708 149.064 87.708H152.85C153.336 87.708 153.732 87.966 153.738 88.308C153.744 88.65 153.354 88.878 152.874 88.878H149.106Z" fill="white"/>
<path d="M97.542 70.404C97.6331 70.606 97.6702 70.8282 97.6495 71.0488C97.6288 71.2694 97.5511 71.4809 97.424 71.6624C97.297 71.844 97.1249 71.9893 96.9247 72.0843C96.7244 72.1792 96.503 72.2205 96.282 72.204C95.7537 72.1727 95.2468 71.9848 94.8257 71.6642C94.4047 71.3436 94.0887 70.9049 93.918 70.404C93.8275 70.203 93.7905 69.982 93.8107 69.7624C93.8308 69.5429 93.9075 69.3323 94.0331 69.1511C94.1587 68.97 94.329 68.8244 94.5275 68.7285C94.7261 68.6326 94.946 68.5897 95.166 68.604C95.6968 68.6314 96.2072 68.8176 96.6308 69.1386C97.0545 69.4596 97.3719 69.9004 97.542 70.404Z" fill="white"/>
<path d="M102.426 70.434C102.508 70.6414 102.535 70.866 102.507 71.087C102.478 71.308 102.394 71.5181 102.262 71.6978C102.13 71.8775 101.955 72.0209 101.753 72.1147C101.551 72.2084 101.328 72.2495 101.106 72.234C100.584 72.2048 100.084 72.0167 99.672 71.6949C99.2602 71.3732 98.9566 70.9332 98.802 70.434C98.7226 70.2276 98.6962 70.0046 98.725 69.7854C98.7538 69.5661 98.837 69.3575 98.967 69.1787C99.097 68.9998 99.2696 68.8562 99.4693 68.7611C99.6689 68.666 99.8892 68.6223 100.11 68.634C100.635 68.6583 101.139 68.8443 101.554 69.1666C101.968 69.4889 102.273 69.9316 102.426 70.434Z" fill="white"/>
<path d="M107.364 70.404C107.436 70.6159 107.456 70.8423 107.42 71.0633C107.384 71.2844 107.294 71.4931 107.158 71.6711C107.022 71.8491 106.844 71.9908 106.641 72.0838C106.437 72.1767 106.213 72.218 105.99 72.204C105.473 72.1795 104.977 71.9923 104.573 71.669C104.169 71.3457 103.877 70.9029 103.74 70.404C103.669 70.1927 103.651 69.9673 103.688 69.7474C103.724 69.5275 103.813 69.3198 103.948 69.1424C104.083 68.965 104.259 68.8232 104.461 68.7294C104.663 68.6355 104.885 68.5925 105.108 68.604C105.627 68.6245 106.125 68.8101 106.531 69.1339C106.937 69.4577 107.229 69.9027 107.364 70.404Z" fill="white"/>
<path opacity="0.1" d="M60.228 63.864L76.398 107.082L95.904 63.864H60.228Z" fill="white"/>
<path opacity="0.1" d="M87.51 119.358L119.868 63.864H153.738L106.116 119.358H87.51Z" fill="white"/>
<path opacity="0.1" d="M168.336 63.588L117.9 119.358H125.67L177.912 63.864L168.336 63.588Z" fill="white"/>
<path opacity="0.1" d="M178.296 119.358L233.724 63.864H241.548L184.398 119.358H178.296Z" fill="white"/>
<path d="M103.14 143.442H90.486C89.6903 143.442 88.9273 143.758 88.3647 144.321C87.8021 144.883 87.486 145.646 87.486 146.442V152.598C87.486 153.394 87.8021 154.157 88.3647 154.719C88.9273 155.282 89.6903 155.598 90.486 155.598H93.792L96.3 161.28L99.834 155.598H103.14C103.936 155.598 104.699 155.282 105.261 154.719C105.824 154.157 106.14 153.394 106.14 152.598V146.4C106.129 145.612 105.808 144.859 105.247 144.306C104.685 143.752 103.928 143.442 103.14 143.442Z" fill="white" stroke="#263238" stroke-linecap="round" stroke-linejoin="round"/>
<path d="M95.052 146.964C95.052 146.805 95.1152 146.652 95.2277 146.54C95.3402 146.427 95.4929 146.364 95.652 146.364C95.8041 146.364 95.9507 146.421 96.0621 146.525C96.1735 146.628 96.2413 146.77 96.252 146.922C96.252 147.081 96.1888 147.234 96.0763 147.346C95.9637 147.459 95.8111 147.522 95.652 147.522C95.4999 147.522 95.3533 147.465 95.2419 147.361C95.1305 147.258 95.0626 147.116 95.052 146.964ZM95.184 148.218H96.15V152.334H95.184V148.218Z" fill="#263238"/>
<path d="M98.472 148.002V148.248H99.6V149.022H98.502V152.334H97.536V149.022H96.858V148.248H97.536V147.99C97.5208 147.795 97.5487 147.599 97.6178 147.416C97.6869 147.233 97.7955 147.067 97.9358 146.931C98.0762 146.795 98.2448 146.691 98.4298 146.627C98.6147 146.563 98.8115 146.541 99.006 146.562C99.3133 146.549 99.6177 146.627 99.882 146.784L99.612 147.51C99.4548 147.402 99.2688 147.343 99.078 147.342C98.682 147.342 98.472 147.564 98.472 148.002Z" fill="#263238"/>
<path d="M141.672 144.3H129C128.204 144.3 127.441 144.616 126.879 145.179C126.316 145.741 126 146.504 126 147.3V153.462C126 154.258 126.316 155.021 126.879 155.583C127.441 156.146 128.204 156.462 129 156.462H132.312L134.814 162.144L138.348 156.462H141.66C142.456 156.462 143.219 156.146 143.781 155.583C144.344 155.021 144.66 154.258 144.66 153.462V147.276C144.654 146.487 144.336 145.731 143.777 145.174C143.218 144.617 142.461 144.303 141.672 144.3Z" fill="white" stroke="#263238" stroke-linecap="round" stroke-linejoin="round"/>
<path d="M131.676 151.446H128.442C128.504 151.747 128.675 152.014 128.922 152.197C129.169 152.379 129.474 152.464 129.78 152.436C129.987 152.444 130.194 152.407 130.386 152.33C130.578 152.252 130.752 152.135 130.896 151.986L131.412 152.586C131.1 152.896 130.707 153.11 130.278 153.204C129.848 153.298 129.401 153.268 128.989 153.117C128.576 152.966 128.215 152.7 127.948 152.351C127.681 152.002 127.52 151.584 127.482 151.146C127.474 150.866 127.523 150.586 127.627 150.326C127.731 150.065 127.887 149.829 128.086 149.632C128.286 149.434 128.523 149.28 128.785 149.178C129.046 149.076 129.326 149.029 129.606 149.04C129.887 149.028 130.166 149.076 130.427 149.18C130.689 149.283 130.925 149.441 131.121 149.642C131.317 149.842 131.469 150.082 131.567 150.346C131.665 150.609 131.706 150.89 131.688 151.17C131.688 151.242 131.682 151.356 131.676 151.446ZM128.436 150.81H130.8C130.771 150.526 130.634 150.263 130.418 150.077C130.201 149.89 129.921 149.794 129.636 149.808C129.346 149.789 129.059 149.883 128.836 150.069C128.612 150.256 128.469 150.521 128.436 150.81Z" fill="#263238"/>
<path d="M132.6 147.48H133.56V153.198H132.6V147.48Z" fill="#263238"/>
<path d="M134.4 152.79L134.766 152.058C135.198 152.322 135.694 152.464 136.2 152.466C136.8 152.466 137.064 152.298 137.064 152.01C137.064 151.224 134.52 151.962 134.52 150.324C134.52 149.544 135.222 149.034 136.32 149.034C136.855 149.025 137.384 149.147 137.862 149.388L137.49 150.12C137.126 149.909 136.711 149.803 136.29 149.814C135.69 149.814 135.426 150.006 135.426 150.276C135.426 151.11 137.97 150.366 137.97 151.98C137.97 152.748 137.262 153.252 136.104 153.252C135.504 153.259 134.914 153.099 134.4 152.79Z" fill="#263238"/>
<path d="M142.662 151.446H139.428C139.49 151.747 139.661 152.014 139.908 152.197C140.155 152.379 140.46 152.464 140.766 152.436C140.973 152.444 141.18 152.407 141.372 152.33C141.564 152.252 141.738 152.135 141.882 151.986L142.398 152.586C142.086 152.896 141.693 153.11 141.264 153.204C140.834 153.298 140.387 153.268 139.975 153.117C139.562 152.966 139.201 152.7 138.934 152.351C138.668 152.002 138.506 151.584 138.468 151.146C138.46 150.866 138.509 150.586 138.613 150.326C138.717 150.065 138.873 149.829 139.073 149.632C139.272 149.434 139.509 149.28 139.771 149.178C140.032 149.076 140.312 149.029 140.592 149.04C140.873 149.028 141.152 149.076 141.414 149.18C141.675 149.283 141.911 149.441 142.107 149.642C142.303 149.842 142.455 150.082 142.553 150.346C142.651 150.609 142.692 150.89 142.674 151.17C142.674 151.242 142.668 151.356 142.662 151.446ZM139.422 150.81H141.756C141.727 150.526 141.59 150.263 141.374 150.077C141.157 149.89 140.877 149.794 140.592 149.808C140.307 149.797 140.028 149.894 139.811 150.08C139.594 150.266 139.455 150.526 139.422 150.81Z" fill="#263238"/>
<path d="M179.028 143.94H166.368C165.578 143.94 164.819 144.252 164.257 144.808C163.695 145.364 163.376 146.12 163.368 146.91V153.072C163.368 153.868 163.684 154.631 164.247 155.193C164.809 155.756 165.572 156.072 166.368 156.072H169.68L172.182 161.754L175.716 156.072H179.028C179.824 156.072 180.587 155.756 181.149 155.193C181.712 154.631 182.028 153.868 182.028 153.072V146.91C182.02 146.12 181.701 145.364 181.139 144.808C180.577 144.252 179.818 143.94 179.028 143.94Z" fill="white" stroke="#263238" stroke-linecap="round" stroke-linejoin="round"/>
<path d="M169.272 148.5V148.746H170.4V149.52H169.296V152.832H168.336V149.52H167.658V148.746H168.336V148.488C168.321 148.294 168.349 148.098 168.418 147.916C168.486 147.733 168.594 147.568 168.734 147.432C168.874 147.295 169.041 147.191 169.226 147.127C169.41 147.063 169.606 147.04 169.8 147.06C170.106 147.045 170.409 147.122 170.67 147.282L170.4 148.008C170.245 147.899 170.061 147.841 169.872 147.84C169.482 147.84 169.272 148.062 169.272 148.5Z" fill="#263238"/>
<path d="M170.652 150.774C170.635 150.336 170.75 149.903 170.981 149.531C171.212 149.159 171.549 148.865 171.949 148.686C172.349 148.507 172.793 148.451 173.225 148.527C173.656 148.602 174.055 148.805 174.371 149.109C174.686 149.413 174.903 149.805 174.994 150.233C175.085 150.662 175.046 151.108 174.882 151.514C174.718 151.92 174.435 152.268 174.072 152.512C173.708 152.757 173.28 152.887 172.842 152.886C172.557 152.902 172.272 152.858 172.004 152.759C171.736 152.659 171.492 152.506 171.287 152.307C171.081 152.109 170.919 151.871 170.809 151.607C170.7 151.343 170.647 151.06 170.652 150.774ZM174.066 150.774C174.048 150.541 173.964 150.319 173.821 150.134C173.679 149.948 173.486 149.809 173.266 149.732C173.046 149.654 172.808 149.643 172.582 149.699C172.355 149.755 172.15 149.876 171.991 150.047C171.832 150.218 171.726 150.431 171.687 150.661C171.647 150.891 171.676 151.128 171.769 151.342C171.861 151.556 172.015 151.738 172.21 151.866C172.405 151.995 172.633 152.063 172.866 152.064C173.031 152.064 173.195 152.031 173.347 151.965C173.499 151.899 173.635 151.802 173.748 151.681C173.861 151.56 173.947 151.417 174.002 151.261C174.057 151.105 174.078 150.939 174.066 150.774Z" fill="#263238"/>
<path d="M178.338 148.668V149.586C178.264 149.581 178.19 149.581 178.116 149.586C177.949 149.573 177.781 149.597 177.624 149.658C177.467 149.718 177.326 149.813 177.211 149.935C177.096 150.057 177.01 150.203 176.959 150.363C176.908 150.523 176.893 150.692 176.916 150.858V152.856H175.95V148.74H176.868V149.34C177.033 149.11 177.256 148.926 177.514 148.808C177.771 148.691 178.056 148.642 178.338 148.668Z" fill="#263238"/>
<path d="M215.844 143.442H203.184C202.388 143.442 201.625 143.758 201.063 144.321C200.5 144.883 200.184 145.646 200.184 146.442V152.598C200.184 153.394 200.5 154.157 201.063 154.719C201.625 155.282 202.388 155.598 203.184 155.598H206.496L208.998 161.28L212.532 155.598H215.844C216.64 155.598 217.403 155.282 217.965 154.719C218.528 154.157 218.844 153.394 218.844 152.598V146.4C218.833 145.612 218.512 144.859 217.951 144.306C217.389 143.752 216.632 143.442 215.844 143.442Z" fill="white" stroke="#263238" stroke-linecap="round" stroke-linejoin="round"/>
<path d="M207.87 148.014H211.422V148.8H207.87V148.014ZM207.87 149.88H211.422V150.654H207.87V149.88Z" fill="#263238"/>
<path d="M122.436 136.314H109.8C109.004 136.314 108.241 136.63 107.679 137.193C107.116 137.755 106.8 138.518 106.8 139.314V145.47C106.8 146.266 107.116 147.029 107.679 147.591C108.241 148.154 109.004 148.47 109.8 148.47H113.112L115.614 154.152L119.148 148.47H122.46C123.256 148.47 124.019 148.154 124.581 147.591C125.144 147.029 125.46 146.266 125.46 145.47V139.29C125.457 138.896 125.376 138.507 125.222 138.144C125.069 137.781 124.845 137.452 124.564 137.176C124.284 136.899 123.951 136.681 123.586 136.533C123.221 136.385 122.83 136.311 122.436 136.314Z" fill="white" stroke="#263238" stroke-linecap="round" stroke-linejoin="round"/>
<path d="M113.13 138.87H114.972V139.644H114.09V145.314H114.972V146.088H113.13V138.87Z" fill="#263238"/>
<path d="M117.36 146.088V145.314H118.23V139.644H117.36V138.87H119.19V146.07L117.36 146.088Z" fill="#263238"/>
<path d="M160.068 135.684H147.408C146.612 135.684 145.849 136 145.287 136.563C144.724 137.125 144.408 137.888 144.408 138.684V144.84C144.408 145.636 144.724 146.399 145.287 146.961C145.849 147.524 146.612 147.84 147.408 147.84H150.72L153.228 153.522L156.762 147.84H160.068C160.864 147.84 161.627 147.524 162.189 146.961C162.752 146.399 163.068 145.636 163.068 144.84V138.66C163.062 137.869 162.743 137.112 162.181 136.554C161.619 135.997 160.86 135.684 160.068 135.684Z" fill="white" stroke="#263238" stroke-linecap="round" stroke-linejoin="round"/>
<path d="M151.164 141.828C151.47 141.924 151.62 142.134 151.62 142.614V144.078C151.605 144.16 151.61 144.245 151.635 144.324C151.66 144.404 151.704 144.476 151.763 144.535C151.822 144.594 151.894 144.638 151.974 144.663C152.053 144.688 152.138 144.693 152.22 144.678H152.382V145.452H151.992C151.818 145.478 151.641 145.464 151.474 145.41C151.307 145.357 151.154 145.266 151.028 145.144C150.902 145.022 150.805 144.873 150.745 144.708C150.686 144.543 150.665 144.366 150.684 144.192V142.608C150.684 142.35 150.552 142.236 150.336 142.236H150.084V141.45H150.336C150.552 141.45 150.684 141.336 150.684 141.078V139.494C150.665 139.32 150.686 139.143 150.745 138.978C150.805 138.813 150.902 138.664 151.028 138.542C151.154 138.42 151.307 138.329 151.474 138.276C151.641 138.222 151.818 138.208 151.992 138.234H152.382V139.008H152.22C152.138 138.993 152.053 138.998 151.974 139.023C151.894 139.048 151.822 139.092 151.763 139.151C151.704 139.21 151.66 139.282 151.635 139.362C151.61 139.441 151.605 139.526 151.62 139.608V141.072C151.62 141.516 151.47 141.726 151.164 141.828Z" fill="#263238"/>
<path d="M157.044 141.432V142.2H156.78C156.57 142.2 156.438 142.314 156.438 142.572V144.156C156.458 144.331 156.437 144.508 156.377 144.674C156.317 144.839 156.219 144.989 156.092 145.111C155.965 145.232 155.812 145.323 155.644 145.376C155.476 145.429 155.298 145.443 155.124 145.416H154.734V144.66H154.896C154.978 144.674 155.062 144.667 155.141 144.642C155.22 144.617 155.291 144.573 155.35 144.514C155.409 144.455 155.453 144.384 155.478 144.305C155.503 144.226 155.51 144.142 155.496 144.06V142.596C155.496 142.116 155.634 141.906 155.94 141.81C155.634 141.708 155.496 141.498 155.496 141.018V139.554C155.51 139.472 155.503 139.388 155.478 139.309C155.453 139.23 155.409 139.159 155.35 139.1C155.291 139.041 155.22 138.997 155.141 138.972C155.062 138.947 154.978 138.94 154.896 138.954H154.734V138.18H155.124C155.298 138.153 155.476 138.167 155.644 138.22C155.812 138.273 155.965 138.364 156.092 138.485C156.219 138.607 156.317 138.757 156.377 138.922C156.437 139.088 156.458 139.265 156.438 139.44V141.024C156.438 141.282 156.57 141.396 156.78 141.396L157.044 141.432Z" fill="#263238"/>
<path d="M197.304 134.436H184.644C183.848 134.436 183.085 134.752 182.523 135.315C181.96 135.877 181.644 136.64 181.644 137.436V143.592C181.644 144.388 181.96 145.151 182.523 145.713C183.085 146.276 183.848 146.592 184.644 146.592H187.95L190.458 152.274L193.992 146.592H197.304C198.1 146.592 198.863 146.276 199.425 145.713C199.988 145.151 200.304 144.388 200.304 143.592V137.4C200.295 136.611 199.974 135.857 199.413 135.302C198.851 134.747 198.093 134.436 197.304 134.436Z" fill="white" stroke="#263238" stroke-linecap="round" stroke-linejoin="round"/>
<path d="M190.47 138.996C190.461 138.908 190.471 138.819 190.499 138.734C190.527 138.65 190.572 138.573 190.632 138.507C190.692 138.441 190.764 138.389 190.845 138.353C190.927 138.317 191.014 138.298 191.103 138.298C191.192 138.298 191.279 138.317 191.361 138.353C191.442 138.389 191.514 138.441 191.574 138.507C191.634 138.573 191.679 138.65 191.707 138.734C191.735 138.819 191.745 138.908 191.736 138.996C191.745 139.084 191.735 139.173 191.707 139.258C191.679 139.342 191.634 139.419 191.574 139.485C191.514 139.551 191.442 139.603 191.361 139.639C191.279 139.675 191.192 139.694 191.103 139.694C191.014 139.694 190.927 139.675 190.845 139.639C190.764 139.603 190.692 139.551 190.632 139.485C190.572 139.419 190.527 139.342 190.499 139.258C190.471 139.173 190.461 139.084 190.47 138.996ZM191.736 141.93C191.72 142.162 191.658 142.388 191.556 142.596L191.16 143.682H190.56L190.872 142.482C190.761 142.435 190.666 142.355 190.601 142.254C190.536 142.152 190.503 142.033 190.506 141.912C190.506 141.746 190.572 141.586 190.69 141.469C190.807 141.351 190.967 141.285 191.133 141.285C191.299 141.285 191.459 141.351 191.576 141.469C191.694 141.586 191.76 141.746 191.76 141.912L191.736 141.93Z" fill="#263238"/>
<path d="M147.816 242.1H160.47C161.266 242.1 162.029 241.784 162.591 241.221C163.154 240.659 163.47 239.896 163.47 239.1V232.968C163.47 232.172 163.154 231.409 162.591 230.847C162.029 230.284 161.266 229.968 160.47 229.968H157.164L156.198 224.286L151.122 229.968H147.816C147.02 229.968 146.257 230.284 145.695 230.847C145.132 231.409 144.816 232.172 144.816 232.968V239.124C144.822 239.915 145.141 240.672 145.703 241.23C146.265 241.787 147.024 242.1 147.816 242.1Z" fill="white" stroke="#263238" stroke-linecap="round" stroke-linejoin="round"/>
<path d="M152.262 234.78L149.604 235.8L152.262 236.79V237.6L148.71 236.22V235.386L152.262 234.006V234.78Z" fill="#263238"/>
<path d="M155.07 231.978H155.928L153.384 239.244H152.526L155.07 231.978Z" fill="#263238"/>
<path d="M159.666 235.356V236.19L156.114 237.57V236.766L158.772 235.776L156.114 234.78V234L159.666 235.356Z" fill="#263238"/>
<path d="M67.344 197.25H79.998C80.7885 197.25 81.547 196.938 82.1088 196.382C82.6705 195.826 82.9901 195.07 82.998 194.28V188.118C82.998 187.322 82.6819 186.559 82.1193 185.997C81.5567 185.434 80.7936 185.118 79.998 185.118H76.692L77.412 179.436L70.65 185.118H67.344C66.5483 185.118 65.7853 185.434 65.2227 185.997C64.6601 186.559 64.344 187.322 64.344 188.118V194.28C64.3519 195.07 64.6715 195.826 65.2332 196.382C65.795 196.938 66.5535 197.25 67.344 197.25Z" fill="white" stroke="#263238" stroke-linecap="round" stroke-linejoin="round"/>
<path d="M71.094 193.35C71.094 193.191 71.1572 193.038 71.2697 192.926C71.3823 192.813 71.5349 192.75 71.694 192.75C71.8531 192.75 72.0057 192.813 72.1183 192.926C72.2308 193.038 72.294 193.191 72.294 193.35C72.294 193.509 72.2308 193.662 72.1183 193.774C72.0057 193.887 71.8531 193.95 71.694 193.95C71.5349 193.95 71.3823 193.887 71.2697 193.774C71.1572 193.662 71.094 193.509 71.094 193.35ZM71.148 188.496H72.288L72.096 192.096H71.334L71.148 188.496Z" fill="#263238"/>
<path d="M73.284 189.876H76.836V190.65H73.284V189.876ZM73.284 191.742H76.836V192.516H73.284V191.742Z" fill="#263238"/>
<path d="M270 190.272C269.997 192.657 269.797 195.037 269.4 197.388C267.66 207.774 262.2 215.346 255.744 215.346C255.167 215.346 254.592 215.286 254.028 215.166C246.978 213.672 241.512 203.1 241.512 190.272C241.512 176.424 247.884 171.522 255.744 171.522C263.604 171.522 270 176.4 270 190.272Z" fill="white"/>
<mask id="mask1_36_2" style="mask-type:luminance" maskUnits="userSpaceOnUse" x="241" y="171" width="29" height="45">
<path d="M270 190.272C269.997 192.657 269.797 195.037 269.4 197.388C267.66 207.774 262.2 215.346 255.744 215.346C255.167 215.346 254.592 215.286 254.028 215.166C246.978 213.672 241.512 203.1 241.512 190.272C241.512 176.424 247.884 171.522 255.744 171.522C263.604 171.522 270 176.4 270 190.272Z" fill="white"/>
</mask>
<g mask="url(#mask1_36_2)">
<path d="M264.858 190.428C265.386 197.856 264.114 205.32 261.972 212.454C267.336 208.05 269.802 201.126 272.034 194.556C273.654 189.786 275.292 184.866 274.998 179.838C274.704 174.81 271.998 169.572 267.294 167.838C264.935 166.987 262.347 167.027 260.016 167.952C256.062 169.542 258.216 170.826 259.89 173.67C262.8 178.805 264.5 184.537 264.858 190.428Z" fill="#3A5CCC"/>
<path opacity="0.5" d="M264.858 190.428C265.386 197.856 264.114 205.32 261.972 212.454C267.336 208.05 269.802 201.126 272.034 194.556C273.654 189.786 275.292 184.866 274.998 179.838C274.704 174.81 271.998 169.572 267.294 167.838C264.935 166.987 262.347 167.027 260.016 167.952C256.062 169.542 258.216 170.826 259.89 173.67C262.8 178.805 264.5 184.537 264.858 190.428Z" fill="white"/>
</g>
<path d="M270 190.272C269.997 192.657 269.797 195.037 269.4 197.388C267.66 207.774 262.2 215.346 255.744 215.346C255.167 215.346 254.592 215.286 254.028 215.166C246.978 213.672 241.512 203.1 241.512 190.272C241.512 176.424 247.884 171.522 255.744 171.522C263.604 171.522 270 176.4 270 190.272Z" stroke="#263238" stroke-miterlimit="10"/>
<path d="M263.43 203.01C262.484 206.217 260.893 209.198 258.756 211.77L263.43 203.01Z" fill="white"/>
<path d="M263.43 203.01C262.484 206.217 260.893 209.198 258.756 211.77" stroke="#263238" stroke-miterlimit="10"/>
<path d="M263.88 201.27C263.808 201.606 263.724 201.942 263.634 202.278" stroke="#263238" stroke-miterlimit="10"/>
<path d="M263.844 190.236C264.594 193.44 264.69 196.762 264.126 200.004L263.844 190.236Z" fill="white"/>
<path d="M263.844 190.236C264.594 193.44 264.69 196.762 264.126 200.004" stroke="#263238" stroke-miterlimit="10"/>
<path d="M241.542 190.272C241.542 190.272 257.742 183.876 270.018 190.272" stroke="#263238" stroke-miterlimit="10"/>
<path d="M255.78 171.522C255.78 171.522 257.4 177.522 257.58 187.284L255.78 171.522Z" fill="white"/>
<path d="M255.78 171.522C255.78 171.522 257.4 177.522 257.58 187.284" stroke="#263238" stroke-miterlimit="10"/>
<path d="M258.042 178.8C258.246 180.666 257.922 182.25 257.316 182.346C256.71 182.442 256.05 181.008 255.846 179.148C255.642 177.288 255.96 175.692 256.566 175.596C257.172 175.5 257.832 176.958 258.042 178.8Z" fill="#BFBFBF" stroke="#263238" stroke-linecap="round" stroke-linejoin="round"/>
<path d="M249.396 220.146H230.4C229.274 220.147 228.185 219.74 227.337 219C226.488 218.259 225.937 217.236 225.786 216.12C225.746 215.908 225.728 215.693 225.732 215.478V170.724C225.729 170.507 225.747 170.29 225.786 170.076C225.937 168.961 226.488 167.938 227.337 167.199C228.186 166.459 229.274 166.053 230.4 166.056H284.232C285.017 166.062 285.787 166.268 286.47 166.656" stroke="#263238" stroke-miterlimit="10"/>
</svg>
