<svg width="300" height="149" viewBox="0 0 300 149" fill="none" xmlns="http://www.w3.org/2000/svg">
<g clip-path="url(#clip0_20_188)">
<path d="M172.019 145.37C170.162 145.369 168.381 144.63 167.069 143.317C165.757 142.003 165.019 140.223 165.019 138.366C165.019 136.509 165.757 134.728 167.069 133.415C168.381 132.101 170.162 131.363 172.019 131.362H276.056C275.532 130.401 274.76 129.599 273.82 129.04C272.88 128.481 271.806 128.186 270.712 128.185H63.9139C61.2159 128.188 58.6294 129.262 56.7228 131.171C54.8162 133.08 53.7455 135.668 53.7458 138.366C53.7472 141.063 54.8185 143.65 56.7247 145.559C58.631 147.467 61.2164 148.542 63.9139 148.547H270.712C271.806 148.546 272.88 148.25 273.82 147.691C274.76 147.132 275.532 146.33 276.056 145.37L172.019 145.37Z" fill="#CCCCCC"/>
<path d="M276.194 135.221H177.279C177.127 135.221 176.982 135.16 176.875 135.053C176.768 134.946 176.708 134.801 176.708 134.649C176.708 134.498 176.768 134.353 176.875 134.245C176.982 134.138 177.127 134.078 177.279 134.078H276.194C276.345 134.078 276.49 134.138 276.597 134.245C276.704 134.353 276.764 134.498 276.764 134.649C276.764 134.801 276.704 134.946 276.597 135.053C276.49 135.16 276.345 135.221 276.194 135.221Z" fill="#CCCCCC"/>
<path d="M276.194 138.938H177.279C177.127 138.938 176.982 138.877 176.874 138.77C176.767 138.663 176.707 138.517 176.707 138.366C176.707 138.214 176.767 138.069 176.874 137.961C176.982 137.854 177.127 137.794 177.279 137.794H276.194C276.346 137.794 276.491 137.854 276.598 137.961C276.705 138.069 276.766 138.214 276.766 138.366C276.766 138.517 276.705 138.663 276.598 138.77C276.491 138.877 276.346 138.938 276.194 138.938Z" fill="#CCCCCC"/>
<path d="M276.194 142.654H177.279C177.127 142.654 176.982 142.593 176.875 142.486C176.768 142.379 176.708 142.234 176.708 142.082C176.708 141.931 176.768 141.786 176.875 141.678C176.982 141.571 177.127 141.511 177.279 141.51H276.194C276.345 141.511 276.49 141.571 276.597 141.678C276.704 141.786 276.764 141.931 276.764 142.082C276.764 142.234 276.704 142.379 276.597 142.486C276.49 142.593 276.345 142.654 276.194 142.654Z" fill="#CCCCCC"/>
<path d="M145.146 125.644C143.289 125.643 141.509 124.904 140.196 123.591C138.884 122.277 138.146 120.497 138.146 118.64C138.146 116.783 138.884 115.002 140.196 113.689C141.509 112.376 143.289 111.637 145.146 111.636H249.183C248.659 110.675 247.887 109.873 246.947 109.314C246.007 108.755 244.933 108.46 243.839 108.459H37.0411C34.3431 108.462 31.7566 109.536 29.85 111.445C27.9434 113.354 26.8725 115.942 26.8728 118.64C26.8742 121.337 27.9456 123.924 29.8518 125.833C31.7581 127.741 34.3436 128.816 37.0411 128.821H243.839C244.933 128.82 246.007 128.524 246.947 127.965C247.887 127.406 248.659 126.605 249.183 125.644L145.146 125.644Z" fill="#3A5CCC"/>
<path d="M249.321 115.495H150.406C150.254 115.495 150.109 115.434 150.002 115.327C149.895 115.22 149.835 115.075 149.835 114.923C149.835 114.772 149.895 114.627 150.002 114.52C150.109 114.412 150.254 114.352 150.406 114.352H249.321C249.473 114.352 249.618 114.412 249.725 114.519C249.832 114.626 249.893 114.772 249.893 114.923C249.893 115.075 249.832 115.221 249.725 115.328C249.618 115.435 249.473 115.495 249.321 115.495Z" fill="#CCCCCC"/>
<path d="M249.321 119.212H150.406C150.254 119.212 150.109 119.151 150.002 119.044C149.894 118.937 149.834 118.792 149.834 118.64C149.834 118.488 149.894 118.343 150.002 118.236C150.109 118.128 150.254 118.068 150.406 118.068H249.321C249.473 118.068 249.618 118.128 249.725 118.236C249.832 118.343 249.893 118.488 249.893 118.64C249.893 118.792 249.832 118.937 249.725 119.044C249.618 119.151 249.473 119.212 249.321 119.212Z" fill="#CCCCCC"/>
<path d="M249.321 122.928H150.406C150.254 122.928 150.109 122.867 150.002 122.76C149.895 122.653 149.835 122.508 149.835 122.356C149.835 122.205 149.895 122.06 150.002 121.953C150.109 121.845 150.254 121.785 150.406 121.785H249.321C249.396 121.784 249.471 121.799 249.54 121.828C249.61 121.856 249.673 121.898 249.726 121.952C249.779 122.005 249.822 122.068 249.85 122.137C249.879 122.207 249.894 122.281 249.894 122.356C249.894 122.432 249.879 122.506 249.85 122.575C249.822 122.645 249.779 122.708 249.726 122.761C249.673 122.814 249.61 122.856 249.54 122.885C249.471 122.914 249.396 122.928 249.321 122.928Z" fill="#CCCCCC"/>
<path d="M118.273 105.26C116.416 105.259 114.636 104.52 113.323 103.207C112.011 101.893 111.273 100.113 111.273 98.2559C111.273 96.3991 112.011 94.6183 113.323 93.3049C114.636 91.9915 116.416 91.253 118.273 91.2518H222.31C221.787 90.2912 221.014 89.4893 220.074 88.9303C219.134 88.3713 218.06 88.0759 216.967 88.0751H10.1681C7.47007 88.0781 4.88362 89.1521 2.97702 91.0611C1.07043 92.97 -0.000337998 95.5578 -2.23337e-06 98.2558C0.00136278 100.953 1.07268 103.54 2.9789 105.449C4.88513 107.357 7.47059 108.432 10.1681 108.437H216.967C218.06 108.436 219.134 108.14 220.074 107.581C221.014 107.022 221.787 106.221 222.31 105.26L118.273 105.26Z" fill="#CCCCCC"/>
<path d="M222.448 95.1112H123.533C123.382 95.1108 123.236 95.0504 123.13 94.9432C123.023 94.8361 122.963 94.6908 122.963 94.5394C122.963 94.388 123.023 94.2428 123.13 94.1356C123.236 94.0284 123.382 93.968 123.533 93.9677H222.448C222.6 93.9677 222.745 94.0279 222.852 94.1351C222.96 94.2423 223.02 94.3878 223.02 94.5394C223.02 94.6911 222.96 94.8365 222.852 94.9437C222.745 95.051 222.6 95.1112 222.448 95.1112Z" fill="#CCCCCC"/>
<path d="M222.448 98.8276H123.533C123.458 98.8276 123.384 98.8129 123.314 98.7841C123.245 98.7554 123.182 98.7133 123.129 98.6602C123.076 98.6071 123.033 98.5441 123.005 98.4747C122.976 98.4053 122.961 98.331 122.961 98.2559C122.961 98.1808 122.976 98.1064 123.005 98.0371C123.033 97.9677 123.076 97.9047 123.129 97.8516C123.182 97.7985 123.245 97.7564 123.314 97.7276C123.384 97.6989 123.458 97.6841 123.533 97.6841H222.448C222.523 97.6841 222.598 97.6989 222.667 97.7276C222.736 97.7564 222.799 97.7985 222.852 97.8516C222.905 97.9047 222.948 97.9677 222.976 98.0371C223.005 98.1064 223.02 98.1808 223.02 98.2559C223.02 98.331 223.005 98.4053 222.976 98.4747C222.948 98.5441 222.905 98.6071 222.852 98.6602C222.799 98.7133 222.736 98.7554 222.667 98.7841C222.598 98.8129 222.523 98.8276 222.448 98.8276Z" fill="#CCCCCC"/>
<path d="M222.448 102.544H123.533C123.381 102.544 123.236 102.484 123.129 102.377C123.021 102.269 122.961 102.124 122.961 101.972C122.961 101.821 123.021 101.675 123.129 101.568C123.236 101.461 123.381 101.401 123.533 101.401H222.448C222.523 101.401 222.598 101.415 222.667 101.444C222.736 101.473 222.799 101.515 222.852 101.568C222.905 101.621 222.948 101.684 222.976 101.754C223.005 101.823 223.02 101.897 223.02 101.972C223.02 102.047 223.005 102.122 222.976 102.191C222.948 102.261 222.905 102.324 222.852 102.377C222.799 102.43 222.736 102.472 222.667 102.501C222.598 102.529 222.523 102.544 222.448 102.544Z" fill="#CCCCCC"/>
<path d="M224.732 61.775C224.19 61.7741 223.668 61.5672 223.272 61.196C222.876 60.8248 222.636 60.3171 222.601 59.7757L222.284 54.9288C222.246 54.3627 222.436 53.805 222.81 53.3785C223.184 52.952 223.712 52.6915 224.278 52.6544L262.251 50.1676C262.85 50.1284 263.45 50.2075 264.018 50.4003C264.586 50.5932 265.111 50.896 265.562 51.2915C266.013 51.6871 266.381 52.1676 266.647 52.7056C266.912 53.2436 267.069 53.8286 267.108 54.4271C267.147 55.0257 267.068 55.6261 266.875 56.1941C266.682 56.7621 266.379 57.2866 265.984 57.7376C265.588 58.1885 265.108 58.5572 264.57 58.8225C264.032 59.0877 263.447 59.2444 262.848 59.2836L224.875 61.7703C224.828 61.7733 224.78 61.7749 224.732 61.775Z" fill="#3A5CCC"/>
<path d="M232.22 62.3999C231.667 62.3989 231.135 62.184 230.737 61.8002C230.339 61.4163 230.105 60.8932 230.083 60.3405L229.813 53.1011C229.802 52.8204 229.847 52.5404 229.945 52.277C230.043 52.0137 230.191 51.7721 230.382 51.5662C230.573 51.3603 230.803 51.1941 231.059 51.077C231.314 50.9599 231.59 50.8942 231.87 50.8838L263.097 49.7167C263.664 49.6955 264.216 49.9004 264.632 50.2864C265.047 50.6723 265.293 51.2076 265.314 51.7745L265.585 59.0138C265.595 59.2945 265.55 59.5746 265.453 59.8379C265.355 60.1013 265.206 60.3428 265.015 60.5487C264.824 60.7546 264.594 60.9209 264.339 61.038C264.084 61.1551 263.808 61.2207 263.527 61.2312L232.301 62.3983C232.274 62.3994 232.247 62.3999 232.22 62.3999Z" fill="#2F2E41"/>
<path d="M268.812 129.133H263.955C263.388 129.133 262.844 128.907 262.443 128.506C262.042 128.105 261.816 127.561 261.816 126.994V86.5113C261.816 85.9441 262.042 85.4004 262.443 84.9994C262.844 84.5984 263.388 84.3728 263.955 84.3722H268.812C269.379 84.3728 269.923 84.5984 270.324 84.9994C270.725 85.4004 270.951 85.9441 270.951 86.5113V126.994C270.951 127.561 270.725 128.105 270.324 128.506C269.923 128.907 269.379 129.133 268.812 129.133Z" fill="#2F2E41"/>
<path d="M247.252 107.734L243.099 105.217C242.614 104.922 242.266 104.447 242.131 103.897C241.996 103.346 242.085 102.764 242.378 102.278L263.363 67.6588C263.657 67.1741 264.132 66.8261 264.683 66.691C265.233 66.556 265.815 66.6449 266.301 66.9383L270.454 69.456C270.939 69.7506 271.287 70.2253 271.422 70.7761C271.557 71.3269 271.468 71.9088 271.175 72.3941L250.191 107.014C249.896 107.498 249.421 107.847 248.871 107.982C248.32 108.117 247.738 108.028 247.252 107.734Z" fill="#2F2E41"/>
<path d="M261.435 42.1239C270.704 42.1239 278.219 34.6096 278.219 25.3403C278.219 16.0709 270.704 8.55661 261.435 8.55661C252.166 8.55661 244.651 16.0709 244.651 25.3403C244.651 34.6096 252.166 42.1239 261.435 42.1239Z" fill="#3A5CCC"/>
<path d="M252.35 31.0708C251.81 30.8934 251.315 30.6024 250.896 30.2175C250.619 29.9427 250.406 29.6106 250.271 29.2446C250.136 28.8786 250.082 28.4874 250.114 28.0985C250.132 27.8214 250.213 27.5522 250.352 27.3118C250.491 27.0714 250.683 26.8663 250.915 26.7127C251.515 26.3277 252.317 26.3265 253.135 26.6867L253.104 20.1346L253.762 20.1315L253.798 27.8342L253.291 27.5152C252.703 27.1459 251.863 26.886 251.27 27.2667C251.123 27.3673 251.002 27.5004 250.915 27.6556C250.828 27.8108 250.778 27.9839 250.769 28.1615C250.747 28.4512 250.788 28.7422 250.888 29.0149C250.988 29.2875 251.146 29.5353 251.351 29.7414C252.078 30.4357 253.138 30.6528 254.347 30.8468L254.243 31.4966C253.601 31.4115 252.967 31.269 252.35 31.0708Z" fill="#2F2E41"/>
<path d="M246.319 19.8036L246.233 20.456L249.747 20.9201L249.833 20.2677L246.319 19.8036Z" fill="#2F2E41"/>
<path d="M257.412 21.2682L257.326 21.9206L260.84 22.3847L260.926 21.7323L257.412 21.2682Z" fill="#2F2E41"/>
<path d="M275.449 97.3729H247.147C246.406 97.372 245.695 97.0771 245.17 96.5527C244.646 96.0282 244.351 95.3172 244.35 94.5756L250.275 49.1398C250.28 48.4016 250.577 47.6952 251.1 47.175C251.624 46.6549 252.333 46.3632 253.071 46.3637H263.115C267.127 46.3683 270.973 47.9639 273.81 50.8007C276.646 53.6374 278.242 57.4836 278.247 61.4954V94.5756C278.246 95.3172 277.951 96.0282 277.426 96.5527C276.902 97.0771 276.191 97.372 275.449 97.3729Z" fill="#2F2E41"/>
<path d="M299.799 79.4693C299.974 79.8435 300.037 80.2602 299.98 80.6693C299.924 81.0784 299.75 81.4624 299.481 81.7752L296.305 85.4507C296.121 85.6633 295.898 85.8376 295.647 85.9637C295.396 86.0898 295.122 86.1652 294.842 86.1857C294.562 86.2061 294.28 86.1712 294.014 86.0828C293.747 85.9945 293.501 85.8545 293.288 85.6708L264.492 60.7925C264.038 60.4004 263.666 59.9227 263.396 59.3867C263.127 58.8507 262.966 58.2668 262.922 57.6685C262.878 57.0702 262.953 56.4691 263.142 55.8996C263.33 55.3301 263.629 54.8034 264.021 54.3494C264.413 53.8954 264.891 53.5232 265.427 53.2539C265.963 52.9846 266.547 52.8236 267.146 52.78C267.744 52.7364 268.345 52.8111 268.914 52.9998C269.484 53.1885 270.011 53.4876 270.464 53.8799L299.26 78.7581C299.488 78.9544 299.672 79.1968 299.799 79.4693Z" fill="#3A5CCC"/>
<path d="M293.443 71.2593C293.618 71.6334 293.681 72.0501 293.625 72.4592C293.568 72.8683 293.395 73.2523 293.125 73.5651L287.701 79.8431C287.33 80.2718 286.804 80.5357 286.238 80.577C285.672 80.6183 285.114 80.4335 284.684 80.0632L261.039 59.6345C260.826 59.4509 260.652 59.2272 260.525 58.9761C260.399 58.7251 260.324 58.4517 260.303 58.1716C260.283 57.8914 260.318 57.6099 260.406 57.3433C260.495 57.0766 260.635 56.8299 260.818 56.6174L266.242 50.3395C266.426 50.1269 266.649 49.9526 266.9 49.8265C267.151 49.7004 267.425 49.625 267.705 49.6045C267.985 49.5841 268.267 49.619 268.533 49.7074C268.8 49.7957 269.047 49.9357 269.259 50.1194L292.905 70.548C293.132 70.7444 293.316 70.9868 293.443 71.2593Z" fill="#2F2E41"/>
<path d="M261.749 15.3859C259.505 13.5292 256.506 15.2852 253.969 15.036C251.541 14.7975 249.587 12.6613 249.055 10.3625C248.434 7.6805 249.78 4.95616 251.808 3.2381C254.03 1.35641 257.012 0.771676 259.854 1.05801C263.112 1.38618 266.113 2.84467 268.815 4.62643C271.422 6.29149 273.827 8.25259 275.983 10.4706C277.915 12.5246 279.566 14.9852 280.131 17.7878C280.645 20.3347 280.344 23.1736 278.874 25.3673C278.094 26.4923 277.037 27.3972 275.806 27.9948C274.522 28.6555 273.149 29.1366 271.907 29.8797C270.03 31.0033 268.229 33.2934 268.868 35.6288C269.005 36.139 269.265 36.6077 269.626 36.9935C270.06 37.4569 270.814 36.8194 270.379 36.3548C269.616 35.5388 269.624 34.4311 270.004 33.4324C270.456 32.3065 271.278 31.3678 272.334 30.77C273.634 29.9939 275.075 29.5026 276.409 28.7929C277.686 28.1433 278.787 27.1949 279.619 26.0283C281.188 23.7579 281.615 20.8339 281.198 18.1444C280.747 15.2339 279.197 12.6108 277.276 10.4245C275.184 8.04516 272.633 6.04593 270.031 4.2558C267.24 2.33497 264.166 0.724611 260.787 0.18523C257.859 -0.282329 254.701 0.0997727 252.179 1.73875C249.825 3.26863 248.047 5.85718 247.92 8.7143C247.879 10.014 248.186 11.3009 248.808 12.4428C249.43 13.5847 250.345 14.5402 251.458 15.211C252.601 15.8654 253.92 16.1447 255.229 16.0094C256.63 15.893 258.025 15.437 259.438 15.5294C260.078 15.556 260.691 15.7903 261.185 16.1968C261.675 16.6024 262.235 15.7882 261.749 15.3859Z" fill="#2F2E41"/>
<path d="M242.013 102.863C242.019 102.826 242.027 102.789 242.035 102.752C242.093 102.477 242.206 102.217 242.365 101.986C242.525 101.755 242.729 101.557 242.966 101.406L247.048 98.7731C247.525 98.4662 248.104 98.3611 248.658 98.4807C249.213 98.6003 249.697 98.935 250.005 99.4112L262.596 118.933C262.904 119.41 263.009 119.989 262.89 120.543C262.77 121.098 262.435 121.582 261.958 121.89L257.876 124.523C257.399 124.829 256.82 124.935 256.266 124.815C255.711 124.695 255.227 124.361 254.919 123.884L242.328 104.363C242.04 103.92 241.928 103.385 242.013 102.863Z" fill="#2F2E41"/>
</g>
<defs>
<clipPath id="clip0_20_188">
<rect width="300" height="148.547" fill="white"/>
</clipPath>
</defs>
</svg>
