<svg width="300" height="154" viewBox="0 0 300 154" fill="none" xmlns="http://www.w3.org/2000/svg">
<g clip-path="url(#clip0_12_4)">
<path d="M286.684 84.7771L285.744 92.2603L283.412 110.847H236.556C236.922 106.681 237.422 100.685 237.957 94.2119C238.009 93.5654 238.065 92.9149 238.117 92.2603C239.457 75.9888 240.923 57.5758 240.923 57.5758L247.083 58.7234L259.035 60.9457L263.905 61.8508L276.946 64.2792C283.449 65.4873 287.921 74.9019 286.684 84.7771Z" fill="#F2F2F2"/>
<path d="M251.242 27.4654L257.004 37.5485L245.929 45.397L241.205 33.0029L251.242 27.4654Z" fill="#FFB6B6"/>
<path d="M243.906 37.0045C251.79 37.0045 258.181 30.6136 258.181 22.7301C258.181 14.8465 251.79 8.45563 243.906 8.45563C236.023 8.45563 229.632 14.8465 229.632 22.7301C229.632 30.6136 236.023 37.0045 243.906 37.0045Z" fill="#FFB6B6"/>
<path d="M242.882 25.9212C241.748 24.1962 242.193 23.2939 241.244 22.66C241.244 22.66 240.862 22.4049 238.129 22.2594C237.518 17.8558 236.754 17.3217 236.754 17.3217C235.873 16.7062 234.567 16.9062 233.754 17.2826C232.035 18.0788 232.235 19.7986 231.077 20.1277C229.479 20.5823 226.57 18.0194 226.283 15.0854C226.05 12.6921 227.591 10.3676 228.203 10.4906C228.809 10.6125 230.261 8.75908 231.045 8.78767C231.58 8.80719 233.768 7.85649 234.356 7.93082C234.999 8.012 237.117 9.11767 237.206 8.86505C237.819 7.10965 237.639 6.62259 238.16 6.12041C239.082 5.23055 240.591 5.85022 242.959 6.18291C247.83 6.8674 248.68 5.26126 251.176 6.34992C252.437 6.89985 253.492 8.38296 255.551 11.3267C258.43 15.4435 259.87 17.5019 259.879 19.9028C259.889 22.3512 258.703 22.1958 258.182 25.8205C257.603 29.8554 258.834 31.7003 257.489 33.0112C256.449 34.0243 254.335 34.2648 253.224 33.3756C251.323 31.8533 253.811 28.1799 251.707 25.4962C250.415 23.8487 247.817 23.1157 246.627 23.9301C245.282 24.8508 246.023 27.5534 245.077 27.8097C244.267 28.0292 243.079 26.2218 242.882 25.9212Z" fill="#2F2E41"/>
<path d="M276.133 82.1417C275.735 88.9494 274.154 91.0987 273.6 99.1385C273.479 100.904 273.406 102.952 273.406 105.396C273.406 106.019 273.409 106.621 273.409 107.21C273.409 108.462 273.385 109.646 273.24 110.847C273.129 111.806 272.939 112.771 272.624 113.789H241.88C241.877 113.782 241.877 113.775 241.873 113.768C241.693 112.986 241.579 112.238 241.492 111.522C241.465 111.293 241.44 111.069 241.42 110.847C241.392 110.587 241.368 110.331 241.344 110.079C241.25 109.072 241.157 108.12 240.935 107.21C240.638 105.953 240.098 104.77 238.99 103.627C238.537 103.16 238.084 102.797 237.64 102.478C237.554 102.419 237.471 102.361 237.384 102.302C236.159 101.461 235 100.855 233.996 99.1385C233.979 99.1143 233.965 99.0866 233.951 99.0625C233.778 98.7613 233.328 97.9721 233.003 96.9201C232.66 95.8264 232.452 94.4523 232.826 93.0473C233.716 89.7178 237.01 89.3856 239.703 86.0215C239.994 85.6581 240.281 85.2566 240.555 84.8101C241.773 82.8304 242.101 81.0862 242.489 79.013C242.551 78.6772 242.607 78.345 242.652 78.0232C242.687 77.7809 242.718 77.5421 242.742 77.3067C242.956 75.3305 242.852 73.6277 242.6 72.1049C241.776 67.1176 239.347 64.0305 241.063 59.5554C241.603 58.1504 242.368 57.0947 243.14 56.1914C244.773 54.2774 246.452 53.035 246.161 50.564C245.867 48.072 243.977 47.7293 243.766 45.5523C243.659 44.4519 244.019 43.2924 244.694 42.1537V42.1504C246.854 38.4851 252.246 35.1106 255.672 35.2179C256.305 35.2354 256.866 35.3771 257.333 35.6506C259.026 36.6473 258.32 38.8242 260.912 41.8769C262.84 44.1438 265.02 45.0506 265.847 45.4797C269.125 47.1895 271.79 52.2321 273.6 58.6798C273.614 58.7284 273.627 58.7767 273.641 58.8287C274.759 62.8677 275.548 67.4534 275.94 72.1049C276.105 74.0742 276.202 76.054 276.223 78.0128C276.241 79.5771 276.206 80.934 276.133 82.1417Z" fill="#EDE538"/>
<path d="M253.111 105.465L252.484 107.21L252.09 108.303L251.176 110.847L250.117 113.789H243.309L244.451 110.847L244.981 109.476L245.86 107.21L247.335 103.403L253.111 105.465Z" fill="#FFB6B6"/>
<path d="M273.707 58.0845C273.69 58.3096 273.666 58.5587 273.641 58.8287C273.372 61.5767 272.734 66.4947 271.804 72.105C271.312 75.064 270.738 78.2171 270.09 81.3492C268.699 88.1084 266.969 94.764 265.013 99.1385C264.664 99.9277 264.304 100.641 263.937 101.271C263.656 101.752 263.362 102.226 263.054 102.693C262.057 104.226 260.939 105.68 259.78 107.037C259.735 107.095 259.683 107.151 259.631 107.21C259.445 107.431 259.251 107.649 259.057 107.867C258.108 108.937 257.139 109.933 256.202 110.847C255.059 111.961 253.959 112.948 252.972 113.789H241.918L241.873 113.768L240.281 113.062C240.281 113.062 240.734 112.529 241.492 111.522C241.648 111.318 241.814 111.093 241.994 110.847C242.216 110.546 242.455 110.214 242.711 109.854C243.244 109.099 243.849 108.213 244.5 107.21C245.76 105.268 247.196 102.88 248.646 100.115C248.813 99.7927 248.982 99.4674 249.152 99.1385C249.155 99.1282 249.162 99.1177 249.165 99.1074C249.453 98.5467 249.737 97.9687 250.02 97.3803C252.426 92.3758 253.114 88.2226 253.312 86.8764C253.589 84.9729 253.973 82.3112 253.869 79.3833C253.799 77.4522 253.519 75.4101 252.851 73.382V73.3786C252.713 72.9529 252.557 72.5273 252.381 72.1049C252.066 71.347 251.692 70.5994 251.249 69.8622C249.293 66.6159 247.705 66.4809 246.442 62.9437C246.068 61.8951 245.22 59.5279 245.479 57.029V57.0256C245.511 56.7175 245.562 56.4061 245.632 56.0944V56.0911C245.649 56.0045 245.673 55.9146 245.698 55.8281C245.895 55.0632 246.22 54.3051 246.715 53.5852C247.681 52.1872 248.999 51.3564 250.179 50.8616L250.183 50.858C251.546 50.2906 252.723 50.1694 252.952 50.1486C258.008 49.6987 261.929 53.9487 264.072 56.271C264.899 57.1674 265.657 57.9185 266.349 58.531C271.738 63.3418 273.216 60.2684 273.6 58.6799C273.658 58.4341 273.69 58.2231 273.707 58.0845Z" fill="#EDE538"/>
<path d="M273.724 57.9047C273.724 57.9219 273.721 57.9807 273.707 58.0777C273.714 58.0257 273.718 57.9738 273.721 57.9253C273.721 57.915 273.721 57.9081 273.724 57.9047Z" fill="#EDE538"/>
<path d="M246.237 130.934H60.7124C58.9887 130.934 57.5837 132.336 57.5837 134.06C57.5837 135.787 58.9887 137.188 60.7124 137.188H246.237C247.961 137.188 249.363 135.787 249.363 134.06C249.363 132.336 247.961 130.934 246.237 130.934Z" fill="#E6E6E6"/>
<path d="M205.066 147.09H101.88C100.157 147.09 98.7553 148.492 98.7553 150.215C98.7553 151.939 100.157 153.344 101.88 153.344H205.066C206.789 153.344 208.194 151.939 208.194 150.215C208.194 148.492 206.789 147.09 205.066 147.09Z" fill="#E6E6E6"/>
<path d="M81.3567 28.1289L93.0491 23.2082L98.0642 33.4892L85.7772 38.5043L81.3567 28.1289Z" fill="#FFB6B6"/>
<path opacity="0.1" d="M81.3567 28.1289L93.0491 23.2082L98.0642 33.4892L85.7772 38.5043L81.3567 28.1289Z" fill="black"/>
<path d="M83.0189 24.2112L94.5536 37.5012C94.5536 37.5012 86.5295 62.8275 78.5053 65.0843C70.4812 67.3411 55.6866 78.3743 55.6866 78.3743L37.1307 66.3381L46.1579 53.048C46.1579 53.048 67.9736 23.2082 73.741 23.2082C79.5083 23.2082 83.0189 24.2112 83.0189 24.2112Z" fill="#2FC1B0"/>
<path d="M67.4345 110.847H40.5837L38.8861 108.578L31.9552 99.3123L30.3604 97.1809C30.3604 97.1809 24.3423 86.1477 25.596 76.1175C26.8498 66.0873 39.8891 63.8305 39.8891 63.8305H40.4257L56.3888 77.8577L55.4359 90.9121L60.4911 99.3123L67.4345 110.847Z" fill="#2F2E41"/>
<path d="M46.0827 110.847H38.886V100.19L46.0827 110.847Z" fill="#2F2E41"/>
<path d="M201.305 94.6684L200.41 99.3124L198.188 110.847H153.556C153.905 108.262 154.381 104.541 154.89 100.524C154.941 100.122 154.993 99.7186 155.043 99.3124C156.32 89.2145 157.716 77.7875 157.716 77.7875L163.584 78.4997L174.968 79.8789L179.607 80.4405L192.03 81.9476C198.223 82.6973 202.484 88.5399 201.305 94.6684Z" fill="#F2F2F2"/>
<path d="M264.468 110.847H240.26C240.628 110.413 240.837 110.163 240.837 110.163L248.093 108.964L263.046 106.496C263.046 106.496 263.728 108.259 264.468 110.847Z" fill="#2F2E41"/>
<path d="M161.785 33.1444L172.312 48.0327L153.949 48.5812L151.977 34.5896L161.785 33.1444Z" fill="#A0616A"/>
<path opacity="0.1" d="M161.785 33.1444L172.312 48.0327L153.949 48.5812L151.977 34.5896L161.785 33.1444Z" fill="black"/>
<path d="M109.867 63.992C108.516 60.0953 105.411 57.6336 102.931 58.4937C100.451 59.3538 99.5365 63.2094 100.888 67.1073C101.407 68.6718 102.293 70.0894 103.471 71.2413L109.403 87.6797L117.058 84.7316L110.398 68.8393C110.61 67.2043 110.428 65.5422 109.867 63.992Z" fill="#A0616A"/>
<path d="M181.129 56.4057L181.114 71.5788L179.703 77.1832L176.799 88.7104L174.685 99.3124L173.11 107.211L172.548 110.032C172.125 110.315 171.703 110.586 171.282 110.847H134.604C132.52 109.596 131.354 108.623 131.354 108.623C131.354 108.623 131.931 108.081 132.591 107.211C133.704 105.742 135.051 103.334 134.226 101.035C134.053 100.554 134.007 99.9668 134.06 99.3124C134.396 94.9944 138.925 87.6924 138.925 87.6924L137.987 76.8547L137.576 72.1054L140.475 48.9481L149.926 43.4541L151.558 43.2962L167.664 42.4261L174.321 42.8097L174.624 42.8925L181.129 56.4057Z" fill="#F64E4E"/>
<path d="M181.844 110.847H173.82L173.466 107.211L173.459 107.138L175.731 106.983L181.641 106.579L181.744 108.756L181.824 110.426L181.844 110.847Z" fill="#FFB6B6"/>
<path d="M183.819 60.0742L187.19 79.8513L184.439 99.3124L184.011 102.341L183.253 107.69L183.02 109.335L183.028 109.513L183.085 110.847H173.557L173.205 107.211L173.175 106.885L172.458 99.4377L172.446 99.3124L170.924 83.5198L173.908 72.1054L174.128 71.2654V71.2629L175.427 51.719L174.421 42.8373L174.411 42.7545C174.431 42.7671 174.449 42.7796 174.469 42.7922C174.521 42.8248 174.574 42.8574 174.624 42.8925C180.482 46.6087 183.972 53.1283 183.819 60.0742Z" fill="#F64E4E"/>
<path d="M143.889 52.7378L140.225 48.9478C140.225 48.9478 132.381 52.4841 131.99 54.446C131.599 56.4079 117.749 85.2228 117.749 85.2228L111.723 69.1298L103.88 74.3663C103.88 74.3663 110.174 99.3517 116.059 100.525C121.945 101.698 141.671 70.952 141.671 70.952L143.889 52.7378Z" fill="#F64E4E"/>
<path d="M292.673 99.1385H7.32346C3.28454 99.1385 0 102.426 0 106.465C0 110.504 3.28454 113.789 7.32346 113.789H292.673C296.712 113.789 300 110.504 300 106.465C300 102.426 296.712 99.1385 292.673 99.1385Z" fill="#E6E6E6"/>
<path d="M179.459 76.8126L178.904 102.701C178.85 105.208 176.803 107.211 174.297 107.211H126.673C124.225 107.211 122.205 105.298 122.071 102.854L120.656 76.9654C120.512 74.3253 122.614 72.1054 125.258 72.1054H174.851C177.435 72.1054 179.514 74.2294 179.459 76.8126Z" fill="#3F3D56"/>
<path d="M102.578 34.3782C108.871 34.3782 113.972 29.2769 113.972 22.9841C113.972 16.6913 108.871 11.59 102.578 11.59C96.285 11.59 91.1837 16.6913 91.1837 22.9841C91.1837 29.2769 96.285 34.3782 102.578 34.3782Z" fill="#FFB6B6"/>
<path d="M83.5204 52.7973L84.7742 66.3381L93.2999 100.692L85.9343 103.273L73.4902 65.8366L71.7715 50.7913L83.5204 52.7973Z" fill="#FFB6B6"/>
<path d="M80.129 76.8126L79.5743 102.701C79.5206 105.208 77.4736 107.211 74.9669 107.211H27.3431C24.8957 107.211 22.8752 105.298 22.7416 102.854L21.3263 76.9654C21.182 74.3253 23.2838 72.1054 25.9278 72.1054H75.5217C78.1055 72.1054 80.1844 74.2294 80.129 76.8126Z" fill="#3F3D56"/>
<path d="M94.6574 107.386C99.6272 107.386 103.656 105.604 103.656 103.406C103.656 101.208 99.6272 99.4259 94.6574 99.4259C89.6877 99.4259 85.6589 101.208 85.6589 103.406C85.6589 105.604 89.6877 107.386 94.6574 107.386Z" fill="#FFB6B6"/>
<path d="M65.8422 54.8675L70.9827 27.471C70.9827 27.471 85.2757 25.465 85.7772 30.2293C86.2788 34.9937 85.4189 58.2777 85.4189 58.2777L65.8422 54.8675Z" fill="#2FC1B0"/>
<path d="M97.9783 24.7757C97.9783 24.7757 105.027 22.2601 108 20.9066C110.973 19.5531 116.88 28.9936 117.011 24.0078C117.142 19.0219 115.101 16.9311 115.101 16.9311C115.101 16.9311 114.592 6.02383 103.603 7.3875C103.603 7.3875 106.02 1.93048 98.0859 1.08665C90.1519 0.24282 77.8084 19.4024 78.9138 22.2657C80.0193 25.129 81.3444 27.4962 78.2082 30.5577C75.0719 33.6192 69.1992 50.8975 73.6674 55.547C78.1356 60.1965 78.4288 62.2141 75.3674 65.1066C72.3059 67.9992 65.0695 74.2887 72.8938 75.3805C80.718 76.4724 72.1779 75.6569 78.011 70.5261C83.8441 65.3953 92.3558 65.6048 89.1777 57.3728C85.9995 49.1409 91.5211 37.3445 90.8302 35.5549C90.1393 33.7654 92.3782 22.4015 92.3782 22.4015C92.3782 22.4015 97.5887 21.636 97.9783 24.7757Z" fill="#2F2E41"/>
<path d="M156.156 38.5332C163.006 38.5332 168.559 32.9801 168.559 26.1299C168.559 19.2797 163.006 13.7266 156.156 13.7266C149.305 13.7266 143.752 19.2797 143.752 26.1299C143.752 32.9801 149.305 38.5332 156.156 38.5332Z" fill="#A0616A"/>
<path d="M157.146 9.45447C156.787 9.66397 156.306 9.34699 156.191 8.94767C156.076 8.54834 156.21 8.12437 156.343 7.73063L157.012 5.74848C157.487 4.34269 157.99 2.88779 159.018 1.8178C160.57 0.202831 163.035 -0.20801 165.255 0.0896299C168.105 0.471859 170.918 2.01533 172.243 4.56766C173.569 7.11999 173.004 10.6814 170.609 12.2738C174.023 16.1859 175.212 20.5457 175.025 25.734C174.837 30.9223 169.183 35.6973 165.496 39.3523C164.672 38.8531 163.924 36.5139 164.376 35.6642C164.829 34.8144 164.18 33.8299 164.741 33.0472C165.302 32.2644 165.771 33.5108 165.204 32.7325C164.846 32.2414 166.243 31.1115 165.711 30.8176C163.139 29.3958 162.283 26.1899 160.668 23.7348C158.72 20.7736 155.385 18.7682 151.856 18.4355C149.911 18.2523 147.858 18.5842 146.265 19.7128C144.671 20.8415 143.639 22.8584 144.009 24.7758C143.052 23.8041 142.576 22.3801 142.755 21.0282C142.935 19.6762 143.767 18.4261 144.944 17.7381C144.228 15.3703 144.842 12.6466 146.504 10.8143C148.165 8.98207 154.907 9.29414 157.333 9.77636L157.146 9.45447Z" fill="#2F2E41"/>
<path d="M157.522 18.5074C160.736 18.8543 163.056 21.6379 165.015 24.2085C166.144 25.6902 167.327 27.3264 167.299 29.1891C167.27 31.0723 166.011 32.6876 165.409 34.4724C164.426 37.3896 165.384 40.8605 167.726 42.8593C165.412 43.2983 162.911 41.5636 162.512 39.2429C162.047 36.5412 164.095 33.9337 163.852 31.2031C163.639 28.7974 161.743 26.946 160.131 25.1472C158.519 23.3485 157.006 20.9616 157.747 18.6631L157.522 18.5074Z" fill="#2F2E41"/>
<path d="M205.563 100.706C202.38 102.517 200.734 105.626 201.887 107.652C203.039 109.677 206.553 109.851 209.737 108.04C211.019 107.334 212.113 106.331 212.928 105.115L226.317 97.2741L222.504 91.0692L209.709 99.4579C208.247 99.5369 206.825 99.965 205.563 100.706Z" fill="#FFB6B6"/>
<path d="M250.897 43.207C250.497 43.0484 246.986 41.7188 243.781 43.4742C240.099 45.4907 239.531 50.0938 239.331 51.7083C238.87 55.4379 240.228 56.2738 240.514 60.0495C241.05 67.1134 242.464 59.0548 240.207 62.2792C239.425 63.3953 231.444 80.6909 227.043 84.0786C218.483 90.6674 213.047 95.3074 213.047 95.3074L219.253 102.049C219.253 102.049 229.059 99.4357 237.726 93.8079C246.617 88.035 251.062 85.1486 254.501 79.502C254.797 79.0157 261.884 66.9816 258.078 53.6747C257.21 50.6395 255.619 45.0782 250.897 43.207Z" fill="#EDE538"/>
<path d="M282.942 76.8126L282.387 102.701C282.333 105.208 280.286 107.211 277.78 107.211H230.156C227.708 107.211 225.688 105.298 225.554 102.854L224.139 76.9654C223.995 74.3253 226.096 72.1054 228.74 72.1054H278.334C280.918 72.1054 282.997 74.2294 282.942 76.8126Z" fill="#3F3D56"/>
</g>
<defs>
<clipPath id="clip0_12_4">
<rect width="300" height="153.344" fill="white"/>
</clipPath>
</defs>
</svg>
