<svg width="300" height="200" viewBox="0 0 300 200" fill="none" xmlns="http://www.w3.org/2000/svg">
<g clip-path="url(#clip0_1_7)">
<path fill-rule="evenodd" clip-rule="evenodd" d="M75.7263 42.7177C61.0657 42.7177 49.073 54.6337 49.073 69.2003C49.073 83.767 61.0657 95.6833 75.7263 95.6833C78.6673 95.6833 81.076 98.0763 81.076 100.999C81.076 103.921 78.6673 106.314 75.7263 106.314H61.7797C54.6277 106.314 48.7753 112.129 48.7753 119.235C48.7753 126.341 54.6277 132.156 61.7797 132.156C67.965 132.156 73.026 137.185 73.026 143.33C73.026 154.543 82.2593 163.718 93.5447 163.718H213.995C228.655 163.718 240.648 151.801 240.648 137.235C240.648 122.668 228.655 110.752 213.995 110.752H211.417C208.476 110.752 206.067 108.362 206.067 105.437C206.067 102.514 208.473 100.121 211.417 100.121H228.771C235.923 100.121 241.775 94.3063 241.775 87.2003C241.775 80.103 235.938 74.2943 228.798 74.2793H214.834C208.648 74.2793 203.587 69.2507 203.587 63.105C203.587 51.892 194.354 42.7177 183.068 42.7177H75.7263Z" fill="url(#paint0_linear_1_7)"/>
<path d="M126.029 173.323H247.57C251.176 173.323 254.1 170.399 254.1 166.793V90.6397C254.1 87.0337 251.176 84.1093 247.57 84.1093H126.029C122.423 84.1093 119.499 87.0337 119.499 90.6397V166.793C119.499 170.399 122.423 173.323 126.029 173.323Z" fill="white" stroke="#E1E4E5" stroke-width="2.819"/>
<path d="M119.499 90.6397C119.499 91.1901 119.717 91.7179 120.107 92.1071C120.496 92.4962 121.024 92.7149 121.574 92.715H252.024C252.575 92.715 253.103 92.4964 253.492 92.1072C253.881 91.718 254.1 91.1901 254.1 90.6397C254.1 87.0337 251.176 84.1093 247.57 84.1093H126.029C122.423 84.1093 119.499 87.0337 119.499 90.6397Z" fill="white" stroke="#E1E4E5" stroke-width="2.819"/>
<path d="M139.795 90.2223C139.598 90.2223 139.402 90.1834 139.22 90.1079C139.038 90.0324 138.872 89.9216 138.732 89.782C138.593 89.6424 138.482 89.4767 138.406 89.2943C138.331 89.1119 138.292 88.9164 138.292 88.719C138.292 88.5216 138.331 88.3261 138.406 88.1437C138.482 87.9613 138.593 87.7956 138.732 87.656C138.872 87.5164 139.038 87.4056 139.22 87.3301C139.402 87.2545 139.598 87.2157 139.795 87.2157C140.194 87.2157 140.576 87.3741 140.858 87.656C141.14 87.9379 141.299 88.3203 141.299 88.719C141.299 89.1177 141.14 89.5001 140.858 89.782C140.576 90.0639 140.194 90.2223 139.795 90.2223ZM133.532 90.2223C133.334 90.2223 133.139 90.1834 132.956 90.1078C132.774 90.0323 132.608 89.9215 132.469 89.7819C132.329 89.6423 132.218 89.4766 132.143 89.2941C132.067 89.1117 132.028 88.9163 132.029 88.7188C132.029 88.5214 132.067 88.3259 132.143 88.1435C132.219 87.9612 132.329 87.7954 132.469 87.6559C132.609 87.5163 132.774 87.4056 132.957 87.33C133.139 87.2545 133.335 87.2156 133.532 87.2157C133.931 87.2157 134.313 87.3741 134.595 87.6561C134.877 87.9381 135.035 88.3205 135.035 88.7192C135.035 89.1179 134.877 89.5002 134.595 89.7821C134.313 90.064 133.93 90.2224 133.532 90.2223ZM127.519 90.2223C127.12 90.2223 126.738 90.0639 126.456 89.7819C126.174 89.4999 126.015 89.1175 126.016 88.7188C126.016 88.3201 126.174 87.9378 126.456 87.6559C126.738 87.374 127.12 87.2156 127.519 87.2157C127.716 87.2157 127.912 87.2546 128.094 87.3302C128.277 87.4057 128.442 87.5165 128.582 87.6561C128.722 87.7957 128.832 87.9614 128.908 88.1438C128.983 88.3263 129.022 88.5217 129.022 88.7192C129.022 88.9166 128.983 89.1121 128.908 89.2945C128.832 89.4768 128.721 89.6426 128.582 89.7821C128.442 89.9217 128.276 90.0324 128.094 90.108C127.912 90.1835 127.716 90.2224 127.519 90.2223Z" fill="#E1E4E5"/>
<path d="M200.304 107.512C200.304 107.512 206.044 106.586 207.586 116.863C209.299 128.287 213.872 126.408 221.135 135.684C225.379 141.105 220.913 150.677 211.835 150.487C202.758 150.302 194.56 147.641 189.338 148.779C184.117 149.918 183.83 136.355 188.982 132.171C194.134 127.986 183.15 115.969 189.843 110.618C196.536 105.267 200.304 107.512 200.304 107.512Z" fill="#1F1F20"/>
<path d="M186.344 138.216L180.414 159.893L182.529 157.458C181.747 157.875 180.84 158.194 179.835 158.421C178.831 158.648 177.738 158.778 176.595 158.838C175.452 158.898 174.262 158.889 173.04 158.838C171.823 158.787 170.577 158.694 169.314 158.588H169.309C168.414 158.512 167.525 158.794 166.837 159.373C166.15 159.952 165.72 160.78 165.643 161.675C165.49 163.453 166.754 165.027 168.485 165.309C169.79 165.517 171.114 165.712 172.475 165.869C173.836 166.027 175.229 166.142 176.674 166.175C178.118 166.207 179.613 166.152 181.159 165.929C182.701 165.707 184.302 165.304 185.867 164.629C186.867 164.198 187.579 163.374 187.903 162.416L187.978 162.189L195.092 140.868C195.893 138.47 194.597 135.883 192.199 135.082C189.801 134.281 187.214 135.577 186.413 137.975C186.39 138.054 186.362 138.142 186.344 138.216Z" fill="#776559"/>
<path d="M215.844 163.8C215.844 163.8 216.061 165.43 213.876 165.86L191.144 166.328C191.144 166.328 189.616 165.536 189.917 163.638C189.917 163.634 199.578 158.37 215.844 163.8Z" fill="#1F1F20"/>
<path d="M191.204 164.305C196.231 164.064 206.118 164.082 214.062 167.137C213.779 165.539 213.561 163.93 213.409 162.314C208.396 161.976 196.101 161.296 191.269 162.374L191.204 164.305Z" fill="#F8AE9D"/>
<path d="M190.588 171.839C204.642 173.497 215.122 170.273 215.122 170.273C214.516 168.895 214.072 167.344 213.757 165.933C213.476 164.662 213.258 163.377 213.105 162.084C208.097 161.815 195.814 161.272 190.986 162.132L190.921 163.673L190.588 171.839Z" fill="#776559"/>
<path d="M189.815 159.565V159.597C189.824 159.685 189.829 159.777 189.834 159.875C189.857 160.245 189.875 160.689 189.889 161.194C189.903 161.601 189.908 162.046 189.912 162.522C189.912 162.879 189.917 163.249 189.917 163.633C196.62 160.74 210.326 162.796 215.844 163.8C215.788 163.522 215.737 163.249 215.686 162.981C215.649 162.782 215.617 162.587 215.58 162.393C215.214 160.277 215.02 158.375 214.955 156.676L214.941 156.222C214.886 153.7 215.159 150.112 215.714 146.418C215.751 146.164 215.793 145.909 215.83 145.659L215.913 145.159C216.115 143.932 216.351 142.711 216.621 141.498C216.714 141.09 216.793 140.678 216.858 140.271C216.932 139.817 216.987 139.364 217.029 138.915C217.131 137.776 217.121 136.665 216.973 135.633C216.709 133.795 215.992 132.212 214.663 131.194C213.914 130.62 212.965 130.222 211.789 130.064C211.405 130.013 211.025 129.962 210.659 129.921C209.637 129.799 208.612 129.697 207.586 129.615C207.303 129.592 207.04 129.574 206.803 129.555C206.382 129.524 205.961 129.498 205.54 129.476C205.438 129.472 205.382 129.467 205.382 129.467L195.092 132.314L194.111 132.582C193.694 132.712 193.301 132.837 192.935 132.957C192.028 133.258 191.255 133.545 190.588 133.828C189.764 134.179 189.107 134.522 188.588 134.883C186.32 136.452 186.644 138.262 186.654 141.826V142.072C186.654 142.34 186.649 142.609 186.64 142.877C186.631 143.212 186.612 143.547 186.584 143.882C186.537 144.548 186.47 145.214 186.385 145.877C185.894 149.885 184.978 153.459 185.89 155.306C186.867 157.287 188.857 158.861 189.561 159.379C189.718 159.5 189.815 159.565 189.815 159.565Z" fill="#D7AA2B"/>
<path d="M208.715 161.999C208.76 161.99 208.8 161.968 208.832 161.936C208.864 161.904 208.886 161.863 208.896 161.819C208.902 161.79 208.902 161.759 208.896 161.73C208.89 161.7 208.878 161.672 208.862 161.647C208.845 161.622 208.823 161.601 208.798 161.584C208.773 161.567 208.745 161.556 208.715 161.55C204.026 160.625 200.652 158.972 200.619 158.954C200.565 158.927 200.503 158.923 200.446 158.942C200.388 158.961 200.341 159.002 200.314 159.055C200.287 159.109 200.283 159.172 200.302 159.229C200.321 159.286 200.362 159.334 200.415 159.361C200.448 159.379 203.873 161.06 208.627 161.995C208.66 162.004 208.687 162.004 208.715 161.999ZM204.924 130.305C204.924 130.305 204.003 133.791 200.522 134.758C196.097 135.985 195.43 134.499 195.43 134.499C195.541 133.865 195.578 133.244 195.551 132.587C195.539 132.332 195.519 132.077 195.49 131.823C195.412 131.11 195.264 130.333 195.055 129.444C195.009 129.236 194.953 129.018 194.898 128.796L194.893 128.768C197.921 127.63 200.295 125.921 201.749 123.394L202.179 123.056L202.471 122.825L202.554 123.001L202.568 123.588C202.628 126.352 203.096 127.986 204.924 130.305Z" fill="#776559"/>
<path d="M199.893 126.069C199.425 127.643 198.231 130.472 195.49 131.819C195.412 131.106 195.264 130.328 195.055 129.439C195.009 129.231 194.954 129.013 194.898 128.791C194.958 128.791 195.023 128.787 195.088 128.782C196.8 128.68 198.536 127.569 199.893 126.069Z" fill="#776559"/>
<path d="M205.693 117.844C206.017 119.52 204.989 121.848 202.809 122.334L202.799 122.339L202.753 122.348C202.735 122.45 202.712 122.552 202.688 122.658C202.679 122.704 202.665 122.751 202.656 122.797C202.656 122.802 202.656 122.806 202.651 122.811C201.832 125.921 198.096 128.379 195.912 128.865C195.129 129.037 194.569 128.963 194.393 128.958C191.968 128.903 190.926 125.838 190.829 123.362C190.814 123.019 190.82 122.676 190.848 122.334C190.848 122.311 190.852 122.288 190.852 122.269C190.852 122.269 189.426 119.057 188.959 117.622C188.061 114.844 189.135 111.641 195.264 109.873C201.392 108.105 203.633 111.687 204.466 113.655C204.605 113.983 204.929 116.034 204.651 116.427C205.294 116.617 205.581 117.279 205.693 117.844Z" fill="#776559"/>
<path d="M195.227 126.301C195.532 126.162 195.652 125.898 195.662 125.884C195.694 125.806 195.662 125.718 195.583 125.685C195.547 125.67 195.506 125.668 195.469 125.682C195.431 125.696 195.401 125.724 195.384 125.759C195.375 125.778 195.217 126.102 194.773 126.079C194.733 126.077 194.693 126.091 194.663 126.118C194.632 126.144 194.614 126.182 194.611 126.222C194.606 126.306 194.671 126.38 194.754 126.384C194.916 126.395 195.078 126.366 195.227 126.301ZM202.804 122.334L202.795 122.339L202.749 122.348C202.73 122.45 202.707 122.552 202.684 122.658C202.675 122.704 202.661 122.751 202.651 122.797C202.651 122.802 202.651 122.806 202.647 122.811C202.388 122.82 202.059 122.788 201.735 122.639C201.529 122.545 201.344 122.41 201.193 122.241C201.173 122.219 201.158 122.193 201.148 122.164C201.138 122.136 201.133 122.106 201.135 122.076C201.137 122.045 201.144 122.016 201.157 121.989C201.171 121.962 201.189 121.937 201.212 121.917C201.234 121.897 201.26 121.881 201.289 121.87C201.317 121.86 201.347 121.855 201.378 121.857C201.408 121.859 201.438 121.867 201.465 121.88C201.492 121.894 201.516 121.913 201.536 121.936C201.704 122.119 201.923 122.248 202.165 122.306C202.303 122.341 202.445 122.357 202.587 122.352C202.67 122.343 202.744 122.339 202.804 122.334Z" fill="#776559"/>
<path opacity="0.5" d="M192.009 122.63C192.051 122.88 191.542 123.186 190.824 123.357C190.81 123.014 190.816 122.671 190.843 122.329C191.482 122.288 191.968 122.403 192.009 122.63Z" fill="#776559"/>
<path d="M193.625 123.135C193.59 123.142 193.553 123.141 193.518 123.13L192.57 122.792C192.538 122.781 192.51 122.762 192.488 122.737C192.467 122.712 192.451 122.681 192.445 122.649C192.438 122.616 192.44 122.582 192.45 122.55C192.461 122.519 192.479 122.49 192.505 122.468C193.102 121.94 193.389 121.251 193.412 120.297C193.414 120.246 193.436 120.198 193.473 120.162C193.51 120.127 193.56 120.107 193.611 120.107C193.662 120.11 193.71 120.132 193.746 120.169C193.781 120.206 193.801 120.255 193.801 120.306C193.778 121.251 193.518 121.964 192.991 122.538L193.648 122.769C193.696 122.786 193.735 122.822 193.758 122.867C193.78 122.913 193.784 122.966 193.768 123.014C193.757 123.045 193.738 123.072 193.713 123.093C193.687 123.115 193.657 123.129 193.625 123.135Z" fill="#776559"/>
<path opacity="0.5" d="M195.888 121.918C195.939 122.205 196.689 122.311 197.564 122.158C198.439 122.005 199.11 121.649 199.059 121.367C199.008 121.08 198.258 120.973 197.384 121.126C196.509 121.279 195.842 121.631 195.888 121.918Z" fill="#776559"/>
<path d="M202.346 121.066C202.391 121.049 202.429 121.02 202.457 120.981C202.484 120.942 202.499 120.896 202.499 120.848C202.499 119.214 204.248 118.168 204.267 118.154C204.293 118.139 204.316 118.119 204.335 118.095C204.353 118.071 204.367 118.043 204.375 118.014C204.382 117.985 204.384 117.954 204.38 117.924C204.376 117.894 204.366 117.865 204.35 117.839C204.335 117.813 204.315 117.79 204.291 117.771C204.267 117.753 204.24 117.739 204.21 117.732C204.181 117.724 204.15 117.722 204.12 117.726C204.09 117.73 204.061 117.741 204.035 117.756C203.952 117.802 202.036 118.941 202.04 120.848C202.04 120.978 202.142 121.08 202.272 121.08C202.295 121.08 202.323 121.07 202.346 121.066Z" fill="#776559"/>
<path d="M204.147 119.802C204.175 119.793 204.2 119.777 204.221 119.756C204.243 119.735 204.261 119.711 204.274 119.684C204.287 119.656 204.294 119.627 204.295 119.597C204.296 119.566 204.292 119.536 204.281 119.508C204.271 119.48 204.255 119.454 204.234 119.432C204.211 119.404 203.651 118.807 202.739 119.02C202.71 119.027 202.682 119.039 202.657 119.057C202.633 119.075 202.612 119.097 202.596 119.123C202.58 119.149 202.569 119.178 202.565 119.208C202.56 119.238 202.561 119.268 202.568 119.298C202.575 119.327 202.588 119.355 202.605 119.38C202.623 119.404 202.645 119.425 202.671 119.441C202.697 119.457 202.726 119.468 202.756 119.472C202.786 119.477 202.816 119.476 202.846 119.469C203.498 119.316 203.892 119.737 203.897 119.742C203.961 119.816 204.063 119.834 204.147 119.802Z" fill="#776559"/>
<path d="M196.351 113.164C196.351 113.164 196.347 115.002 198.041 115.733C199.444 116.34 200.235 116.432 200.235 116.432C200.235 116.432 199.12 121.691 201.096 122.042C203.077 122.394 201.837 117.108 204.642 116.427C204.642 116.427 205.623 116.02 205.179 114.257C204.734 112.493 202.327 107.887 196.125 109.165C191.472 110.123 187.825 113.414 188.283 116.714C188.741 120.015 189.325 119.242 189.325 119.242C189.325 119.242 188.63 117.4 190.611 115.543C192.25 114.002 196.351 113.164 196.351 113.164Z" fill="#1F1F20"/>
<path d="M203.586 159.509C203.631 159.509 203.674 159.494 203.709 159.466C203.745 159.439 203.77 159.401 203.782 159.358C203.793 159.315 203.79 159.269 203.773 159.228C203.757 159.187 203.727 159.152 203.688 159.129C203.623 159.092 202.128 158.25 200.564 158.125C200.512 158.124 200.462 158.143 200.424 158.177C200.385 158.212 200.362 158.26 200.358 158.311C200.354 158.363 200.369 158.414 200.402 158.454C200.434 158.494 200.48 158.52 200.531 158.528C202.003 158.643 203.471 159.467 203.489 159.477C203.517 159.504 203.549 159.509 203.586 159.509Z" fill="#F8AE9D"/>
<path d="M201.101 158.606C201.138 158.606 201.175 158.597 201.207 158.579C202.151 158.005 203.295 157.921 203.304 157.917C203.358 157.912 203.407 157.886 203.442 157.846C203.478 157.805 203.496 157.753 203.494 157.699C203.49 157.645 203.464 157.595 203.424 157.56C203.383 157.524 203.33 157.506 203.276 157.509C203.225 157.514 202.022 157.602 200.999 158.227C200.953 158.254 200.92 158.299 200.907 158.351C200.894 158.403 200.902 158.458 200.929 158.504C200.945 158.536 200.969 158.563 201 158.581C201.03 158.599 201.065 158.608 201.101 158.606Z" fill="#F8AE9D"/>
<path d="M206.646 135.29L199.805 160.31L202.244 157.5C201.341 157.981 200.295 158.347 199.138 158.611C197.981 158.87 196.717 159.023 195.402 159.088C194.083 159.157 192.708 159.143 191.301 159.088C189.894 159.028 188.459 158.926 187.001 158.801H186.992C184.839 158.616 182.946 160.213 182.761 162.365C182.585 164.416 184.043 166.235 186.043 166.559C187.547 166.8 189.079 167.026 190.648 167.207C192.218 167.387 193.829 167.526 195.495 167.563C197.161 167.6 198.888 167.536 200.67 167.276C202.452 167.017 204.299 166.554 206.105 165.777C206.653 165.54 207.146 165.191 207.551 164.751C207.956 164.312 208.265 163.792 208.456 163.226L208.544 162.967L216.746 138.355C217.668 135.587 216.177 132.601 213.409 131.675C210.646 130.754 207.655 132.244 206.729 135.013C206.702 135.101 206.669 135.207 206.646 135.29Z" fill="#776559"/>
<path d="M215.525 169.36L214.967 168.012L213.831 165.797C213.831 165.797 200.477 168.061 190.884 165.7L190.654 166.781C190.654 166.781 196.174 170.257 204.843 170.023C213.517 169.789 215.525 169.36 215.525 169.36Z" fill="#1F1F20"/>
<path d="M196.231 167.829H164.83L164.488 166.436C164.275 165.56 164.834 164.685 165.607 164.685H194.58C195.098 164.685 195.556 165.087 195.699 165.675L196.231 167.829Z" fill="#E1E4E5"/>
<path d="M141.707 135.305L147.076 158.014L147.22 158.611L147.581 160.139C147.656 160.46 147.838 160.747 148.097 160.952C148.356 161.157 148.676 161.268 149.006 161.268H185.182C186.126 161.268 186.83 160.384 186.612 159.463L180.738 134.629C180.662 134.307 180.48 134.021 180.222 133.816C179.963 133.611 179.642 133.499 179.312 133.499H143.137C142.188 133.504 141.489 134.388 141.707 135.305Z" fill="#3C3C41"/>
<path d="M159.283 148.358C159.454 149.923 160.861 151.187 162.426 151.187C163.99 151.187 165.115 149.918 164.944 148.358C164.773 146.794 163.365 145.53 161.801 145.53C160.236 145.53 159.111 146.794 159.283 148.358Z" fill="white"/>
<path d="M177.872 133.504L184.126 161.273H185.182C186.126 161.273 186.825 160.389 186.607 159.468L180.733 134.633C180.658 134.312 180.476 134.026 180.217 133.821C179.958 133.616 179.637 133.504 179.307 133.504H177.872ZM167.397 161.273L168.494 167.443H164.87L163.773 161.273H167.397Z" fill="#1F1F20"/>
<path d="M173.919 166.379L173.179 165.337C173.048 165.154 172.875 165.005 172.674 164.902C172.474 164.798 172.252 164.745 172.026 164.745H162.088C161.83 164.744 161.577 164.815 161.356 164.948C161.136 165.082 160.956 165.275 160.838 165.504L160.338 166.462C160.102 166.911 160.431 167.443 160.935 167.443H173.369C173.915 167.443 174.234 166.823 173.919 166.379Z" fill="#1F1F20"/>
<path d="M133.614 169.132V170.718C133.614 171.632 134.277 172.37 135.101 172.37H238.497C239.317 172.37 239.985 171.632 239.985 170.718V169.132C239.985 168.221 239.322 167.479 238.497 167.479H135.101C134.281 167.484 133.614 168.221 133.614 169.132Z" fill="white"/>
<path d="M45.3333 123.019H166.874C170.48 123.019 173.404 120.095 173.404 116.489V40.336C173.404 36.73 170.48 33.8057 166.874 33.8057H45.3333C41.7273 33.8057 38.803 36.73 38.803 40.336V116.489C38.803 120.095 41.7273 123.019 45.3333 123.019Z" fill="white" stroke="#E1E4E5" stroke-width="2.819"/>
<path d="M38.803 40.336C38.8031 40.8864 39.0217 41.4142 39.4109 41.8034C39.8001 42.1926 40.3279 42.4112 40.8783 42.4113H171.329C171.879 42.4113 172.407 42.1927 172.796 41.8035C173.185 41.4143 173.404 40.8864 173.404 40.336C173.404 36.73 170.48 33.8057 166.874 33.8057H45.3333C41.7273 33.8057 38.803 36.73 38.803 40.336Z" fill="white" stroke="#E1E4E5" stroke-width="2.819"/>
<path d="M59.0997 39.9187C58.701 39.9187 58.3186 39.7603 58.0367 39.4783C57.7547 39.1964 57.5963 38.814 57.5963 38.4153C57.5963 38.0166 57.7547 37.6342 58.0367 37.3523C58.3186 37.0704 58.701 36.912 59.0997 36.912C59.4984 36.912 59.8808 37.0704 60.1627 37.3523C60.4446 37.6342 60.603 38.0166 60.603 38.4153C60.603 38.814 60.4446 39.1964 60.1627 39.4783C59.8808 39.7603 59.4984 39.9187 59.0997 39.9187ZM52.8363 39.9187C52.4376 39.9187 52.0553 39.7603 51.7733 39.4783C51.4914 39.1964 51.333 38.814 51.333 38.4153C51.333 38.0166 51.4914 37.6342 51.7733 37.3523C52.0553 37.0704 52.4376 36.912 52.8363 36.912C53.235 36.912 53.6174 37.0704 53.8994 37.3523C54.1813 37.6342 54.3397 38.0166 54.3397 38.4153C54.3397 38.814 54.1813 39.1964 53.8994 39.4783C53.6174 39.7603 53.235 39.9187 52.8363 39.9187ZM46.8233 39.9187C46.4246 39.9187 46.0422 39.7603 45.7603 39.4783C45.4784 39.1964 45.32 38.814 45.32 38.4153C45.32 38.0166 45.4784 37.6342 45.7603 37.3523C46.0422 37.0704 46.4246 36.912 46.8233 36.912C47.222 36.912 47.6044 37.0704 47.8864 37.3523C48.1683 37.6342 48.3267 38.0166 48.3267 38.4153C48.3267 38.814 48.1683 39.1964 47.8864 39.4783C47.6044 39.7603 47.222 39.9187 46.8233 39.9187Z" fill="#E1E4E5"/>
<path d="M103.69 75.4207C102.883 76.6877 100.773 78.1637 99.277 78.1437C94.1797 78.05 92.5017 74.578 91.9517 73.3137C92.055 73.2887 92.229 73.2683 92.3527 73.2533C93.2913 73.117 94.2503 72.1883 94.5303 71.141C94.8913 69.7787 95.3353 67.114 95.2823 65.4207L101.73 68.9887C101.716 69.511 101.687 70.0328 101.641 70.5533C101.608 70.8813 101.576 71.2043 101.538 71.517C101.504 71.8001 101.466 72.0828 101.424 72.365C101.306 73.2483 101.699 74.1237 102.444 74.6107L103.69 75.4207Z" fill="#F8AE9D"/>
<path d="M104.245 61.5423C103.897 62.4557 104.043 63.493 104.397 64.4037C104.646 65.0473 105.202 64.4793 105.893 64.492C106.963 64.5097 107.798 63.397 108.444 60.447C108.855 58.282 108.959 57.1843 108.876 56.975C108.58 56.2257 107.606 55.8243 106.804 55.7537" fill="#1F1F20"/>
<path d="M105.873 55.0547C107.559 57.086 108.172 62.8013 106.749 66.7833C105.737 69.6143 104.561 71.4413 103.188 71.3833C101.104 71.295 97.064 69.5817 95.7494 68.151C93.3797 65.5747 94.0687 60.5227 94.558 57.3433C95.0024 54.454 96.3547 50.7017 99.986 51.416C102.373 51.8827 104.361 53.2303 105.873 55.0547Z" fill="#F8AE9D"/>
<path d="M96.3363 57.2983C96.71 57.7787 97.369 57.8847 97.912 57.9797C98.642 58.107 99.0033 58.373 99.382 59.087C99.622 59.5427 99.862 60.042 100.291 60.289C100.64 60.4907 100.627 59.9757 100.683 59.577C100.688 59.5422 100.695 59.5077 100.704 59.4737C100.789 59.155 101.128 59.2097 101.228 59.5237C101.319 59.806 101.514 60.045 101.761 60.1777C101.802 60.1997 101.844 60.2187 101.887 60.2103C101.946 60.2023 101.991 60.148 102.029 60.099C102.108 59.9967 102.187 59.8663 102.269 59.7287C102.537 59.276 103.043 59.4387 103.342 59.871C103.529 60.1397 103.751 60.4167 104.057 60.479C104.155 60.5007 104.279 60.4843 104.325 60.3897C104.383 60.2727 104.292 60.156 104.307 60.0367C104.32 59.9253 104.368 59.8767 104.421 59.7817C104.629 59.4123 105.104 59.399 105.397 59.7057C105.602 59.919 105.814 60.1233 106.034 60.319C106.128 60.4003 106.264 60.4817 106.358 60.4003C106.408 60.357 106.421 60.2837 106.431 60.213C106.484 59.8683 106.534 59.5237 106.588 59.179C106.618 58.9863 106.721 58.734 106.898 58.783C106.984 58.8073 107.035 58.897 107.083 58.9783C107.141 59.0813 108.179 60.2567 108.199 60.167C108.36 59.4993 108.691 58.8913 108.853 58.224C109.899 53.9277 105.259 50.473 101.716 50.454C100.928 50.4487 100.208 50.4613 99.4427 50.6433C98.627 50.8387 97.7657 51.149 97.0257 51.5857C95.9877 52.1963 95.2023 53.3063 95.4043 54.6307" fill="#1F1F20"/>
<path d="M98.005 55.8243C98.5197 56.4073 98.656 57.2273 98.704 58.002C98.7747 59.1703 98.6787 60.384 98.1387 61.421C97.9847 61.7163 97.8713 63.1773 97.634 63.0967C97.5583 63.0713 97.571 61.9383 97.3717 61.3277C97.0637 60.3817 95.6457 60.0207 95.0073 60.6187C93.9877 61.57 94.5857 62.7257 94.924 63.445C95.1257 63.879 95.4463 64.366 95.5017 64.825C95.57 65.413 95.59 67.5553 95.2067 68.055C94.886 68.474 94.5453 66.4503 94.2553 66.0517C92.1077 63.0817 90.0487 55.519 93.7153 53.8787C94.273 53.629 95.9937 53.5003 96.516 53.8183M111.581 115.941C111.793 115.976 112.007 116.007 112.229 116.014C113.41 116.052 114.551 115.792 115.704 115.595C116.718 115.421 116.993 115.325 116.973 114.102C116.797 104.409 115.371 94.7423 112.807 85.3933C112.416 83.965 111.99 82.5267 111.24 81.2497C109.961 79.072 107.024 77.1923 104.77 76.1373C104.452 75.9887 103.135 76.8263 102.815 76.6827C102.535 76.5563 102.287 76.3597 102.005 76.236C101.177 75.875 100.622 76.6297 99.9303 76.945C99.572 77.1063 99.1733 77.21 98.7797 77.1923C98.4593 77.1797 98.169 76.9853 97.8763 77.1367C96.5593 77.818 93.289 72.7613 93.289 72.7613L91.8683 74.2373L87.7223 78.58L77.3613 92.8547C77.3613 92.8547 75.4817 104.553 74.1897 112.222C73.965 113.544 73.0767 116.403 72.9003 117.405C72.938 117.188 81.7447 117.13 82.219 117.13H100.168C101.174 117.13 103.882 117.556 104.589 116.817C105.459 115.908 106.466 111.74 106.519 110.571C106.693 106.642 106.423 102.744 106.37 98.7923C106.393 100.4 106.855 101.853 107.051 103.428C107.306 105.454 107.67 107.478 107.998 109.494C108.26 111.114 108.512 112.739 108.714 114.369C108.805 115.103 108.689 115.54 109.31 115.828C109.832 116.067 110.97 115.838 111.581 115.941Z" fill="#1F1F20"/>
<path d="M107.208 112.585C106.729 112.388 103.769 111.654 102.434 111.376C101.735 111.232 98.5657 110.41 97.8313 110.41C97.097 110.41 96.0977 111.459 96.0977 111.459L96.3627 115.07C97.0693 115 98.0153 115.366 98.5227 115.436C99.03 115.507 100.753 115.517 101.813 114.985C101.874 114.954 101.929 114.922 101.985 114.889C102.411 115.267 102.946 115.636 103.539 115.666C103.539 115.666 104.003 115.618 103.958 115.431C103.938 115.34 103.63 114.871 103.322 114.412C103.776 114.874 104.518 115.623 105.374 115.666C105.374 115.666 105.838 115.618 105.792 115.431C105.767 115.32 105.323 114.657 104.965 114.129C104.97 114.134 104.977 114.137 104.98 114.142C105.356 114.472 106.249 115.613 107.307 115.666C107.307 115.666 107.771 115.618 107.725 115.431C107.71 115.363 107.534 115.083 107.319 114.758C107.589 114.964 107.92 115.184 108.321 115.383C109.464 115.949 110.115 115.52 110.115 115.383C110.118 115.245 107.688 112.782 107.208 112.585Z" fill="#F8AE9D"/>
<path d="M96.9157 108.391C96.9157 108.391 98.7577 109.436 98.5937 111.656C98.4297 113.877 97.7633 116.451 94.9826 116.181C92.202 115.913 96.9157 108.391 96.9157 108.391Z" fill="#1F1F20"/>
<path d="M95.4314 115.961C88.7647 118.275 79.8444 116.065 74.1897 112.222C70.6467 109.819 68.386 106.769 68.767 103.789C69.7537 96.047 75.8374 78.3027 81.101 75.7137C84.6794 73.9523 89.0194 73.223 91.4394 72.9303C92.575 72.7917 93.284 72.7587 93.284 72.7587L92.4057 75.2367L88.01 87.6313C87.846 94.987 82.5824 99.355 83.6297 101.068C84.6767 102.777 92.9457 104.621 97.2887 107.546C98.4897 108.358 100.014 114.235 95.4314 115.961Z" fill="#1F1F20"/>
<path d="M88.01 87.6313C88.015 89.0267 87.8206 90.4247 87.4573 91.7773C87.0916 93.1297 86.5567 94.4343 85.936 95.691C85.6247 96.3167 85.2974 96.9342 84.9543 97.543C84.6186 98.1537 84.273 98.7593 83.9903 99.3803C83.8516 99.6907 83.7303 100.011 83.6826 100.326C83.67 100.48 83.6573 100.639 83.7003 100.773C83.7103 100.846 83.753 100.902 83.7783 100.967C83.8263 101.025 83.859 101.088 83.9196 101.144C84.3713 101.596 85.0173 101.901 85.6306 102.196C88.149 103.344 90.8236 104.195 93.3723 105.34C94.6466 105.913 95.9083 106.531 97.0816 107.304L97.2986 107.45C97.3716 107.5 97.44 107.566 97.5107 107.624C97.6417 107.753 97.7553 107.894 97.846 108.048C98.033 108.353 98.159 108.686 98.2573 109.024C98.4443 109.703 98.5223 110.402 98.5273 111.101C98.482 110.407 98.366 109.713 98.1616 109.055C97.9446 108.401 97.609 107.765 96.9806 107.46C95.8023 106.728 94.538 106.145 93.256 105.608C91.9686 105.08 90.6723 104.573 89.3676 104.089C88.063 103.594 86.751 103.122 85.469 102.537C84.8383 102.224 84.1896 101.929 83.6523 101.386C83.584 101.321 83.5286 101.23 83.4706 101.152C83.4276 101.056 83.3696 100.965 83.3543 100.864C83.294 100.662 83.314 100.463 83.3316 100.273C83.3923 99.9 83.5286 99.562 83.675 99.239C83.9753 98.593 84.326 97.9897 84.6666 97.3817C85.0073 96.7737 85.3503 96.1703 85.676 95.5573C86.9753 93.1147 87.879 90.4273 88.01 87.6313Z" fill="white"/>
<path d="M105.287 76.377C104.652 77.008 101.82 79.024 99.1203 79.024C98.6713 79.024 98.1967 78.9837 97.6947 78.8903C95.4287 78.4767 93.521 76.965 92.4057 75.234C92.202 74.9156 92.0224 74.5824 91.8683 74.2373C91.673 73.8206 91.529 73.3817 91.4393 72.9303C92.5747 72.7913 93.6597 72.5063 93.8363 72.3043C94.0283 73.6267 95.6607 76.0137 98.1337 76.463C98.444 76.521 98.7367 76.5463 99.017 76.5513H99.022C99.9599 76.5716 100.884 76.3201 101.682 75.827C101.687 75.827 102.865 74.8983 102.87 74.8933L105.287 76.377Z" fill="#1F1F20"/>
<path d="M107.064 105.204C107.057 105.08 107.073 104.958 107.069 104.835C107.064 104.701 107.049 104.57 107.039 104.437L106.966 103.673C106.917 103.152 106.873 102.632 106.832 102.111C106.754 101.078 106.701 100.044 106.673 99.0087C106.619 96.939 106.649 94.865 106.788 92.8C106.827 92.2217 106.875 91.645 106.929 91.0683C106.957 90.7737 106.989 90.476 107.02 90.1813C107.052 89.8913 107.099 89.603 107.103 89.3097C107.105 89.1277 106.831 89.115 106.79 89.2843C106.669 89.7863 106.652 90.3257 106.6 90.8393C106.55 91.3552 106.506 91.8716 106.467 92.3883C106.392 93.4311 106.342 94.4755 106.317 95.5207C106.273 97.6007 106.347 99.6817 106.524 101.757C106.575 102.34 106.633 102.921 106.703 103.501C106.74 103.797 106.777 104.09 106.821 104.386C106.841 104.516 106.859 104.647 106.883 104.774C106.915 104.924 106.97 105.063 107.002 105.212C107.019 105.247 107.069 105.234 107.064 105.204Z" fill="white"/>
<path d="M106.483 64.931C106.501 64.931 106.549 64.9033 106.509 64.9033C106.488 64.9033 106.443 64.931 106.483 64.931Z" fill="#CC6144"/>
<path d="M103.121 117.355H134.182L143.526 94.1193H112.512L103.121 117.355Z" fill="#3C3C41"/>
<path d="M134.546 116.45H93.5283V117.355H134.182L134.546 116.45Z" fill="#3C3C41"/>
<path d="M127.336 105.678C127.734 104.279 126.931 103.145 125.544 103.145C124.158 103.145 122.713 104.279 122.314 105.678C121.916 107.078 122.719 108.212 124.106 108.212C125.492 108.212 126.937 107.078 127.336 105.678Z" fill="white"/>
<path fill-rule="evenodd" clip-rule="evenodd" d="M170.452 83.4887L175.952 86.7417C176.648 87.1527 176.648 88.1597 175.952 88.5707L170.452 91.8233C169.744 92.2427 168.849 91.7313 168.849 90.9083V84.404C168.849 83.581 169.744 83.0693 170.452 83.4887Z" fill="white"/>
<path fill-rule="evenodd" clip-rule="evenodd" d="M104.982 140.514H104.006C103.893 140.514 103.785 140.469 103.705 140.389C103.625 140.309 103.58 140.2 103.58 140.087V139.111C103.58 138.998 103.625 138.89 103.705 138.81C103.785 138.73 103.893 138.685 104.006 138.685H104.982C105.216 138.685 105.408 138.877 105.408 139.111V140.087C105.408 140.143 105.398 140.199 105.376 140.251C105.355 140.302 105.324 140.349 105.284 140.389C105.244 140.429 105.197 140.46 105.146 140.481C105.094 140.503 105.038 140.514 104.982 140.514ZM101.597 140.514H100.621C100.508 140.513 100.4 140.468 100.32 140.388C100.24 140.308 100.195 140.2 100.194 140.087V139.111C100.194 138.998 100.239 138.89 100.319 138.81C100.399 138.73 100.508 138.685 100.621 138.685H101.597C101.831 138.685 102.023 138.877 102.023 139.111V140.087C102.023 140.322 101.831 140.514 101.597 140.514ZM98.2096 140.514H97.2333C97.1204 140.513 97.0122 140.468 96.9323 140.388C96.8525 140.308 96.8074 140.2 96.807 140.087V139.111C96.8071 138.998 96.8521 138.89 96.9321 138.81C97.012 138.73 97.1203 138.685 97.2333 138.685H98.2096C98.4436 138.685 98.636 138.877 98.636 139.111V140.087C98.6361 140.143 98.6252 140.199 98.6038 140.251C98.5824 140.302 98.551 140.349 98.5114 140.389C98.4718 140.429 98.4247 140.46 98.3729 140.481C98.3212 140.503 98.2657 140.514 98.2096 140.514ZM94.8243 140.514H93.848C93.735 140.513 93.6268 140.468 93.547 140.388C93.4671 140.308 93.4221 140.2 93.4216 140.087V139.111C93.4218 138.998 93.4668 138.89 93.5467 138.81C93.6266 138.73 93.735 138.685 93.848 138.685H94.8243C95.0603 138.685 95.2526 138.877 95.2526 139.111V140.087C95.2514 140.2 95.2058 140.308 95.1257 140.388C95.0456 140.468 94.9373 140.513 94.8243 140.514ZM91.439 140.514H90.4626C90.3494 140.514 90.2407 140.469 90.1605 140.389C90.0802 140.309 90.0348 140.201 90.0343 140.087V139.111C90.0344 139.055 90.0455 138.999 90.0671 138.948C90.0887 138.896 90.1203 138.849 90.1601 138.809C90.1999 138.77 90.2471 138.738 90.299 138.717C90.3509 138.696 90.4065 138.685 90.4626 138.685H91.439C91.673 138.685 91.865 138.877 91.865 139.111V140.087C91.865 140.322 91.673 140.514 91.439 140.514ZM101.473 136.822H100.497C100.384 136.822 100.275 136.777 100.196 136.697C100.116 136.617 100.071 136.509 100.07 136.396V135.418C100.07 135.184 100.262 134.992 100.497 134.992H101.473C101.709 134.992 101.899 135.184 101.899 135.418V136.394C101.899 136.45 101.889 136.506 101.867 136.558C101.846 136.61 101.815 136.657 101.775 136.697C101.736 136.737 101.688 136.768 101.637 136.79C101.585 136.811 101.529 136.822 101.473 136.822ZM98.0876 136.822H97.1113C96.9983 136.822 96.8901 136.777 96.8102 136.697C96.7304 136.617 96.6853 136.509 96.685 136.396V135.418C96.685 135.184 96.877 134.992 97.1113 134.992H98.0876C98.3216 134.992 98.5136 135.184 98.5136 135.418V136.394C98.514 136.45 98.5032 136.506 98.482 136.558C98.4607 136.61 98.4294 136.657 98.3898 136.697C98.3502 136.737 98.3031 136.768 98.2513 136.79C98.1994 136.811 98.1438 136.822 98.0876 136.822ZM94.7023 136.822H93.726C93.6127 136.822 93.5041 136.777 93.4238 136.698C93.3435 136.618 93.2982 136.509 93.2976 136.396V135.418C93.2976 135.184 93.4896 134.992 93.726 134.992H94.7023C94.9363 134.992 95.1283 135.184 95.1283 135.418V136.394C95.1283 136.63 94.9363 136.822 94.7023 136.822ZM98.2096 144.479H97.2333C97.1204 144.479 97.0122 144.434 96.9323 144.354C96.8525 144.274 96.8074 144.166 96.807 144.053V143.077C96.8071 142.964 96.8521 142.855 96.9321 142.776C97.012 142.696 97.1203 142.651 97.2333 142.651H98.2096C98.4436 142.651 98.636 142.843 98.636 143.077V144.053C98.6361 144.109 98.6252 144.165 98.6038 144.216C98.5824 144.268 98.551 144.315 98.5114 144.355C98.4718 144.394 98.4247 144.426 98.3729 144.447C98.3212 144.469 98.2657 144.479 98.2096 144.479ZM94.8243 144.479H93.848C93.735 144.479 93.6268 144.434 93.547 144.354C93.4671 144.274 93.4221 144.166 93.4216 144.053V143.077C93.4218 142.964 93.4668 142.855 93.5467 142.776C93.6266 142.696 93.735 142.651 93.848 142.651H94.8243C95.0603 142.651 95.2526 142.843 95.2526 143.077V144.053C95.2514 144.166 95.2058 144.274 95.1257 144.354C95.0456 144.434 94.9373 144.479 94.8243 144.479Z" fill="#E1E4E5"/>
<path d="M242.092 65.0943C235.671 66.615 228.881 61.1703 228.881 61.1703C228.881 61.1703 232.505 53.2623 238.927 51.7463C245.347 50.2253 252.136 55.6653 252.136 55.6653C252.136 55.6653 248.512 63.5733 242.092 65.0943Z" fill="url(#paint1_linear_1_7)"/>
<path d="M249.521 135.596C253.319 138.212 259.121 136.383 259.121 136.383C259.121 136.383 258.762 130.314 254.962 127.701C251.164 125.085 245.364 126.911 245.364 126.911C245.364 126.911 245.724 132.98 249.521 135.596Z" fill="url(#paint2_linear_1_7)"/>
<path d="M128.936 159.93C131.867 162.912 137.346 162.284 137.346 162.284C137.346 162.284 138.071 156.819 135.138 153.839C132.208 150.856 126.731 151.483 126.731 151.483C126.731 151.483 126.006 156.948 128.936 159.93Z" fill="url(#paint3_linear_1_7)"/>
<path d="M232.387 107.744C230.94 107.744 229.767 108.917 229.767 110.364C229.767 111.811 230.94 112.984 232.387 112.984C233.834 112.984 235.007 111.811 235.007 110.364C235.007 108.917 233.834 107.744 232.387 107.744Z" fill="#3C3C41"/>
<path d="M59.0056 69.4407C56.4635 69.4407 54.4026 67.3798 54.4026 64.8377C54.4026 62.2955 56.4635 60.2347 59.0056 60.2347C61.5478 60.2347 63.6086 62.2955 63.6086 64.8377C63.6086 67.3798 61.5478 69.4407 59.0056 69.4407Z" fill="#3C3C41"/>
<path d="M195.622 51.3313C193.257 51.3313 191.34 49.4144 191.34 47.0497C191.34 44.685 193.257 42.768 195.622 42.768C197.987 42.768 199.904 44.685 199.904 47.0497C199.904 49.4144 197.987 51.3313 195.622 51.3313Z" fill="#3C3C41"/>
<path d="M78.681 130.45C79.9351 130.45 80.9517 131.467 80.9517 132.721C80.9517 133.975 79.9351 134.991 78.681 134.991C77.427 134.991 76.4103 133.975 76.4103 132.721C76.4103 131.467 77.427 130.45 78.681 130.45Z" fill="#3C3C41"/>
<path d="M227.269 158.013C225.143 158.013 223.418 156.289 223.418 154.162C223.418 152.035 225.143 150.311 227.269 150.311C229.396 150.311 231.12 152.035 231.12 154.162C231.12 156.289 229.396 158.013 227.269 158.013Z" fill="#E1E4E5"/>
<path d="M54.9597 111.237C53.5311 111.237 52.373 110.079 52.373 108.65C52.373 107.222 53.5311 106.064 54.9597 106.064C56.3882 106.064 57.5463 107.222 57.5463 108.65C57.5463 110.079 56.3882 111.237 54.9597 111.237Z" fill="#E1E4E5"/>
<path d="M161.896 110.338C160.794 110.338 159.901 109.444 159.901 108.342C159.901 107.24 160.794 106.346 161.896 106.346C162.999 106.346 163.892 107.24 163.892 108.342C163.892 109.444 162.999 110.338 161.896 110.338Z" fill="#E1E4E5"/>
<path d="M215.696 61.0867C214.013 61.0867 212.65 59.7229 212.65 58.0407C212.65 56.3584 214.013 54.9947 215.696 54.9947C217.378 54.9947 218.742 56.3584 218.742 58.0407C218.742 59.7229 217.378 61.0867 215.696 61.0867Z" fill="#E1E4E5"/>
<path d="M58.944 137.786C62.6097 137.786 65.5813 140.758 65.5813 144.423C65.5813 148.089 62.6097 151.061 58.944 151.061C55.2783 151.061 52.3066 148.089 52.3066 144.423C52.3066 140.758 55.2783 137.786 58.944 137.786Z" fill="url(#paint4_linear_1_7)"/>
<path d="M129.365 79.1597C127.901 79.1597 126.714 77.9729 126.714 76.509C126.714 75.0451 127.901 73.8583 129.365 73.8583C130.829 73.8583 132.015 75.0451 132.015 76.509C132.015 77.9729 130.829 79.1597 129.365 79.1597Z" fill="#E1E4E5"/>
<path d="M225.75 118.224C223.917 118.224 222.431 117.051 222.431 115.604C222.431 114.157 223.917 112.984 225.75 112.984C227.583 112.984 229.068 114.157 229.068 115.604C229.068 117.051 227.583 118.224 225.75 118.224Z" fill="white"/>
<path d="M185.82 29.7273C186.372 31.7857 185.15 33.9016 183.092 34.4531C181.033 35.0047 178.917 33.7831 178.366 31.7247C177.814 29.6662 179.036 27.5503 181.094 26.9988C183.153 26.4472 185.269 27.6688 185.82 29.7273Z" fill="#E1E4E5"/>
<path d="M107.363 152.88C107.054 151.723 107.74 150.534 108.897 150.225C110.053 149.915 111.242 150.601 111.552 151.758C111.862 152.915 111.176 154.103 110.019 154.413C108.862 154.723 107.673 154.037 107.363 152.88Z" fill="#E1E4E5"/>
<path d="M246.335 97.2637H246.388C246.704 101.739 250.032 101.808 250.032 101.808C250.032 101.808 246.362 101.88 246.362 107.051C246.362 101.88 242.692 101.808 242.692 101.808C242.692 101.808 246.019 101.739 246.335 97.2637ZM141.721 53.5974H141.813C142.357 61.429 148.089 61.5497 148.089 61.5497C148.089 61.5497 141.768 61.675 141.768 70.7244C141.768 61.675 135.447 61.5497 135.447 61.5497C135.447 61.5497 141.177 61.429 141.721 53.5974Z" fill="#E1E4E5"/>
<g clip-path="url(#clip1_1_7)">
<path d="M124.331 104.862C123.865 104.862 123.487 105.24 123.487 105.706V105.706C123.487 106.172 123.865 106.55 124.331 106.55H125.269C125.735 106.55 126.112 106.172 126.112 105.706V105.706C126.112 105.24 125.735 104.862 125.269 104.862H124.331ZM123.675 105.706C123.675 105.344 123.969 105.05 124.331 105.05H125.269C125.631 105.05 125.925 105.344 125.925 105.706V105.706C125.925 106.069 125.631 106.362 125.269 106.362H124.331C123.969 106.362 123.675 106.069 123.675 105.706V105.706ZM124.144 105.237C123.988 105.237 123.862 105.363 123.862 105.519V105.894C123.862 106.049 123.988 106.175 124.144 106.175V106.175C124.299 106.175 124.425 106.049 124.425 105.894V105.519C124.425 105.364 124.299 105.237 124.144 105.237V105.237ZM124.8 105.237C124.697 105.237 124.612 105.322 124.612 105.425V105.987C124.612 106.091 124.697 106.175 124.8 106.175H124.987V105.987H124.8V105.8H124.987V105.612H124.8V105.425H124.987V105.237H124.8ZM125.264 105.237C125.204 105.237 125.159 105.294 125.173 105.352L125.341 106.084C125.354 106.137 125.401 106.175 125.456 106.175C125.511 106.175 125.559 106.137 125.571 106.084L125.74 105.352C125.753 105.294 125.709 105.237 125.649 105.237V105.237C125.605 105.237 125.567 105.268 125.557 105.31L125.456 105.747L125.355 105.31C125.345 105.268 125.308 105.237 125.264 105.237V105.237ZM124.05 105.425H124.144C124.195 105.425 124.237 105.467 124.237 105.519V105.894C124.237 105.945 124.195 105.987 124.144 105.987H124.05V105.425Z" fill="#3C3C42"/>
</g>
<g clip-path="url(#clip2_1_7)">
<path d="M161.531 147.562C161.065 147.562 160.688 147.94 160.688 148.406V148.406C160.688 148.872 161.065 149.25 161.531 149.25H162.469C162.935 149.25 163.312 148.872 163.312 148.406V148.406C163.312 147.94 162.935 147.562 162.469 147.562H161.531ZM160.875 148.406C160.875 148.044 161.169 147.75 161.531 147.75H162.469C162.831 147.75 163.125 148.044 163.125 148.406V148.406C163.125 148.769 162.831 149.062 162.469 149.062H161.531C161.169 149.062 160.875 148.769 160.875 148.406V148.406ZM161.344 147.938C161.188 147.938 161.062 148.063 161.062 148.219V148.594C161.062 148.749 161.188 148.875 161.344 148.875V148.875C161.499 148.875 161.625 148.749 161.625 148.594V148.219C161.625 148.064 161.499 147.938 161.344 147.938V147.938ZM162 147.938C161.897 147.938 161.812 148.022 161.812 148.125V148.688C161.812 148.791 161.897 148.875 162 148.875H162.188V148.688H162V148.5H162.188V148.312H162V148.125H162.188V147.938H162ZM162.464 147.938C162.404 147.938 162.359 147.994 162.373 148.052L162.541 148.784C162.554 148.837 162.601 148.875 162.656 148.875C162.711 148.875 162.759 148.837 162.771 148.784L162.94 148.052C162.953 147.994 162.909 147.938 162.849 147.938V147.938C162.805 147.938 162.767 147.968 162.757 148.01L162.656 148.447L162.555 148.01C162.545 147.968 162.508 147.938 162.464 147.938V147.938ZM161.25 148.125H161.344C161.395 148.125 161.438 148.167 161.438 148.219V148.594C161.438 148.645 161.395 148.688 161.344 148.688H161.25V148.125Z" fill="#3C3C42"/>
</g>
</g>
<defs>
<linearGradient id="paint0_linear_1_7" x1="149.391" y1="231.557" x2="147.051" y2="-88.936" gradientUnits="userSpaceOnUse">
<stop stop-color="white"/>
<stop offset="1" stop-color="#EEEEEE"/>
</linearGradient>
<linearGradient id="paint1_linear_1_7" x1="217.915" y1="68.876" x2="274.118" y2="42.3237" gradientUnits="userSpaceOnUse">
<stop stop-color="white"/>
<stop offset="1" stop-color="#EEEEEE"/>
</linearGradient>
<linearGradient id="paint2_linear_1_7" x1="264.315" y1="144.179" x2="234.42" y2="112.655" gradientUnits="userSpaceOnUse">
<stop stop-color="white"/>
<stop offset="1" stop-color="#EEEEEE"/>
</linearGradient>
<linearGradient id="paint3_linear_1_7" x1="140.628" y1="170.117" x2="119.443" y2="136.909" gradientUnits="userSpaceOnUse">
<stop stop-color="white"/>
<stop offset="1" stop-color="#EEEEEE"/>
</linearGradient>
<linearGradient id="paint4_linear_1_7" x1="65.8643" y1="123.706" x2="65.455" y2="158.864" gradientUnits="userSpaceOnUse">
<stop stop-color="white"/>
<stop offset="1" stop-color="#EEEEEE"/>
</linearGradient>
<clipPath id="clip0_1_7">
<rect width="300" height="200" fill="white"/>
</clipPath>
<clipPath id="clip1_1_7">
<rect width="3" height="3" fill="white" transform="translate(123.3 104.3)"/>
</clipPath>
<clipPath id="clip2_1_7">
<rect width="3" height="3" fill="white" transform="translate(160.5 147)"/>
</clipPath>
</defs>
</svg>
