<svg width="300" height="205" viewBox="0 0 300 205" fill="none" xmlns="http://www.w3.org/2000/svg">
<g clip-path="url(#clip0_22_214)">
<path d="M251.91 0H0V135.507H251.91V0Z" fill="#3F3D56"/>
<path d="M47.7607 19.1043H45.5393V22.6586H47.7607V19.1043Z" fill="#3A5CCC"/>
<path d="M55.3135 18.2157H53.0921V21.77H55.3135V18.2157Z" fill="#3A5CCC"/>
<path d="M59.3121 18.2157H57.0907V21.77H59.3121V18.2157Z" fill="#3A5CCC"/>
<path d="M59.3121 28.8786H57.0907V32.4329H59.3121V28.8786Z" fill="#3A5CCC"/>
<path d="M63.755 23.5471H61.5336V27.1014H63.755V23.5471Z" fill="#3A5CCC"/>
<path d="M63.755 29.3228H61.5336V32.8771H63.755V29.3228Z" fill="#3A5CCC"/>
<path d="M59.3121 40.43H57.0907V43.9843H59.3121V40.43Z" fill="#3A5CCC"/>
<path d="M63.755 46.2057H61.5336V49.76H63.755V46.2057Z" fill="#3A5CCC"/>
<path d="M59.3121 67.9757H57.0907V71.53H59.3121V67.9757Z" fill="#3A5CCC"/>
<path d="M55.3135 46.2057H53.0921V49.76H55.3135V46.2057Z" fill="#3A5CCC"/>
<path d="M47.7607 24.88H45.5393V28.4343H47.7607V24.88Z" fill="#3A5CCC"/>
<path d="M47.7607 80.4157H45.5393V83.97H47.7607V80.4157Z" fill="#3A5CCC"/>
<path d="M47.7607 91.9671H45.5393V95.5214H47.7607V91.9671Z" fill="#3A5CCC"/>
<path d="M47.7607 97.7428H45.5393V101.297H47.7607V97.7428Z" fill="#3A5CCC"/>
<path d="M47.7607 31.1H44.6507V31.5443H47.7607V31.1Z" fill="#3A5CCC"/>
<path d="M59.7564 36.4314H56.6464V36.8757H59.7564V36.4314Z" fill="#3A5CCC"/>
<path d="M47.7607 59.5343H44.6507V59.9786H47.7607V59.5343Z" fill="#3A5CCC"/>
<path d="M47.7607 64.4214H44.6507V64.8657H47.7607V64.4214Z" fill="#3A5CCC"/>
<path d="M59.7564 92.8557H56.6464V93.3H59.7564V92.8557Z" fill="#3A5CCC"/>
<path d="M56.2021 103.519H53.0921V103.963H56.2021V103.519Z" fill="#3A5CCC"/>
<path d="M45.5392 35.0987V35.9871H46.4277V37.7643H45.5392V38.6528H47.7607V35.0987H45.5392Z" fill="#3A5CCC"/>
<path d="M53.0922 28.8787V29.7671H53.9807V31.5443H53.0922V32.4328H55.3136V28.8787H53.0922Z" fill="#3A5CCC"/>
<path d="M61.5337 34.6542V35.5429H62.4221V37.3201H61.5337V38.2086H63.7551V34.6542H61.5337Z" fill="#3A5CCC"/>
<path d="M61.5337 51.9815V52.87H62.4221V54.6472H61.5337V55.5356H63.7551V51.9815H61.5337Z" fill="#3A5CCC"/>
<path d="M61.5337 57.757V58.6458H62.4221V60.423H61.5337V61.3114H63.7551V57.757H61.5337Z" fill="#3A5CCC"/>
<path d="M61.5337 39.9857V40.8742H62.4221V42.6514H61.5337V43.5401H63.7551V39.9857H61.5337Z" fill="#3A5CCC"/>
<path d="M57.0906 23.5471V24.4358H57.9793V26.2127H57.0906V27.1015H59.3123V23.5471H57.0906Z" fill="#3A5CCC"/>
<path d="M59.3121 51.9814H57.0907V55.5357H59.3121V51.9814Z" fill="#3A5CCC"/>
<path d="M59.3121 62.6443H57.0907V66.1986H59.3121V62.6443Z" fill="#3A5CCC"/>
<path d="M57.0906 57.3128V58.2013H57.9793V59.9785H57.0906V60.8672H59.3123V57.3128H57.0906Z" fill="#3A5CCC"/>
<path d="M53.0922 34.6542V35.5429H53.9807V37.3201H53.0922V38.2086H55.3136V34.6542H53.0922Z" fill="#3A5CCC"/>
<path d="M53.0922 40.43V41.3187H53.9807V43.0956H53.0922V43.9843H55.3136V40.43H53.0922Z" fill="#3A5CCC"/>
<path d="M55.3135 57.7571H53.0921V61.3114H55.3135V57.7571Z" fill="#3A5CCC"/>
<path d="M53.0922 51.9815V52.87H53.9807V54.6472H53.0922V55.5356H55.3136V51.9815H53.0922Z" fill="#3A5CCC"/>
<path d="M55.3135 69.3086H53.0921V72.8629H55.3135V69.3086Z" fill="#3A5CCC"/>
<path d="M53.0922 63.5328V64.4213H53.9807V66.1985H53.0922V67.0872H55.3136V63.5328H53.0922Z" fill="#3A5CCC"/>
<path d="M55.3135 80.86H53.0921V84.4143H55.3135V80.86Z" fill="#3A5CCC"/>
<path d="M59.3121 79.9714H57.0907V83.5257H59.3121V79.9714Z" fill="#3A5CCC"/>
<path d="M53.0922 75.0841V75.9729H53.9807V77.7501H53.0922V78.6385H55.3136V75.0841H53.0922Z" fill="#3A5CCC"/>
<path d="M61.5337 75.0841V75.9729H62.4221V77.7501H61.5337V78.6385H63.7551V75.0841H61.5337Z" fill="#3A5CCC"/>
<path d="M86.4136 23.5471H84.1921V27.1014H86.4136V23.5471Z" fill="#3A5CCC"/>
<path d="M86.4136 29.3228H84.1921V32.8771H86.4136V29.3228Z" fill="#3A5CCC"/>
<path d="M86.4136 46.2057H84.1921V49.76H86.4136V46.2057Z" fill="#3A5CCC"/>
<path d="M84.192 34.6542V35.5429H85.0808V37.3201H84.192V38.2086H86.4134V34.6542H84.192Z" fill="#3A5CCC"/>
<path d="M84.192 51.9815V52.87H85.0808V54.6472H84.192V55.5356H86.4134V51.9815H84.192Z" fill="#3A5CCC"/>
<path d="M84.192 57.757V58.6458H85.0808V60.423H84.192V61.3114H86.4134V57.757H84.192Z" fill="#3A5CCC"/>
<path d="M84.192 39.9857V40.8742H85.0808V42.6514H84.192V43.5401H86.4134V39.9857H84.192Z" fill="#3A5CCC"/>
<path d="M84.192 75.0841V75.9729H85.0808V77.7501H84.192V78.6385H86.4134V75.0841H84.192Z" fill="#3A5CCC"/>
<path d="M55.3135 92.4114H53.0921V95.9657H55.3135V92.4114Z" fill="#3A5CCC"/>
<path d="M59.3121 85.7471H57.0907V89.3014H59.3121V85.7471Z" fill="#3A5CCC"/>
<path d="M55.3135 107.517H53.0921V111.071H55.3135V107.517Z" fill="#3A5CCC"/>
<path d="M59.3121 96.8542H57.0907V100.409H59.3121V96.8542Z" fill="#3A5CCC"/>
<path d="M53.0922 86.6357V87.5242H53.9807V89.3014H53.0922V90.1901H55.3136V86.6357H53.0922Z" fill="#3A5CCC"/>
<path d="M53.0922 113.737V114.626H53.9807V116.403H53.0922V117.291H55.3136V113.737H53.0922Z" fill="#3A5CCC"/>
<path d="M79.7493 18.2157H77.5278V21.77H79.7493V18.2157Z" fill="#3A5CCC"/>
<path d="M79.7493 46.2057H77.5278V49.76H79.7493V46.2057Z" fill="#3A5CCC"/>
<path d="M80.6378 103.519H77.5278V103.963H80.6378V103.519Z" fill="#3A5CCC"/>
<path d="M77.5278 28.8787V29.7671H78.4166V31.5443H77.5278V32.4328H79.7492V28.8787H77.5278Z" fill="#3A5CCC"/>
<path d="M77.5278 34.6542V35.5429H78.4166V37.3201H77.5278V38.2086H79.7492V34.6542H77.5278Z" fill="#3A5CCC"/>
<path d="M77.5278 40.43V41.3187H78.4166V43.0956H77.5278V43.9843H79.7492V40.43H77.5278Z" fill="#3A5CCC"/>
<path d="M79.7493 57.7571H77.5278V61.3114H79.7493V57.7571Z" fill="#3A5CCC"/>
<path d="M77.5278 51.9815V52.87H78.4166V54.6472H77.5278V55.5356H79.7492V51.9815H77.5278Z" fill="#3A5CCC"/>
<path d="M79.7493 69.3086H77.5278V72.8629H79.7493V69.3086Z" fill="#3A5CCC"/>
<path d="M77.5278 63.5328V64.4213H78.4166V66.1985H77.5278V67.0872H79.7492V63.5328H77.5278Z" fill="#3A5CCC"/>
<path d="M79.7493 80.86H77.5278V84.4143H79.7493V80.86Z" fill="#3A5CCC"/>
<path d="M77.5278 75.0841V75.9729H78.4166V77.7501H77.5278V78.6385H79.7492V75.0841H77.5278Z" fill="#3A5CCC"/>
<path d="M79.7493 92.4114H77.5278V95.9657H79.7493V92.4114Z" fill="#3A5CCC"/>
<path d="M79.7493 107.517H77.5278V111.071H79.7493V107.517Z" fill="#3A5CCC"/>
<path d="M77.5278 86.6357V87.5242H78.4166V89.3014H77.5278V90.1901H79.7492V86.6357H77.5278Z" fill="#3A5CCC"/>
<path d="M77.5278 113.737V114.626H78.4166V116.403H77.5278V117.291H79.7492V113.737H77.5278Z" fill="#3A5CCC"/>
<path d="M90.4121 18.2157H88.1907V21.77H90.4121V18.2157Z" fill="#3A5CCC"/>
<path d="M90.4121 46.2057H88.1907V49.76H90.4121V46.2057Z" fill="#3A5CCC"/>
<path d="M91.3007 103.519H88.1907V103.963H91.3007V103.519Z" fill="#3A5CCC"/>
<path d="M88.1907 28.8787V29.7671H89.0794V31.5443H88.1907V32.4328H90.4121V28.8787H88.1907Z" fill="#3A5CCC"/>
<path d="M88.1907 34.6542V35.5429H89.0794V37.3201H88.1907V38.2086H90.4121V34.6542H88.1907Z" fill="#3A5CCC"/>
<path d="M88.1907 40.43V41.3187H89.0794V43.0956H88.1907V43.9843H90.4121V40.43H88.1907Z" fill="#3A5CCC"/>
<path d="M90.4121 57.7571H88.1907V61.3114H90.4121V57.7571Z" fill="#3A5CCC"/>
<path d="M88.1907 51.9815V52.87H89.0794V54.6472H88.1907V55.5356H90.4121V51.9815H88.1907Z" fill="#3A5CCC"/>
<path d="M90.4121 69.3086H88.1907V72.8629H90.4121V69.3086Z" fill="#3A5CCC"/>
<path d="M88.1907 63.5328V64.4213H89.0794V66.1985H88.1907V67.0872H90.4121V63.5328H88.1907Z" fill="#3A5CCC"/>
<path d="M90.4121 80.86H88.1907V84.4143H90.4121V80.86Z" fill="#3A5CCC"/>
<path d="M88.1907 75.0841V75.9729H89.0794V77.7501H88.1907V78.6385H90.4121V75.0841H88.1907Z" fill="#3A5CCC"/>
<path d="M90.4121 92.4114H88.1907V95.9657H90.4121V92.4114Z" fill="#3A5CCC"/>
<path d="M90.4121 107.517H88.1907V111.071H90.4121V107.517Z" fill="#3A5CCC"/>
<path d="M88.1907 86.6357V87.5242H89.0794V89.3014H88.1907V90.1901H90.4121V86.6357H88.1907Z" fill="#3A5CCC"/>
<path d="M88.1907 113.737V114.626H89.0794V116.403H88.1907V117.291H90.4121V113.737H88.1907Z" fill="#3A5CCC"/>
<path d="M57.0906 107.517V108.406H57.9793V110.183H57.0906V111.071H59.3123V107.517H57.0906Z" fill="#3A5CCC"/>
<path d="M57.0906 113.293V114.181H57.9793V115.959H57.0906V116.847H59.3123V113.293H57.0906Z" fill="#3A5CCC"/>
<path d="M45.5392 46.2057V47.0942H46.4277V48.8714H45.5392V49.7601H47.7607V46.2057H45.5392Z" fill="#3A5CCC"/>
<path d="M45.5392 68.8644V69.7529H46.4277V71.53H45.5392V72.4185H47.7607V68.8644H45.5392Z" fill="#3A5CCC"/>
<path d="M45.5392 74.6399V75.5286H46.4277V77.3058H45.5392V78.1943H47.7607V74.6399H45.5392Z" fill="#3A5CCC"/>
<path d="M45.5392 86.1915V87.0799H46.4277V88.8571H45.5392V89.7456H47.7607V86.1915H45.5392Z" fill="#3A5CCC"/>
<path d="M45.5392 102.63V103.519H46.4277V105.296H45.5392V106.184H47.7607V102.63H45.5392Z" fill="#3A5CCC"/>
<path d="M45.5392 107.517V108.406H46.4277V110.183H45.5392V111.071H47.7607V107.517H45.5392Z" fill="#3A5CCC"/>
<path d="M70.8636 19.1043H68.6422V22.6586H70.8636V19.1043Z" fill="#3A5CCC"/>
<path d="M70.8636 24.88H68.6422V28.4343H70.8636V24.88Z" fill="#3A5CCC"/>
<path d="M70.8635 31.1H67.7535V31.5443H70.8635V31.1Z" fill="#3A5CCC"/>
<path d="M70.8635 59.5343H67.7535V59.9786H70.8635V59.5343Z" fill="#3A5CCC"/>
<path d="M70.8635 64.4214H67.7535V64.8657H70.8635V64.4214Z" fill="#3A5CCC"/>
<path d="M68.6422 35.0987V35.9871H69.5306V37.7643H68.6422V38.6528H70.8636V35.0987H68.6422Z" fill="#3A5CCC"/>
<path d="M68.6422 46.2057V47.0942H69.5306V48.8714H68.6422V49.7601H70.8636V46.2057H68.6422Z" fill="#3A5CCC"/>
<path d="M68.6422 68.8644V69.7529H69.5306V71.53H68.6422V72.4185H70.8636V68.8644H68.6422Z" fill="#3A5CCC"/>
<path d="M96.1879 57.7571H93.9664V61.3114H96.1879V57.7571Z" fill="#3A5CCC"/>
<path d="M96.1879 63.5328H93.9664V67.0871H96.1879V63.5328Z" fill="#3A5CCC"/>
<path d="M96.1878 69.7528H93.0778V70.1971H96.1878V69.7528Z" fill="#3A5CCC"/>
<path d="M96.1878 98.1871H93.0778V98.6314H96.1878V98.1871Z" fill="#3A5CCC"/>
<path d="M96.1878 103.074H93.0778V103.519H96.1878V103.074Z" fill="#3A5CCC"/>
<path d="M93.9664 73.7515V74.6399H94.8549V76.4171H93.9664V77.3058H96.1878V73.7515H93.9664Z" fill="#3A5CCC"/>
<path d="M93.9664 84.8585V85.7473H94.8549V87.5242H93.9664V88.4129H96.1878V84.8585H93.9664Z" fill="#3A5CCC"/>
<path d="M93.9664 107.517V108.406H94.8549V110.183H93.9664V111.071H96.1878V107.517H93.9664Z" fill="#3A5CCC"/>
<path d="M103.296 19.1043H101.075V22.6586H103.296V19.1043Z" fill="#3A5CCC"/>
<path d="M110.849 18.2157H108.628V21.77H110.849V18.2157Z" fill="#3A5CCC"/>
<path d="M114.848 18.2157H112.626V21.77H114.848V18.2157Z" fill="#3A5CCC"/>
<path d="M114.848 28.8786H112.626V32.4329H114.848V28.8786Z" fill="#3A5CCC"/>
<path d="M119.291 23.5471H117.069V27.1014H119.291V23.5471Z" fill="#3A5CCC"/>
<path d="M119.291 29.3228H117.069V32.8771H119.291V29.3228Z" fill="#3A5CCC"/>
<path d="M114.848 40.43H112.626V43.9843H114.848V40.43Z" fill="#3A5CCC"/>
<path d="M119.291 46.2057H117.069V49.76H119.291V46.2057Z" fill="#3A5CCC"/>
<path d="M114.848 67.9757H112.626V71.53H114.848V67.9757Z" fill="#3A5CCC"/>
<path d="M110.849 46.2057H108.628V49.76H110.849V46.2057Z" fill="#3A5CCC"/>
<path d="M103.296 24.88H101.075V28.4343H103.296V24.88Z" fill="#3A5CCC"/>
<path d="M103.296 80.4157H101.075V83.97H103.296V80.4157Z" fill="#3A5CCC"/>
<path d="M103.296 91.9671H101.075V95.5214H103.296V91.9671Z" fill="#3A5CCC"/>
<path d="M103.296 97.7428H101.075V101.297H103.296V97.7428Z" fill="#3A5CCC"/>
<path d="M103.296 31.1H100.186V31.5443H103.296V31.1Z" fill="#3A5CCC"/>
<path d="M115.292 36.4314H112.182V36.8757H115.292V36.4314Z" fill="#3A5CCC"/>
<path d="M103.296 59.5343H100.186V59.9786H103.296V59.5343Z" fill="#3A5CCC"/>
<path d="M103.296 64.4214H100.186V64.8657H103.296V64.4214Z" fill="#3A5CCC"/>
<path d="M115.292 92.8557H112.182V93.3H115.292V92.8557Z" fill="#3A5CCC"/>
<path d="M111.738 103.519H108.628V103.963H111.738V103.519Z" fill="#3A5CCC"/>
<path d="M101.075 35.0987V35.9871H101.964V37.7643H101.075V38.6528H103.296V35.0987H101.075Z" fill="#3A5CCC"/>
<path d="M108.628 28.8787V29.7671H109.516V31.5443H108.628V32.4328H110.849V28.8787H108.628Z" fill="#3A5CCC"/>
<path d="M117.069 34.6542V35.5429H117.958V37.3201H117.069V38.2086H119.291V34.6542H117.069Z" fill="#3A5CCC"/>
<path d="M117.069 51.9815V52.87H117.958V54.6472H117.069V55.5356H119.291V51.9815H117.069Z" fill="#3A5CCC"/>
<path d="M117.069 57.757V58.6458H117.958V60.423H117.069V61.3114H119.291V57.757H117.069Z" fill="#3A5CCC"/>
<path d="M117.069 39.9857V40.8742H117.958V42.6514H117.069V43.5401H119.291V39.9857H117.069Z" fill="#3A5CCC"/>
<path d="M112.626 23.5471V24.4358H113.515V26.2127H112.626V27.1015H114.848V23.5471H112.626Z" fill="#3A5CCC"/>
<path d="M114.848 51.9814H112.626V55.5357H114.848V51.9814Z" fill="#3A5CCC"/>
<path d="M114.848 62.6443H112.626V66.1986H114.848V62.6443Z" fill="#3A5CCC"/>
<path d="M112.626 57.3128V58.2013H113.515V59.9785H112.626V60.8672H114.848V57.3128H112.626Z" fill="#3A5CCC"/>
<path d="M108.628 34.6542V35.5429H109.516V37.3201H108.628V38.2086H110.849V34.6542H108.628Z" fill="#3A5CCC"/>
<path d="M108.628 40.43V41.3187H109.516V43.0956H108.628V43.9843H110.849V40.43H108.628Z" fill="#3A5CCC"/>
<path d="M110.849 57.7571H108.628V61.3114H110.849V57.7571Z" fill="#3A5CCC"/>
<path d="M108.628 51.9815V52.87H109.516V54.6472H108.628V55.5356H110.849V51.9815H108.628Z" fill="#3A5CCC"/>
<path d="M110.849 69.3086H108.628V72.8629H110.849V69.3086Z" fill="#3A5CCC"/>
<path d="M108.628 63.5328V64.4213H109.516V66.1985H108.628V67.0872H110.849V63.5328H108.628Z" fill="#3A5CCC"/>
<path d="M110.849 80.86H108.628V84.4143H110.849V80.86Z" fill="#3A5CCC"/>
<path d="M114.848 79.9714H112.626V83.5257H114.848V79.9714Z" fill="#3A5CCC"/>
<path d="M108.628 75.0841V75.9729H109.516V77.7501H108.628V78.6385H110.849V75.0841H108.628Z" fill="#3A5CCC"/>
<path d="M117.069 75.0841V75.9729H117.958V77.7501H117.069V78.6385H119.291V75.0841H117.069Z" fill="#3A5CCC"/>
<path d="M141.949 23.5471H139.728V27.1014H141.949V23.5471Z" fill="#3A5CCC"/>
<path d="M141.949 29.3228H139.728V32.8771H141.949V29.3228Z" fill="#3A5CCC"/>
<path d="M141.949 46.2057H139.728V49.76H141.949V46.2057Z" fill="#3A5CCC"/>
<path d="M139.728 34.6542V35.5429H140.616V37.3201H139.728V38.2086H141.949V34.6542H139.728Z" fill="#3A5CCC"/>
<path d="M139.728 51.9815V52.87H140.616V54.6472H139.728V55.5356H141.949V51.9815H139.728Z" fill="#3A5CCC"/>
<path d="M139.728 57.757V58.6458H140.616V60.423H139.728V61.3114H141.949V57.757H139.728Z" fill="#3A5CCC"/>
<path d="M139.728 39.9857V40.8742H140.616V42.6514H139.728V43.5401H141.949V39.9857H139.728Z" fill="#3A5CCC"/>
<path d="M139.728 75.0841V75.9729H140.616V77.7501H139.728V78.6385H141.949V75.0841H139.728Z" fill="#3A5CCC"/>
<path d="M110.849 92.4114H108.628V95.9657H110.849V92.4114Z" fill="#3A5CCC"/>
<path d="M114.848 85.7471H112.626V89.3014H114.848V85.7471Z" fill="#3A5CCC"/>
<path d="M110.849 107.517H108.628V111.071H110.849V107.517Z" fill="#3A5CCC"/>
<path d="M114.848 96.8542H112.626V100.409H114.848V96.8542Z" fill="#3A5CCC"/>
<path d="M108.628 86.6357V87.5242H109.516V89.3014H108.628V90.1901H110.849V86.6357H108.628Z" fill="#3A5CCC"/>
<path d="M108.628 113.737V114.626H109.516V116.403H108.628V117.291H110.849V113.737H108.628Z" fill="#3A5CCC"/>
<path d="M135.285 18.2157H133.064V21.77H135.285V18.2157Z" fill="#3A5CCC"/>
<path d="M135.285 46.2057H133.064V49.76H135.285V46.2057Z" fill="#3A5CCC"/>
<path d="M136.174 103.519H133.064V103.963H136.174V103.519Z" fill="#3A5CCC"/>
<path d="M133.063 28.8787V29.7671H133.952V31.5443H133.063V32.4328H135.285V28.8787H133.063Z" fill="#3A5CCC"/>
<path d="M133.063 34.6542V35.5429H133.952V37.3201H133.063V38.2086H135.285V34.6542H133.063Z" fill="#3A5CCC"/>
<path d="M133.063 40.43V41.3187H133.952V43.0956H133.063V43.9843H135.285V40.43H133.063Z" fill="#3A5CCC"/>
<path d="M135.285 57.7571H133.064V61.3114H135.285V57.7571Z" fill="#3A5CCC"/>
<path d="M133.063 51.9815V52.87H133.952V54.6472H133.063V55.5356H135.285V51.9815H133.063Z" fill="#3A5CCC"/>
<path d="M135.285 69.3086H133.064V72.8629H135.285V69.3086Z" fill="#3A5CCC"/>
<path d="M133.063 63.5328V64.4213H133.952V66.1985H133.063V67.0872H135.285V63.5328H133.063Z" fill="#3A5CCC"/>
<path d="M135.285 80.86H133.064V84.4143H135.285V80.86Z" fill="#3A5CCC"/>
<path d="M133.063 75.0841V75.9729H133.952V77.7501H133.063V78.6385H135.285V75.0841H133.063Z" fill="#3A5CCC"/>
<path d="M135.285 92.4114H133.064V95.9657H135.285V92.4114Z" fill="#3A5CCC"/>
<path d="M135.285 107.517H133.064V111.071H135.285V107.517Z" fill="#3A5CCC"/>
<path d="M133.063 86.6357V87.5242H133.952V89.3014H133.063V90.1901H135.285V86.6357H133.063Z" fill="#3A5CCC"/>
<path d="M133.063 113.737V114.626H133.952V116.403H133.063V117.291H135.285V113.737H133.063Z" fill="#3A5CCC"/>
<path d="M145.948 18.2157H143.726V21.77H145.948V18.2157Z" fill="#3A5CCC"/>
<path d="M145.948 46.2057H143.726V49.76H145.948V46.2057Z" fill="#3A5CCC"/>
<path d="M146.836 103.519H143.726V103.963H146.836V103.519Z" fill="#3A5CCC"/>
<path d="M143.726 28.8787V29.7671H144.615V31.5443H143.726V32.4328H145.948V28.8787H143.726Z" fill="#3A5CCC"/>
<path d="M143.726 34.6542V35.5429H144.615V37.3201H143.726V38.2086H145.948V34.6542H143.726Z" fill="#3A5CCC"/>
<path d="M143.726 40.43V41.3187H144.615V43.0956H143.726V43.9843H145.948V40.43H143.726Z" fill="#3A5CCC"/>
<path d="M145.948 57.7571H143.726V61.3114H145.948V57.7571Z" fill="#3A5CCC"/>
<path d="M143.726 51.9815V52.87H144.615V54.6472H143.726V55.5356H145.948V51.9815H143.726Z" fill="#3A5CCC"/>
<path d="M145.948 69.3086H143.726V72.8629H145.948V69.3086Z" fill="#3A5CCC"/>
<path d="M143.726 63.5328V64.4213H144.615V66.1985H143.726V67.0872H145.948V63.5328H143.726Z" fill="#3A5CCC"/>
<path d="M145.948 80.86H143.726V84.4143H145.948V80.86Z" fill="#3A5CCC"/>
<path d="M143.726 75.0841V75.9729H144.615V77.7501H143.726V78.6385H145.948V75.0841H143.726Z" fill="#3A5CCC"/>
<path d="M145.948 92.4114H143.726V95.9657H145.948V92.4114Z" fill="#3A5CCC"/>
<path d="M145.948 107.517H143.726V111.071H145.948V107.517Z" fill="#3A5CCC"/>
<path d="M143.726 86.6357V87.5242H144.615V89.3014H143.726V90.1901H145.948V86.6357H143.726Z" fill="#3A5CCC"/>
<path d="M143.726 113.737V114.626H144.615V116.403H143.726V117.291H145.948V113.737H143.726Z" fill="#3A5CCC"/>
<path d="M112.626 107.517V108.406H113.515V110.183H112.626V111.071H114.848V107.517H112.626Z" fill="#3A5CCC"/>
<path d="M112.626 113.293V114.181H113.515V115.959H112.626V116.847H114.848V113.293H112.626Z" fill="#3A5CCC"/>
<path d="M101.075 46.2057V47.0942H101.964V48.8714H101.075V49.7601H103.296V46.2057H101.075Z" fill="#3A5CCC"/>
<path d="M101.075 68.8644V69.7529H101.964V71.53H101.075V72.4185H103.296V68.8644H101.075Z" fill="#3A5CCC"/>
<path d="M101.075 74.6399V75.5286H101.964V77.3058H101.075V78.1943H103.296V74.6399H101.075Z" fill="#3A5CCC"/>
<path d="M101.075 86.1915V87.0799H101.964V88.8571H101.075V89.7456H103.296V86.1915H101.075Z" fill="#3A5CCC"/>
<path d="M101.075 102.63V103.519H101.964V105.296H101.075V106.184H103.296V102.63H101.075Z" fill="#3A5CCC"/>
<path d="M101.075 107.517V108.406H101.964V110.183H101.075V111.071H103.296V107.517H101.075Z" fill="#3A5CCC"/>
<path d="M126.399 19.1043H124.178V22.6586H126.399V19.1043Z" fill="#3A5CCC"/>
<path d="M126.399 24.88H124.178V28.4343H126.399V24.88Z" fill="#3A5CCC"/>
<path d="M126.399 31.1H123.289V31.5443H126.399V31.1Z" fill="#3A5CCC"/>
<path d="M126.399 59.5343H123.289V59.9786H126.399V59.5343Z" fill="#3A5CCC"/>
<path d="M126.399 64.4214H123.289V64.8657H126.399V64.4214Z" fill="#3A5CCC"/>
<path d="M124.178 35.0987V35.9871H125.067V37.7643H124.178V38.6528H126.399V35.0987H124.178Z" fill="#3A5CCC"/>
<path d="M124.178 46.2057V47.0942H125.067V48.8714H124.178V49.7601H126.399V46.2057H124.178Z" fill="#3A5CCC"/>
<path d="M124.178 68.8644V69.7529H125.067V71.53H124.178V72.4185H126.399V68.8644H124.178Z" fill="#3A5CCC"/>
<path d="M151.724 57.7571H149.502V61.3114H151.724V57.7571Z" fill="#3A5CCC"/>
<path d="M151.724 63.5328H149.502V67.0871H151.724V63.5328Z" fill="#3A5CCC"/>
<path d="M151.724 69.7528H148.614V70.1971H151.724V69.7528Z" fill="#3A5CCC"/>
<path d="M151.724 98.1871H148.614V98.6314H151.724V98.1871Z" fill="#3A5CCC"/>
<path d="M151.724 103.074H148.614V103.519H151.724V103.074Z" fill="#3A5CCC"/>
<path d="M149.502 73.7515V74.6399H150.391V76.4171H149.502V77.3058H151.723V73.7515H149.502Z" fill="#3A5CCC"/>
<path d="M149.502 84.8585V85.7473H150.391V87.5242H149.502V88.4129H151.723V84.8585H149.502Z" fill="#3A5CCC"/>
<path d="M149.502 107.517V108.406H150.391V110.183H149.502V111.071H151.723V107.517H149.502Z" fill="#3A5CCC"/>
<path d="M158.832 19.1043H156.611V22.6586H158.832V19.1043Z" fill="#3A5CCC"/>
<path d="M166.385 18.2157H164.164V21.77H166.385V18.2157Z" fill="#3A5CCC"/>
<path d="M170.384 18.2157H168.162V21.77H170.384V18.2157Z" fill="#3A5CCC"/>
<path d="M170.384 28.8786H168.162V32.4329H170.384V28.8786Z" fill="#3A5CCC"/>
<path d="M174.826 23.5471H172.605V27.1014H174.826V23.5471Z" fill="#3A5CCC"/>
<path d="M174.826 29.3228H172.605V32.8771H174.826V29.3228Z" fill="#3A5CCC"/>
<path d="M170.384 40.43H168.162V43.9843H170.384V40.43Z" fill="#3A5CCC"/>
<path d="M174.826 46.2057H172.605V49.76H174.826V46.2057Z" fill="#3A5CCC"/>
<path d="M170.384 67.9757H168.162V71.53H170.384V67.9757Z" fill="#3A5CCC"/>
<path d="M166.385 46.2057H164.164V49.76H166.385V46.2057Z" fill="#3A5CCC"/>
<path d="M158.832 24.88H156.611V28.4343H158.832V24.88Z" fill="#3A5CCC"/>
<path d="M158.832 80.4157H156.611V83.97H158.832V80.4157Z" fill="#3A5CCC"/>
<path d="M158.832 91.9671H156.611V95.5214H158.832V91.9671Z" fill="#3A5CCC"/>
<path d="M158.832 97.7428H156.611V101.297H158.832V97.7428Z" fill="#3A5CCC"/>
<path d="M158.832 31.1H155.722V31.5443H158.832V31.1Z" fill="#3A5CCC"/>
<path d="M170.828 36.4314H167.718V36.8757H170.828V36.4314Z" fill="#3A5CCC"/>
<path d="M158.832 59.5343H155.722V59.9786H158.832V59.5343Z" fill="#3A5CCC"/>
<path d="M158.832 64.4214H155.722V64.8657H158.832V64.4214Z" fill="#3A5CCC"/>
<path d="M170.828 92.8557H167.718V93.3H170.828V92.8557Z" fill="#3A5CCC"/>
<path d="M167.274 103.519H164.164V103.963H167.274V103.519Z" fill="#3A5CCC"/>
<path d="M156.611 35.0987V35.9871H157.499V37.7643H156.611V38.6528H158.832V35.0987H156.611Z" fill="#3A5CCC"/>
<path d="M164.164 28.8787V29.7671H165.052V31.5443H164.164V32.4328H166.385V28.8787H164.164Z" fill="#3A5CCC"/>
<path d="M172.605 34.6542V35.5429H173.493V37.3201H172.605V38.2086H174.826V34.6542H172.605Z" fill="#3A5CCC"/>
<path d="M172.605 51.9815V52.87H173.493V54.6472H172.605V55.5356H174.826V51.9815H172.605Z" fill="#3A5CCC"/>
<path d="M172.605 57.757V58.6458H173.493V60.423H172.605V61.3114H174.826V57.757H172.605Z" fill="#3A5CCC"/>
<path d="M172.605 39.9857V40.8742H173.493V42.6514H172.605V43.5401H174.826V39.9857H172.605Z" fill="#3A5CCC"/>
<path d="M168.162 23.5471V24.4358H169.051V26.2127H168.162V27.1015H170.384V23.5471H168.162Z" fill="#3A5CCC"/>
<path d="M170.384 51.9814H168.162V55.5357H170.384V51.9814Z" fill="#3A5CCC"/>
<path d="M170.384 62.6443H168.162V66.1986H170.384V62.6443Z" fill="#3A5CCC"/>
<path d="M168.162 57.3128V58.2013H169.051V59.9785H168.162V60.8672H170.384V57.3128H168.162Z" fill="#3A5CCC"/>
<path d="M164.164 34.6542V35.5429H165.052V37.3201H164.164V38.2086H166.385V34.6542H164.164Z" fill="#3A5CCC"/>
<path d="M164.164 40.43V41.3187H165.052V43.0956H164.164V43.9843H166.385V40.43H164.164Z" fill="#3A5CCC"/>
<path d="M166.385 57.7571H164.164V61.3114H166.385V57.7571Z" fill="#3A5CCC"/>
<path d="M164.164 51.9815V52.87H165.052V54.6472H164.164V55.5356H166.385V51.9815H164.164Z" fill="#3A5CCC"/>
<path d="M166.385 69.3086H164.164V72.8629H166.385V69.3086Z" fill="#3A5CCC"/>
<path d="M164.164 63.5328V64.4213H165.052V66.1985H164.164V67.0872H166.385V63.5328H164.164Z" fill="#3A5CCC"/>
<path d="M166.385 80.86H164.164V84.4143H166.385V80.86Z" fill="#3A5CCC"/>
<path d="M170.384 79.9714H168.162V83.5257H170.384V79.9714Z" fill="#3A5CCC"/>
<path d="M164.164 75.0841V75.9729H165.052V77.7501H164.164V78.6385H166.385V75.0841H164.164Z" fill="#3A5CCC"/>
<path d="M172.605 75.0841V75.9729H173.493V77.7501H172.605V78.6385H174.826V75.0841H172.605Z" fill="#3A5CCC"/>
<path d="M197.485 23.5471H195.264V27.1014H197.485V23.5471Z" fill="#3A5CCC"/>
<path d="M197.485 29.3228H195.264V32.8771H197.485V29.3228Z" fill="#3A5CCC"/>
<path d="M197.485 46.2057H195.264V49.76H197.485V46.2057Z" fill="#3A5CCC"/>
<path d="M195.264 34.6542V35.5429H196.152V37.3201H195.264V38.2086H197.485V34.6542H195.264Z" fill="#3A5CCC"/>
<path d="M195.264 51.9815V52.87H196.152V54.6472H195.264V55.5356H197.485V51.9815H195.264Z" fill="#3A5CCC"/>
<path d="M195.264 57.757V58.6458H196.152V60.423H195.264V61.3114H197.485V57.757H195.264Z" fill="#3A5CCC"/>
<path d="M195.264 39.9857V40.8742H196.152V42.6514H195.264V43.5401H197.485V39.9857H195.264Z" fill="#3A5CCC"/>
<path d="M195.264 75.0841V75.9729H196.152V77.7501H195.264V78.6385H197.485V75.0841H195.264Z" fill="#3A5CCC"/>
<path d="M166.385 92.4114H164.164V95.9657H166.385V92.4114Z" fill="#3A5CCC"/>
<path d="M170.384 85.7471H168.162V89.3014H170.384V85.7471Z" fill="#3A5CCC"/>
<path d="M166.385 107.517H164.164V111.071H166.385V107.517Z" fill="#3A5CCC"/>
<path d="M170.384 96.8542H168.162V100.409H170.384V96.8542Z" fill="#3A5CCC"/>
<path d="M164.164 86.6357V87.5242H165.052V89.3014H164.164V90.1901H166.385V86.6357H164.164Z" fill="#3A5CCC"/>
<path d="M164.164 113.737V114.626H165.052V116.403H164.164V117.291H166.385V113.737H164.164Z" fill="#3A5CCC"/>
<path d="M190.821 18.2157H188.599V21.77H190.821V18.2157Z" fill="#3A5CCC"/>
<path d="M190.821 46.2057H188.599V49.76H190.821V46.2057Z" fill="#3A5CCC"/>
<path d="M191.709 103.519H188.599V103.963H191.709V103.519Z" fill="#3A5CCC"/>
<path d="M188.599 28.8787V29.7671H189.488V31.5443H188.599V32.4328H190.821V28.8787H188.599Z" fill="#3A5CCC"/>
<path d="M188.599 34.6542V35.5429H189.488V37.3201H188.599V38.2086H190.821V34.6542H188.599Z" fill="#3A5CCC"/>
<path d="M188.599 40.43V41.3187H189.488V43.0956H188.599V43.9843H190.821V40.43H188.599Z" fill="#3A5CCC"/>
<path d="M190.821 57.7571H188.599V61.3114H190.821V57.7571Z" fill="#3A5CCC"/>
<path d="M188.599 51.9815V52.87H189.488V54.6472H188.599V55.5356H190.821V51.9815H188.599Z" fill="#3A5CCC"/>
<path d="M190.821 69.3086H188.599V72.8629H190.821V69.3086Z" fill="#3A5CCC"/>
<path d="M188.599 63.5328V64.4213H189.488V66.1985H188.599V67.0872H190.821V63.5328H188.599Z" fill="#3A5CCC"/>
<path d="M190.821 80.86H188.599V84.4143H190.821V80.86Z" fill="#3A5CCC"/>
<path d="M188.599 75.0841V75.9729H189.488V77.7501H188.599V78.6385H190.821V75.0841H188.599Z" fill="#3A5CCC"/>
<path d="M190.821 92.4114H188.599V95.9657H190.821V92.4114Z" fill="#3A5CCC"/>
<path d="M190.821 107.517H188.599V111.071H190.821V107.517Z" fill="#3A5CCC"/>
<path d="M188.599 86.6357V87.5242H189.488V89.3014H188.599V90.1901H190.821V86.6357H188.599Z" fill="#3A5CCC"/>
<path d="M188.599 113.737V114.626H189.488V116.403H188.599V117.291H190.821V113.737H188.599Z" fill="#3A5CCC"/>
<path d="M201.484 18.2157H199.262V21.77H201.484V18.2157Z" fill="#3A5CCC"/>
<path d="M201.484 46.2057H199.262V49.76H201.484V46.2057Z" fill="#3A5CCC"/>
<path d="M202.372 103.519H199.262V103.963H202.372V103.519Z" fill="#3A5CCC"/>
<path d="M199.262 28.8787V29.7671H200.151V31.5443H199.262V32.4328H201.484V28.8787H199.262Z" fill="#3A5CCC"/>
<path d="M199.262 34.6542V35.5429H200.151V37.3201H199.262V38.2086H201.484V34.6542H199.262Z" fill="#3A5CCC"/>
<path d="M199.262 40.43V41.3187H200.151V43.0956H199.262V43.9843H201.484V40.43H199.262Z" fill="#3A5CCC"/>
<path d="M201.484 57.7571H199.262V61.3114H201.484V57.7571Z" fill="#3A5CCC"/>
<path d="M199.262 51.9815V52.87H200.151V54.6472H199.262V55.5356H201.484V51.9815H199.262Z" fill="#3A5CCC"/>
<path d="M201.484 69.3086H199.262V72.8629H201.484V69.3086Z" fill="#3A5CCC"/>
<path d="M199.262 63.5328V64.4213H200.151V66.1985H199.262V67.0872H201.484V63.5328H199.262Z" fill="#3A5CCC"/>
<path d="M201.484 80.86H199.262V84.4143H201.484V80.86Z" fill="#3A5CCC"/>
<path d="M199.262 75.0841V75.9729H200.151V77.7501H199.262V78.6385H201.484V75.0841H199.262Z" fill="#3A5CCC"/>
<path d="M201.484 92.4114H199.262V95.9657H201.484V92.4114Z" fill="#3A5CCC"/>
<path d="M201.484 107.517H199.262V111.071H201.484V107.517Z" fill="#3A5CCC"/>
<path d="M199.262 86.6357V87.5242H200.151V89.3014H199.262V90.1901H201.484V86.6357H199.262Z" fill="#3A5CCC"/>
<path d="M199.262 113.737V114.626H200.151V116.403H199.262V117.291H201.484V113.737H199.262Z" fill="#3A5CCC"/>
<path d="M168.162 107.517V108.406H169.051V110.183H168.162V111.071H170.384V107.517H168.162Z" fill="#3A5CCC"/>
<path d="M168.162 113.293V114.181H169.051V115.959H168.162V116.847H170.384V113.293H168.162Z" fill="#3A5CCC"/>
<path d="M156.611 46.2057V47.0942H157.499V48.8714H156.611V49.7601H158.832V46.2057H156.611Z" fill="#3A5CCC"/>
<path d="M156.611 68.8644V69.7529H157.499V71.53H156.611V72.4185H158.832V68.8644H156.611Z" fill="#3A5CCC"/>
<path d="M156.611 74.6399V75.5286H157.499V77.3058H156.611V78.1943H158.832V74.6399H156.611Z" fill="#3A5CCC"/>
<path d="M156.611 86.1915V87.0799H157.499V88.8571H156.611V89.7456H158.832V86.1915H156.611Z" fill="#3A5CCC"/>
<path d="M156.611 102.63V103.519H157.499V105.296H156.611V106.184H158.832V102.63H156.611Z" fill="#3A5CCC"/>
<path d="M156.611 107.517V108.406H157.499V110.183H156.611V111.071H158.832V107.517H156.611Z" fill="#3A5CCC"/>
<path d="M181.935 19.1043H179.714V22.6586H181.935V19.1043Z" fill="#3A5CCC"/>
<path d="M181.935 24.88H179.714V28.4343H181.935V24.88Z" fill="#3A5CCC"/>
<path d="M181.935 31.1H178.825V31.5443H181.935V31.1Z" fill="#3A5CCC"/>
<path d="M181.935 59.5343H178.825V59.9786H181.935V59.5343Z" fill="#3A5CCC"/>
<path d="M181.935 64.4214H178.825V64.8657H181.935V64.4214Z" fill="#3A5CCC"/>
<path d="M179.713 35.0987V35.9871H180.602V37.7643H179.713V38.6528H181.935V35.0987H179.713Z" fill="#3A5CCC"/>
<path d="M179.713 46.2057V47.0942H180.602V48.8714H179.713V49.7601H181.935V46.2057H179.713Z" fill="#3A5CCC"/>
<path d="M179.713 68.8644V69.7529H180.602V71.53H179.713V72.4185H181.935V68.8644H179.713Z" fill="#3A5CCC"/>
<path d="M207.259 57.7571H205.038V61.3114H207.259V57.7571Z" fill="#3A5CCC"/>
<path d="M207.259 63.5328H205.038V67.0871H207.259V63.5328Z" fill="#3A5CCC"/>
<path d="M207.259 69.7528H204.149V70.1971H207.259V69.7528Z" fill="#3A5CCC"/>
<path d="M207.259 98.1871H204.149V98.6314H207.259V98.1871Z" fill="#3A5CCC"/>
<path d="M207.259 103.074H204.149V103.519H207.259V103.074Z" fill="#3A5CCC"/>
<path d="M205.038 73.7515V74.6399H205.926V76.4171H205.038V77.3058H207.259V73.7515H205.038Z" fill="#3A5CCC"/>
<path d="M205.038 84.8585V85.7473H205.926V87.5242H205.038V88.4129H207.259V84.8585H205.038Z" fill="#3A5CCC"/>
<path d="M205.038 107.517V108.406H205.926V110.183H205.038V111.071H207.259V107.517H205.038Z" fill="#3A5CCC"/>
<path d="M300 203.409H61.7351V204.145H300V203.409Z" fill="#2F2E41"/>
<path d="M110.984 116.408V131.379L113 140.592C113 140.592 112.712 146.349 113 148.077C113.287 149.804 112.712 152.683 110.984 152.683C109.257 152.683 108.393 157.002 108.393 157.002C108.393 157.002 107.817 158.729 106.378 159.017C104.938 159.305 104.938 159.017 104.938 159.017L103.787 161.896L79.8914 177.73L84.4978 189.246C84.4978 189.246 91.6952 186.655 92.271 185.791C92.8468 184.928 97.741 186.943 97.741 184.928C97.741 182.912 98.6047 177.73 100.332 177.442C102.059 177.154 116.454 170.533 116.454 170.533C116.454 170.533 123.94 162.184 124.515 159.017C125.091 155.85 127.682 146.925 127.682 146.925L134.88 159.017V183.2L133.728 196.156L146.396 194.428C146.396 194.428 145.244 186.367 146.396 185.216C147.547 184.064 149.275 170.245 148.123 168.518C146.971 166.79 148.699 159.017 148.123 157.865C147.547 156.714 147.835 148.365 146.396 146.062C144.956 143.758 136.319 120.151 136.319 120.151L110.984 116.408Z" fill="#2F2E41"/>
<path d="M135.456 195.58C135.456 195.58 131.137 202.777 134.016 203.641C136.895 204.505 142.365 203.641 142.941 203.641C143.517 203.641 153.881 203.929 153.881 203.929C153.881 203.929 160.791 202.489 160.791 200.474C160.791 198.459 156.472 198.459 155.033 198.171C153.593 197.883 144.668 194.428 144.668 194.428L135.456 195.58Z" fill="#2F2E41"/>
<path d="M81.2136 178.055C81.2136 178.055 72.8927 176.953 73.2444 179.938C73.5962 182.923 76.5629 187.599 76.7918 188.128C76.9468 188.486 78.7651 193.016 79.9227 195.903C80.7594 198.019 82.0165 199.944 83.618 201.56C84.7498 202.692 85.9834 203.599 86.7924 203.248C88.6417 202.447 86.9252 198.484 86.6172 197.049C86.3093 195.614 85.9321 186.051 85.9321 186.051L81.2136 178.055Z" fill="#2F2E41"/>
<path d="M139.054 68.7612L148.267 47.4568C148.267 47.4568 147.403 45.4415 145.388 45.7294C145.388 45.7294 142.653 38.676 137.471 38.676C137.471 38.676 129.698 34.3575 127.394 38.676C127.394 38.676 122.5 42.9944 122.788 47.025C123.076 51.0555 123.364 53.9345 123.364 53.9345C123.364 53.9345 118.758 54.5103 119.621 56.8135C120.485 59.1166 120.773 59.1166 119.621 59.9803L118.47 60.844C118.47 60.844 94.5742 82.4363 107.817 114.105L108.969 118.999V123.606C108.969 123.606 138.047 123.893 138.047 123.606C138.047 123.318 137.471 121.59 138.622 120.439C139.774 119.287 139.774 117.56 139.774 117.56C139.774 117.56 138.622 111.802 139.198 110.074C139.774 108.347 140.062 100.862 138.91 99.1343C137.759 97.407 138.335 83.5879 138.335 83.5879L140.926 78.6936L140.062 75.8147L139.198 72.9357L139.054 68.7612Z" fill="#8985A8"/>
<path opacity="0.1" d="M136.607 126.485C136.607 126.485 133.152 116.984 133.44 115.257C133.728 113.529 132.865 110.074 132.865 110.074L131.713 86.7548C131.713 86.7548 136.607 66.0262 125.667 62.5714C125.667 62.5714 122.899 63.7793 120.631 67.6663C118.388 68.6654 115.666 71.1937 115.015 77.5421C113.863 88.77 119.045 117.56 121.637 122.454C124.228 127.348 125.955 130.803 125.955 130.803L128.663 129.599C128.775 129.821 128.834 129.939 128.834 129.939L136.607 126.485Z" fill="black"/>
<path d="M138.191 66.1701C138.668 66.1701 139.054 65.7834 139.054 65.3064C139.054 64.8294 138.668 64.4427 138.191 64.4427C137.714 64.4427 137.327 64.8294 137.327 65.3064C137.327 65.7834 137.714 66.1701 138.191 66.1701Z" fill="#F2F2F2"/>
<path d="M138.479 65.3064H137.903V78.8376H138.479V65.3064Z" fill="#3F3D56"/>
<path d="M127.826 127.492L130.129 132.386C130.129 132.386 135.312 130.659 135.312 129.795C135.312 128.932 133.008 125.189 133.008 125.189L127.826 127.492Z" fill="#FFB8B8"/>
<path d="M124.515 62.5714C124.515 62.5714 117.894 65.4504 116.742 76.6784C115.591 87.9064 120.773 116.696 123.364 121.59C125.955 126.485 127.682 129.939 127.682 129.939L135.456 126.485C135.456 126.485 132.001 116.984 132.289 115.257C132.577 113.529 131.713 110.074 131.713 110.074L130.561 86.7548C130.561 86.7548 135.456 66.0262 124.515 62.5714Z" fill="#8985A8"/>
</g>
<defs>
<clipPath id="clip0_22_214">
<rect width="300" height="204.145" fill="white"/>
</clipPath>
</defs>
</svg>
